<?xml version="1.0" encoding="utf-8"?>
<!-- Generator: Adobe Illustrator 25.4.1, SVG Export Plug-In . SVG Version: 6.00 Build 0)  -->
<svg version="1.1" xmlns="http://www.w3.org/2000/svg" xmlns:xlink="http://www.w3.org/1999/xlink" x="0px" y="0px"
	 viewBox="0 0 1275.5905762 850.3936768" style="enable-background:new 0 0 1275.5905762 850.3936768;" xml:space="preserve">
<style type="text/css">
	.st0{opacity:0.56;}
	.st1{fill:#00AEEF;}
	.st2{fill:#F15A29;}
	.st3{fill:#FFF200;}
	.st4{fill:#00A651;}
	.st5{fill:none;stroke:#C49A6C;stroke-width:0.2834646;stroke-miterlimit:10;stroke-dasharray:2.8346457,2.8346457;}
	.st6{fill:#C49A6C;}
	.st7{fill:none;stroke:#C49A6C;stroke-miterlimit:10;stroke-dasharray:2.8346457,2.8346457;}
	.st8{fill:none;stroke:#00AEEF;stroke-width:0.7086614;stroke-miterlimit:10;}
	.st9{fill:none;stroke:#F7941D;stroke-width:0.7086614;stroke-miterlimit:10;}
	.st10{fill:none;stroke:#F7941D;stroke-width:0.7086614;stroke-miterlimit:10;stroke-dasharray:2.8346457,2.8346457;}
	.st11{fill:none;stroke:#00A14B;stroke-width:0.7086614;stroke-miterlimit:10;}
	.st12{fill:none;stroke:#EC008C;stroke-width:0.7086614;stroke-miterlimit:10;}
	.st13{fill:none;stroke:#000000;stroke-miterlimit:10;}
	.st14{fill:none;stroke:#F7941D;stroke-width:0.7086614;stroke-miterlimit:10;stroke-dasharray:2.7910357,2.7910357;}
	.st15{fill:none;stroke:#F7941D;stroke-width:0.7086614;stroke-miterlimit:10;stroke-dasharray:2.7968504,2.7968504;}
	.st16{fill:none;stroke:#2E3192;stroke-width:0.7086614;stroke-miterlimit:10;}
	.st17{fill:none;stroke:#00A14B;stroke-width:0.2834646;}
	.st18{fill:none;stroke:#00A14B;stroke-width:0.2834646;stroke-miterlimit:10;}
	.st19{fill:none;stroke:#000000;stroke-width:0.7086614;stroke-miterlimit:10;}
</style>
<g id="PCBa">
</g>
<g id="よこなが">
	<path class="st19" d="M379.8425293,249.448822H17.0078735C7.6146846,249.448822,0,241.834137,0,232.4409485V17.0078735
		C0,7.6146846,7.6146846,0,17.0078735,0h362.8346558c9.3931885,0,17.0078735,7.6146846,17.0078735,17.0078735v215.433075
		C396.8504028,241.834137,389.2357178,249.448822,379.8425293,249.448822z"/>
	<g>
		<path class="st18" d="M307.8991699,161.3783875h-3.5205078v-0.2202148h8.0302734v1.6499023
			c0,1.1367188-0.1669922,1.9526367-0.5009766,2.4477539c-0.3330078,0.4946289-0.8818359,0.7421875-1.6445312,0.7421875
			c-0.8066406,0-1.4023438-0.2509766-1.7871094-0.753418c-0.3857422-0.5024414-0.5771484-1.277832-0.5771484-2.3261719V161.3783875z
			 M312.1882324,162.808075v-1.4296875h-4.0693359v1.5400391c0,0.9897461,0.171875,1.7138672,0.5166016,2.1723633
			c0.3447266,0.4580078,0.8867188,0.6875,1.6279297,0.6875c0.4189453,0,0.7587891-0.0732422,1.0234375-0.2202148
			c0.2636719-0.1464844,0.4794922-0.4438477,0.6494141-0.8911133
			C312.104248,164.219696,312.1882324,163.6000671,312.1882324,162.808075z"/>
		<path class="st18" d="M305.0661621,167.4281921c0.5322266-0.4624023,1.2558594-0.6933594,2.1728516-0.6933594
			c0.9160156,0,1.640625,0.230957,2.171875,0.6933594c0.53125,0.4619141,0.7978516,1.0922852,0.7978516,1.8916016
			s-0.2666016,1.4301758-0.7978516,1.8920898s-1.2558594,0.6928711-2.171875,0.6928711
			c-0.9169922,0-1.640625-0.230957-2.1728516-0.6928711s-0.7978516-1.0927734-0.7978516-1.8920898
			S304.5339355,167.8901062,305.0661621,167.4281921z M305.2253418,167.5873718
			c-0.4912109,0.421875-0.7363281,0.9990234-0.7363281,1.7324219s0.2451172,1.3110352,0.7363281,1.7329102
			c0.4921875,0.4213867,1.1621094,0.6323242,2.0136719,0.6323242c0.8496094,0,1.5214844-0.2109375,2.0126953-0.6323242
			c0.4912109-0.421875,0.7373047-0.9995117,0.7373047-1.7329102s-0.2460938-1.3105469-0.7373047-1.7324219
			s-1.1630859-0.6323242-2.0126953-0.6323242C306.3874512,166.9550476,305.7175293,167.1654968,305.2253418,167.5873718z"/>
		<path class="st18" d="M309.8894043,176.723114v-0.0219727l-5.5107422-1.6938477v-0.3300781l5.7197266-1.8149414v0.230957
			l-5.5107422,1.737793v0.0219727l5.5107422,1.6943359v0.3300781l-5.5107422,1.6938477v0.0219727l5.5107422,1.737793v0.2314453
			l-5.7197266-1.8154297V178.41745L309.8894043,176.723114z"/>
		<path class="st18" d="M307.1843262,181.7392273c-0.84375,0.0073242-1.5039062,0.2255859-1.9804688,0.6542969
			c-0.4765625,0.4291992-0.7148438,1.0175781-0.7148438,1.765625c0,0.6450195,0.1601562,1.2319336,0.484375,1.7597656
			l-0.1992188,0.1103516c-0.3369141-0.5722656-0.5058594-1.1953125-0.5058594-1.8701172
			c0-0.8139648,0.265625-1.4575195,0.7978516-1.9306641c0.5322266-0.4726562,1.2558594-0.7094727,2.1728516-0.7094727
			c0.9306641,0,1.6582031,0.2236328,2.1835938,0.6708984c0.5234375,0.4472656,0.7861328,1.0673828,0.7861328,1.859375
			c0,0.7329102-0.2548828,1.3012695-0.7646484,1.7050781c-0.5097656,0.402832-1.2265625,0.6049805-2.1503906,0.6049805h-0.109375
			V181.7392273z M307.4030762,181.7392273v4.3891602c0.8359375-0.0151367,1.4765625-0.2001953,1.9199219-0.5556641
			c0.4433594-0.355957,0.6660156-0.8637695,0.6660156-1.5234375c0-0.7114258-0.2265625-1.2670898-0.6767578-1.6665039
			C308.861084,181.9828796,308.2253418,181.7685242,307.4030762,181.7392273z"/>
		<path class="st18" d="M308.4597168,188.0307312v0.0219727c0.5205078,0.2348633,0.9423828,0.6176758,1.265625,1.1499023
			c0.3222656,0.53125,0.4833984,1.1308594,0.4833984,1.7983398h-0.2197266c0-0.8212891-0.2480469-1.5219727-0.7421875-2.1010742
			c-0.4960938-0.5795898-1.0917969-0.8691406-1.7880859-0.8691406h-3.0800781v-0.2197266h5.7197266v0.2197266H308.4597168z"/>
	</g>
	<g>
		<path class="st18" d="M237.4175415,44.364727c0-0.6235352-0.1357422-1.109375-0.4072266-1.4575195
			c-0.2714844-0.3486328-0.6484375-0.5224609-1.1328125-0.5224609c-0.9023438,0-1.5625,0.6708984-1.9804688,2.0126953
			c-0.2490234,0.7993164-0.5644531,1.3789062-0.9453125,1.7382812c-0.3808594,0.3588867-0.8730469,0.5390625-1.4746094,0.5390625
			c-0.6738281,0-1.1914062-0.2001953-1.5507812-0.5996094c-0.359375-0.3999023-0.5390625-0.9702148-0.5390625-1.7104492
			c0-0.909668,0.2568359-1.6796875,0.7705078-2.3100586l0.1757812,0.1318359
			c-0.4833984,0.6010742-0.7255859,1.3271484-0.7255859,2.1782227c0,0.6816406,0.1591797,1.2006836,0.4785156,1.5561523
			c0.3183594,0.355957,0.7822266,0.5336914,1.390625,0.5336914c0.5507812,0,0.9960938-0.1650391,1.3369141-0.4951172
			s0.6289062-0.8725586,0.8642578-1.6279297c0.4472656-1.4448242,1.1796875-2.1669922,2.1992188-2.1669922
			c0.5351562,0,0.9628906,0.1923828,1.28125,0.5776367c0.3193359,0.3847656,0.4785156,0.9257812,0.4785156,1.6225586
			c0,0.7993164-0.1835938,1.5327148-0.5498047,2.199707l-0.1865234-0.1098633
			C237.2446899,45.8383598,237.4175415,45.1415825,237.4175415,44.364727z"/>
		<path class="st18" d="M232.3032837,48.1264458c-0.84375,0.0073242-1.5039062,0.2255859-1.9804688,0.6542969
			c-0.4765625,0.4291992-0.7148438,1.0175781-0.7148438,1.765625c0,0.6450195,0.1601562,1.2319336,0.484375,1.7597656
			l-0.1992188,0.1103516c-0.3369141-0.5722656-0.5058594-1.1953125-0.5058594-1.8701172
			c0-0.8139648,0.265625-1.4575195,0.7978516-1.9306641c0.5322266-0.4726562,1.2558594-0.7094727,2.1728516-0.7094727
			c0.9306641,0,1.6582031,0.2236328,2.1835938,0.6708984c0.5234375,0.4472656,0.7861328,1.0673828,0.7861328,1.859375
			c0,0.7329102-0.2548828,1.3012695-0.7646484,1.7050781c-0.5097656,0.402832-1.2265625,0.6049805-2.1503906,0.6049805h-0.109375
			V48.1264458z M232.5220337,48.1264458v4.3891602c0.8359375-0.0151367,1.4765625-0.2001953,1.9199219-0.5556641
			c0.4433594-0.355957,0.6660156-0.8637695,0.6660156-1.5234375c0-0.7114258-0.2265625-1.2670898-0.6767578-1.6665039
			C233.9800415,48.3700981,233.3442993,48.1557426,232.5220337,48.1264458z"/>
		<path class="st18" d="M233.8091431,54.4179497v0.0219727c0.4550781,0.190918,0.8222656,0.4692383,1.1005859,0.8364258
			c0.2783203,0.3662109,0.4179688,0.7768555,0.4179688,1.2319336c0,0.6962891-0.1904297,1.2006836-0.5722656,1.512207
			s-0.9970703,0.4677734-1.8476562,0.4677734h-3.4101562v-0.2202148h3.4101562c0.7919922,0,1.3564453-0.1357422,1.6943359-0.4067383
			c0.3369141-0.2714844,0.5058594-0.7226562,0.5058594-1.3530273c0-0.5795898-0.2363281-1.0727539-0.7099609-1.4794922
			c-0.4726562-0.4072266-1.0429688-0.6108398-1.7099609-0.6108398h-3.1904297v-0.2197266h5.7197266v0.2197266H233.8091431z"/>
		<path class="st18" d="M234.8872681,63.79002l-0.1972656-0.0986328c0.2783203-0.5869141,0.4179688-1.1772461,0.4179688-1.7709961
			c0-0.5209961-0.1103516-0.9350586-0.3300781-1.2431641c-0.2207031-0.3081055-0.5136719-0.4619141-0.8808594-0.4619141
			c-0.3300781,0-0.5996094,0.1210938-0.8085938,0.362793c-0.2089844,0.2421875-0.3789062,0.6967773-0.5107422,1.3642578
			c-0.1396484,0.7036133-0.3388672,1.215332-0.5996094,1.5341797c-0.2607422,0.3193359-0.6103516,0.4785156-1.0498047,0.4785156
			c-0.4775391,0-0.8535156-0.1831055-1.1279297-0.5498047c-0.2753906-0.3666992-0.4130859-0.8618164-0.4130859-1.4848633
			c0-0.6748047,0.1835938-1.3164062,0.5507812-1.925293l0.1865234,0.1098633
			c-0.3447266,0.5649414-0.5166016,1.1699219-0.5166016,1.8154297c0,0.5571289,0.1171875,0.9990234,0.3515625,1.3251953
			s0.5566406,0.4897461,0.96875,0.4897461c0.3808594,0,0.6835938-0.1430664,0.90625-0.4291992
			c0.2246094-0.2861328,0.3984375-0.7553711,0.5234375-1.4077148c0.1318359-0.6748047,0.3164062-1.1606445,0.5546875-1.4575195
			c0.2382812-0.2973633,0.5664062-0.4458008,0.984375-0.4458008c0.4335938,0,0.7792969,0.1743164,1.0400391,0.5224609
			s0.390625,0.815918,0.390625,1.402832C235.3276978,62.5580864,235.1802368,63.1816216,234.8872681,63.79002z"/>
		<path class="st18" d="M230.1851196,65.8256683c0.5322266-0.4624023,1.2558594-0.6933594,2.1728516-0.6933594
			c0.9160156,0,1.640625,0.230957,2.171875,0.6933594c0.53125,0.4619141,0.7978516,1.0922852,0.7978516,1.8916016
			s-0.2666016,1.4301758-0.7978516,1.8920898s-1.2558594,0.6928711-2.171875,0.6928711
			c-0.9169922,0-1.640625-0.230957-2.1728516-0.6928711s-0.7978516-1.0927734-0.7978516-1.8920898
			S229.6528931,66.2875824,230.1851196,65.8256683z M230.3442993,65.984848
			c-0.4912109,0.421875-0.7363281,0.9990234-0.7363281,1.7324219s0.2451172,1.3110352,0.7363281,1.7329102
			c0.4921875,0.4213867,1.1621094,0.6323242,2.0136719,0.6323242c0.8496094,0,1.5214844-0.2109375,2.0126953-0.6323242
			c0.4912109-0.421875,0.7373047-0.9995117,0.7373047-1.7329102s-0.2460938-1.3105469-0.7373047-1.7324219
			s-1.1630859-0.6323242-2.0126953-0.6323242C231.5064087,65.3525238,230.8364868,65.562973,230.3442993,65.984848z"/>
		<path class="st18" d="M233.5786743,71.9189301v0.0219727c0.5205078,0.2348633,0.9423828,0.6176758,1.265625,1.1499023
			c0.3222656,0.53125,0.4833984,1.1308594,0.4833984,1.7983398h-0.2197266c0-0.8212891-0.2480469-1.5219727-0.7421875-2.1010742
			c-0.4960938-0.5795898-1.0917969-0.8691406-1.7880859-0.8691406h-3.0800781v-0.2197266h5.7197266v0.2197266H233.5786743z"/>
		<path class="st18" d="M237.4175415,81.6318207c0-0.6235352-0.1357422-1.109375-0.4072266-1.4575195
			c-0.2714844-0.3486328-0.6484375-0.5224609-1.1328125-0.5224609c-0.9023438,0-1.5625,0.6708984-1.9804688,2.0126953
			c-0.2490234,0.7993164-0.5644531,1.3789062-0.9453125,1.7382812c-0.3808594,0.3588867-0.8730469,0.5390625-1.4746094,0.5390625
			c-0.6738281,0-1.1914062-0.2001953-1.5507812-0.5996094c-0.359375-0.3999023-0.5390625-0.9702148-0.5390625-1.7104492
			c0-0.909668,0.2568359-1.6796875,0.7705078-2.3100586l0.1757812,0.1318359
			c-0.4833984,0.6010742-0.7255859,1.3271484-0.7255859,2.1782227c0,0.6816406,0.1591797,1.2006836,0.4785156,1.5561523
			c0.3183594,0.355957,0.7822266,0.5336914,1.390625,0.5336914c0.5507812,0,0.9960938-0.1650391,1.3369141-0.4951172
			s0.6289062-0.8725586,0.8642578-1.6279297c0.4472656-1.4448242,1.1796875-2.1669922,2.1992188-2.1669922
			c0.5351562,0,0.9628906,0.1923828,1.28125,0.5776367c0.3193359,0.3847656,0.4785156,0.9257812,0.4785156,1.6225586
			c0,0.7993164-0.1835938,1.5327148-0.5498047,2.199707l-0.1865234-0.1098633
			C237.2446899,83.1054535,237.4175415,82.4086761,237.4175415,81.6318207z"/>
		<path class="st18" d="M229.7622681,88.7270355l-0.2089844,0.0766602
			c-0.1113281-0.3076172-0.1660156-0.6376953-0.1660156-0.9897461c0-0.5649414,0.1171875-0.9536133,0.3525391-1.1660156
			c0.234375-0.2128906,0.6669922-0.3188477,1.2978516-0.3188477h3.7402344v-1.375h0.2197266v1.375h2.0898438v0.2197266h-2.0898438
			v2.3652344h-0.2197266v-2.3652344h-3.7402344c-0.5869141,0-0.9716797,0.0898438-1.1552734,0.2695312
			c-0.1826172,0.1796875-0.2744141,0.5117188-0.2744141,0.9956055
			C229.6079712,88.128891,229.6587524,88.4335785,229.7622681,88.7270355z"/>
		<path class="st18" d="M230.7622681,94.3368988v-0.0219727c-0.4248047-0.190918-0.7607422-0.4770508-1.0058594-0.8579102
			c-0.2460938-0.3818359-0.3691406-0.8251953-0.3691406-1.3310547c0-0.550293,0.1503906-0.9902344,0.4511719-1.3203125
			s0.7001953-0.4946289,1.1992188-0.4946289c0.6445312,0,1.1455078,0.2915039,1.5019531,0.8745117
			c0.3554688,0.5830078,0.5332031,1.409668,0.5332031,2.4804688v0.659668h0.0546875
			c0.7480469,0,1.265625-0.1264648,1.5507812-0.3793945c0.2861328-0.2529297,0.4296875-0.7133789,0.4296875-1.3803711
			c0-0.6894531-0.1728516-1.3310547-0.5175781-1.925293l0.1875-0.1098633
			c0.3662109,0.6308594,0.5498047,1.309082,0.5498047,2.0351562s-0.1611328,1.2373047-0.4833984,1.5341797
			c-0.3232422,0.2973633-0.8955078,0.4458008-1.7167969,0.4458008h-2.0898438c-0.5136719,0-1.0273438,0.0546875-1.5400391,0.1650391
			v-0.2202148C229.9517212,94.3954926,230.3735962,94.344223,230.7622681,94.3368988z M231.0376587,90.5307465
			c-0.4394531,0-0.7890625,0.1430664-1.0449219,0.4291992c-0.2568359,0.2856445-0.3847656,0.6743164-0.3847656,1.1660156
			c0,0.6376953,0.2070312,1.1640625,0.6210938,1.578125c0.4140625,0.4145508,0.9404297,0.621582,1.578125,0.621582h1.0449219
			v-0.659668c0-0.9975586-0.1572266-1.7695312-0.4726562-2.315918S231.6167603,90.5307465,231.0376587,90.5307465z"/>
		<path class="st18" d="M229.7622681,99.550766l-0.2089844,0.0766602c-0.1113281-0.3076172-0.1660156-0.6376953-0.1660156-0.9897461
			c0-0.5649414,0.1171875-0.9536133,0.3525391-1.1660156c0.234375-0.2128906,0.6669922-0.3188477,1.2978516-0.3188477h3.7402344
			v-1.375h0.2197266v1.375h2.0898438v0.2197266h-2.0898438v2.3652344h-0.2197266v-2.3652344h-3.7402344
			c-0.5869141,0-0.9716797,0.0898438-1.1552734,0.2695312c-0.1826172,0.1796875-0.2744141,0.5117188-0.2744141,0.9956055
			C229.6079712,98.9526215,229.6587524,99.257309,229.7622681,99.550766z"/>
		<path class="st18" d="M232.3032837,101.2446136c-0.84375,0.0073242-1.5039062,0.2255859-1.9804688,0.6542969
			c-0.4765625,0.4291992-0.7148438,1.0175781-0.7148438,1.765625c0,0.6450195,0.1601562,1.2319336,0.484375,1.7597656
			l-0.1992188,0.1103516c-0.3369141-0.5722656-0.5058594-1.1953125-0.5058594-1.8701172
			c0-0.8139648,0.265625-1.4575195,0.7978516-1.9306641c0.5322266-0.4726562,1.2558594-0.7094727,2.1728516-0.7094727
			c0.9306641,0,1.6582031,0.2236328,2.1835938,0.6708984c0.5234375,0.4472656,0.7861328,1.0673828,0.7861328,1.859375
			c0,0.7329102-0.2548828,1.3012695-0.7646484,1.7050781c-0.5097656,0.402832-1.2265625,0.6049805-2.1503906,0.6049805h-0.109375
			V101.2446136z M232.5220337,101.2446136v4.3891602c0.8359375-0.0151367,1.4765625-0.2001953,1.9199219-0.5556641
			c0.4433594-0.355957,0.6660156-0.8637695,0.6660156-1.5234375c0-0.7114258-0.2265625-1.2670898-0.6767578-1.6665039
			C233.9800415,101.488266,233.3442993,101.2739105,232.5220337,101.2446136z"/>
	</g>
	<g>
		<path class="st18" d="M90.9992218,166.3711853h-7.8105469v4.3999023h-0.2197266v-4.6201172h8.0302734V166.3711853z"/>
		<path class="st18" d="M82.9689484,172.9380798h5.7197266v0.2202148h-5.7197266V172.9380798z M90.0089874,172.9380798h1.2099609
			v0.2202148h-1.2099609V172.9380798z"/>
		<path class="st18" d="M87.7433624,179.6695251h0.9453125v0.2202148h-1.8691406
			c-0.5800781,0-1.0371094-0.1982422-1.3701172-0.5942383c-0.3339844-0.3959961-0.5009766-0.9311523-0.5009766-1.605957
			c0-0.5644531,0.1210938-1.0375977,0.3632812-1.4189453c-0.1904297-0.2270508-0.4033203-0.3408203-0.6376953-0.3408203
			c-0.1181641,0-0.2177734,0.0234375-0.3027344,0.0712891s-0.1708984,0.1376953-0.2587891,0.2695312
			c-0.0878906,0.1323242-0.1533203,0.3413086-0.1972656,0.6269531c-0.0449219,0.2861328-0.0664062,0.6416016-0.0664062,1.0673828
			c0,0.8066406-0.1308594,1.4023438-0.390625,1.7871094c-0.2597656,0.3852539-0.6621094,0.5776367-1.2041016,0.5776367
			c-0.5576172,0-0.9990234-0.2421875-1.3251953-0.7260742s-0.4902344-1.1401367-0.4902344-1.96875
			c0-0.7553711,0.1503906-1.3569336,0.4511719-1.8041992s0.7011719-0.6708984,1.1992188-0.6708984
			c0.3447266,0,0.6777344,0.1118164,1.0009766,0.3354492s0.5712891,0.5039062,0.7480469,0.8413086
			c0.1611328-0.4179688,0.4404297-0.6269531,0.8359375-0.6269531c0.2783203,0,0.5351562,0.125,0.7705078,0.3740234
			c0.3300781-0.3959961,0.7871094-0.59375,1.375-0.59375c0.5859375,0,1.0625,0.1943359,1.4296875,0.5830078
			c0.3662109,0.3886719,0.5498047,0.8911133,0.5498047,1.5068359c0,1.0048828-0.3525391,1.6938477-1.0556641,2.0678711V179.6695251z
			 M82.2541046,180.1099548c0.1826172,0,0.3466797-0.0239258,0.4892578-0.0717773s0.2861328-0.1411133,0.4296875-0.2802734
			c0.1425781-0.1396484,0.2539062-0.359375,0.3349609-0.6601562s0.1210938-0.6782227,0.1210938-1.1328125
			c0-0.5429688,0.0361328-0.9755859,0.1103516-1.2983398c-0.1171875-0.359375-0.3359375-0.6635742-0.6542969-0.9130859
			c-0.3203125-0.2490234-0.6513672-0.3740234-0.9960938-0.3740234c-0.4326172,0-0.7792969,0.2036133-1.0390625,0.6108398
			c-0.2607422,0.4067383-0.390625,0.9550781-0.390625,1.6445312c0,0.7626953,0.1425781,1.3657227,0.4287109,1.8095703
			C81.3742218,179.8877869,81.7628937,180.1099548,82.2541046,180.1099548z M88.0890656,176.2320251
			c-0.3261719-0.3481445-0.75-0.5224609-1.2695312-0.5224609c-0.5214844,0-0.9257812,0.1743164-1.2167969,0.5224609
			c-0.2890625,0.3486328-0.4335938,0.8344727-0.4335938,1.4575195c0,0.6088867,0.1464844,1.0908203,0.4394531,1.4467773
			c0.2929688,0.3554688,0.6972656,0.5332031,1.2109375,0.5332031c0.5351562,0,0.9619141-0.1904297,1.28125-0.5717773
			c0.3183594-0.3813477,0.4785156-0.887207,0.4785156-1.5180664
			C88.5792999,177.0298767,88.4152374,176.580658,88.0890656,176.2320251z"/>
		<path class="st18" d="M87.2804718,182.111908v0.0219727c0.4550781,0.1904297,0.8222656,0.4692383,1.1005859,0.8359375
			s0.4179688,0.7773438,0.4179688,1.2319336c0,0.6894531-0.1904297,1.1918945-0.5722656,1.5073242
			c-0.3818359,0.3149414-0.9970703,0.4726562-1.8476562,0.4726562h-3.4101562v-0.2197266h3.4101562
			c0.7919922,0,1.3564453-0.1357422,1.6943359-0.4072266c0.3369141-0.2714844,0.5058594-0.722168,0.5058594-1.3530273
			c0-0.5791016-0.2363281-1.0722656-0.7099609-1.4794922c-0.4726562-0.4067383-1.0429688-0.6103516-1.7099609-0.6103516h-3.1904297
			v-0.2202148h8.25v0.2202148H87.2804718z"/>
		<path class="st18" d="M83.2335968,191.1871033l-0.2089844,0.0766602
			c-0.1113281-0.3076172-0.1660156-0.6376953-0.1660156-0.9897461c0-0.5649414,0.1171875-0.9536133,0.3525391-1.1660156
			c0.234375-0.2128906,0.6669922-0.3188477,1.2978516-0.3188477h3.7402344v-1.375h0.2197266v1.375h2.0898438v0.2197266h-2.0898438
			v2.3652344h-0.2197266v-2.3652344h-3.7402344c-0.5869141,0-0.9716797,0.0898438-1.1552734,0.2695312
			c-0.1826172,0.1796875-0.2744141,0.5117188-0.2744141,0.9956055
			C83.0792999,190.5889587,83.1300812,190.8936462,83.2335968,191.1871033z"/>
	</g>
	<g>
		<path class="st18" d="M366.6306152,111.9955139v-0.0219727l-7.7988281-2.4199219v-0.3520508l7.7988281-2.4199219v-0.0219727
			l-7.7988281-1.012207v-0.2197266l8.0302734,1.0449219v0.3740234l-7.8105469,2.4199219v0.0219727l7.8105469,2.4199219v0.3740234
			l-8.0302734,1.0454102v-0.2202148L366.6306152,111.9955139z"/>
		<path class="st18" d="M359.5192871,114.8778381c0.5322266-0.4624023,1.2558594-0.6933594,2.1728516-0.6933594
			c0.9160156,0,1.640625,0.230957,2.171875,0.6933594c0.53125,0.4619141,0.7978516,1.0922852,0.7978516,1.8916016
			s-0.2666016,1.4301758-0.7978516,1.8920898s-1.2558594,0.6928711-2.171875,0.6928711
			c-0.9169922,0-1.640625-0.230957-2.1728516-0.6928711s-0.7978516-1.0927734-0.7978516-1.8920898
			S358.9870605,115.3397522,359.5192871,114.8778381z M359.6784668,115.0370178
			c-0.4912109,0.421875-0.7363281,0.9990234-0.7363281,1.7324219s0.2451172,1.3110352,0.7363281,1.7329102
			c0.4921875,0.4213867,1.1621094,0.6323242,2.0136719,0.6323242c0.8496094,0,1.5214844-0.2109375,2.0126953-0.6323242
			c0.4912109-0.421875,0.7373047-0.9995117,0.7373047-1.7329102s-0.2460938-1.3105469-0.7373047-1.7324219
			s-1.1630859-0.6323242-2.0126953-0.6323242C360.8405762,114.4046936,360.1706543,114.6151428,359.6784668,115.0370178z"/>
		<path class="st18" d="M361.6921387,120.5316467c0.9160156,0,1.640625,0.2070312,2.171875,0.621582
			c0.53125,0.4140625,0.7978516,0.9770508,0.7978516,1.6884766c0,1.0263672-0.4550781,1.7158203-1.3642578,2.0678711v0.0219727
			h3.7841797v0.2202148h-8.25v-0.2202148h1.2539062v-0.0219727c-0.9091797-0.3520508-1.3642578-1.0415039-1.3642578-2.0678711
			c0-0.71875,0.2626953-1.2836914,0.7871094-1.6943359C360.0319824,120.7367249,360.760498,120.5316467,361.6921387,120.5316467z
			 M358.9421387,122.8417053c0,0.6669922,0.2158203,1.1826172,0.6484375,1.5454102s1.0410156,0.5444336,1.8261719,0.5444336
			h0.5498047c0.7841797,0,1.3935547-0.1816406,1.8261719-0.5444336s0.6494141-0.878418,0.6494141-1.5454102
			c0-0.6455078-0.2480469-1.1552734-0.7421875-1.5292969c-0.4960938-0.3740234-1.1650391-0.5610352-2.0078125-0.5610352
			c-0.8652344,0-1.5410156,0.1855469-2.0244141,0.5556641S358.9421387,122.1888733,358.9421387,122.8417053z"/>
		<path class="st18" d="M361.6374512,126.8236389c-0.84375,0.0073242-1.5039062,0.2255859-1.9804688,0.6542969
			c-0.4765625,0.4291992-0.7148438,1.0175781-0.7148438,1.765625c0,0.6450195,0.1601562,1.2319336,0.484375,1.7597656
			l-0.1992188,0.1103516c-0.3369141-0.5722656-0.5058594-1.1953125-0.5058594-1.8701172
			c0-0.8139648,0.265625-1.4575195,0.7978516-1.9306641c0.5322266-0.4726562,1.2558594-0.7094727,2.1728516-0.7094727
			c0.9306641,0,1.6582031,0.2236328,2.1835938,0.6708984c0.5234375,0.4472656,0.7861328,1.0673828,0.7861328,1.859375
			c0,0.7329102-0.2548828,1.3012695-0.7646484,1.7050781c-0.5097656,0.402832-1.2265625,0.6049805-2.1503906,0.6049805h-0.109375
			V126.8236389z M361.8562012,126.8236389v4.3891602c0.8359375-0.0151367,1.4765625-0.2001953,1.9199219-0.5556641
			c0.4433594-0.355957,0.6660156-0.8637695,0.6660156-1.5234375c0-0.7114258-0.2265625-1.2670898-0.6767578-1.6665039
			C363.314209,127.0672913,362.6784668,126.8529358,361.8562012,126.8236389z"/>
	</g>
	<g>
		<path class="st18" d="M313.5318298,128.4312744h-0.0224609c-0.0878906,0.2270508-0.2470703,0.4199219-0.4785156,0.5776367
			c-0.2304688,0.1572266-0.6289062,0.3608398-1.1933594,0.6103516l-2.3095703,1.0341797v-0.2421875l2.2216797-0.9897461
			c0.359375-0.1616211,0.6269531-0.2900391,0.8027344-0.3852539c0.1767578-0.0952148,0.3359375-0.1923828,0.4785156-0.2915039
			c0.1435547-0.0991211,0.2373047-0.2216797,0.28125-0.3686523c0.0439453-0.1464844,0.0742188-0.2949219,0.09375-0.4453125
			c0.0175781-0.1503906,0.0273438-0.3793945,0.0273438-0.6875v-1.3198242h-3.9052734v-0.2202148h8.0302734v1.5400391
			c0,0.3154297-0.0117188,0.6030273-0.0332031,0.8632812s-0.0703125,0.5410156-0.1425781,0.8417969
			c-0.0742188,0.300293-0.1728516,0.5537109-0.296875,0.7587891c-0.125,0.2055664-0.3007812,0.3779297-0.5292969,0.5170898
			c-0.2265625,0.1391602-0.4980469,0.2089844-0.8134766,0.2089844c-0.6376953,0-1.1367188-0.1611328-1.4951172-0.4838867
			C313.8872986,129.6265869,313.6490173,129.1207275,313.5318298,128.4312744z M313.6529236,125.9234619v1.3198242
			c0,1.0488281,0.1669922,1.8056641,0.5009766,2.2714844c0.3330078,0.4658203,0.8632812,0.6987305,1.5888672,0.6987305
			c0.5283203,0,0.9257812-0.2329102,1.1943359-0.6987305c0.2675781-0.4658203,0.4003906-1.2226562,0.4003906-2.2714844v-1.3198242
			H313.6529236z"/>
		<path class="st18" d="M317.558197,137.2750244h-0.2207031v-2.75h-7.8095703v-0.2197266h7.8095703v-2.75h0.2207031V137.2750244z"/>
	</g>
	<g>
		<path class="st18" d="M317.558197,106.50914c0-0.6235352-0.1357422-1.109375-0.4072266-1.4575195
			c-0.2714844-0.3486328-0.6484375-0.5224609-1.1328125-0.5224609c-0.9023438,0-1.5625,0.6708984-1.9804688,2.0126953
			c-0.2490234,0.7993164-0.5644531,1.3789062-0.9453125,1.7382812c-0.3808594,0.3588867-0.8730469,0.5390625-1.4746094,0.5390625
			c-0.6738281,0-1.1914062-0.2001953-1.5507812-0.5996094c-0.359375-0.3999023-0.5390625-0.9702148-0.5390625-1.7104492
			c0-0.909668,0.2568359-1.6796875,0.7705078-2.3100586l0.1757812,0.1318359
			c-0.4833984,0.6010742-0.7255859,1.3271484-0.7255859,2.1782227c0,0.6816406,0.1591797,1.2006836,0.4785156,1.5561523
			c0.3183594,0.355957,0.7822266,0.5336914,1.390625,0.5336914c0.5507812,0,0.9960938-0.1650391,1.3369141-0.4951172
			s0.6289062-0.8725586,0.8642578-1.6279297c0.4472656-1.4448242,1.1796875-2.1669922,2.1992188-2.1669922
			c0.5351562,0,0.9628906,0.1923828,1.28125,0.5776367c0.3193359,0.3847656,0.4785156,0.9257812,0.4785156,1.6225586
			c0,0.7993164-0.1835938,1.5327148-0.5498047,2.199707l-0.1865234-0.1098633
			C317.3853455,107.9827728,317.558197,107.2859955,317.558197,106.50914z"/>
		<path class="st18" d="M317.6685486,110.765976h-7.8105469v4.3999023h-0.2197266v-4.6201172h8.0302734V110.765976z"/>
	</g>
	<g>
		<path class="st18" d="M310.6665955,45.6734352c-0.7587891-0.7080078-1.1386719-1.637207-1.1386719-2.7885742
			s0.3798828-2.0810547,1.1386719-2.7885742c0.7597656-0.7075195,1.7548828-1.0615234,2.9863281-1.0615234
			c1.2324219,0,2.2285156,0.3540039,2.9863281,1.0615234c0.7597656,0.7075195,1.1386719,1.637207,1.1386719,2.7885742
			s-0.3789062,2.0805664-1.1386719,2.7885742c-0.7578125,0.7075195-1.7539062,1.0615234-2.9863281,1.0615234
			C312.4214783,46.7349586,311.4263611,46.3809547,310.6665955,45.6734352z M310.8267517,40.2559547
			c-0.71875,0.6669922-1.078125,1.543457-1.078125,2.6289062s0.359375,1.9614258,1.078125,2.6289062
			s1.6601562,1.0009766,2.8261719,1.0009766s2.1083984-0.3334961,2.8271484-1.0009766s1.078125-1.543457,1.078125-2.6289062
			s-0.359375-1.9619141-1.078125-2.6289062c-0.71875-0.6674805-1.6611328-1.0009766-2.8271484-1.0009766
			S311.5455017,39.5884743,310.8267517,40.2559547z"/>
		<path class="st18" d="M309.8697205,53.6319313h7.7988281v0.2197266h-8.0302734v-0.3520508l7.7988281-5.015625v-0.0219727
			h-7.7988281v-0.2202148h8.0302734v0.3520508l-7.7988281,5.0161133V53.6319313z"/>
	</g>
	<g>
		<path class="st18" d="M84.5529327,46.6137505h-0.0224609c-0.0878906,0.2270508-0.2470703,0.4199219-0.4785156,0.5776367
			c-0.2304688,0.1572266-0.6289062,0.3608398-1.1933594,0.6103516l-2.3095703,1.0341797v-0.2421875l2.2216797-0.9897461
			c0.359375-0.1616211,0.6269531-0.2900391,0.8027344-0.3852539c0.1767578-0.0952148,0.3359375-0.1923828,0.4785156-0.2915039
			c0.1435547-0.0991211,0.2373047-0.2216797,0.28125-0.3686523c0.0439453-0.1464844,0.0742188-0.2949219,0.09375-0.4453125
			c0.0175781-0.1503906,0.0273438-0.3793945,0.0273438-0.6875V44.105938h-3.9052734v-0.2202148h8.0302734v1.5400391
			c0,0.3154297-0.0117188,0.6030273-0.0332031,0.8632812s-0.0703125,0.5410156-0.1425781,0.8417969
			c-0.0742188,0.300293-0.1728516,0.5537109-0.296875,0.7587891c-0.125,0.2055664-0.3007812,0.3779297-0.5292969,0.5170898
			c-0.2265625,0.1391602-0.4980469,0.2089844-0.8134766,0.2089844c-0.6376953,0-1.1367188-0.1611328-1.4951172-0.4838867
			C84.9084015,47.809063,84.6701202,47.3032036,84.5529327,46.6137505z M84.6740265,44.105938v1.3198242
			c0,1.0488281,0.1669922,1.8056641,0.5009766,2.2714844c0.3330078,0.4658203,0.8632812,0.6987305,1.5888672,0.6987305
			c0.5283203,0,0.9257812-0.2329102,1.1943359-0.6987305c0.2675781-0.4658203,0.4003906-1.2226562,0.4003906-2.2714844V44.105938
			H84.6740265z"/>
		<path class="st18" d="M83.3546906,49.902813c-0.84375,0.0073242-1.5039062,0.2255859-1.9804688,0.6542969
			c-0.4765625,0.4291992-0.7148438,1.0175781-0.7148438,1.765625c0,0.6450195,0.1601562,1.2319336,0.484375,1.7597656
			l-0.1992188,0.1103516c-0.3369141-0.5722656-0.5058594-1.1953125-0.5058594-1.8701172
			c0-0.8139648,0.265625-1.4575195,0.7978516-1.9306641c0.5322266-0.4726562,1.2558594-0.7094727,2.1728516-0.7094727
			c0.9306641,0,1.6582031,0.2236328,2.1835938,0.6708984c0.5234375,0.4472656,0.7861328,1.0673828,0.7861328,1.859375
			c0,0.7329102-0.2548828,1.3012695-0.7646484,1.7050781c-0.5097656,0.402832-1.2265625,0.6049805-2.1503906,0.6049805h-0.109375
			V49.902813z M83.5734406,49.902813v4.3891602c0.8359375-0.0151367,1.4765625-0.2001953,1.9199219-0.5556641
			c0.4433594-0.355957,0.6660156-0.8637695,0.6660156-1.5234375c0-0.7114258-0.2265625-1.2670898-0.6767578-1.6665039
			C85.0314484,50.1464653,84.3957062,49.9321098,83.5734406,49.902813z"/>
		<path class="st18" d="M80.5490265,56.524395h8.25v0.2202148h-8.25V56.524395z"/>
		<path class="st18" d="M83.3546906,58.911602c-0.84375,0.0073242-1.5039062,0.2255859-1.9804688,0.6542969
			c-0.4765625,0.4291992-0.7148438,1.0175781-0.7148438,1.765625c0,0.6450195,0.1601562,1.2319336,0.484375,1.7597656
			l-0.1992188,0.1103516c-0.3369141-0.5722656-0.5058594-1.1953125-0.5058594-1.8701172
			c0-0.8139648,0.265625-1.4575195,0.7978516-1.9306641c0.5322266-0.4726562,1.2558594-0.7094727,2.1728516-0.7094727
			c0.9306641,0,1.6582031,0.2236328,2.1835938,0.6708984c0.5234375,0.4472656,0.7861328,1.0673828,0.7861328,1.859375
			c0,0.7329102-0.2548828,1.3012695-0.7646484,1.7050781c-0.5097656,0.402832-1.2265625,0.6049805-2.1503906,0.6049805h-0.109375
			V58.911602z M83.5734406,58.911602v4.3891602c0.8359375-0.0151367,1.4765625-0.2001953,1.9199219-0.5556641
			c0.4433594-0.355957,0.6660156-0.8637695,0.6660156-1.5234375c0-0.7114258-0.2265625-1.2670898-0.6767578-1.6665039
			C85.0314484,59.1552544,84.3957062,58.9408989,83.5734406,58.911602z"/>
		<path class="st18" d="M81.8136749,68.7343597v-0.0219727c-0.4248047-0.190918-0.7607422-0.4770508-1.0058594-0.8579102
			c-0.2460938-0.3818359-0.3691406-0.8251953-0.3691406-1.3310547c0-0.550293,0.1503906-0.9902344,0.4511719-1.3203125
			s0.7001953-0.4946289,1.1992188-0.4946289c0.6445312,0,1.1455078,0.2915039,1.5019531,0.8745117
			c0.3554688,0.5830078,0.5332031,1.409668,0.5332031,2.4804688v0.659668h0.0546875
			c0.7480469,0,1.265625-0.1264648,1.5507812-0.3793945c0.2861328-0.2529297,0.4296875-0.7133789,0.4296875-1.3803711
			c0-0.6894531-0.1728516-1.3310547-0.5175781-1.925293l0.1875-0.1098633
			c0.3662109,0.6308594,0.5498047,1.309082,0.5498047,2.0351562s-0.1611328,1.2373047-0.4833984,1.5341797
			c-0.3232422,0.2973633-0.8955078,0.4458008-1.7167969,0.4458008h-2.0898438c-0.5136719,0-1.0273438,0.0546875-1.5400391,0.1650391
			v-0.2202148C81.0031281,68.7929535,81.4250031,68.741684,81.8136749,68.7343597z M82.0890656,64.9282074
			c-0.4394531,0-0.7890625,0.1430664-1.0449219,0.4291992c-0.2568359,0.2856445-0.3847656,0.6743164-0.3847656,1.1660156
			c0,0.6376953,0.2070312,1.1640625,0.6210938,1.578125c0.4140625,0.4145508,0.9404297,0.621582,1.578125,0.621582h1.0449219
			v-0.659668c0-0.9975586-0.1572266-1.7695312-0.4726562-2.315918S82.6681671,64.9282074,82.0890656,64.9282074z"/>
		<path class="st18" d="M85.9386749,74.2451019l-0.1972656-0.0986328c0.2783203-0.5869141,0.4179688-1.1772461,0.4179688-1.7709961
			c0-0.5209961-0.1103516-0.9350586-0.3300781-1.2431641c-0.2207031-0.3081055-0.5136719-0.4619141-0.8808594-0.4619141
			c-0.3300781,0-0.5996094,0.1210938-0.8085938,0.362793c-0.2089844,0.2421875-0.3789062,0.6967773-0.5107422,1.3642578
			c-0.1396484,0.7036133-0.3388672,1.215332-0.5996094,1.5341797c-0.2607422,0.3193359-0.6103516,0.4785156-1.0498047,0.4785156
			c-0.4775391,0-0.8535156-0.1831055-1.1279297-0.5498047c-0.2753906-0.3666992-0.4130859-0.8618164-0.4130859-1.4848633
			c0-0.6748047,0.1835938-1.3164062,0.5507812-1.925293l0.1865234,0.1098633
			c-0.3447266,0.5649414-0.5166016,1.1699219-0.5166016,1.8154297c0,0.5571289,0.1171875,0.9990234,0.3515625,1.3251953
			s0.5566406,0.4897461,0.96875,0.4897461c0.3808594,0,0.6835938-0.1430664,0.90625-0.4291992
			c0.2246094-0.2861328,0.3984375-0.7553711,0.5234375-1.4077148c0.1318359-0.6748047,0.3164062-1.1606445,0.5546875-1.4575195
			c0.2382812-0.2973633,0.5664062-0.4458008,0.984375-0.4458008c0.4335938,0,0.7792969,0.1743164,1.0400391,0.5224609
			s0.390625,0.815918,0.390625,1.402832C86.3791046,73.0131683,86.2316437,73.6367035,85.9386749,74.2451019z"/>
		<path class="st18" d="M83.3546906,75.8076019c-0.84375,0.0073242-1.5039062,0.2255859-1.9804688,0.6542969
			c-0.4765625,0.4291992-0.7148438,1.0175781-0.7148438,1.765625c0,0.6450195,0.1601562,1.2319336,0.484375,1.7597656
			l-0.1992188,0.1103516c-0.3369141-0.5722656-0.5058594-1.1953125-0.5058594-1.8701172
			c0-0.8139648,0.265625-1.4575195,0.7978516-1.9306641c0.5322266-0.4726562,1.2558594-0.7094727,2.1728516-0.7094727
			c0.9306641,0,1.6582031,0.2236328,2.1835938,0.6708984c0.5234375,0.4472656,0.7861328,1.0673828,0.7861328,1.859375
			c0,0.7329102-0.2548828,1.3012695-0.7646484,1.7050781c-0.5097656,0.402832-1.2265625,0.6049805-2.1503906,0.6049805h-0.109375
			V75.8076019z M83.5734406,75.8076019v4.3891602c0.8359375-0.0151367,1.4765625-0.2001953,1.9199219-0.5556641
			c0.4433594-0.355957,0.6660156-0.8637695,0.6660156-1.5234375c0-0.7114258-0.2265625-1.2670898-0.6767578-1.6665039
			C85.0314484,76.0512543,84.3957062,75.8368988,83.5734406,75.8076019z"/>
	</g>
	<g>
		<path class="st18" d="M34.3910751,56.9047661l-2.4599628,2.7841797l-0.1796875-0.1557617l2.7597675-3.1201172l2.7597656,3.1201172
			l-0.1796875,0.1557617l-2.4599609-2.7841797v7.9082069h-0.2402344V56.9047661z"/>
	</g>
	<g>
		<g>
			<path class="st18" d="M84.5529327,109.0397949h-0.0224609c-0.0878906,0.2270508-0.2470703,0.4199219-0.4785156,0.5776367
				c-0.2304688,0.1572266-0.6289062,0.3608398-1.1933594,0.6103516l-2.3095703,1.0341797v-0.2421875l2.2216797-0.9897461
				c0.359375-0.1616211,0.6269531-0.2900391,0.8027344-0.3852539c0.1767578-0.0952148,0.3359375-0.1923828,0.4785156-0.2915039
				c0.1435547-0.0991211,0.2373047-0.2216797,0.28125-0.3686523c0.0439453-0.1464844,0.0742188-0.2949219,0.09375-0.4453125
				c0.0175781-0.1503906,0.0273438-0.3793945,0.0273438-0.6875v-1.3198242h-3.9052734v-0.2202148h8.0302734v1.5400391
				c0,0.3154297-0.0117188,0.6030273-0.0332031,0.8632812s-0.0703125,0.5410156-0.1425781,0.8417969
				c-0.0742188,0.300293-0.1728516,0.5537109-0.296875,0.7587891c-0.125,0.2055664-0.3007812,0.3779297-0.5292969,0.5170898
				c-0.2265625,0.1391602-0.4980469,0.2089844-0.8134766,0.2089844c-0.6376953,0-1.1367188-0.1611328-1.4951172-0.4838867
				C84.9084015,110.2351074,84.6701202,109.729248,84.5529327,109.0397949z M84.6740265,106.5319824v1.3198242
				c0,1.0488281,0.1669922,1.8056641,0.5009766,2.2714844c0.3330078,0.4658203,0.8632812,0.6987305,1.5888672,0.6987305
				c0.5283203,0,0.9257812-0.2329102,1.1943359-0.6987305c0.2675781-0.4658203,0.4003906-1.2226562,0.4003906-2.2714844v-1.3198242
				H84.6740265z"/>
			<path class="st18" d="M83.3546906,112.3288574c-0.84375,0.0073242-1.5039062,0.2255859-1.9804688,0.6542969
				c-0.4765625,0.4291992-0.7148438,1.0175781-0.7148438,1.765625c0,0.6450195,0.1601562,1.2319336,0.484375,1.7597656
				l-0.1992188,0.1103516c-0.3369141-0.5722656-0.5058594-1.1953125-0.5058594-1.8701172
				c0-0.8139648,0.265625-1.4575195,0.7978516-1.9306641c0.5322266-0.4726562,1.2558594-0.7094727,2.1728516-0.7094727
				c0.9306641,0,1.6582031,0.2236328,2.1835938,0.6708984c0.5234375,0.4472656,0.7861328,1.0673828,0.7861328,1.859375
				c0,0.7329102-0.2548828,1.3012695-0.7646484,1.7050781c-0.5097656,0.402832-1.2265625,0.6049805-2.1503906,0.6049805h-0.109375
				V112.3288574z M83.5734406,112.3288574v4.3891602c0.8359375-0.0151367,1.4765625-0.2001953,1.9199219-0.5556641
				c0.4433594-0.355957,0.6660156-0.8637695,0.6660156-1.5234375c0-0.7114258-0.2265625-1.2670898-0.6767578-1.6665039
				C85.0314484,112.5725098,84.3957062,112.3581543,83.5734406,112.3288574z"/>
			<path class="st18" d="M85.9386749,121.9753418l-0.1972656-0.0986328
				c0.2783203-0.5869141,0.4179688-1.1772461,0.4179688-1.7709961c0-0.5209961-0.1103516-0.9350586-0.3300781-1.2431641
				c-0.2207031-0.3081055-0.5136719-0.4619141-0.8808594-0.4619141c-0.3300781,0-0.5996094,0.1210938-0.8085938,0.362793
				c-0.2089844,0.2421875-0.3789062,0.6967773-0.5107422,1.3642578c-0.1396484,0.7036133-0.3388672,1.215332-0.5996094,1.5341797
				c-0.2607422,0.3193359-0.6103516,0.4785156-1.0498047,0.4785156c-0.4775391,0-0.8535156-0.1831055-1.1279297-0.5498047
				c-0.2753906-0.3666992-0.4130859-0.8618164-0.4130859-1.4848633c0-0.6748047,0.1835938-1.3164062,0.5507812-1.925293
				l0.1865234,0.1098633c-0.3447266,0.5649414-0.5166016,1.1699219-0.5166016,1.8154297
				c0,0.5571289,0.1171875,0.9990234,0.3515625,1.3251953s0.5566406,0.4897461,0.96875,0.4897461
				c0.3808594,0,0.6835938-0.1430664,0.90625-0.4291992c0.2246094-0.2861328,0.3984375-0.7553711,0.5234375-1.4077148
				c0.1318359-0.6748047,0.3164062-1.1606445,0.5546875-1.4575195c0.2382812-0.2973633,0.5664062-0.4458008,0.984375-0.4458008
				c0.4335938,0,0.7792969,0.1743164,1.0400391,0.5224609s0.390625,0.815918,0.390625,1.402832
				C86.3791046,120.7434082,86.2316437,121.3669434,85.9386749,121.9753418z"/>
			<path class="st18" d="M83.3546906,123.5378418c-0.84375,0.0073242-1.5039062,0.2255859-1.9804688,0.6542969
				c-0.4765625,0.4291992-0.7148438,1.0175781-0.7148438,1.765625c0,0.6450195,0.1601562,1.2319336,0.484375,1.7597656
				l-0.1992188,0.1103516c-0.3369141-0.5722656-0.5058594-1.1953125-0.5058594-1.8701172
				c0-0.8139648,0.265625-1.4575195,0.7978516-1.9306641c0.5322266-0.4726562,1.2558594-0.7094727,2.1728516-0.7094727
				c0.9306641,0,1.6582031,0.2236328,2.1835938,0.6708984c0.5234375,0.4472656,0.7861328,1.0673828,0.7861328,1.859375
				c0,0.7329102-0.2548828,1.3012695-0.7646484,1.7050781c-0.5097656,0.402832-1.2265625,0.6049805-2.1503906,0.6049805h-0.109375
				V123.5378418z M83.5734406,123.5378418v4.3891602c0.8359375-0.0151367,1.4765625-0.2001953,1.9199219-0.5556641
				c0.4433594-0.355957,0.6660156-0.8637695,0.6660156-1.5234375c0-0.7114258-0.2265625-1.2670898-0.6767578-1.6665039
				C85.0314484,123.7814941,84.3957062,123.5671387,83.5734406,123.5378418z"/>
			<path class="st18" d="M80.8136749,132.9978027l-0.2089844,0.0766602
				c-0.1113281-0.3076172-0.1660156-0.6376953-0.1660156-0.9897461c0-0.5649414,0.1171875-0.9536133,0.3525391-1.1660156
				c0.234375-0.2128906,0.6669922-0.3188477,1.2978516-0.3188477h3.7402344v-1.375h0.2197266v1.375h2.0898438v0.2197266h-2.0898438
				v2.3652344h-0.2197266v-2.3652344h-3.7402344c-0.5869141,0-0.9716797,0.0898438-1.1552734,0.2695312
				c-0.1826172,0.1796875-0.2744141,0.5117188-0.2744141,0.9956055
				C80.6593781,132.3996582,80.7101593,132.7043457,80.8136749,132.9978027z"/>
		</g>
		<g>
			<path class="st18" d="M34.3910751,113.0476303l-2.4599628,2.7841797l-0.1796875-0.1557617l2.7597675-3.1201172
				l2.7597656,3.1201172l-0.1796875,0.1557617l-2.4599609-2.7841797v7.9082031h-0.2402344V113.0476303z"/>
		</g>
	</g>
	<g>
		<path class="st18" d="M310.6665955,70.3003845c-0.7587891-0.7080078-1.1386719-1.637207-1.1386719-2.7885742
			s0.3798828-2.0810547,1.1386719-2.7885742c0.7597656-0.7075195,1.7548828-1.0615196,2.9863281-1.0615196
			c1.2324219,0,2.2285156,0.3540001,2.9863281,1.0615196c0.7597656,0.7075195,1.1386719,1.637207,1.1386719,2.7885742
			s-0.3789062,2.0805664-1.1386719,2.7885742c-0.7578125,0.7075195-1.7539062,1.0615234-2.9863281,1.0615234
			C312.4214783,71.361908,311.4263611,71.0079041,310.6665955,70.3003845z M310.8267517,64.8829041
			c-0.71875,0.6669922-1.078125,1.543457-1.078125,2.6289062s0.359375,1.9614258,1.078125,2.6289062
			s1.6601562,1.0009766,2.8261719,1.0009766s2.1083984-0.3334961,2.8271484-1.0009766s1.078125-1.543457,1.078125-2.6289062
			s-0.359375-1.9619141-1.078125-2.6289062c-0.71875-0.6674805-1.6611328-1.0009727-2.8271484-1.0009727
			S311.5455017,64.2154236,310.8267517,64.8829041z"/>
		<path class="st18" d="M317.4478455,77.158783v-4.0698242h-3.4101562v3.8496094h-0.21875v-3.8496094h-4.1806641v-0.2202148
			h8.0302734v4.2900391H317.4478455z"/>
		<path class="st18" d="M317.4478455,83.2857361v-4.0698242h-3.4101562v3.8496094h-0.21875v-3.8496094h-4.1806641V78.995697
			h8.0302734v4.2900391H317.4478455z"/>
	</g>
	<g>
		<path class="st18" d="M366.751709,48.4438477c0-0.6235352-0.1357422-1.109375-0.4072266-1.4575195
			c-0.2714844-0.3486328-0.6484375-0.5224609-1.1328125-0.5224609c-0.9023438,0-1.5625,0.6708984-1.9804688,2.0126953
			c-0.2490234,0.7993164-0.5644531,1.3789062-0.9453125,1.7382812c-0.3808594,0.3588867-0.8730469,0.5390625-1.4746094,0.5390625
			c-0.6738281,0-1.1914062-0.2001953-1.5507812-0.5996094c-0.359375-0.3999023-0.5390625-0.9702148-0.5390625-1.7104492
			c0-0.909668,0.2568359-1.6796875,0.7705078-2.3100586l0.1757812,0.1318359
			c-0.4833984,0.6010742-0.7255859,1.3271484-0.7255859,2.1782227c0,0.6816406,0.1591797,1.2006836,0.4785156,1.5561523
			c0.3183594,0.355957,0.7822266,0.5336914,1.390625,0.5336914c0.5507812,0,0.9960938-0.1650391,1.3369141-0.4951172
			s0.6289062-0.8725586,0.8642578-1.6279297c0.4472656-1.4448242,1.1796875-2.1669922,2.1992188-2.1669922
			c0.5351562,0,0.9628906,0.1923828,1.28125,0.5776367c0.3193359,0.3847656,0.4785156,0.9257812,0.4785156,1.6225586
			c0,0.7993164-0.1835938,1.5327148-0.5498047,2.199707l-0.1865234-0.1098633
			C366.5788574,49.9174805,366.751709,49.2207031,366.751709,48.4438477z"/>
		<path class="st18" d="M361.6374512,52.2055664c-0.84375,0.0073242-1.5039062,0.2255859-1.9804688,0.6542969
			c-0.4765625,0.4291992-0.7148438,1.0175781-0.7148438,1.765625c0,0.6450195,0.1601562,1.2319336,0.484375,1.7597656
			l-0.1992188,0.1103516c-0.3369141-0.5722656-0.5058594-1.1953125-0.5058594-1.8701172
			c0-0.8139648,0.265625-1.4575195,0.7978516-1.9306641c0.5322266-0.4726562,1.2558594-0.7094727,2.1728516-0.7094727
			c0.9306641,0,1.6582031,0.2236328,2.1835938,0.6708984c0.5234375,0.4472656,0.7861328,1.0673828,0.7861328,1.859375
			c0,0.7329102-0.2548828,1.3012695-0.7646484,1.7050781c-0.5097656,0.402832-1.2265625,0.6049805-2.1503906,0.6049805h-0.109375
			V52.2055664z M361.8562012,52.2055664v4.3891602c0.8359375-0.0151367,1.4765625-0.2001953,1.9199219-0.5556641
			c0.4433594-0.355957,0.6660156-0.8637695,0.6660156-1.5234375c0-0.7114258-0.2265625-1.2670898-0.6767578-1.6665039
			C363.314209,52.4492188,362.6784668,52.2348633,361.8562012,52.2055664z"/>
		<path class="st18" d="M362.9128418,58.4970703v0.0219727c0.5205078,0.2348633,0.9423828,0.6176758,1.265625,1.1499023
			c0.3222656,0.53125,0.4833984,1.1308594,0.4833984,1.7983398h-0.2197266c0-0.8212891-0.2480469-1.5219727-0.7421875-2.1010742
			c-0.4960938-0.5795898-1.0917969-0.8691406-1.7880859-0.8691406h-3.0800781v-0.2197266h5.7197266v0.2197266H362.9128418z"/>
		<path class="st18" d="M358.8317871,63.5791016h5.7197266v0.2202148h-5.7197266V63.5791016z M365.8718262,63.5791016h1.2099609
			v0.2202148h-1.2099609V63.5791016z"/>
		<path class="st18" d="M360.0964355,69.8823242v-0.0219727c-0.4248047-0.190918-0.7607422-0.4770508-1.0058594-0.8579102
			c-0.2460938-0.3818359-0.3691406-0.8251953-0.3691406-1.3310547c0-0.550293,0.1503906-0.9902344,0.4511719-1.3203125
			s0.7001953-0.4946289,1.1992188-0.4946289c0.6445312,0,1.1455078,0.2915039,1.5019531,0.8745117
			c0.3554688,0.5830078,0.5332031,1.409668,0.5332031,2.4804688v0.659668h0.0546875
			c0.7480469,0,1.265625-0.1264648,1.5507812-0.3793945c0.2861328-0.2529297,0.4296875-0.7133789,0.4296875-1.3803711
			c0-0.6894531-0.1728516-1.3310547-0.5175781-1.925293l0.1875-0.1098633
			c0.3662109,0.6308594,0.5498047,1.309082,0.5498047,2.0351562s-0.1611328,1.2373047-0.4833984,1.5341797
			c-0.3232422,0.2973633-0.8955078,0.4458008-1.7167969,0.4458008h-2.0898438c-0.5136719,0-1.0273438,0.0546875-1.5400391,0.1650391
			v-0.2202148C359.2858887,69.940918,359.7077637,69.8896484,360.0964355,69.8823242z M360.3718262,66.0761719
			c-0.4394531,0-0.7890625,0.1430664-1.0449219,0.4291992c-0.2568359,0.2856445-0.3847656,0.6743164-0.3847656,1.1660156
			c0,0.6376953,0.2070312,1.1640625,0.6210938,1.578125c0.4140625,0.4145508,0.9404297,0.621582,1.578125,0.621582h1.0449219
			v-0.659668c0-0.9975586-0.1572266-1.7695312-0.4726562-2.315918S360.9509277,66.0761719,360.3718262,66.0761719z"/>
		<path class="st18" d="M358.8317871,72.4780273h8.25v0.2202148h-8.25V72.4780273z"/>
	</g>
	<g>
		<path class="st18" d="M181.4514618,49.8271027v0.2202148h-8.0302734v-0.2202148h4.2900391v-5.0595703h-4.2900391v-0.2202148
			h8.0302734v0.2202148h-3.5205078v5.0595703H181.4514618z"/>
		<path class="st18" d="M174.1086884,52.2475128c0.5322266-0.4624023,1.2558594-0.6933594,2.1728516-0.6933594
			c0.9160156,0,1.640625,0.230957,2.171875,0.6933594c0.53125,0.4619141,0.7978516,1.0922852,0.7978516,1.8916016
			s-0.2666016,1.4301758-0.7978516,1.8920898s-1.2558594,0.6928711-2.171875,0.6928711
			c-0.9169922,0-1.640625-0.230957-2.1728516-0.6928711s-0.7978516-1.0927734-0.7978516-1.8920898
			S173.5764618,52.7094269,174.1086884,52.2475128z M174.267868,52.4066925
			c-0.4912109,0.421875-0.7363281,0.9990234-0.7363281,1.7324219s0.2451172,1.3110352,0.7363281,1.7329102
			c0.4921875,0.4213867,1.1621094,0.6323242,2.0136719,0.6323242c0.8496094,0,1.5214844-0.2109375,2.0126953-0.6323242
			c0.4912109-0.421875,0.7373047-0.9995117,0.7373047-1.7329102s-0.2460938-1.3105469-0.7373047-1.7324219
			s-1.1630859-0.6323242-2.0126953-0.6323242C175.4299774,51.7743683,174.7600555,51.9848175,174.267868,52.4066925z"/>
		<path class="st18" d="M173.4211884,58.6713409h8.25v0.2202148h-8.25V58.6713409z"/>
		<path class="st18" d="M176.2815399,60.8930206c0.9160156,0,1.640625,0.2070312,2.171875,0.621582
			c0.53125,0.4140625,0.7978516,0.9770508,0.7978516,1.6884766c0,1.0263672-0.4550781,1.7158203-1.3642578,2.0678711v0.0219727
			h3.7841797v0.2202148h-8.25V65.292923h1.2539062v-0.0219727c-0.9091797-0.3520508-1.3642578-1.0415039-1.3642578-2.0678711
			c0-0.71875,0.2626953-1.2836914,0.7871094-1.6943359C174.6213837,61.0980988,175.3498993,60.8930206,176.2815399,60.8930206z
			 M173.5315399,63.2030792c0,0.6669922,0.2158203,1.1826172,0.6484375,1.5454102s1.0410156,0.5444336,1.8261719,0.5444336
			h0.5498047c0.7841797,0,1.3935547-0.1816406,1.8261719-0.5444336s0.6494141-0.878418,0.6494141-1.5454102
			c0-0.6455078-0.2480469-1.1552734-0.7421875-1.5292969c-0.4960938-0.3740234-1.1650391-0.5610352-2.0078125-0.5610352
			c-0.8652344,0-1.5410156,0.1855469-2.0244141,0.5556641S173.5315399,62.5502472,173.5315399,63.2030792z"/>
	</g>
	<g>
		<path class="st18" d="M196.7419128,34.18507c0-0.6235352-0.1357422-1.109375-0.40625-1.4575195
			c-0.2714844-0.3486328-0.6503906-0.5224609-1.1337891-0.5224609c-0.9013672,0-1.5615234,0.6708984-1.9794922,2.0126953
			c-0.25,0.7993164-0.5644531,1.3789062-0.9462891,1.7382812c-0.3818359,0.3588867-0.8730469,0.5390625-1.4736328,0.5390625
			c-0.6757812,0-1.1923828-0.2001953-1.5507812-0.5996094c-0.359375-0.3999023-0.5390625-0.9702148-0.5390625-1.7104492
			c0-0.909668,0.2558594-1.6796875,0.7695312-2.3100605l0.1757812,0.1318378
			c-0.484375,0.6010742-0.7265625,1.3271484-0.7265625,2.1782227c0,0.6816406,0.1601562,1.2006836,0.4785156,1.5561523
			c0.3203125,0.355957,0.7832031,0.5336914,1.3925781,0.5336914c0.5488281,0,0.9951172-0.1650391,1.3359375-0.4951172
			c0.3417969-0.3300781,0.6289062-0.8725586,0.8632812-1.6279297c0.4472656-1.4448242,1.1816406-2.1669941,2.2001953-2.1669941
			c0.5351562,0,0.9619141,0.1923847,1.2822266,0.5776386c0.3183594,0.3847656,0.4785156,0.9257812,0.4785156,1.6225586
			c0,0.7993164-0.1835938,1.5327148-0.5507812,2.199707l-0.1875-0.1098633
			C196.5700378,35.6587029,196.7419128,34.9619255,196.7419128,34.18507z"/>
		<path class="st18" d="M191.6266785,37.9467888c-0.84375,0.0073242-1.5029297,0.2255859-1.9794922,0.6542969
			c-0.4775391,0.4291992-0.7158203,1.0175781-0.7158203,1.765625c0,0.6450195,0.1621094,1.2319336,0.484375,1.7597656
			l-0.1972656,0.1103516c-0.3378906-0.5722656-0.5058594-1.1953125-0.5058594-1.8701172
			c0-0.8139648,0.265625-1.4575195,0.796875-1.9306641c0.53125-0.4726562,1.2558594-0.7094727,2.171875-0.7094727
			c0.9316406,0,1.6601562,0.2236328,2.1835938,0.6708984c0.5253906,0.4472656,0.7871094,1.0673828,0.7871094,1.859375
			c0,0.7329102-0.2548828,1.3012695-0.7646484,1.7050781c-0.5097656,0.402832-1.2265625,0.6049805-2.1503906,0.6049805h-0.1103516
			V37.9467888z M191.8473816,37.9467888v4.3891602c0.8359375-0.0151367,1.4746094-0.2001953,1.9189453-0.5556641
			c0.4443359-0.355957,0.6650391-0.8637695,0.6650391-1.5234375c0-0.7114258-0.2246094-1.2670898-0.6757812-1.6665039
			C193.3044128,38.1904411,192.6676941,37.9760857,191.8473816,37.9467888z"/>
		<path class="st18" d="M192.9030457,44.2382927v0.0219727c0.5205078,0.2348633,0.9423828,0.6176758,1.2646484,1.1499023
			c0.3222656,0.53125,0.484375,1.1308594,0.484375,1.7983398h-0.2207031c0-0.8212891-0.2470703-1.5219727-0.7421875-2.1010742
			c-0.4941406-0.5795898-1.0908203-0.8691406-1.7871094-0.8691406h-3.0800781v-0.2197266h5.7207031v0.2197266H192.9030457z"/>
		<path class="st18" d="M188.821991,49.3203239h5.7207031v0.2202148h-5.7207031V49.3203239z M195.86203,49.3203239h1.2099609
			v0.2202148H195.86203V49.3203239z"/>
		<path class="st18" d="M190.087616,55.6235466v-0.0219727c-0.4257812-0.190918-0.7617188-0.4770508-1.0078125-0.8579102
			c-0.2451172-0.3818359-0.3671875-0.8251953-0.3671875-1.3310547c0-0.550293,0.1494141-0.9902344,0.4501953-1.3203125
			s0.7001953-0.4946289,1.1992188-0.4946289c0.6455078,0,1.1455078,0.2915039,1.5009766,0.8745117
			s0.5341797,1.409668,0.5341797,2.4804688v0.659668h0.0546875c0.7480469,0,1.2646484-0.1264648,1.5517578-0.3793945
			c0.2851562-0.2529297,0.4277344-0.7133789,0.4277344-1.3803711c0-0.6894531-0.171875-1.3310547-0.5166016-1.925293
			l0.1865234-0.1098633c0.3671875,0.6308594,0.5507812,1.309082,0.5507812,2.0351562s-0.1621094,1.2373047-0.484375,1.5341797
			c-0.3222656,0.2973633-0.8945312,0.4458008-1.7158203,0.4458008H190.36203c-0.5136719,0-1.0263672,0.0546875-1.5400391,0.1650391
			v-0.2202148C189.2770691,55.6821404,189.6979675,55.6308708,190.087616,55.6235466z M190.36203,51.8173943
			c-0.4404297,0-0.7880859,0.1430664-1.0449219,0.4291992c-0.2568359,0.2856445-0.3857422,0.6743164-0.3857422,1.1660156
			c0,0.6376953,0.2070312,1.1640625,0.6220703,1.578125c0.4140625,0.4145508,0.9404297,0.621582,1.5791016,0.621582h1.0449219
			v-0.659668c0-0.9975586-0.1582031-1.7695312-0.4736328-2.315918S190.9411316,51.8173943,190.36203,51.8173943z"/>
		<path class="st18" d="M188.821991,58.2192497h8.25v0.2202148h-8.25V58.2192497z"/>
		<path class="st18" d="M189.8503113,70.0605545c-0.7587891-0.7080078-1.1376953-1.637207-1.1376953-2.7885742
			s0.3789062-2.0810547,1.1376953-2.7885742c0.7587891-0.7075157,1.7548828-1.0615196,2.9873047-1.0615196
			c1.2314453,0,2.2265625,0.3540039,2.9863281,1.0615196c0.7587891,0.7075195,1.1386719,1.637207,1.1386719,2.7885742
			s-0.3798828,2.0805664-1.1386719,2.7885742c-0.7597656,0.7075195-1.7548828,1.0615234-2.9863281,1.0615234
			C191.6051941,71.1220779,190.6091003,70.768074,189.8503113,70.0605545z M190.009491,64.643074
			c-0.71875,0.6669922-1.078125,1.543457-1.078125,2.6289062s0.359375,1.9614258,1.078125,2.6289062
			s1.6621094,1.0009766,2.828125,1.0009766s2.1074219-0.3334961,2.8261719-1.0009766s1.078125-1.543457,1.078125-2.6289062
			s-0.359375-1.9619141-1.078125-2.6289062c-0.71875-0.6674767-1.6601562-1.0009727-2.8261719-1.0009727
			S190.728241,63.9755974,190.009491,64.643074z"/>
		<path class="st18" d="M189.0524597,78.0190506h7.7988281v0.2197266h-8.0292969v-0.3520508l7.7988281-5.015625v-0.0219727
			h-7.7988281v-0.2202148h8.0292969v0.3520508l-7.7988281,5.0161133V78.0190506z"/>
	</g>
	<g>
		<path class="st18" d="M177.4250946,93.1381683h-0.0224609c-0.0878906,0.2270508-0.2470703,0.4199219-0.4785156,0.5776367
			c-0.2304688,0.1572266-0.6289062,0.3608398-1.1933594,0.6103516l-2.3095703,1.0341797v-0.2421875l2.2216797-0.9897461
			c0.359375-0.1616211,0.6269531-0.2900391,0.8027344-0.3852539c0.1767578-0.0952148,0.3359375-0.1923828,0.4785156-0.2915039
			c0.1435547-0.0991211,0.2373047-0.2216797,0.28125-0.3686523c0.0439453-0.1464844,0.0742188-0.2949219,0.09375-0.4453125
			c0.0175781-0.1503906,0.0273438-0.3793945,0.0273438-0.6875v-1.3198242h-3.9052734V90.410141h8.0302734v1.5400391
			c0,0.3154297-0.0117188,0.6030273-0.0332031,0.8632812s-0.0703125,0.5410156-0.1425781,0.8417969
			c-0.0742188,0.300293-0.1728516,0.5537109-0.296875,0.7587891c-0.125,0.2055664-0.3007812,0.3779297-0.5292969,0.5170898
			c-0.2265625,0.1391602-0.4980469,0.2089844-0.8134766,0.2089844c-0.6376953,0-1.1367188-0.1611328-1.4951172-0.4838867
			C177.7805634,94.3334808,177.5422821,93.8276215,177.4250946,93.1381683z M177.5461884,90.6303558v1.3198242
			c0,1.0488281,0.1669922,1.8056641,0.5009766,2.2714844c0.3330078,0.4658203,0.8632812,0.6987305,1.5888672,0.6987305
			c0.5283203,0,0.9257812-0.2329102,1.1943359-0.6987305c0.2675781-0.4658203,0.4003906-1.2226562,0.4003906-2.2714844v-1.3198242
			H177.5461884z"/>
		<path class="st18" d="M176.2268524,96.4272308c-0.84375,0.0073242-1.5039062,0.2255859-1.9804688,0.6542969
			c-0.4765625,0.4291992-0.7148438,1.0175781-0.7148438,1.765625c0,0.6450195,0.1601562,1.2319336,0.484375,1.7597656
			l-0.1992188,0.1103516c-0.3369141-0.5722656-0.5058594-1.1953125-0.5058594-1.8701172
			c0-0.8139648,0.265625-1.4575195,0.7978516-1.9306641c0.5322266-0.4726562,1.2558594-0.7094727,2.1728516-0.7094727
			c0.9306641,0,1.6582031,0.2236328,2.1835938,0.6708984c0.5234375,0.4472656,0.7861328,1.0673828,0.7861328,1.859375
			c0,0.7329102-0.2548828,1.3012695-0.7646484,1.7050781c-0.5097656,0.402832-1.2265625,0.6049805-2.1503906,0.6049805h-0.109375
			V96.4272308z M176.4456024,96.4272308v4.3891602c0.8359375-0.0151367,1.4765625-0.2001953,1.9199219-0.5556641
			c0.4433594-0.355957,0.6660156-0.8637695,0.6660156-1.5234375c0-0.7114258-0.2265625-1.2670898-0.6767578-1.6665039
			C177.9036102,96.6708832,177.267868,96.4565277,176.4456024,96.4272308z"/>
		<path class="st18" d="M173.4211884,103.0488129h8.25v0.2202148h-8.25V103.0488129z"/>
		<path class="st18" d="M176.2268524,105.4360199c-0.84375,0.0073242-1.5039062,0.2255859-1.9804688,0.6542969
			c-0.4765625,0.4291992-0.7148438,1.0175781-0.7148438,1.765625c0,0.6450195,0.1601562,1.2319336,0.484375,1.7597656
			l-0.1992188,0.1103516c-0.3369141-0.5722656-0.5058594-1.1953125-0.5058594-1.8701172
			c0-0.8139648,0.265625-1.4575195,0.7978516-1.9306641c0.5322266-0.4726562,1.2558594-0.7094727,2.1728516-0.7094727
			c0.9306641,0,1.6582031,0.2236328,2.1835938,0.6708984c0.5234375,0.4472656,0.7861328,1.0673828,0.7861328,1.859375
			c0,0.7329102-0.2548828,1.3012695-0.7646484,1.7050781c-0.5097656,0.402832-1.2265625,0.6049805-2.1503906,0.6049805h-0.109375
			V105.4360199z M176.4456024,105.4360199v4.3891602c0.8359375-0.0151367,1.4765625-0.2001953,1.9199219-0.5556641
			c0.4433594-0.355957,0.6660156-0.8637695,0.6660156-1.5234375c0-0.7114258-0.2265625-1.2670898-0.6767578-1.6665039
			C177.9036102,105.6796722,177.267868,105.4653168,176.4456024,105.4360199z"/>
		<path class="st18" d="M174.6858368,115.2587738v-0.0219727c-0.4248047-0.190918-0.7607422-0.4770508-1.0058594-0.8579102
			c-0.2460938-0.3818359-0.3691406-0.8251953-0.3691406-1.3310547c0-0.550293,0.1503906-0.9902344,0.4511719-1.3203125
			s0.7001953-0.4946289,1.1992188-0.4946289c0.6445312,0,1.1455078,0.2915039,1.5019531,0.8745117
			c0.3554688,0.5830078,0.5332031,1.409668,0.5332031,2.4804688v0.659668h0.0546875
			c0.7480469,0,1.265625-0.1264648,1.5507812-0.3793945c0.2861328-0.2529297,0.4296875-0.7133789,0.4296875-1.3803711
			c0-0.6894531-0.1728516-1.3310547-0.5175781-1.925293l0.1875-0.1098633
			c0.3662109,0.6308594,0.5498047,1.309082,0.5498047,2.0351562s-0.1611328,1.2373047-0.4833984,1.5341797
			c-0.3232422,0.2973633-0.8955078,0.4458008-1.7167969,0.4458008h-2.0898438c-0.5136719,0-1.0273438,0.0546875-1.5400391,0.1650391
			v-0.2202148C173.8752899,115.3173676,174.2971649,115.266098,174.6858368,115.2587738z M174.9612274,111.4526215
			c-0.4394531,0-0.7890625,0.1430664-1.0449219,0.4291992c-0.2568359,0.2856445-0.3847656,0.6743164-0.3847656,1.1660156
			c0,0.6376953,0.2070312,1.1640625,0.6210938,1.578125c0.4140625,0.4145508,0.9404297,0.621582,1.578125,0.621582h1.0449219
			v-0.659668c0-0.9975586-0.1572266-1.7695312-0.4726562-2.315918S175.540329,111.4526215,174.9612274,111.4526215z"/>
		<path class="st18" d="M178.8108368,120.769516l-0.1972656-0.0986328c0.2783203-0.5869141,0.4179688-1.1772461,0.4179688-1.7709961
			c0-0.5209961-0.1103516-0.9350586-0.3300781-1.2431641c-0.2207031-0.3081055-0.5136719-0.4619141-0.8808594-0.4619141
			c-0.3300781,0-0.5996094,0.1210938-0.8085938,0.362793c-0.2089844,0.2421875-0.3789062,0.6967773-0.5107422,1.3642578
			c-0.1396484,0.7036133-0.3388672,1.215332-0.5996094,1.5341797c-0.2607422,0.3193359-0.6103516,0.4785156-1.0498047,0.4785156
			c-0.4775391,0-0.8535156-0.1831055-1.1279297-0.5498047c-0.2753906-0.3666992-0.4130859-0.8618164-0.4130859-1.4848633
			c0-0.6748047,0.1835938-1.3164062,0.5507812-1.925293l0.1865234,0.1098633
			c-0.3447266,0.5649414-0.5166016,1.1699219-0.5166016,1.8154297c0,0.5571289,0.1171875,0.9990234,0.3515625,1.3251953
			s0.5566406,0.4897461,0.96875,0.4897461c0.3808594,0,0.6835938-0.1430664,0.90625-0.4291992
			c0.2246094-0.2861328,0.3984375-0.7553711,0.5234375-1.4077148c0.1318359-0.6748047,0.3164062-1.1606445,0.5546875-1.4575195
			c0.2382812-0.2973633,0.5664062-0.4458008,0.984375-0.4458008c0.4335938,0,0.7792969,0.1743164,1.0400391,0.5224609
			s0.390625,0.815918,0.390625,1.402832C179.2512665,119.5375824,179.1038055,120.1611176,178.8108368,120.769516z"/>
		<path class="st18" d="M176.2268524,122.332016c-0.84375,0.0073242-1.5039062,0.2255859-1.9804688,0.6542969
			c-0.4765625,0.4291992-0.7148438,1.0175781-0.7148438,1.765625c0,0.6450195,0.1601562,1.2319336,0.484375,1.7597656
			l-0.1992188,0.1103516c-0.3369141-0.5722656-0.5058594-1.1953125-0.5058594-1.8701172
			c0-0.8139648,0.265625-1.4575195,0.7978516-1.9306641c0.5322266-0.4726562,1.2558594-0.7094727,2.1728516-0.7094727
			c0.9306641,0,1.6582031,0.2236328,2.1835938,0.6708984c0.5234375,0.4472656,0.7861328,1.0673828,0.7861328,1.859375
			c0,0.7329102-0.2548828,1.3012695-0.7646484,1.7050781c-0.5097656,0.402832-1.2265625,0.6049805-2.1503906,0.6049805h-0.109375
			V122.332016z M176.4456024,122.332016v4.3891602c0.8359375-0.0151367,1.4765625-0.2001953,1.9199219-0.5556641
			c0.4433594-0.355957,0.6660156-0.8637695,0.6660156-1.5234375c0-0.7114258-0.2265625-1.2670898-0.6767578-1.6665039
			C177.9036102,122.5756683,177.267868,122.3613129,176.4456024,122.332016z"/>
	</g>
	<g>
		<path class="st18" d="M100.9843216,49.9135551v-0.0219727l-7.7988281-2.4199219v-0.3520508l7.7988281-2.4199219v-0.0219727
			l-7.7988281-1.012207v-0.2197266l8.0302734,1.0449219v0.3740234L93.40522,47.2846489v0.0219727l7.8105469,2.4199219v0.3740234
			l-8.0302734,1.0454102v-0.2202148L100.9843216,49.9135551z"/>
		<path class="st18" d="M94.4501419,56.2387505v-0.0219727c-0.4248047-0.190918-0.7607422-0.4770508-1.0058594-0.8579102
			c-0.2460938-0.3818359-0.3691406-0.8251953-0.3691406-1.3310547c0-0.550293,0.1503906-0.9902344,0.4511719-1.3203125
			s0.7001953-0.4946289,1.1992188-0.4946289c0.6445312,0,1.1455078,0.2915039,1.5019531,0.8745117
			c0.3554688,0.5830078,0.5332031,1.409668,0.5332031,2.4804688v0.659668h0.0546875
			c0.7480469,0,1.265625-0.1264648,1.5507812-0.3793945c0.2861328-0.2529297,0.4296875-0.7133789,0.4296875-1.3803711
			c0-0.6894531-0.1728516-1.3310547-0.5175781-1.925293l0.1875-0.1098633
			c0.3662109,0.6308594,0.5498047,1.309082,0.5498047,2.0351562s-0.1611328,1.2373047-0.4833984,1.5341797
			c-0.3232422,0.2973633-0.8955078,0.4458008-1.7167969,0.4458008h-2.0898438c-0.5136719,0-1.0273438,0.0546875-1.5400391,0.1650391
			v-0.2202148C93.639595,56.2973442,94.06147,56.2460747,94.4501419,56.2387505z M94.7255325,52.4325981
			c-0.4394531,0-0.7890625,0.1430664-1.0449219,0.4291992c-0.2568359,0.2856445-0.3847656,0.6743164-0.3847656,1.1660156
			c0,0.6376953,0.2070312,1.1640625,0.6210938,1.578125c0.4140625,0.4145508,0.9404297,0.621582,1.578125,0.621582h1.0449219
			v-0.659668c0-0.9975586-0.1572266-1.7695312-0.4726562-2.315918S95.3046341,52.4325981,94.7255325,52.4325981z"/>
		<path class="st18" d="M97.4970169,58.5043755v0.0219727c0.4550781,0.190918,0.8222656,0.4692383,1.1005859,0.8364258
			c0.2783203,0.3662109,0.4179688,0.7768555,0.4179688,1.2319336c0,0.6962891-0.1904297,1.2006836-0.5722656,1.512207
			s-0.9970703,0.4677734-1.8476562,0.4677734h-3.4101562v-0.2202148h3.4101562c0.7919922,0,1.3564453-0.1357422,1.6943359-0.4067383
			c0.3369141-0.2714844,0.5058594-0.7226562,0.5058594-1.3530273c0-0.5795898-0.2363281-1.0727539-0.7099609-1.4794922
			c-0.4726562-0.4072266-1.0429688-0.6108398-1.7099609-0.6108398h-3.1904297v-0.2197266H98.90522v0.2197266H97.4970169z"/>
		<path class="st18" d="M94.5936966,68.2065277v-0.0219727c-0.4550781-0.190918-0.8212891-0.4692383-1.1005859-0.8359375
			c-0.2783203-0.3666992-0.4179688-0.7773438-0.4179688-1.2319336c0-0.6674805,0.1708984-1.1459961,0.5117188-1.4355469
			c0.3417969-0.2895508,0.9042969-0.4345703,1.6884766-0.4345703H98.90522v0.2202148h-3.6298828
			c-0.71875,0-1.2275391,0.1245117-1.5283203,0.3740234c-0.3007812,0.2490234-0.4511719,0.6743164-0.4511719,1.2758789
			c0,0.5791016,0.2363281,1.0722656,0.7089844,1.4794922c0.4726562,0.4067383,1.0429688,0.6103516,1.7109375,0.6103516H98.90522
			v0.2202148h-5.7197266v-0.2202148H94.5936966z"/>
		<path class="st18" d="M94.4501419,73.9594574v-0.0219727c-0.4248047-0.190918-0.7607422-0.4770508-1.0058594-0.8579102
			c-0.2460938-0.3818359-0.3691406-0.8251953-0.3691406-1.3310547c0-0.550293,0.1503906-0.9902344,0.4511719-1.3203125
			s0.7001953-0.4946289,1.1992188-0.4946289c0.6445312,0,1.1455078,0.2915039,1.5019531,0.8745117
			c0.3554688,0.5830078,0.5332031,1.409668,0.5332031,2.4804688v0.659668h0.0546875
			c0.7480469,0,1.265625-0.1264648,1.5507812-0.3793945c0.2861328-0.2529297,0.4296875-0.7133789,0.4296875-1.3803711
			c0-0.6894531-0.1728516-1.3310547-0.5175781-1.925293l0.1875-0.1098633
			c0.3662109,0.6308594,0.5498047,1.309082,0.5498047,2.0351562s-0.1611328,1.2373047-0.4833984,1.5341797
			c-0.3232422,0.2973633-0.8955078,0.4458008-1.7167969,0.4458008h-2.0898438c-0.5136719,0-1.0273438,0.0546875-1.5400391,0.1650391
			V74.113266C93.639595,74.0180511,94.06147,73.9667816,94.4501419,73.9594574z M94.7255325,70.1533051
			c-0.4394531,0-0.7890625,0.1430664-1.0449219,0.4291992c-0.2568359,0.2856445-0.3847656,0.6743164-0.3847656,1.1660156
			c0,0.6376953,0.2070312,1.1640625,0.6210938,1.578125c0.4140625,0.4145508,0.9404297,0.621582,1.578125,0.621582h1.0449219
			v-0.659668c0-0.9975586-0.1572266-1.7695312-0.4726562-2.315918S95.3046341,70.1533051,94.7255325,70.1533051z"/>
		<path class="st18" d="M93.1854935,76.5551605h8.25v0.2202148h-8.25V76.5551605z"/>
	</g>
	<g>
		<path class="st18" d="M260.1520386,93.1372528h-0.0224609c-0.0878906,0.2270508-0.2470703,0.4199219-0.4785156,0.5776367
			c-0.2304688,0.1572266-0.6289062,0.3608398-1.1933594,0.6103516l-2.3095703,1.0341797v-0.2421875l2.2216797-0.9897461
			c0.359375-0.1616211,0.6269531-0.2900391,0.8027344-0.3852539c0.1767578-0.0952148,0.3359375-0.1923828,0.4785156-0.2915039
			c0.1435547-0.0991211,0.2373047-0.2216797,0.28125-0.3686523c0.0439453-0.1464844,0.0742188-0.2949219,0.09375-0.4453125
			c0.0175781-0.1503906,0.0273438-0.3793945,0.0273438-0.6875v-1.3198242h-3.9052734v-0.2202148h8.0302734v1.5400391
			c0,0.3154297-0.0117188,0.6030273-0.0332031,0.8632812s-0.0703125,0.5410156-0.1425781,0.8417969
			c-0.0742188,0.300293-0.1728516,0.5537109-0.296875,0.7587891c-0.125,0.2055664-0.3007812,0.3779297-0.5292969,0.5170898
			c-0.2265625,0.1391602-0.4980469,0.2089844-0.8134766,0.2089844c-0.6376953,0-1.1367188-0.1611328-1.4951172-0.4838867
			C260.5075073,94.3325653,260.2692261,93.8267059,260.1520386,93.1372528z M260.2731323,90.6294403v1.3198242
			c0,1.0488281,0.1669922,1.8056641,0.5009766,2.2714844c0.3330078,0.4658203,0.8632812,0.6987305,1.5888672,0.6987305
			c0.5283203,0,0.9257812-0.2329102,1.1943359-0.6987305c0.2675781-0.4658203,0.4003906-1.2226562,0.4003906-2.2714844v-1.3198242
			H260.2731323z"/>
		<path class="st18" d="M256.8356323,96.8994598c0.5322266-0.4624023,1.2558594-0.6933594,2.1728516-0.6933594
			c0.9160156,0,1.640625,0.230957,2.171875,0.6933594c0.53125,0.4619141,0.7978516,1.0922852,0.7978516,1.8916016
			s-0.2666016,1.4301758-0.7978516,1.8920898s-1.2558594,0.6928711-2.171875,0.6928711
			c-0.9169922,0-1.640625-0.230957-2.1728516-0.6928711s-0.7978516-1.0927734-0.7978516-1.8920898
			S256.3034058,97.3613739,256.8356323,96.8994598z M256.994812,97.0586395
			c-0.4912109,0.421875-0.7363281,0.9990234-0.7363281,1.7324219s0.2451172,1.3110352,0.7363281,1.7329102
			c0.4921875,0.4213867,1.1621094,0.6323242,2.0136719,0.6323242c0.8496094,0,1.5214844-0.2109375,2.0126953-0.6323242
			c0.4912109-0.421875,0.7373047-0.9995117,0.7373047-1.7329102s-0.2460938-1.3105469-0.7373047-1.7324219
			s-1.1630859-0.6323242-2.0126953-0.6323242C258.1569214,96.4263153,257.4869995,96.6367645,256.994812,97.0586395z"/>
		<path class="st18" d="M256.4127808,106.1616669l-0.2089844,0.0766602
			c-0.1113281-0.3076172-0.1660156-0.6376953-0.1660156-0.9897461c0-0.5649414,0.1171875-0.9536133,0.3525391-1.1660156
			c0.234375-0.2128906,0.6669922-0.3188477,1.2978516-0.3188477h3.7402344v-1.375h0.2197266v1.375h2.0898438v0.2197266h-2.0898438
			v2.3652344h-0.2197266v-2.3652344h-3.7402344c-0.5869141,0-0.9716797,0.0898438-1.1552734,0.2695312
			c-0.1826172,0.1796875-0.2744141,0.5117188-0.2744141,0.9956055
			C256.2584839,105.5635223,256.3092651,105.8682098,256.4127808,106.1616669z"/>
		<path class="st18" d="M257.4127808,111.7715302v-0.0219727c-0.4248047-0.190918-0.7607422-0.4770508-1.0058594-0.8579102
			c-0.2460938-0.3818359-0.3691406-0.8251953-0.3691406-1.3310547c0-0.550293,0.1503906-0.9902344,0.4511719-1.3203125
			s0.7001953-0.4946289,1.1992188-0.4946289c0.6445312,0,1.1455078,0.2915039,1.5019531,0.8745117
			c0.3554688,0.5830078,0.5332031,1.409668,0.5332031,2.4804688v0.659668h0.0546875
			c0.7480469,0,1.265625-0.1264648,1.5507812-0.3793945c0.2861328-0.2529297,0.4296875-0.7133789,0.4296875-1.3803711
			c0-0.6894531-0.1728516-1.3310547-0.5175781-1.925293l0.1875-0.1098633
			c0.3662109,0.6308594,0.5498047,1.309082,0.5498047,2.0351562s-0.1611328,1.2373047-0.4833984,1.5341797
			c-0.3232422,0.2973633-0.8955078,0.4458008-1.7167969,0.4458008h-2.0898438c-0.5136719,0-1.0273438,0.0546875-1.5400391,0.1650391
			v-0.2202148C256.6022339,111.8301239,257.0241089,111.7788544,257.4127808,111.7715302z M257.6881714,107.9653778
			c-0.4394531,0-0.7890625,0.1430664-1.0449219,0.4291992c-0.2568359,0.2856445-0.3847656,0.6743164-0.3847656,1.1660156
			c0,0.6376953,0.2070312,1.1640625,0.6210938,1.578125c0.4140625,0.4145508,0.9404297,0.621582,1.578125,0.621582h1.0449219
			v-0.659668c0-0.9975586-0.1572266-1.7695312-0.4726562-2.315918S258.2672729,107.9653778,257.6881714,107.9653778z"/>
		<path class="st18" d="M260.229187,114.0371552v0.0219727c0.5205078,0.2348633,0.9423828,0.6176758,1.265625,1.1499023
			c0.3222656,0.53125,0.4833984,1.1308594,0.4833984,1.7983398h-0.2197266c0-0.8212891-0.2480469-1.5219727-0.7421875-2.1010742
			c-0.4960938-0.5795898-1.0917969-0.8691406-1.7880859-0.8691406h-3.0800781v-0.2197266h5.7197266v0.2197266H260.229187z"/>
		<path class="st18" d="M256.4342651,120.8682098v0.0219727l5.4335938,2.222168v0.2416992l-5.7089844-2.3540039
			c-0.953125-0.3813477-1.6152344-0.7880859-1.9853516-1.2207031s-0.5556641-0.9643555-0.5556641-1.5952148h0.2207031
			c0,0.5795898,0.1679688,1.0634766,0.5058594,1.4521484c0.3369141,0.3886719,0.9384766,0.7626953,1.8037109,1.1220703
			l5.7197266-2.4638672v0.2416992L256.4342651,120.8682098z"/>
	</g>
	<g>
		<path class="st18" d="M254.9977417,28.8578281c0-0.6235352-0.1357422-1.109375-0.4072266-1.4575195
			c-0.2714844-0.3486328-0.6484375-0.5224609-1.1328125-0.5224609c-0.9023438,0-1.5625,0.6708984-1.9804688,2.0126953
			c-0.2490234,0.7993164-0.5644531,1.3789062-0.9453125,1.7382812c-0.3808594,0.3588867-0.8730469,0.5390625-1.4746094,0.5390625
			c-0.6738281,0-1.1914062-0.2001953-1.5507812-0.5996094c-0.359375-0.3999023-0.5390625-0.9702148-0.5390625-1.7104492
			c0-0.909668,0.2568359-1.6796875,0.7705078-2.3100586l0.1757812,0.1318359
			c-0.4833984,0.6010742-0.7255859,1.3271484-0.7255859,2.1782227c0,0.6816406,0.1591797,1.2006836,0.4785156,1.5561523
			c0.3183594,0.355957,0.7822266,0.5336914,1.390625,0.5336914c0.5507812,0,0.9960938-0.1650391,1.3369141-0.4951172
			s0.6289062-0.8725586,0.8642578-1.6279297c0.4472656-1.4448242,1.1796875-2.1669922,2.1992188-2.1669922
			c0.5351562,0,0.9628906,0.1923828,1.28125,0.5776367c0.3193359,0.3847656,0.4785156,0.9257812,0.4785156,1.6225586
			c0,0.7993164-0.1835938,1.5327148-0.5498047,2.199707l-0.1865234-0.1098633
			C254.8248901,30.331461,254.9977417,29.6346836,254.9977417,28.8578281z"/>
		<path class="st18" d="M247.0778198,33.3343925h8.25v0.2202148h-8.25V33.3343925z"/>
		<path class="st18" d="M247.0778198,36.2167168h5.7197266v0.2202148h-5.7197266V36.2167168z M254.1178589,36.2167168h1.2099609
			v0.2202148h-1.2099609V36.2167168z"/>
		<path class="st18" d="M249.9381714,38.4388847c0.9160156,0,1.640625,0.2070312,2.171875,0.621582
			c0.53125,0.4140625,0.7978516,0.9770508,0.7978516,1.6884766c0,1.0263672-0.4550781,1.7158203-1.3642578,2.0678711v0.0219727
			h3.7841797v0.2202148h-8.25v-0.2202148h1.2539062v-0.0219727c-0.9091797-0.3520508-1.3642578-1.0415039-1.3642578-2.0678711
			c0-0.71875,0.2626953-1.2836914,0.7871094-1.6943359C248.2780151,38.6439629,249.0065308,38.4388847,249.9381714,38.4388847z
			 M247.1881714,40.7489433c0,0.6669922,0.2158203,1.1826172,0.6484375,1.5454102s1.0410156,0.5444336,1.8261719,0.5444336
			h0.5498047c0.7841797,0,1.3935547-0.1816406,1.8261719-0.5444336s0.6494141-0.878418,0.6494141-1.5454102
			c0-0.6455078-0.2480469-1.1552734-0.7421875-1.5292969c-0.4960938-0.3740234-1.1650391-0.5610352-2.0078125-0.5610352
			c-0.8652344,0-1.5410156,0.1855469-2.0244141,0.5556641S247.1881714,40.0961113,247.1881714,40.7489433z"/>
		<path class="st18" d="M247.0778198,45.4452324h5.7197266v0.2202148h-5.7197266V45.4452324z M254.1178589,45.4452324h1.2099609
			v0.2202148h-1.2099609V45.4452324z"/>
		<path class="st18" d="M251.3893433,48.217205v0.0219727c0.4550781,0.190918,0.8222656,0.4692383,1.1005859,0.8364258
			c0.2783203,0.3662109,0.4179688,0.7768555,0.4179688,1.2319336c0,0.6962891-0.1904297,1.2006836-0.5722656,1.512207
			s-0.9970703,0.4677734-1.8476562,0.4677734h-3.4101562v-0.2202148h3.4101562c0.7919922,0,1.3564453-0.1357422,1.6943359-0.4067383
			c0.3369141-0.2714844,0.5058594-0.7226562,0.5058594-1.3530273c0-0.5795898-0.2363281-1.0727539-0.7099609-1.4794922
			c-0.4726562-0.4072266-1.0429688-0.6108398-1.7099609-0.6108398h-3.1904297v-0.2197266h5.7197266v0.2197266H251.3893433z"/>
		<path class="st18" d="M251.8522339,58.1942558h0.9453125v0.2202148h-1.8691406
			c-0.5800781,0-1.0371094-0.1982422-1.3701172-0.5942383c-0.3339844-0.3959961-0.5009766-0.9311523-0.5009766-1.605957
			c0-0.5644531,0.1210938-1.0375977,0.3632812-1.4189453c-0.1904297-0.2270508-0.4033203-0.3408203-0.6376953-0.3408203
			c-0.1181641,0-0.2177734,0.0234375-0.3027344,0.0712891s-0.1708984,0.1376953-0.2587891,0.2695312
			c-0.0878906,0.1323242-0.1533203,0.3413086-0.1972656,0.6269531c-0.0449219,0.2861328-0.0664062,0.6416016-0.0664062,1.0673828
			c0,0.8066406-0.1308594,1.4023438-0.390625,1.7871094c-0.2597656,0.3852539-0.6621094,0.5776367-1.2041016,0.5776367
			c-0.5576172,0-0.9990234-0.2421875-1.3251953-0.7260742s-0.4902344-1.1401367-0.4902344-1.96875
			c0-0.7553711,0.1503906-1.3569336,0.4511719-1.8041992s0.7011719-0.6708984,1.1992188-0.6708984
			c0.3447266,0,0.6777344,0.1118164,1.0009766,0.3354492s0.5712891,0.5039062,0.7480469,0.8413086
			c0.1611328-0.4179688,0.4404297-0.6269531,0.8359375-0.6269531c0.2783203,0,0.5351562,0.125,0.7705078,0.3740234
			c0.3300781-0.3959961,0.7871094-0.59375,1.375-0.59375c0.5859375,0,1.0625,0.1943359,1.4296875,0.5830078
			c0.3662109,0.3886719,0.5498047,0.8911133,0.5498047,1.5068359c0,1.0048828-0.3525391,1.6938477-1.0556641,2.0678711V58.1942558z
			 M246.3629761,58.6346855c0.1826172,0,0.3466797-0.0239258,0.4892578-0.0717773s0.2861328-0.1411133,0.4296875-0.2802734
			c0.1425781-0.1396484,0.2539062-0.359375,0.3349609-0.6601562s0.1210938-0.6782227,0.1210938-1.1328125
			c0-0.5429688,0.0361328-0.9755859,0.1103516-1.2983398c-0.1171875-0.359375-0.3359375-0.6635742-0.6542969-0.9130859
			c-0.3203125-0.2490234-0.6513672-0.3740234-0.9960938-0.3740234c-0.4326172,0-0.7792969,0.2036133-1.0390625,0.6108398
			c-0.2607422,0.4067383-0.390625,0.9550781-0.390625,1.6445312c0,0.7626953,0.1425781,1.3657227,0.4287109,1.8095703
			C245.4830933,58.4125175,245.8717651,58.6346855,246.3629761,58.6346855z M252.197937,54.7567558
			c-0.3261719-0.3481445-0.75-0.5224609-1.2695312-0.5224609c-0.5214844,0-0.9257812,0.1743164-1.2167969,0.5224609
			c-0.2890625,0.3486328-0.4335938,0.8344727-0.4335938,1.4575195c0,0.6088867,0.1464844,1.0908203,0.4394531,1.4467773
			c0.2929688,0.3554688,0.6972656,0.5332031,1.2109375,0.5332031c0.5351562,0,0.9619141-0.1904297,1.28125-0.5717773
			c0.3183594-0.3813477,0.4785156-0.887207,0.4785156-1.5180664
			C252.6881714,55.5546074,252.5241089,55.1053886,252.197937,54.7567558z"/>
	</g>
	<path class="st18" d="M260.9024658,80.931015V63.9314995l2.0498047,2.319828l0.1503906-0.1298828l-2.300293-2.6001015
		l-2.2998047,2.6001015l0.1499023,0.1298828l2.0498047-2.319828V80.931015
		c-1.2027588,0.0537109-2.1673584,1.0412598-2.1673584,2.2574463c0,1.2504883,1.0175781,2.2675781,2.2675781,2.2675781
		s2.2675781-1.0170898,2.2675781-2.2675781C263.0700684,81.9722137,262.1052856,80.9846039,260.9024658,80.931015z
		 M260.8024902,85.1728363c-1.09375,0-1.984375-0.8901367-1.984375-1.984375s0.890625-1.984375,1.984375-1.984375
		s1.984375,0.8901367,1.984375,1.984375S261.8962402,85.1728363,260.8024902,85.1728363z"/>
	<path class="st18" d="M248.5166016,68.0463715v16.9995117l-2.0498047-2.3198242l-0.1503906,0.1298828l2.300293,2.6000977
		l2.2998047-2.6000977l-0.1499023-0.1298828l-2.0498047,2.3198242V68.0463715
		c1.2027588-0.0537109,2.1673584-1.0412598,2.1673584-2.2574463c0-1.2504883-1.0175781-2.2675819-2.2675781-2.2675819
		s-2.2675781,1.0170937-2.2675781,2.2675819C246.348999,67.0051727,247.3137817,67.9927826,248.5166016,68.0463715z
		 M248.6165771,63.8045464c1.09375,0,1.984375,0.8901405,1.984375,1.9843788s-0.890625,1.984375-1.984375,1.984375
		s-1.984375-0.8901367-1.984375-1.984375S247.5228271,63.8045464,248.6165771,63.8045464z"/>
	<circle class="st12" cx="56.6929131" cy="59.5275574" r="8.645669"/>
	<circle class="st12" cx="56.6929131" cy="119.0551147" r="8.645669"/>
	<circle class="st12" cx="56.6929131" cy="178.5826721" r="8.645669"/>
	<rect x="375.9772644" y="80.078743" class="st12" width="6.5196853" height="89.2913361"/>
	<rect x="14.1732283" y="80.078743" class="st12" width="6.5196853" height="89.2913361"/>
	<circle class="st12" cx="340.1574707" cy="59.5275574" r="8.645669"/>
	<circle class="st12" cx="340.1574707" cy="119.0551147" r="8.645669"/>
	<rect x="321.0236206" y="145.9842529" class="st12" width="38.2677155" height="56.6929131"/>
	<circle class="st12" cx="362.8346558" cy="32.5984268" r="4.9606299"/>
	<circle class="st12" cx="34.0157471" cy="32.5984268" r="4.9606299"/>
	<circle class="st12" cx="362.8346558" cy="216.8503876" r="4.9606299"/>
	<circle class="st12" cx="34.0157471" cy="216.8503876" r="4.9606299"/>
	<rect x="62.3622055" y="14.1732283" class="st12" width="59.5275574" height="6.5196853"/>
	<rect x="274.9606323" y="14.1732283" class="st12" width="59.5275574" height="6.5196853"/>
	<rect x="62.3622055" y="228.7559052" class="st12" width="59.5275574" height="6.5196853"/>
	<rect x="274.9606323" y="228.7559052" class="st12" width="59.5275574" height="6.5196853"/>
	<circle class="st12" cx="286.0997925" cy="90.6082001" r="8.645669"/>
	<g>
		<g>
			
				<ellipse transform="matrix(0.3616358 -0.9323195 0.9323195 0.3616358 -145.2881622 146.9548035)" class="st18" cx="34.6683426" cy="179.5727692" rx="2.6845548" ry="2.6929133"/>
			<g>
				<path class="st18" d="M39.0143166,181.562561l-0.7928391-0.3075256
					c-0.1453552-0.0563812-0.2181511-0.2214355-0.1617699-0.3667908l0,0
					c0.0563812-0.1453552,0.2214394-0.2181549,0.3667908-0.1617737l0.7928391,0.3075409
					c0.1453552,0.0563812,0.2181511,0.2214355,0.1617699,0.3667755v0.0000153
					C39.3247261,181.5461426,39.159668,181.6189423,39.0143166,181.562561z"/>
				<path class="st18" d="M30.5958843,178.2971497l-0.7928391-0.3075256
					c-0.1453552-0.0563812-0.2181511-0.2214355-0.1617699-0.3667908l0,0
					c0.0563812-0.1453552,0.2214375-0.2181549,0.3667908-0.1617737l0.7928391,0.3075409
					c0.1453533,0.056366,0.2181492,0.2214355,0.161768,0.3667755v0.0000153
					C30.906292,178.2807312,30.7412376,178.3535309,30.5958843,178.2971497z"/>
			</g>
			<g>
				<path class="st18" d="M36.5619431,175.0086823l-0.3075333,0.7928467
					c-0.0563812,0.1453552-0.2214355,0.2181396-0.3667908,0.1617584l0,0
					c-0.1453552-0.0563812-0.2181473-0.2214355-0.1617699-0.3667908l0.3075333-0.7928314
					c0.0563812-0.1453552,0.2214394-0.2181549,0.3667908-0.1617737l0,0
					C36.5455284,174.6982727,36.6183243,174.863327,36.5619431,175.0086823z"/>
				<path class="st18" d="M33.2965317,183.427124l-0.3075333,0.7928314
					c-0.0563812,0.1453552-0.2214355,0.2181549-0.3667908,0.1617737l0,0
					c-0.1453552-0.0563812-0.2181511-0.2214355-0.1617699-0.3667908l0.3075333-0.7928467
					c0.0563812-0.1453552,0.2214394-0.2181396,0.3667908-0.1617584l0,0
					C33.280117,183.1167145,33.3529129,183.2817688,33.2965317,183.427124z"/>
			</g>
			<g>
				<path class="st18" d="M36.2452812,184.1461029l-0.3431625-0.7780762
					c-0.0629158-0.1426544,0.0023232-0.3108368,0.1449699-0.3737488l0,0
					c0.1426506-0.062912,0.3108368,0.0023193,0.3737488,0.1449738l0.3431625,0.7780762
					c0.0629158,0.1426544-0.0023232,0.3108368-0.1449699,0.3737488l0,0
					C36.4763794,184.3539886,36.3081932,184.2887573,36.2452812,184.1461029z"/>
				<path class="st18" d="M32.6015434,175.8843842l-0.3431625-0.7780914
					c-0.062912-0.1426392,0.0023232-0.3108368,0.1449738-0.3737488l0,0c0.1426468-0.062912,0.310833,0.0023346,0.373745,0.1449738
					l0.3431664,0.7780914c0.062912,0.1426392-0.002327,0.3108215-0.1449738,0.3737335l0,0
					C32.8326454,176.0922699,32.6644592,176.0270233,32.6015434,175.8843842z"/>
			</g>
			<g>
				<path class="st18" d="M39.1454811,177.77771l-0.77808,0.3431702c-0.1426506,0.062912-0.3108368-0.0023193-0.3737488-0.1449738
					l0,0c-0.062912-0.1426392,0.0023232-0.3108368,0.1449699-0.3737488l0.77808-0.3431549
					c0.1426506-0.062912,0.3108368,0.0023193,0.3737488,0.1449738l0,0
					C39.353363,177.5466156,39.2881279,177.714798,39.1454811,177.77771z"/>
				<path class="st18" d="M30.8837585,181.421463l-0.77808,0.3431702c-0.1426487,0.062912-0.3108349-0.0023346-0.3737469-0.1449738
					h-0.0000019c-0.062912-0.1426544,0.0023251-0.3108368,0.1449718-0.3737488l0.7780819-0.3431702
					c0.1426468-0.062912,0.310833,0.0023193,0.3737469,0.1449738l0,0
					C31.0916443,181.1903687,31.0264072,181.358551,30.8837585,181.421463z"/>
			</g>
		</g>
		<g>
			<circle class="st18" cx="34.6688004" cy="160.995575" r="2.6929133"/>
			<g>
				<path class="st18" d="M40.7718201,163.612915l-2.5090904-0.951416c-0.1457787-0.0552673-0.2198219-0.2197723-0.164547-0.3655396
					l0,0c0.0552788-0.1457825,0.2197762-0.2198334,0.365551-0.1645508l2.5090942,0.951416
					c0.1457748,0.0552673,0.2198219,0.2197723,0.164547,0.3655396v0.0000153
					C41.0820961,163.5941467,40.9175987,163.6681976,40.7718201,163.612915z"/>
				<path class="st18" d="M30.5586472,159.7402191l-2.5090923-0.9514008
					c-0.1457767-0.0552826-0.2198238-0.2197876-0.164547-0.3655548l0,0
					c0.0552769-0.1457825,0.2197762-0.2198334,0.3655529-0.1645508l2.5090923,0.951416
					c0.1457767,0.0552673,0.2198219,0.2197723,0.164547,0.3655548l0,0
					C30.8689232,159.7214508,30.7044239,159.7955017,30.5586472,159.7402191z"/>
			</g>
			<g>
				<path class="st18" d="M31.8340874,167.1964417l0.9514122-2.5090942
					c0.0552788-0.1457672,0.2197762-0.2198181,0.3655548-0.1645355l0,0
					c0.1457748,0.0552673,0.2198219,0.2197723,0.1645432,0.3655548l-0.9514122,2.509079
					c-0.055275,0.1457825-0.2197723,0.2198334-0.3655491,0.1645508h-0.0000019
					C31.8528576,167.5067291,31.7788124,167.3422241,31.8340874,167.1964417z"/>
				<path class="st18" d="M35.7067833,156.9832764l0.9514122-2.5090942c0.055275-0.1457825,0.2197762-0.2198181,0.365551-0.1645508
					l0,0c0.1457787,0.0552826,0.2198257,0.2197723,0.164547,0.3655548l-0.9514122,2.5090942
					c-0.055275,0.1457672-0.2197723,0.2198181-0.365551,0.1645508l0,0
					C35.7255516,157.2935486,35.6515045,157.1290436,35.7067833,156.9832764z"/>
			</g>
			<g>
				<path class="st18" d="M40.8311195,158.4018707l-2.4469452,1.1014557
					c-0.1421661,0.0639954-0.3108406,0.0000305-0.374836-0.1421356l0,0
					c-0.0639915-0.1421661-0.0000343-0.3108521,0.1421318-0.3748322l2.4469452-1.1014557
					c0.1421661-0.0639954,0.3108444-0.0000305,0.374836,0.1421356l0,0
					C41.0372467,158.1692047,40.9732857,158.3378754,40.8311195,158.4018707z"/>
				<path class="st18" d="M30.8709106,162.8852844l-2.4469452,1.1014404
					c-0.1421661,0.0639954-0.3108425,0.0000458-0.374836-0.1421356l0,0
					c-0.0639935-0.1421661-0.0000343-0.3108368,0.1421318-0.3748322l2.4469452-1.1014404
					c0.1421661-0.0639954,0.3108425-0.0000458,0.374836,0.1421204l0,0
					C31.0770378,162.6526031,31.0130787,162.8212891,30.8709106,162.8852844z"/>
			</g>
			<g>
				<path class="st18" d="M37.0451279,167.2557526l-1.1014442-2.4469452
					c-0.0639954-0.1421661-0.0000343-0.3108521,0.1421318-0.3748474l0,0
					c0.1421661-0.0639954,0.3108406-0.0000305,0.374836,0.1421356l1.1014442,2.4469452
					c0.0639954,0.1421661,0.0000343,0.3108521-0.1421318,0.3748322l0,0
					C37.2777977,167.4618683,37.1091232,167.3979187,37.0451279,167.2557526z"/>
				<path class="st18" d="M32.5617332,157.2955322l-1.1014481-2.4469452
					c-0.0639935-0.1421661-0.0000343-0.3108368,0.1421318-0.3748322h0.0000019
					c0.1421661-0.0639954,0.3108425-0.0000305,0.374836,0.1421356l1.1014462,2.4469452
					c0.0639915,0.1421661,0.0000343,0.3108368-0.1421318,0.3748322l0,0
					C32.7944031,157.5016632,32.6257248,157.4376984,32.5617332,157.2955322z"/>
			</g>
		</g>
		<ellipse class="st18" cx="34.5111923" cy="195.087616" rx="2.6929133" ry="2.6845548"/>
	</g>
</g>
</svg>
