<?xml version="1.0" encoding="utf-8"?>
<!-- Generator: Adobe Illustrator 25.4.1, SVG Export Plug-In . SVG Version: 6.00 Build 0)  -->
<svg version="1.1" id="Layer_1" xmlns="http://www.w3.org/2000/svg" xmlns:xlink="http://www.w3.org/1999/xlink" x="0px" y="0px"
	 viewBox="0 0 595.2755737 841.8898315" style="enable-background:new 0 0 595.2755737 841.8898315;" xml:space="preserve">
<style type="text/css">
	.st0{fill:#FFF200;stroke:#000000;stroke-width:0.2834646;stroke-miterlimit:10;}
	.st1{fill:none;stroke:#000000;stroke-width:0.2834646;stroke-miterlimit:10;}
	.st2{fill:none;stroke:#000000;stroke-width:0.7086614;stroke-miterlimit:10;}
	.st3{fill:none;stroke:#EC008C;stroke-width:0.7086614;stroke-miterlimit:10;}
	.st4{fill:none;stroke:#EC008C;stroke-width:0.2834646;stroke-miterlimit:10;}
	.st5{fill:none;stroke:#ED1C24;stroke-width:0.2834646;stroke-miterlimit:10;}
	.st6{fill:none;stroke:#00AEEF;stroke-width:0.2834646;stroke-miterlimit:10;}
	.st7{fill:none;stroke:#2E3192;stroke-width:0.7086614;stroke-miterlimit:10;}
	.st8{fill:none;stroke:#00A651;stroke-width:0.7086614;stroke-miterlimit:10;}
</style>
<g>
	<path class="st2" d="M12.7559204,104.8818665h87.8422546c8.6104202,0,15.5905457,6.9801254,15.5905457,15.5905533v0.0000229
		c0,7.044899,5.7110214,12.7559204,12.7559204,12.7559204h25.5119019c7.0448608,0,12.7558594-5.7109909,12.7558594-12.7558594
		v-0.0000229c0-8.6104584,6.9801483-15.5906143,15.5906067-15.5906143h87.9057312
		c7.0448608,0,12.7558594-5.7109909,12.7558594-12.7558594V72.2834778c0-7.044899-5.7110291-12.7559204-12.7559204-12.7559204
		H154.456543h-25.5119629H12.7558594C5.7109928,59.5275574,0,65.2385483,0,72.2834167V92.125946
		C0,99.170845,5.71102,104.8818665,12.7559204,104.8818665z"/>
	<g>
		<g>
			<g>
				<circle class="st3" cx="198.3934631" cy="82.2047043" r="4.9606299"/>
				<circle class="st3" cx="141.7005615" cy="82.2047043" r="4.9606299"/>
			</g>
			<g>
				<circle class="st3" cx="170.0470123" cy="82.2047043" r="4.9606299"/>
				<circle class="st3" cx="113.3540955" cy="82.2047043" r="4.9606299"/>
			</g>
			<circle class="st3" cx="85.0076447" cy="82.2047043" r="4.9606299"/>
			<circle class="st3" cx="56.6611862" cy="82.2047043" r="4.9606299"/>
			<circle class="st3" cx="226.7399292" cy="82.2047043" r="4.9606299"/>
		</g>
		<circle class="st3" cx="141.7005615" cy="110.5511551" r="4.9606299"/>
	</g>
</g>
<g>
	<path class="st2" d="M299.0551147,59.5275574h48.1889648C354.2890015,59.5275574,360,65.2385712,360,72.2834625v25.5118103
		c0,7.0448914-5.7109985,12.7559052-12.7559204,12.7559052h-48.1889648c-7.0448914,0-12.7558899-5.7110138-12.7558899-12.7559052
		V72.2834625C286.2992249,65.2385712,292.0102234,59.5275574,299.0551147,59.5275574z"/>
	<g>
		<circle class="st3" cx="308.9763794" cy="85.0393677" r="4.9606299"/>
		<circle class="st3" cx="337.3228455" cy="85.0393677" r="4.9606299"/>
	</g>
</g>
<g>
	<g>
		<circle class="st3" cx="22.677166" cy="28.378191" r="4.9606299"/>
		<circle class="st3" cx="51.0236206" cy="28.378191" r="4.9606299"/>
	</g>
	<path class="st2" d="M0,43.9370079V12.7559052C0,5.7110133,5.7110133,0,12.7559052,0l333.0708618,0
		c12.524231,0,22.6771545,10.1529131,22.6771545,22.677166v11.3385811c0,12.5242538-10.1529236,22.677166-22.6771545,22.677166
		H12.7559052C5.7110133,56.6929131,0,50.9818993,0,43.9370079z"/>
	<path class="st3" d="M100.2049942,28.3464642v-0.0000153c0-4.3052082,3.4900665-7.7952671,7.7952728-7.7952671h41.1023788
		c4.3052063,0,7.7952576,3.4900589,7.7952576,7.7952671v0.0000153c0.0000153,4.3052082-3.4900513,7.7952671-7.7952576,7.7952671
		H108.000267C103.6950607,36.1417313,100.2049942,32.6516724,100.2049942,28.3464642z"/>
</g>
<g>
	<circle class="st3" cx="325.9842529" cy="46.7804146" r="4.5354333"/>
	<circle class="st3" cx="325.9842529" cy="9.9124985" r="4.5354333"/>
</g>
</svg>
