<?xml version="1.0" encoding="utf-8"?>
<!-- Generator: Adobe Illustrator 25.4.1, SVG Export Plug-In . SVG Version: 6.00 Build 0)  -->
<svg version="1.1" id="レイヤー_1" xmlns="http://www.w3.org/2000/svg" xmlns:xlink="http://www.w3.org/1999/xlink" x="0px"
	 y="0px" viewBox="0 0 595.2755737 841.8897705" style="enable-background:new 0 0 595.2755737 841.8897705;" xml:space="preserve">
<style type="text/css">
	.st0{fill:none;stroke:#000000;stroke-width:0.2834646;stroke-miterlimit:10;}
	.st1{fill:none;stroke:#000000;stroke-width:0.2834646;stroke-miterlimit:10;stroke-dasharray:5.7201543,5.7201543;}
	.st2{fill:none;stroke:#1D4347;stroke-width:0.7086614;stroke-miterlimit:10;}
	.st3{fill:none;stroke:#5AA8CE;stroke-width:0.7086614;stroke-miterlimit:10;}
	.st4{fill:#130B0B;}
	.st5{fill:#E8E6E3;}
	.st6{fill:#8CD3D7;}
	.st7{fill:none;stroke:#000000;stroke-width:0.5;stroke-miterlimit:10;}
	.st8{fill:#F0047F;}
	.st9{fill:#C2000B;}
	.st10{fill:none;stroke:#130B0B;stroke-width:0.2834646;stroke-miterlimit:10;}
	.st11{fill:#808080;}
	.st12{fill:none;stroke:#01A0C6;stroke-width:0.7086614;stroke-miterlimit:10;}
	.st13{fill:none;stroke:#000000;stroke-width:0.7086614;stroke-miterlimit:10;}
	.st14{fill:none;stroke:#FF0001;stroke-width:0.7086614;stroke-miterlimit:10;}
	.st15{fill:none;stroke:#FF0601;stroke-width:0.7086614;stroke-miterlimit:10;}
	.st16{fill:none;stroke:#070606;stroke-width:0.7086614;stroke-miterlimit:10;}
	.st17{fill:none;stroke:#018837;stroke-width:0.7086614;stroke-miterlimit:10;}
	.st18{fill:none;stroke:#018837;stroke-width:0.25;}
	.st19{fill:none;stroke:#01A0C6;stroke-width:0.2834646;stroke-miterlimit:10;}
</style>
<g>
	<g>
		
			<rect x="134.7818909" y="28.3018112" transform="matrix(0.980706 0.1954882 -0.1954882 0.980706 12.3200998 -26.1785545)" class="st15" width="8" height="42.0462761"/>
		
			<rect x="134.7818909" y="261.3058472" transform="matrix(0.980706 -0.1954882 0.1954882 0.980706 -52.5143433 32.5774727)" class="st15" width="8" height="42.0462761"/>
		<path class="st16" d="M155.1999512,255.2028198c-2.6602783-13.2376709-14.2884521-22.7615967-27.7908936-22.7615967
			l-0.0039062-0.0046387c-31.239624-0.0977783-56.5394287-29.8800049-56.5394287-66.6096191
			s25.2998047-66.5118408,56.5394287-66.6096191l0.0039062-0.0046387c13.5024414,0,25.1306152-9.5239258,27.7908936-22.7615967
			l8.5448151-42.5198555C167.2711792,16.3835049,153.8525543,0,135.9539795,0H94.5675049
			C81.0651855,0,69.4368896,9.5238647,66.7767334,22.7615356L55.096283,79.4240417
			c-2.7153702,13.1724091-14.3132858,22.6233826-27.7626648,22.6233826H22.677166
			C10.1529131,102.0474243,0,112.2003403,0,124.7245865v41.1023788v41.1023712
			c0,12.5242615,10.1529131,22.6771698,22.677166,22.6771698h4.6564312c13.4494076,0,25.0473499,9.4509888,27.7627239,22.6234436
			l11.6804123,56.6624451c2.6601562,13.2376709,14.2884521,22.7614746,27.7907715,22.7614746h41.3864746
			c17.8985748,0,31.3171844-16.3835144,27.7907715-33.9312439L155.1999512,255.2028198z"/>
		<g>
			<line class="st17" x1="45.0388641" y1="99.211113" x2="49.1448402" y2="99.211113"/>
			<line class="st17" x1="109.854599" y1="99.211113" x2="113.9605789" y2="99.211113"/>
		</g>
		<g>
			<line class="st17" x1="45.0388641" y1="232.442749" x2="49.1448402" y2="232.442749"/>
			<line class="st17" x1="109.854599" y1="232.442749" x2="113.9605789" y2="232.442749"/>
		</g>
		<path class="st18" d="M19.5413589,162.4570007c-1.5477905,1.3494873-4.0447369,2.6235352-6.057188,3.3703003
			c2.0124521,0.7460327,4.5094013,2.0200806,6.0571918,3.3695679l-1.0907612-3.0150146h7.5692406v-0.7089844h-7.5693626
			L19.5413589,162.4570007z"/>
		<path class="st18" d="M50.5173492,169.1968689c1.5477905-1.3494873,4.044735-2.6235352,6.0571861-3.3703003
			c-2.0124512-0.7460327-4.5093994-2.0200806-6.0571899-3.3695679l1.0907593,3.0150146h-7.5692406v0.7089844h7.5693626
			L50.5173492,169.1968689z"/>
	</g>
	<circle class="st15" cx="35.4328461" cy="137.480484" r="4.5354333"/>
	<circle class="st15" cx="35.4328461" cy="194.1733856" r="4.5354333"/>
	<circle class="st15" cx="35.4328461" cy="151.6537018" r="4.5354333"/>
	<circle class="st15" cx="35.4328461" cy="165.746582" r="4.5354333"/>
	<circle class="st15" cx="35.4328461" cy="180.0001678" r="4.5354333"/>
</g>
<g>
	<g>
		
			<rect x="239.3015594" y="28.3018112" transform="matrix(0.980706 0.1954882 -0.1954882 0.980706 14.3366976 -46.6109238)" class="st15" width="8" height="42.0462761"/>
		
			<rect x="239.3015594" y="261.3058472" transform="matrix(0.980706 -0.1954882 0.1954882 0.980706 -50.4977455 53.0098381)" class="st15" width="8" height="42.0462761"/>
		<path class="st16" d="M259.719635,255.2028198c-2.6602783-13.2376709-14.2884674-22.7615967-27.7909088-22.7615967
			l-0.0039062-0.0046387c-31.239624-0.0977783-56.5394287-29.8800049-56.5394287-66.6096191
			s25.2998047-66.5118408,56.5394287-66.6096191l0.0039062-0.0046387c13.5024414,0,25.1306305-9.5239258,27.7909088-22.7615967
			l8.5447998-42.5198555C271.7908325,16.3835049,258.3722229,0,240.4736481,0h-41.3864746
			c-13.5023193,0-25.1306152,9.5238647-27.7907715,22.7615356l-11.6804504,56.6625061
			c-2.7153625,13.1724091-14.3132782,22.6233826-27.7626648,22.6233826h-4.6564484
			c-12.5242538,0-22.6771622,10.152916-22.6771622,22.6771622v41.1023788v41.1023712
			c0,12.5242615,10.1529083,22.6771698,22.6771622,22.6771698h4.6564331c13.4494019,0,25.047348,9.4509888,27.7627258,22.6234436
			l11.6804047,56.6624451c2.6601562,13.2376709,14.2884521,22.7614746,27.7907715,22.7614746h41.3864746
			c17.8985748,0,31.3171844-16.3835144,27.7907867-33.9312439L259.719635,255.2028198z"/>
		<g>
			<line class="st17" x1="149.5585327" y1="99.211113" x2="153.6645203" y2="99.211113"/>
			<line class="st17" x1="214.3742828" y1="99.211113" x2="218.4802551" y2="99.211113"/>
		</g>
		<g>
			<line class="st17" x1="149.5585327" y1="232.442749" x2="153.6645203" y2="232.442749"/>
			<line class="st17" x1="214.3742828" y1="232.442749" x2="218.4802551" y2="232.442749"/>
		</g>
		<path class="st18" d="M124.0610352,162.4570007c-1.5477905,1.3494873-4.0447388,2.6235352-6.0571899,3.3703003
			c2.0124512,0.7460327,4.5093994,2.0200806,6.0571899,3.3695679l-1.0907593-3.0150146h7.5692444v-0.7089844h-7.5693665
			L124.0610352,162.4570007z"/>
		<path class="st18" d="M155.0370178,169.1968689c1.5477905-1.3494873,4.0447388-2.6235352,6.0571899-3.3703003
			c-2.0124512-0.7460327-4.5093994-2.0200806-6.0571899-3.3695679l1.0907593,3.0150146h-7.5692444v0.7089844h7.5693665
			L155.0370178,169.1968689z"/>
	</g>
	<circle class="st15" cx="139.9525146" cy="137.480484" r="4.5354333"/>
	<circle class="st15" cx="139.9525146" cy="194.1733856" r="4.5354333"/>
	<circle class="st15" cx="139.9525146" cy="151.6537018" r="4.5354333"/>
	<circle class="st15" cx="139.9525146" cy="165.746582" r="4.5354333"/>
	<circle class="st15" cx="139.9525146" cy="180.0001678" r="4.5354333"/>
</g>
</svg>
