<?xml version="1.0" encoding="utf-8"?>
<!-- Generator: Adobe Illustrator 25.4.1, SVG Export Plug-In . SVG Version: 6.00 Build 0)  -->
<svg version="1.1" xmlns="http://www.w3.org/2000/svg" xmlns:xlink="http://www.w3.org/1999/xlink" x="0px" y="0px"
	 viewBox="0 0 1275.5905762 850.3936768" style="enable-background:new 0 0 1275.5905762 850.3936768;" xml:space="preserve">
<style type="text/css">
	.st0{opacity:0.56;}
	.st1{fill:#00AEEF;}
	.st2{fill:#F15A29;}
	.st3{fill:#FFF200;}
	.st4{fill:#00A651;}
	.st5{fill:none;stroke:#C49A6C;stroke-width:0.2834646;stroke-miterlimit:10;stroke-dasharray:2.8346457,2.8346457;}
	.st6{fill:#C49A6C;}
	.st7{fill:none;stroke:#C49A6C;stroke-miterlimit:10;stroke-dasharray:2.8346457,2.8346457;}
	.st8{fill:none;stroke:#00AEEF;stroke-width:0.7086614;stroke-miterlimit:10;}
	.st9{fill:none;stroke:#F7941D;stroke-width:0.7086614;stroke-miterlimit:10;}
	.st10{fill:none;stroke:#F7941D;stroke-width:0.7086614;stroke-miterlimit:10;stroke-dasharray:2.8346457,2.8346457;}
	.st11{fill:none;stroke:#00A14B;stroke-width:0.7086614;stroke-miterlimit:10;}
	.st12{fill:none;stroke:#EC008C;stroke-width:0.7086614;stroke-miterlimit:10;}
	.st13{fill:none;stroke:#000000;stroke-miterlimit:10;}
	.st14{fill:none;stroke:#F7941D;stroke-width:0.7086614;stroke-miterlimit:10;stroke-dasharray:2.7910357,2.7910357;}
	.st15{fill:none;stroke:#F7941D;stroke-width:0.7086614;stroke-miterlimit:10;stroke-dasharray:2.7968504,2.7968504;}
	.st16{fill:none;stroke:#2E3192;stroke-width:0.7086614;stroke-miterlimit:10;}
	.st17{fill:none;stroke:#00A14B;stroke-width:0.2834646;}
	.st18{fill:none;stroke:#00A14B;stroke-width:0.2834646;stroke-miterlimit:10;}
	.st19{fill:none;stroke:#000000;stroke-width:0.7086614;stroke-miterlimit:10;}
</style>
<g id="PCBa">
</g>
<g id="よこなが">
	<g>
		<g>
			<path class="st18" d="M317.1875305,76.053154h-0.2011719v-4.5996094c0-0.9067383,0.2148438-1.6000977,0.6455078-2.0800781
				s1.0478516-0.7202148,1.8544922-0.7202148s1.4257812,0.2402344,1.8554688,0.7202148s0.6445312,1.1733398,0.6445312,2.0800781
				v4.5996094h-0.1992188v-4.5996094c0-0.8466797-0.1953125-1.4916992-0.5859375-1.9350586
				c-0.3886719-0.4433594-0.9609375-0.6650391-1.7148438-0.6650391c-0.7529297,0-1.3242188,0.2216797-1.7148438,0.6650391
				c-0.3896484,0.4433594-0.5839844,1.0883789-0.5839844,1.9350586V76.053154z"/>
			<path class="st18" d="M315.1670227,72.6732712h-0.0205078c-0.1728516,0.4135742-0.4257812,0.746582-0.7597656,1
				c-0.3330078,0.253418-0.7070312,0.3798828-1.1201172,0.3798828c-0.6337891,0-1.0908203-0.1733398-1.375-0.5200195
				c-0.2832031-0.3466797-0.4248047-0.9067383-0.4248047-1.6796875v-3.1000977h0.2001953v3.1000977
				c0,0.7197266,0.1230469,1.2333984,0.3701172,1.5400391c0.2460938,0.3066406,0.65625,0.4599609,1.2294922,0.4599609
				c0.5263672,0,0.9755859-0.215332,1.3447266-0.6450195c0.3710938-0.4301758,0.5556641-0.9487305,0.5556641-1.5551758v-2.8999023
				h0.2001953v5.2001953h-0.2001953V72.6732712z"/>
			<path class="st18" d="M309.3965149,75.1532516v1.1000977h-0.1992188v-1.1000977H309.3965149z M309.3965149,68.7533493v5.2001953
				h-0.1992188v-5.2001953H309.3965149z"/>
			<path class="st18" d="M305.1875305,68.9135056h-0.0205078l-2.0693359,5.0400391h-0.2207031l2.1503906-5.2001953h0.2998047
				l2.1494141,5.2001953h-0.21875L305.1875305,68.9135056z"/>
			<path class="st18" d="M301.9570618,71.303154c-0.0058594-0.7666016-0.2050781-1.3666992-0.5947266-1.7998047
				c-0.3896484-0.4335938-0.9248047-0.6499023-1.6044922-0.6499023c-0.5878906,0-1.1210938,0.1464844-1.6005859,0.4399414
				l-0.1005859-0.1801758c0.5205078-0.3066406,1.0878906-0.4599609,1.7011719-0.4599609
				c0.7392578,0,1.3242188,0.2416992,1.7539062,0.7250977c0.4306641,0.4833984,0.6455078,1.1416016,0.6455078,1.9750977
				c0,0.8466797-0.203125,1.5083008-0.6103516,1.9848633c-0.40625,0.4765625-0.9697266,0.7148438-1.6894531,0.7148438
				c-0.6669922,0-1.1835938-0.2314453-1.5507812-0.6948242c-0.3662109-0.4633789-0.5488281-1.1147461-0.5488281-1.9550781V71.303154
				H301.9570618z M301.9570618,71.5033493h-3.9902344c0.0136719,0.7597656,0.1816406,1.3417969,0.5058594,1.7451172
				c0.3222656,0.4033203,0.7851562,0.6049805,1.3847656,0.6049805c0.6464844,0,1.1513672-0.2050781,1.5146484-0.6152344
				C301.7363586,72.8285446,301.9306946,72.2499313,301.9570618,71.5033493z"/>
			<path class="st18" d="M296.2373352,72.4633102h-0.0205078c-0.2128906,0.4731445-0.5615234,0.8564453-1.0449219,1.1499023
				c-0.4824219,0.293457-1.0283203,0.4399414-1.6347656,0.4399414v-0.199707c0.7460938,0,1.3828125-0.2250977,1.9101562-0.675293
				c0.5263672-0.449707,0.7900391-0.9916992,0.7900391-1.625v-2.7998047h0.2001953v5.2001953h-0.2001953V72.4633102z"/>
			<path class="st18" d="M289.0674133,73.6532516l0.0898438-0.1796875c0.5341797,0.2529297,1.0703125,0.3798828,1.6103516,0.3798828
				c0.4726562,0,0.8496094-0.1000977,1.1298828-0.300293c0.2802734-0.199707,0.4199219-0.4663086,0.4199219-0.7998047
				c0-0.2998047-0.1103516-0.5449219-0.3300781-0.7348633s-0.6337891-0.3452148-1.2392578-0.465332
				c-0.640625-0.1264648-1.1054688-0.3081055-1.3955078-0.5449219s-0.4345703-0.5546875-0.4345703-0.9550781
				c0-0.4331055,0.1660156-0.7749023,0.5-1.0249023c0.3330078-0.25,0.7832031-0.375,1.3496094-0.375
				c0.6132812,0,1.1972656,0.1665039,1.75,0.5l-0.0996094,0.1699219c-0.5136719-0.3134766-1.0644531-0.4697266-1.6503906-0.4697266
				c-0.5068359,0-0.9082031,0.1064453-1.2050781,0.3198242s-0.4453125,0.5068359-0.4453125,0.8798828
				c0,0.3466797,0.1308594,0.621582,0.390625,0.8251953c0.2597656,0.203125,0.6865234,0.3613281,1.2792969,0.4750977
				c0.6132812,0.1201172,1.0546875,0.2880859,1.3251953,0.5048828s0.4052734,0.5151367,0.4052734,0.8950195
				c0,0.3930664-0.1582031,0.7084961-0.4746094,0.9448242c-0.3164062,0.2368164-0.7421875,0.3549805-1.2753906,0.3549805
				C290.1875305,74.053154,289.6211243,73.9198532,289.0674133,73.6532516z"/>
			<path class="st18" d="M284.0869446,69.9032516h0.0205078c0.1738281-0.3867188,0.4335938-0.6914062,0.7792969-0.9150391
				c0.3476562-0.2231445,0.75-0.3349609,1.2109375-0.3349609c0.5,0,0.8994141,0.1367188,1.1992188,0.4101562
				c0.3007812,0.2734375,0.4501953,0.6367188,0.4501953,1.0898438c0,0.5864258-0.2646484,1.0415039-0.7949219,1.3652344
				c-0.5302734,0.3232422-1.2822266,0.4848633-2.2548828,0.4848633h-0.5996094v0.0498047
				c0,0.6801758,0.1142578,1.1503906,0.34375,1.4101562c0.2304688,0.2602539,0.6484375,0.3901367,1.2558594,0.3901367
				c0.6269531,0,1.2099609-0.1567383,1.75-0.4702148l0.0996094,0.1699219c-0.5732422,0.3334961-1.1894531,0.5-1.8496094,0.5
				s-1.125-0.1464844-1.3945312-0.4399414c-0.2705078-0.293457-0.40625-0.8134766-0.40625-1.5600586v-1.8999023
				c0-0.4667969-0.0488281-0.9331055-0.1494141-1.3999023h0.2001953
				C284.0332336,69.1664352,284.0801086,69.549736,284.0869446,69.9032516z M287.5469055,70.1532516
				c0-0.3999023-0.1298828-0.7167969-0.3896484-0.949707c-0.2607422-0.2333984-0.6132812-0.3500977-1.0595703-0.3500977
				c-0.5800781,0-1.0585938,0.1879883-1.4355469,0.5649414c-0.3769531,0.3764648-0.5644531,0.8549805-0.5644531,1.4350586v0.949707
				h0.5996094c0.90625,0,1.6083984-0.1430664,2.1054688-0.4296875
				C287.2988586,71.0868454,287.5469055,70.6801071,287.5469055,70.1532516z"/>
			<path class="st18" d="M281.726593,68.7533493v7.5h-0.1992188v-7.5H281.726593z"/>
			<path class="st18" d="M271.4082336,69.4633102l-0.1113281-0.1601562
				c0.6269531-0.4331055,1.3613281-0.6499023,2.2011719-0.6499023c1.0664062,0,1.9160156,0.340332,2.5488281,1.0200195
				c0.6347656,0.6801758,0.9511719,1.5898438,0.9511719,2.7299805c0,1.1533203-0.3144531,2.0668945-0.9404297,2.7402344
				s-1.4794922,1.0097656-2.5595703,1.0097656c-0.8398438,0-1.5742188-0.2167969-2.2011719-0.6499023l0.1113281-0.1601562
				c0.5859375,0.4067383,1.2832031,0.6103516,2.0898438,0.6103516c1.0195312,0,1.8242188-0.3188477,2.4140625-0.9550781
				c0.5898438-0.6367188,0.8847656-1.5019531,0.8847656-2.5952148c0-1.0800781-0.2988281-1.9414062-0.8994141-2.5849609
				s-1.3994141-0.9648438-2.3994141-0.9648438C272.7041321,68.853447,272.007843,69.056572,271.4082336,69.4633102z"/>
			<path class="st18" d="M269.5976868,69.3783493c0.4199219,0.4833984,0.6298828,1.1416016,0.6298828,1.9750977
				c0,0.8330078-0.2099609,1.4916992-0.6298828,1.9750977c-0.4199219,0.4829102-0.9941406,0.7246094-1.7207031,0.7246094
				s-1.2988281-0.2416992-1.71875-0.7246094c-0.4208984-0.4833984-0.6308594-1.1420898-0.6308594-1.9750977
				c0-0.8334961,0.2099609-1.4916992,0.6308594-1.9750977c0.4199219-0.4833984,0.9921875-0.7250977,1.71875-0.7250977
				S269.1777649,68.8949509,269.5976868,69.3783493z M269.4531555,69.5233688
				c-0.3837891-0.4467773-0.9082031-0.6699219-1.5761719-0.6699219c-0.6660156,0-1.1914062,0.2231445-1.5742188,0.6699219
				s-0.5751953,1.0566406-0.5751953,1.8300781c0,0.7729492,0.1923828,1.3833008,0.5751953,1.8300781
				c0.3828125,0.4462891,0.9082031,0.6699219,1.5742188,0.6699219c0.6679688,0,1.1923828-0.2236328,1.5761719-0.6699219
				c0.3828125-0.4467773,0.5742188-1.0571289,0.5742188-1.8300781
				C270.0273743,70.5800095,269.835968,69.9701462,269.4531555,69.5233688z"/>
			<path class="st18" d="M258.7773743,75.8431931h0.0195312l2.2011719-7.0898438h0.3193359l2.2001953,7.0898438h0.0195312
				l0.9199219-7.0898438h0.2011719l-0.9511719,7.2998047h-0.3398438l-2.1992188-7.0996094h-0.0205078l-2.2001953,7.0996094
				h-0.3398438l-0.9492188-7.2998047h0.1992188L258.7773743,75.8431931z"/>
			<path class="st18" d="M253.7275696,72.7831345v-0.0200195c-1.2607422-0.206543-1.8896484-0.8266602-1.8896484-1.8598633
				c0-1.4331055,1-2.1499023,3-2.1499023h1.3994141v7.2998047h-1.2998047c-1.7998047,0-2.7001953-0.5498047-2.7001953-1.6499023
				C252.2373352,73.5634079,252.7344055,73.0233688,253.7275696,72.7831345z M256.0371399,72.853447h-1.1992188
				c-0.7734375,0-1.3671875,0.1333008-1.7802734,0.3999023s-0.6201172,0.6499023-0.6201172,1.1499023
				c0,0.1464844,0.0136719,0.2783203,0.0400391,0.3950195s0.0917969,0.2431641,0.1943359,0.3798828
				c0.1035156,0.1367188,0.2421875,0.2519531,0.4160156,0.3452148c0.1728516,0.0932617,0.4179688,0.1713867,0.734375,0.2348633
				s0.6884766,0.0952148,1.1152344,0.0952148h1.0996094V72.853447z M256.0371399,72.6532516v-3.699707h-1.1992188
				c-0.953125,0-1.6582031,0.1582031-2.1152344,0.4746094c-0.4570312,0.3168945-0.6855469,0.8085938-0.6855469,1.4750977
				c0,1.1665039,0.9335938,1.75,2.8007812,1.75H256.0371399z"/>
			<path class="st18" d="M250.0674133,68.7533493v7.2998047h-0.2001953v-7.2998047H250.0674133z"/>
			<path class="st18" d="M352.2412415,61.1932907l0.1201172,0.1601562
				c-0.3066406,0.2397461-0.6669922,0.4331055-1.0800781,0.5800781c-0.4140625,0.1464844-0.8037109,0.2197266-1.1699219,0.2197266
				c-0.6464844,0-1.1523438-0.1767578-1.515625-0.5297852c-0.3632812-0.3535156-0.5449219-0.84375-0.5449219-1.4702148
				c0-0.6401367,0.2851562-1.3383789,0.8554688-2.0947266c0.5703125-0.7568359,1.5878906-1.7851562,3.0546875-3.0849609v-0.0200195
				h-4v-0.2001953h4.3007812v0.2001953c-1.546875,1.3598633-2.6015625,2.4165039-3.1660156,3.1699219
				c-0.5625,0.7529297-0.8447266,1.4296875-0.8447266,2.0297852c0,0.5732422,0.1630859,1.0166016,0.4902344,1.3300781
				s0.7832031,0.4702148,1.3701172,0.4702148c0.3398438,0,0.7080078-0.0703125,1.1044922-0.2099609
				C351.6133118,61.603447,351.9551086,61.4198532,352.2412415,61.1932907z"/>
			<path class="st18" d="M343.3613586,54.7435837c0.2197266-0.0600586,0.453125-0.090332,0.6992188-0.090332
				c0.2470703,0,0.4804688,0.0302734,0.7011719,0.090332c0.21875,0.0595703,0.4433594,0.1728516,0.6699219,0.3398438
				c0.2265625,0.1665039,0.4199219,0.3847656,0.5800781,0.6547852c0.1591797,0.2700195,0.2910156,0.6333008,0.3945312,1.090332
				c0.1035156,0.456543,0.1542969,0.9814453,0.1542969,1.574707s-0.0507812,1.1181641-0.1542969,1.5751953
				c-0.1035156,0.456543-0.2353516,0.8198242-0.3945312,1.0898438c-0.1601562,0.2700195-0.3535156,0.4882812-0.5800781,0.6552734
				c-0.2265625,0.1665039-0.4511719,0.2797852-0.6699219,0.3398438c-0.2207031,0.0600586-0.4541016,0.0898438-0.7011719,0.0898438
				c-0.2460938,0-0.4794922-0.0297852-0.6992188-0.0898438c-0.2207031-0.0600586-0.4433594-0.1733398-0.6699219-0.3398438
				c-0.2265625-0.1669922-0.4199219-0.3852539-0.5800781-0.6552734s-0.2919922-0.6333008-0.3955078-1.0898438
				c-0.1025391-0.4570312-0.1552734-0.9819336-0.1552734-1.5751953s0.0527344-1.1181641,0.1552734-1.574707
				c0.1035156-0.4570312,0.2353516-0.8203125,0.3955078-1.090332s0.3535156-0.4882812,0.5800781-0.6547852
				C342.9179993,54.9164352,343.1406555,54.803154,343.3613586,54.7435837z M346.3613586,58.4032516
				c0-2.3666992-0.7675781-3.5498047-2.3007812-3.5498047s-2.2988281,1.1831055-2.2988281,3.5498047
				s0.765625,3.550293,2.2988281,3.550293S346.3613586,60.7699509,346.3613586,58.4032516z"/>
			<path class="st18" d="M340.2412415,61.1932907l0.1201172,0.1601562
				c-0.3066406,0.2397461-0.6669922,0.4331055-1.0800781,0.5800781c-0.4140625,0.1464844-0.8037109,0.2197266-1.1699219,0.2197266
				c-0.6464844,0-1.1523438-0.1767578-1.515625-0.5297852c-0.3632812-0.3535156-0.5449219-0.84375-0.5449219-1.4702148
				c0-0.6401367,0.2851562-1.3383789,0.8554688-2.0947266c0.5703125-0.7568359,1.5878906-1.7851562,3.0546875-3.0849609v-0.0200195
				h-4v-0.2001953h4.3007812v0.2001953c-1.546875,1.3598633-2.6015625,2.4165039-3.1660156,3.1699219
				c-0.5625,0.7529297-0.8447266,1.4296875-0.8447266,2.0297852c0,0.5732422,0.1630859,1.0166016,0.4902344,1.3300781
				s0.7832031,0.4702148,1.3701172,0.4702148c0.3398438,0,0.7080078-0.0703125,1.1044922-0.2099609
				C339.6133118,61.603447,339.9551086,61.4198532,340.2412415,61.1932907z"/>
			<path class="st18" d="M331.811554,61.7733688h0.0205078l2.1396484-2.0600586l0.1396484,0.1401367l-2.2998047,2.199707h-0.2001953
				v-7.2998047h0.2001953V61.7733688z"/>
			<path class="st18" d="M328.0517883,54.7533493v1.2001953h-0.2001953v-1.2001953H328.0517883z"/>
			<path class="st18" d="M321.8222961,61.853447h4.2695312v0.199707h-4.5v-0.199707
				c1.1933594-1.9936523,2.2236328-4.3598633,3.0898438-7.1000977h0.2099609
				c-0.8398438,2.6933594-1.8632812,5.0532227-3.0693359,7.0800781V61.853447z"/>
			<path class="st18" d="M312.3721008,62.053154h-0.2001953v-7.2998047h0.2001953v3.8999023h4.6005859v-3.8999023h0.1992188
				v7.2998047h-0.1992188v-3.199707h-4.6005859V62.053154z"/>
			<path class="st18" d="M307.8711243,58.393486v-0.0200195c-0.2060547-0.0800781-0.3808594-0.2250977-0.5244141-0.4350586
				s-0.328125-0.5717773-0.5556641-1.0849609l-0.9394531-2.1000977h0.2207031l0.8994141,2.0200195
				c0.1474609,0.3266602,0.2636719,0.5698242,0.3505859,0.7299805c0.0859375,0.1601562,0.1738281,0.3051758,0.2646484,0.4350586
				c0.0898438,0.1298828,0.2021484,0.2148438,0.3349609,0.2548828s0.2675781,0.0683594,0.4042969,0.0849609
				s0.3457031,0.0249023,0.625,0.0249023h1.2011719v-3.5498047h0.1992188v7.2998047h-1.4003906
				c-0.2861328,0-0.5478516-0.0097656-0.7851562-0.0297852c-0.2363281-0.0200195-0.4902344-0.0634766-0.7636719-0.1298828
				c-0.2734375-0.0668945-0.5039062-0.1567383-0.6904297-0.2700195c-0.1865234-0.1137695-0.3427734-0.2734375-0.4697266-0.4799805
				c-0.1269531-0.2070312-0.1904297-0.4536133-0.1904297-0.7402344c0-0.5800781,0.1464844-1.0332031,0.4404297-1.3598633
				C306.7851868,58.7167282,307.2451477,58.4999313,307.8711243,58.393486z M310.1523743,58.5033493h-1.2011719
				c-0.953125,0-1.640625,0.1513672-2.0644531,0.4550781c-0.4238281,0.3032227-0.6347656,0.7851562-0.6347656,1.4448242
				c0,0.4799805,0.2109375,0.8417969,0.6347656,1.0849609c0.4238281,0.2436523,1.1113281,0.3652344,2.0644531,0.3652344h1.2011719
				V58.5033493z"/>
			<path class="st18" d="M298.851593,61.8431931h0.0205078l2.2001953-7.0898438h0.3203125l2.1992188,7.0898438h0.0205078
				l0.9199219-7.0898438h0.2001953l-0.9501953,7.2998047h-0.3398438l-2.2001953-7.0996094h-0.0195312l-2.2011719,7.0996094
				h-0.3398438l-0.9492188-7.2998047h0.1992188L298.851593,61.8431931z"/>
			<path class="st18" d="M295.6123352,55.853447h-0.2099609l0.7998047-2.2001953h0.2099609L295.6123352,55.853447z"/>
			<path class="st18" d="M291.5722961,54.9535446l-0.0800781,0.1796875
				c-0.4130859-0.1865234-0.8867188-0.2797852-1.4199219-0.2797852c-0.7539062,0-1.3242188,0.2280273-1.7148438,0.6850586
				c-0.390625,0.456543-0.5849609,1.1279297-0.5849609,2.0146484v4.5h-0.2001953v-4.5
				c0-0.953125,0.21875-1.6748047,0.6552734-2.1650391c0.4365234-0.4897461,1.0517578-0.7348633,1.8447266-0.7348633
				C290.6260071,54.6532516,291.1260071,54.7533493,291.5722961,54.9535446z"/>
			<path class="st18" d="M280.952179,54.9633102v7.0898438h-0.2001953v-7.2998047h0.3203125l4.5605469,7.0898438h0.0195312
				v-7.0898438h0.1992188v7.2998047h-0.3193359l-4.5595703-7.0898438H280.952179z"/>
			<path class="st18" d="M277.0820618,61.9535446c0.5664062,0,1.0087891-0.1235352,1.3251953-0.3701172
				c0.3173828-0.246582,0.4755859-0.5898438,0.4755859-1.0302734c0-0.8198242-0.6103516-1.4199219-1.8300781-1.7998047
				c-0.7265625-0.2265625-1.2539062-0.5136719-1.5800781-0.8598633c-0.3271484-0.3466797-0.4902344-0.793457-0.4902344-1.340332
				c0-0.6132812,0.1816406-1.0830078,0.5449219-1.409668s0.8818359-0.4902344,1.5546875-0.4902344
				c0.8271484,0,1.5273438,0.2333984,2.0996094,0.7001953l-0.1191406,0.159668
				c-0.546875-0.4399414-1.2070312-0.659668-1.9804688-0.659668c-0.6191406,0-1.0917969,0.1450195-1.4140625,0.4350586
				c-0.3242188,0.2900391-0.4863281,0.7114258-0.4863281,1.2646484c0,0.5,0.1503906,0.9052734,0.4511719,1.215332
				c0.2988281,0.3100586,0.7929688,0.5712891,1.4794922,0.784668c1.3134766,0.4067383,1.9697266,1.0732422,1.9697266,2
				c0,0.4868164-0.1748047,0.875-0.5253906,1.1650391c-0.3496094,0.2900391-0.8408203,0.4350586-1.4746094,0.4350586
				c-0.7265625,0-1.3925781-0.1665039-2-0.5l0.0996094-0.1699219
				C275.742218,61.7968063,276.3750305,61.9535446,277.0820618,61.9535446z"/>
			<path class="st18" d="M273.0625305,55.853447h-0.2099609l0.7998047-2.2001953h0.2099609L273.0625305,55.853447z"/>
			<path class="st18" d="M268.5127258,61.1932907l0.1201172,0.1601562
				c-0.3066406,0.2397461-0.6669922,0.4331055-1.0800781,0.5800781c-0.4140625,0.1464844-0.8037109,0.2197266-1.1699219,0.2197266
				c-0.6464844,0-1.1523438-0.1767578-1.515625-0.5297852c-0.3632812-0.3535156-0.5449219-0.84375-0.5449219-1.4702148
				c0-0.6401367,0.2851562-1.3383789,0.8554688-2.0947266c0.5703125-0.7568359,1.5878906-1.7851562,3.0546875-3.0849609v-0.0200195
				h-4v-0.2001953h4.3007812v0.2001953c-1.546875,1.3598633-2.6015625,2.4165039-3.1660156,3.1699219
				c-0.5625,0.7529297-0.8447266,1.4296875-0.8447266,2.0297852c0,0.5732422,0.1630859,1.0166016,0.4902344,1.3300781
				s0.7832031,0.4702148,1.3701172,0.4702148c0.3398438,0,0.7080078-0.0703125,1.1044922-0.2099609
				C267.8847961,61.603447,268.226593,61.4198532,268.5127258,61.1932907z"/>
			<path class="st18" d="M259.632843,54.7435837c0.2207031-0.0600586,0.453125-0.090332,0.7001953-0.090332
				s0.4794922,0.0302734,0.7001953,0.090332c0.2197266,0.0595703,0.4433594,0.1728516,0.6699219,0.3398438
				c0.2265625,0.1665039,0.4199219,0.3847656,0.5800781,0.6547852s0.2910156,0.6333008,0.3945312,1.090332
				c0.1035156,0.456543,0.1552734,0.9814453,0.1552734,1.574707s-0.0517578,1.1181641-0.1552734,1.5751953
				c-0.1035156,0.456543-0.234375,0.8198242-0.3945312,1.0898438s-0.3535156,0.4882812-0.5800781,0.6552734
				c-0.2265625,0.1665039-0.4501953,0.2797852-0.6699219,0.3398438c-0.2207031,0.0600586-0.453125,0.0898438-0.7001953,0.0898438
				s-0.4794922-0.0297852-0.7001953-0.0898438c-0.2197266-0.0600586-0.4433594-0.1733398-0.6699219-0.3398438
				c-0.2265625-0.1669922-0.4199219-0.3852539-0.5800781-0.6552734s-0.2910156-0.6333008-0.3945312-1.0898438
				c-0.1035156-0.4570312-0.1552734-0.9819336-0.1552734-1.5751953s0.0517578-1.1181641,0.1552734-1.574707
				c0.1035156-0.4570312,0.234375-0.8203125,0.3945312-1.090332s0.3535156-0.4882812,0.5800781-0.6547852
				C259.1894836,54.9164352,259.4131165,54.803154,259.632843,54.7435837z M262.632843,58.4032516
				c0-2.3666992-0.7666016-3.5498047-2.2998047-3.5498047s-2.2998047,1.1831055-2.2998047,3.5498047
				s0.7666016,3.550293,2.2998047,3.550293S262.632843,60.7699509,262.632843,58.4032516z"/>
			<path class="st18" d="M256.5137024,61.1932907l0.1191406,0.1601562
				c-0.3066406,0.2397461-0.6660156,0.4331055-1.0800781,0.5800781c-0.4130859,0.1464844-0.8027344,0.2197266-1.1699219,0.2197266
				c-0.6464844,0-1.1513672-0.1767578-1.5146484-0.5297852c-0.3632812-0.3535156-0.5449219-0.84375-0.5449219-1.4702148
				c0-0.6401367,0.2841797-1.3383789,0.8544922-2.0947266c0.5703125-0.7568359,1.5888672-1.7851562,3.0546875-3.0849609v-0.0200195
				h-4v-0.2001953h4.3007812v0.2001953c-1.546875,1.3598633-2.6015625,2.4165039-3.1650391,3.1699219
				c-0.5634766,0.7529297-0.8447266,1.4296875-0.8447266,2.0297852c0,0.5732422,0.1630859,1.0166016,0.4902344,1.3300781
				c0.3261719,0.3134766,0.7832031,0.4702148,1.3691406,0.4702148c0.3398438,0,0.7089844-0.0703125,1.1054688-0.2099609
				C255.8847961,61.603447,256.226593,61.4198532,256.5137024,61.1932907z"/>
			<path class="st18" d="M248.0830383,61.7733688h0.0205078l2.1396484-2.0600586l0.1396484,0.1401367l-2.2998047,2.199707
				h-0.2001953v-7.2998047h0.2001953V61.7733688z"/>
			<path class="st18" d="M244.3232727,54.7533493v1.2001953h-0.2001953v-1.2001953H244.3232727z"/>
			<path class="st18" d="M237.9336243,58.4833298h0.0195312c0.2070312-0.3798828,0.5-0.6801758,0.8808594-0.8999023
				c0.3789062-0.2202148,0.8066406-0.3300781,1.2792969-0.3300781c0.7207031,0,1.3085938,0.2182617,1.765625,0.6547852
				c0.4560547,0.4370117,0.6845703,1.0019531,0.6845703,1.6953125c0,0.7729492-0.2216797,1.3916016-0.6650391,1.8549805
				s-1.0390625,0.6948242-1.7851562,0.6948242s-1.3417969-0.2314453-1.7851562-0.6948242s-0.6650391-1.0820312-0.6650391-1.8549805
				c0-1.4067383,0.3085938-2.5419922,0.9248047-3.4052734c0.6171875-0.8632812,1.4882812-1.378418,2.6152344-1.5449219
				l0.0195312,0.2001953c-0.90625,0.1333008-1.6425781,0.5151367-2.2089844,1.1450195
				S238.0869446,57.4564743,237.9336243,58.4833298z M238.4687805,61.3231735
				c0.4023438,0.4204102,0.9511719,0.6303711,1.6445312,0.6303711s1.2421875-0.2099609,1.6445312-0.6303711
				c0.4042969-0.4199219,0.6054688-0.9931641,0.6054688-1.7197266c0-0.6469727-0.2070312-1.1669922-0.6201172-1.5600586
				c-0.4130859-0.3935547-0.9560547-0.5898438-1.6298828-0.5898438c-0.6533203,0-1.1914062,0.2011719-1.6152344,0.6049805
				c-0.4228516,0.4033203-0.6347656,0.9179688-0.6347656,1.5449219
				C237.8633118,60.3300095,238.0644836,60.9032516,238.4687805,61.3231735z"/>
			<path class="st18" d="M228.4941711,62.053154v-0.199707h2.5v-7.1000977h0.1992188v7.1000977h2.5v0.199707H228.4941711z"/>
			<path class="st18" d="M229.023468,54.9535446l-0.0800781,0.1796875
				c-0.4130859-0.1865234-0.8867188-0.2797852-1.4199219-0.2797852c-0.7539062,0-1.3242188,0.2280273-1.7148438,0.6850586
				c-0.390625,0.456543-0.5849609,1.1279297-0.5849609,2.0146484v4.5h-0.2001953v-4.5
				c0-0.953125,0.21875-1.6748047,0.6552734-2.1650391c0.4365234-0.4897461,1.0517578-0.7348633,1.8447266-0.7348633
				C228.077179,54.6532516,228.577179,54.7533493,229.023468,54.9535446z"/>
			<path class="st18" d="M223.0840149,58.4135056h0.0195312v-3.6601562h0.1992188v7.2998047h-0.1992188v-3.3598633h-0.0195312
				l-3.9707031,3.3598633h-0.3105469l4.1503906-3.5l-4.25-3.7998047h0.3007812L223.0840149,58.4135056z"/>
		</g>
		<path class="st19" d="M525.7680664,23.1859951v5.6693115h-59.6488953l-2.0043945,2.0043945l-2.0043945-2.0043945h-41.9326172
			V14.6820898c0-6.262146-5.0766602-11.338562-11.3383789-11.338562h-34.0161133
			c-6.262207,0-11.3383789,5.076416-11.3383789,11.338562v14.1732168H207.5791321V14.6820898
			c0-6.262146-5.0761719-11.338562-11.3383789-11.338562h-34.015625c-6.262207,0-11.3388672,5.076416-11.3388672,11.338562
			v14.1732168h-41.9326248l-2.0043945,2.0043945l-2.0043945-2.0043945H45.2959213v-5.6693115H2.776392v5.6693115v70.8661499
			v5.6693115h42.5195312v-5.6693115h59.6489258l2.0043945-2.0043945l2.0043945,2.0043945h41.9326248v5.6693115h56.6928711
			v-5.6693115h155.9057617v5.6693115h56.6928711v-5.6693115h41.9326172l2.0043945-2.0043945l2.0043945,2.0043945h59.6488953
			v5.6693115h42.5200195v-5.6693115V28.8553066v-5.6693115H525.7680664z"/>
	</g>
</g>
</svg>
