<?xml version="1.0" encoding="utf-8"?>
<!-- Generator: Adobe Illustrator 26.0.1, SVG Export Plug-In . SVG Version: 6.00 Build 0)  -->
<svg version="1.1" id="Layer_1" xmlns="http://www.w3.org/2000/svg" xmlns:xlink="http://www.w3.org/1999/xlink" x="0px" y="0px"
	 viewBox="0 0 595.2755737 841.8898315" style="enable-background:new 0 0 595.2755737 841.8898315;" xml:space="preserve">
<style type="text/css">
	.st0{fill:none;stroke:#000000;stroke-miterlimit:10;}
	.st1{fill:none;stroke:#00AEEF;stroke-miterlimit:10;}
	.st2{fill:none;stroke:#00AEEF;stroke-miterlimit:10;stroke-dasharray:11.8028069,11.8028069;}
	.st3{fill:none;stroke:#00AEEF;stroke-miterlimit:10;stroke-dasharray:14.8976374,14.8976374;}
	.st4{fill:none;stroke:#00AEEF;stroke-miterlimit:10;stroke-dasharray:12.6336269,12.6336269;}
	.st5{fill:none;stroke:#00AEEF;stroke-miterlimit:10;stroke-dasharray:11.2650919,11.2650919;}
	.st6{fill:none;stroke:#00AEEF;stroke-miterlimit:10;stroke-dasharray:12.4589424,12.4589424;}
	.st7{fill:none;stroke:#00AEEF;stroke-miterlimit:10;stroke-dasharray:11.7938442,11.7938442;}
	.st8{fill:none;stroke:#00AEEF;stroke-miterlimit:10;stroke-dasharray:12.8398952,12.8398952;}
	.st9{fill:none;stroke:#00AEEF;stroke-miterlimit:10;stroke-dasharray:10.4341955,10.4341955;}
	.st10{fill:none;stroke:#00A651;stroke-miterlimit:10;}
	.st11{fill:none;stroke:#BE1E2D;stroke-miterlimit:10;}
	.st12{fill:none;stroke:#ED1C24;stroke-miterlimit:10;}
	.st13{fill:none;stroke:#00AEEF;stroke-width:0.25;stroke-miterlimit:10;}
</style>
<path class="st0" d="M275.0303345,26.7451515L12.322072,289.4534607c-2.6579952,2.65802-4.1512413,6.263031-4.1512413,10.0220032
	v121.688324c0,7.8276672,6.3455706,14.1732178,14.1732283,14.1732178h255.1180115
	c7.8276672,0,14.1732483-6.3455505,14.1732483-14.1732178V297.5304871c0-2.5688171,0.6981506-5.0893555,2.0197754-7.2920837
	l78.8909607-131.4847717c2.5614319-4.269043,7.1748962-6.8811493,12.1534424-6.8811493h77.0146484
	c7.8276672,0,14.1732483-6.3455811,14.1732483-14.173233V24.313406c0-7.8276577-6.3455811-14.1732283-14.1732483-14.1732283
	H315.1182861C300.0823975,10.1401777,285.662323,16.1131668,275.0303345,26.7451515z"/>
<path class="st12" d="M125.8086929,378.6441345h-65.196846c-3.1310654,0-5.6692924-2.538208-5.6692924-5.669281v-59.5275574
	c0-3.131073,2.5382271-5.669281,5.6692924-5.669281h65.196846c3.1310654,0,5.6692886,2.538208,5.6692886,5.669281v59.5275574
	C131.4779816,376.1059265,128.9397583,378.6441345,125.8086929,378.6441345z"/>
<path class="st12" d="M239.194519,378.6441345h-65.1968536c-3.1310577,0-5.669281-2.538208-5.669281-5.669281v-59.5275574
	c0-3.131073,2.5382233-5.669281,5.669281-5.669281h65.1968536c3.131073,0,5.6692963,2.538208,5.6692963,5.669281v59.5275574
	C244.8638153,376.1059265,242.325592,378.6441345,239.194519,378.6441345z"/>
<g>
	<circle class="st12" cx="419.194519" cy="95.1795807" r="4.9606299"/>
	<circle class="st12" cx="419.194519" cy="66.8331223" r="4.9606299"/>
	<circle class="st12" cx="419.194519" cy="38.4866638" r="4.9606299"/>
</g>
<g>
	<circle class="st12" cx="447.5423889" cy="95.1795807" r="4.9606299"/>
	<circle class="st12" cx="447.5423889" cy="66.8331223" r="4.9606299"/>
	<circle class="st12" cx="447.5423889" cy="38.4866638" r="4.9606299"/>
</g>
<g>
	<circle class="st12" cx="390.8494568" cy="95.1795807" r="4.9606299"/>
	<circle class="st12" cx="390.8494568" cy="66.8331223" r="4.9606299"/>
	<circle class="st12" cx="390.8494568" cy="38.4866638" r="4.9606299"/>
</g>
<g>
	<circle class="st12" cx="362.5030212" cy="95.1795807" r="4.9606299"/>
	<circle class="st12" cx="362.5030212" cy="66.8331223" r="4.9606299"/>
	<circle class="st12" cx="362.5030212" cy="38.4866638" r="4.9606299"/>
</g>
<g>
	<path class="st13" d="M418.8800659,120.1262589v-9.390625c-0.4794922,0.6352539-1.2597656,1.4511719-2.0146484,2.0146484
		l-0.3964844-0.6474609c1.0556641-0.815918,2.0996094-2.0029297,2.7832031-3.0703125
		c0.6835938,1.0673828,1.7265625,2.2543945,2.7822266,3.0703125l-0.3955078,0.6474609
		c-0.7558594-0.5634766-1.5351562-1.3793945-2.015625-2.0146484v9.390625H418.8800659z"/>
</g>
<g>
	<path class="st13" d="M123.4686127,423.5134583v-0.6474609l0.8271484-0.8037109
		c1.9912109-1.8945312,2.890625-2.9023438,2.9023438-4.078125c0-0.7910156-0.3837891-1.5224609-1.546875-1.5224609
		c-0.7080078,0-1.2958984,0.359375-1.6552734,0.6591797l-0.3359375-0.7431641
		c0.5400391-0.4560547,1.3076172-0.7919922,2.2070312-0.7919922c1.6787109,0,2.3867188,1.1513672,2.3867188,2.2666016
		c0,1.4394531-1.0439453,2.6025391-2.6865234,4.1855469l-0.6240234,0.5761719v0.0234375h3.5019531v0.8759766H123.4686127z"/>
	<path class="st13" d="M134.8055267,419.5320129c0,2.6503906-0.9833984,4.1132812-2.7099609,4.1132812
		c-1.5234375,0-2.5546875-1.4267578-2.5791016-4.0058594c0-2.6142578,1.1279297-4.0537109,2.7109375-4.0537109
		C133.8699799,415.5857239,134.8055267,417.0486145,134.8055267,419.5320129z M130.5721283,419.6511536
		c0,2.0273438,0.6240234,3.1787109,1.5830078,3.1787109c1.0791016,0,1.5947266-1.2597656,1.5947266-3.25
		c0-1.9189453-0.4912109-3.1787109-1.5830078-3.1787109C131.2440033,416.4011536,130.5721283,417.5290833,130.5721283,419.6511536z"
		/>
	<path class="st13" d="M135.7811127,423.5134583v-0.6474609l0.8271484-0.8037109
		c1.9912109-1.8945312,2.890625-2.9023438,2.9023438-4.078125c0-0.7910156-0.3837891-1.5224609-1.546875-1.5224609
		c-0.7080078,0-1.2958984,0.359375-1.6552734,0.6591797l-0.3359375-0.7431641
		c0.5400391-0.4560547,1.3076172-0.7919922,2.2070312-0.7919922c1.6787109,0,2.3867188,1.1513672,2.3867188,2.2666016
		c0,1.4394531-1.0439453,2.6025391-2.6865234,4.1855469l-0.6240234,0.5761719v0.0234375h3.5019531v0.8759766H135.7811127z"/>
	<path class="st13" d="M144.2274017,416.7009583h-0.0234375l-1.3554688,0.7314453l-0.2041016-0.8027344l1.703125-0.9121094
		h0.8994141v7.7958984h-1.0195312V416.7009583z"/>
	<path class="st13" d="M148.177597,422.8894348c0-0.4433594,0.2998047-0.7548828,0.7197266-0.7548828
		c0.4189453,0,0.7070312,0.3115234,0.7070312,0.7548828c0,0.4326172-0.2753906,0.7558594-0.7197266,0.7558594
		C148.4647064,423.6452942,148.177597,423.322052,148.177597,422.8894348z"/>
	<path class="st13" d="M152.8670502,416.7009583h-0.0234375l-1.3554688,0.7314453l-0.2041016-0.8027344l1.703125-0.9121094
		h0.8994141v7.7958984h-1.0195312V416.7009583z"/>
	<path class="st13" d="M159.0233002,416.7009583h-0.0234375l-1.3554688,0.7314453l-0.2041016-0.8027344l1.703125-0.9121094
		h0.8994141v7.7958984h-1.0195312V416.7009583z"/>
	<path class="st13" d="M162.9734955,422.8894348c0-0.4433594,0.2998047-0.7548828,0.71875-0.7548828
		c0.4199219,0,0.7080078,0.3115234,0.7080078,0.7548828c0,0.4326172-0.2753906,0.7558594-0.7197266,0.7558594
		C163.2606049,423.6452942,162.9734955,423.322052,162.9734955,422.8894348z"/>
	<path class="st13" d="M167.6629486,416.7009583h-0.0234375l-1.3554688,0.7314453l-0.2041016-0.8027344l1.703125-0.9121094
		h0.8994141v7.7958984h-1.0195312V416.7009583z"/>
	<path class="st13" d="M176.1824799,416.6052551h-2.9746094l-0.2998047,2.0029297
		c0.1796875-0.0244141,0.3476562-0.0478516,0.6357422-0.0478516c0.5996094,0,1.1992188,0.1318359,1.6787109,0.4199219
		c0.6123047,0.3476562,1.1152344,1.0195312,1.1152344,2.0029297c0,1.5224609-1.2109375,2.6621094-2.9023438,2.6621094
		c-0.8515625,0-1.5703125-0.2402344-1.9423828-0.4794922l0.2636719-0.8037109
		c0.3242188,0.1923828,0.9589844,0.4316406,1.6669922,0.4316406c0.9951172,0,1.8466797-0.6474609,1.8466797-1.6914062
		c-0.0117188-1.0068359-0.6835938-1.7265625-2.2421875-1.7265625c-0.4443359,0-0.7919922,0.0478516-1.0800781,0.0839844
		l0.5039062-3.7421875h3.7304688V416.6052551z"/>
</g>
</svg>
