<?xml version="1.0" encoding="utf-8"?>
<!-- Generator: Adobe Illustrator 25.4.1, SVG Export Plug-In . SVG Version: 6.00 Build 0)  -->
<svg version="1.1" id="レイヤー_1" xmlns="http://www.w3.org/2000/svg" xmlns:xlink="http://www.w3.org/1999/xlink" x="0px"
	 y="0px" viewBox="0 0 595.2755737 841.8897705" style="enable-background:new 0 0 595.2755737 841.8897705;" xml:space="preserve">
<style type="text/css">
	.st0{fill:none;stroke:#000000;stroke-width:0.2834646;stroke-miterlimit:10;}
	.st1{fill:none;stroke:#000000;stroke-width:0.2834646;stroke-miterlimit:10;stroke-dasharray:5.7201543,5.7201543;}
	.st2{fill:none;stroke:#1D4347;stroke-width:0.7086614;stroke-miterlimit:10;}
	.st3{fill:none;stroke:#5AA8CE;stroke-width:0.7086614;stroke-miterlimit:10;}
	.st4{fill:#130B0B;}
	.st5{fill:#E8E6E3;}
	.st6{fill:#8CD3D7;}
	.st7{fill:none;stroke:#000000;stroke-width:0.5;stroke-miterlimit:10;}
	.st8{fill:#F0047F;}
	.st9{fill:#C2000B;}
	.st10{fill:none;stroke:#130B0B;stroke-width:0.2834646;stroke-miterlimit:10;}
	.st11{fill:#808080;}
	.st12{fill:none;stroke:#01A0C6;stroke-width:0.7086614;stroke-miterlimit:10;}
	.st13{fill:none;stroke:#000000;stroke-width:0.7086614;stroke-miterlimit:10;}
	.st14{fill:none;stroke:#FF0001;stroke-width:0.7086614;stroke-miterlimit:10;}
	.st15{fill:none;stroke:#FF0601;stroke-width:0.7086614;stroke-miterlimit:10;}
	.st16{fill:none;stroke:#070606;stroke-width:0.7086614;stroke-miterlimit:10;}
	.st17{fill:none;stroke:#018837;stroke-width:0.7086614;stroke-miterlimit:10;}
	.st18{fill:none;stroke:#018837;stroke-width:0.25;}
	.st19{fill:none;stroke:#01A0C6;stroke-width:0.2834646;stroke-miterlimit:10;}
</style>
<g>
	<g>
		<circle class="st14" cx="52.4417648" cy="458.7913208" r="4.9606299"/>
		<circle class="st14" cx="52.4417648" cy="430.4447327" r="4.9606299"/>
		<circle class="st14" cx="52.4417648" cy="487.1377563" r="4.9606299"/>
		<circle class="st14" cx="52.4417648" cy="515.4842529" r="4.9606299"/>
		<circle class="st14" cx="52.4417648" cy="543.8306885" r="4.9606299"/>
		<circle class="st14" cx="52.4417648" cy="572.177124" r="4.9606299"/>
	</g>
	<g>
		<g>
			<path class="st19" d="M18.2604256,433.4966736c1.3916016-0.1865234,2.234375-1.0185547,2.5273438-2.4960938h-0.015625
				c-0.3681641,0.5332031-0.8984375,0.7998047-1.5917969,0.7998047c-0.5869141,0-1.0576172-0.1748047-1.4121094-0.5244141
				c-0.3544922-0.3486328-0.5322266-0.8144531-0.5322266-1.3955078c0-0.6191406,0.1826172-1.1132812,0.5478516-1.484375
				c0.3652344-0.3701172,0.8544922-0.5556641,1.4677734-0.5556641c0.6240234,0,1.1152344,0.1894531,1.4726562,0.5683594
				c0.3574219,0.3779297,0.5361328,0.9013672,0.5361328,1.5673828c0,1.1201172-0.2568359,2.0166016-0.7685547,2.6884766
				s-1.2314453,1.0634766-2.1601562,1.1757812L18.2604256,433.4966736z M20.4323006,428.636322
				c-0.2851562-0.3007812-0.6787109-0.4521484-1.1806641-0.4521484c-0.5009766,0-0.8955078,0.1513672-1.1835938,0.4521484
				c-0.2880859,0.3017578-0.4316406,0.7158203-0.4316406,1.2441406c0,0.4853516,0.1474609,0.8720703,0.4433594,1.1601562
				s0.6865234,0.4316406,1.171875,0.4316406c0.4433594,0,0.8212891-0.1542969,1.1367188-0.4638672
				c0.3144531-0.3095703,0.4716797-0.6855469,0.4716797-1.1279297
				C20.8600349,429.3521423,20.7174568,428.9380798,20.4323006,428.636322z"/>
			<path class="st19" d="M24.1481209,427.8404236c1.3652344,0,2.0478516,1,2.0478516,3s-0.6826172,3-2.0478516,3
				c-1.3710938,0-2.0566406-1-2.0566406-3S22.7770271,427.8404236,24.1481209,427.8404236z M24.1481209,433.4966736
				c0.5488281,0,0.9609375-0.2167969,1.2353516-0.6484375c0.2753906-0.4316406,0.4121094-1.1015625,0.4121094-2.0078125
				s-0.1367188-1.5761719-0.4121094-2.0078125c-0.2744141-0.4326172-0.6865234-0.6484375-1.2353516-0.6484375
				c-1.1044922,0-1.65625,0.8857422-1.65625,2.65625S23.0436287,433.4966736,24.1481209,433.4966736z"/>
		</g>
		<g>
			<path class="st19" d="M16.9323006,575.4927979v-5.34375H16.915699l-1.6396494,1.5517578l-0.1835938-0.3115234
				l1.8398447-1.7363281h0.3994141v5.8398438H16.9323006z"/>
			<path class="st19" d="M22.6998787,573.7086182h1.0644531v0.34375h-1.0644531v1.4404297h-0.3916016v-1.4404297h-2.9199219
				v-0.34375l2.9199219-4.0556641h0.3916016V573.7086182z M22.3082771,573.7086182v-3.4482422h-0.0166016l-2.4794922,3.4326172
				v0.015625H22.3082771z"/>
			<path class="st19" d="M26.587574,569.572876c1.3652344,0,2.0478516,1,2.0478516,3s-0.6826172,3-2.0478516,3
				c-1.3701172,0-2.0556641-1-2.0556641-3S25.2174568,569.572876,26.587574,569.572876z M26.587574,575.229126
				c0.5498047,0,0.9619141-0.2167969,1.2363281-0.6484375s0.4121094-1.1015625,0.4121094-2.0078125
				s-0.1376953-1.5761719-0.4121094-2.0078125c-0.2744141-0.4326172-0.6865234-0.6484375-1.2363281-0.6484375
				c-1.1035156,0-1.6552734,0.8857422-1.6552734,2.65625S25.4840584,575.229126,26.587574,575.229126z"/>
		</g>
		<g>
			<path class="st19" d="M16.9323006,462.106842v-5.34375H16.915699l-1.6396494,1.5517578l-0.1835938-0.3115234l1.8398447-1.7363281
				h0.3994141v5.8398438H16.9323006z"/>
			<path class="st19" d="M21.7076912,456.1869202c1.3652344,0,2.0478516,1,2.0478516,3s-0.6826172,3-2.0478516,3
				c-1.3701172,0-2.0556641-1-2.0556641-3S20.337574,456.1869202,21.7076912,456.1869202z M21.7076912,461.8431702
				c0.5498047,0,0.9619141-0.2167969,1.2363281-0.6484375s0.4121094-1.1015625,0.4121094-2.0078125
				s-0.1376953-1.5761719-0.4121094-2.0078125c-0.2744141-0.4326172-0.6865234-0.6484375-1.2363281-0.6484375
				c-1.1035156,0-1.6552734,0.8857422-1.6552734,2.65625S20.6041756,461.8431702,21.7076912,461.8431702z"/>
			<path class="st19" d="M26.587574,456.1869202c1.3652344,0,2.0478516,1,2.0478516,3s-0.6826172,3-2.0478516,3
				c-1.3701172,0-2.0556641-1-2.0556641-3S25.2174568,456.1869202,26.587574,456.1869202z M26.587574,461.8431702
				c0.5498047,0,0.9619141-0.2167969,1.2363281-0.6484375s0.4121094-1.1015625,0.4121094-2.0078125
				s-0.1376953-1.5761719-0.4121094-2.0078125c-0.2744141-0.4326172-0.6865234-0.6484375-1.2363281-0.6484375
				c-1.1035156,0-1.6552734,0.8857422-1.6552734,2.65625S25.4840584,461.8431702,26.587574,461.8431702z"/>
		</g>
		<g>
			<path class="st19" d="M16.9323006,547.1463013v-5.34375H16.915699l-1.6396494,1.5517578l-0.1835938-0.3115234
				l1.8398447-1.7363281h0.3994141v5.8398438H16.9323006z"/>
			<path class="st19" d="M21.6676521,541.5701294c-0.5068359,0-1.0078125,0.1523438-1.5039062,0.4560547l-0.1279297-0.3203125
				c0.5283203-0.3193359,1.0849609-0.4794922,1.671875-0.4794922c0.5390625,0,0.9619141,0.1171875,1.2685547,0.3515625
				c0.3066406,0.2353516,0.4599609,0.5527344,0.4599609,0.9521484c0,0.7363281-0.4482422,1.2109375-1.34375,1.4238281v0.0166016
				c0.9755859,0.1601562,1.4638672,0.6582031,1.4638672,1.4960938c0,0.5703125-0.1748047,1.0068359-0.5244141,1.3076172
				c-0.3496094,0.3017578-0.8544922,0.4521484-1.515625,0.4521484c-0.5927734,0-1.1474609-0.1679688-1.6640625-0.5039062
				l0.1279297-0.328125c0.4794922,0.3251953,0.9892578,0.4882812,1.5283203,0.4882812
				c0.5439453,0,0.9541016-0.1210938,1.2314453-0.3642578s0.4160156-0.5986328,0.4160156-1.0683594
				c0-0.4365234-0.1669922-0.7607422-0.5-0.9716797s-0.8544922-0.3164062-1.5634766-0.3164062h-0.3447266v-0.3515625h0.3447266
				c0.6240234,0,1.1044922-0.1083984,1.4433594-0.3242188s0.5078125-0.515625,0.5078125-0.8994141
				c0-0.3203125-0.1181641-0.5693359-0.3554688-0.7480469S22.1110115,541.5701294,21.6676521,541.5701294z"/>
			<path class="st19" d="M26.587574,541.2263794c1.3652344,0,2.0478516,1,2.0478516,3s-0.6826172,3-2.0478516,3
				c-1.3701172,0-2.0556641-1-2.0556641-3S25.2174568,541.2263794,26.587574,541.2263794z M26.587574,546.8826294
				c0.5498047,0,0.9619141-0.2167969,1.2363281-0.6484375s0.4121094-1.1015625,0.4121094-2.0078125
				s-0.1376953-1.5761719-0.4121094-2.0078125c-0.2744141-0.4326172-0.6865234-0.6484375-1.2363281-0.6484375
				c-1.1035156,0-1.6552734,0.8857422-1.6552734,2.65625S25.4840584,546.8826294,26.587574,546.8826294z"/>
		</g>
		<g>
			<path class="st19" d="M16.9323006,518.7998047v-5.34375H16.915699l-1.6396494,1.5517578l-0.1835938-0.3115234
				l1.8398447-1.7363281h0.3994141v5.8398438H16.9323006z"/>
			<path class="st19" d="M21.6198006,513.2314453c-0.2558594,0-0.5332031,0.0527344-0.8320312,0.15625
				c-0.2988281,0.1044922-0.5673828,0.2441406-0.8076172,0.4199219l-0.1445312-0.3115234
				c0.2460938-0.1865234,0.5332031-0.3359375,0.8642578-0.4482422s0.6503906-0.1679688,0.9599609-0.1679688
				c0.5439453,0,0.9677563,0.1425781,1.2724609,0.4277344c0.3037109,0.2851562,0.4560547,0.6845703,0.4560547,1.1962891
				c0,0.5175781-0.2099609,1.0625-0.6279297,1.6357422c-0.4189453,0.5732422-1.1806641,1.3398438-2.2841797,2.2998047v0.0166016
				h2.9599609v0.34375H19.915699v-0.34375c1.1845703-1.0136719,1.9912109-1.8027344,2.4199219-2.3681641
				c0.4296875-0.5654297,0.6445312-1.0830078,0.6445312-1.5517578c0-0.4160156-0.1171875-0.7373047-0.3525562-0.9638672
				C22.3932381,513.3447266,22.0573006,513.2314453,21.6198006,513.2314453z"/>
			<path class="st19" d="M26.587574,512.8798828c1.3652344,0,2.0478516,1,2.0478516,3s-0.6826172,3-2.0478516,3
				c-1.3701172,0-2.0556641-1-2.0556641-3S25.2174568,512.8798828,26.587574,512.8798828z M26.587574,518.5361328
				c0.5498047,0,0.9619141-0.2167969,1.2363281-0.6484375s0.4121094-1.1015625,0.4121094-2.0078125
				s-0.1376953-1.5761719-0.4121094-2.0078125c-0.2744141-0.4326172-0.6865234-0.6484375-1.2363281-0.6484375
				c-1.1035156,0-1.6552734,0.8857422-1.6552734,2.65625S25.4840584,518.5361328,26.587574,518.5361328z"/>
		</g>
		<g>
			<path class="st19" d="M16.9323006,490.4533081v-5.34375H16.915699l-1.6396494,1.5517578l-0.1835938-0.3115234
				l1.8398447-1.7363281h0.3994141v5.8398438H16.9323006z"/>
			<path class="st19" d="M21.8121834,490.4533081v-5.34375h-0.0166016l-1.6396484,1.5517578l-0.1835938-0.3115234
				l1.8398438-1.7363281h0.3994141v5.8398438H21.8121834z"/>
			<path class="st19" d="M26.587574,484.5333862c1.3652344,0,2.0478516,1,2.0478516,3s-0.6826172,3-2.0478516,3
				c-1.3701172,0-2.0556641-1-2.0556641-3S25.2174568,484.5333862,26.587574,484.5333862z M26.587574,490.1896362
				c0.5498047,0,0.9619141-0.2167969,1.2363281-0.6484375s0.4121094-1.1015625,0.4121094-2.0078125
				s-0.1376953-1.5761719-0.4121094-2.0078125c-0.2744141-0.4326172-0.6865234-0.6484375-1.2363281-0.6484375
				c-1.1035156,0-1.6552734,0.8857422-1.6552734,2.65625S25.4840584,490.1896362,26.587574,490.1896362z"/>
		</g>
		<circle class="st19" cx="22.0914803" cy="445.0136719" r="0.8320312"/>
		<circle class="st19" cx="22.0914803" cy="473.3601379" r="0.8320312"/>
		<circle class="st19" cx="22.0914803" cy="501.7066345" r="0.8320312"/>
		<circle class="st19" cx="22.0914803" cy="530.0531006" r="0.8320312"/>
		<circle class="st19" cx="22.0914803" cy="558.3995972" r="0.8320312"/>
	</g>
	<path class="st13" d="M94.9612961,148.1123962l-2.0043945-2.0043945l2.0043945-2.0043945l0.0002441,0.000061V97.0887146
		l-0.0002441,0.000061l-2.0043945-2.0043945l2.0043945-2.0043945l0.0002441,0.000061V54.5690002l-0.0002441,0.000061
		l-2.0043945-2.0043945l2.0043945-2.0043945l0.0002441,0.000061v-3.0779419l-0.0002441,0.000061l-2.0043945-2.0043945
		l2.0043945-2.0043945l0.0002441,0.000061V17.1316223c0-7.7952881-6.3781738-14.1732178-14.1733398-14.1732178H24.0953293
		c-7.795166,0-14.1733389,6.3779297-14.1733389,14.1732178v26.3421021l0.0002441-0.000061l2.0043945,2.0043945l-2.0043945,2.0043945
		l-0.0002441-0.000061v3.0779419l0.0002441-0.000061l2.0043945,2.0043945l-2.0043945,2.0043945l-0.0002441-0.000061v38.5110474
		l0.0002441-0.000061l2.0043945,2.0043945l-2.0043945,2.0043945l-0.0002441-0.000061v47.0149536l0.0002441-0.000061
		l2.0043945,2.0043945l-2.0043945,2.0043945l-0.0002441-0.000061v423.1924744
		c0,15.5905762,12.7561026,28.3464355,28.3464355,28.3464355h28.3466797c15.590332,0,28.3464355-12.7558594,28.3464355-28.3464355
		V148.1123352L94.9612961,148.1123962z"/>
	<g>
		<path class="st19" d="M34.8226242,114.2539978c-0.9472656,0-1.6992188,0.300293-2.2558594,0.9003906
			c-0.5566406,0.5996094-0.8339844,1.4067383-0.8339844,2.4199219c0,1.0068359,0.2832031,1.8115234,0.8496094,2.4150391
			s1.3125,0.9047852,2.2402344,0.9047852c0.7265625,0,1.3964844-0.199707,2.0097656-0.6000977l0.1894531,0.3901367
			c-0.6328125,0.4267578-1.3769531,0.6401367-2.2304688,0.6401367c-1.0800781,0-1.9453125-0.340332-2.59375-1.0200195
			c-0.6503906-0.6801758-0.9765625-1.5898438-0.9765625-2.7299805c0-1.1533203,0.3222656-2.0668945,0.9648438-2.7402344
			c0.6445312-0.6733398,1.5117188-1.0097656,2.6054688-1.0097656c0.8535156,0,1.5976562,0.2133789,2.2304688,0.6401367
			l-0.1894531,0.3896484C36.2327805,114.4541931,35.5609055,114.2539978,34.8226242,114.2539978z"/>
		<path class="st19" d="M38.1819992,121.2242126l0.9199219-7.2998047h0.6601562l2.0097656,6.7299805h0.0195312l2.0097656-6.7299805
			h0.6601562l0.9199219,7.2998047h-0.5l-0.7988281-6.6298828h-0.0195312l-1.9804688,6.6298828h-0.6113281l-1.9785156-6.6298828
			h-0.0214844l-0.7988281,6.6298828H38.1819992z"/>
		<path class="st19" d="M49.0413742,121.2242126v-6.6801758H49.021843l-2.0488281,1.9399414l-0.2304688-0.3896484
			l2.2988281-2.1699219h0.5v7.2998047H49.0413742z"/>
		<path class="st19" d="M53.3362961,114.2891541c0.4101562-0.3100586,0.96875-0.4648438,1.6757812-0.4648438
			s1.265625,0.1547852,1.6738281,0.4648438c0.4101562,0.3100586,0.6152344,0.7216797,0.6152344,1.2348633
			c0,0.4135742-0.1347656,0.7734375-0.4042969,1.0800781s-0.6542969,0.5366211-1.1542969,0.6899414v0.0200195
			c1.21875,0.3203125,1.8300781,0.9799805,1.8300781,1.9799805c0,0.6269531-0.2285156,1.1220703-0.6816406,1.4853516
			s-1.0800781,0.5449219-1.8789062,0.5449219c-0.8007812,0-1.4296875-0.1816406-1.8847656-0.5449219
			c-0.4570312-0.3632812-0.6855469-0.8583984-0.6855469-1.4853516c0-0.4731445,0.1542969-0.8764648,0.4648438-1.2099609
			c0.3105469-0.3330078,0.765625-0.5800781,1.3652344-0.7397461v-0.0200195
			c-0.4941406-0.1533203-0.875-0.3867188-1.1445312-0.7001953c-0.2714844-0.3129883-0.40625-0.6796875-0.40625-1.1000977
			C52.7210617,115.0108337,52.9261398,114.5992126,53.3362961,114.2891541z M54.9925461,117.5440369
			c-1.3808594,0.2402344-2.0703125,0.8168945-2.0703125,1.7299805c0,0.5068359,0.1855469,0.9052734,0.5585938,1.1953125
			c0.375,0.2900391,0.8847656,0.4350586,1.53125,0.4350586c0.640625,0,1.1445312-0.1469727,1.515625-0.4399414
			c0.3691406-0.293457,0.5546875-0.6904297,0.5546875-1.1904297
			C57.0823898,118.3540955,56.3851242,117.7774353,54.9925461,117.5440369z M55.0120773,117.124115
			c0.5664062-0.1000977,1.0097656-0.2900391,1.3300781-0.5698242c0.3203125-0.2802734,0.4804688-0.6132812,0.4804688-1
			c0-0.3999023-0.1621094-0.7182617-0.4863281-0.9550781c-0.3222656-0.2363281-0.7636719-0.3549805-1.3242188-0.3549805
			s-1.0019531,0.1186523-1.3261719,0.3549805c-0.3222656,0.2368164-0.484375,0.5551758-0.484375,0.9550781
			c0,0.3935547,0.1601562,0.7299805,0.4804688,1.0097656C54.0023117,116.8443298,54.4456711,117.0308533,55.0120773,117.124115z"/>
		<path class="st19" d="M63.0413742,114.3540955h-3.25l-0.1894531,2.7402344h0.0195312
			c0.4199219-0.2666016,0.8925781-0.3999023,1.4199219-0.3999023c0.7324219,0,1.3007812,0.1899414,1.6992188,0.5698242
			c0.4003906,0.3798828,0.6015625,0.9165039,0.6015625,1.6098633c0,0.793457-0.21875,1.3999023-0.65625,1.8203125
			c-0.4355469,0.4199219-1.0703125,0.6298828-1.9042969,0.6298828c-0.6738281,0-1.296875-0.1733398-1.8710938-0.5200195
			l0.1601562-0.4101562c0.5546875,0.3334961,1.1230469,0.5,1.7109375,0.5c0.6738281,0,1.1855469-0.1699219,1.5351562-0.5097656
			c0.3496094-0.340332,0.5253906-0.8432617,0.5253906-1.5102539c0-0.5732422-0.1601562-1.0097656-0.4765625-1.3100586
			c-0.3164062-0.2998047-0.7773438-0.449707-1.3847656-0.449707c-0.546875,0-1.0234375,0.159668-1.4296875,0.4799805h-0.4589844
			l0.2382812-3.6699219h3.7109375V114.3540955z"/>
		<path class="st19" d="M67.2112961,113.8243103c1.7070312,0,2.5605469,1.25,2.5605469,3.75s-0.8535156,3.75-2.5605469,3.75
			c-1.7128906,0-2.5703125-1.25-2.5703125-3.75S65.4984055,113.8243103,67.2112961,113.8243103z M67.2112961,120.8941345
			c0.6855469,0,1.2011719-0.2700195,1.5449219-0.8100586s0.515625-1.3764648,0.515625-2.5097656
			s-0.171875-1.9702148-0.515625-2.5102539s-0.859375-0.8100586-1.5449219-0.8100586
			c-1.3808594,0-2.0703125,1.1069336-2.0703125,3.3203125S65.8304367,120.8941345,67.2112961,120.8941345z"/>
	</g>
</g>
</svg>
