<?xml version="1.0" encoding="utf-8"?>
<!-- Generator: Adobe Illustrator 25.4.1, SVG Export Plug-In . SVG Version: 6.00 Build 0)  -->
<svg version="1.1" id="Layer_1" xmlns="http://www.w3.org/2000/svg" xmlns:xlink="http://www.w3.org/1999/xlink" x="0px" y="0px"
	 viewBox="0 0 595.2755737 841.8898315" style="enable-background:new 0 0 595.2755737 841.8898315;" xml:space="preserve">
<style type="text/css">
	.st0{fill:#FFFF01;stroke:#000000;stroke-width:0.2834646;stroke-miterlimit:10;}
	.st1{fill:none;stroke:#000000;stroke-width:0.2834646;stroke-miterlimit:10;}
	.st2{fill:none;stroke:#000000;stroke-width:0.7086614;stroke-miterlimit:10;}
	.st3{fill:none;stroke:#F0047F;stroke-width:0.7086614;stroke-miterlimit:10;}
	.st4{fill:none;stroke:#F0047F;stroke-width:0.2834646;stroke-miterlimit:10;}
	.st5{fill:none;stroke:#FF0001;stroke-width:0.2834646;stroke-miterlimit:10;}
	.st6{fill:none;stroke:#01A0C6;stroke-width:0.2834646;stroke-miterlimit:10;}
	.st7{fill:none;stroke:#13017C;stroke-width:0.7086614;stroke-miterlimit:10;}
	.st8{fill:none;stroke:#018837;stroke-width:0.7086614;stroke-miterlimit:10;}
	.st9{fill:none;stroke:#01A0C6;stroke-width:0.7086614;stroke-miterlimit:10;}
	.st10{fill:none;stroke:#FEA621;stroke-width:0.7086614;stroke-miterlimit:10;}
</style>
<g>
	<path class="st2" d="M97.2374344,87.3914719H85.8988495c-12.5242538,0-22.677166-10.1529083-22.677166-22.6771622V25.0292683
		c0-12.5242519,10.1529121-22.6771641,22.677166-22.6771641h11.3385849c12.5242538,0,22.6771622,10.1529131,22.6771622,22.6771641
		v39.6850433C119.9145966,77.2385635,109.7616882,87.3914719,97.2374344,87.3914719z"/>
	<g>
		<circle class="st3" cx="111.2204514" cy="44.9210358" r="4.5354333"/>
		<circle class="st3" cx="71.9268494" cy="44.9210358" r="4.5354333"/>
	</g>
	<path class="st3" d="M86.8261566,62.0294571h-0.0000153c-3.6007233,0-6.5196762-2.9189568-6.5196762-6.5196762V28.8640976
		c0-3.6007195,2.9189529-6.5196781,6.5196762-6.5196781h0.0000153c3.6007156,0,6.5196762,2.9189587,6.5196762,6.5196781v26.6456795
		C93.3458328,59.1104965,90.4268723,62.0294571,86.8261566,62.0294571z"/>
</g>
<g>
	<path class="st2" d="M157.3057404,87.3914719h-11.3385925c-12.5242462,0-22.6771622-10.1529083-22.6771622-22.6771622V25.0292683
		c0-12.5242519,10.152916-22.6771641,22.6771622-22.6771641h11.3385925c12.5242462,0,22.6771545,10.1529131,22.6771545,22.6771641
		v39.6850433C179.9828949,77.2385635,169.8299866,87.3914719,157.3057404,87.3914719z"/>
	<g>
		<circle class="st3" cx="171.2887573" cy="44.9210358" r="4.5354333"/>
		<circle class="st3" cx="131.995163" cy="44.9210358" r="4.5354333"/>
	</g>
</g>
<g>
	<path class="st9" d="M217.4531097,87.3914719h-11.3385925c-12.5242462,0-22.6771545-10.1529083-22.6771545-22.6771622V25.0292683
		c0-12.5242519,10.1529083-22.6771641,22.6771545-22.6771641h11.3385925c12.5242462,0,22.6771545,10.1529131,22.6771545,22.6771641
		v39.6850433C240.1302643,77.2385635,229.977356,87.3914719,217.4531097,87.3914719z"/>
	<g>
		<circle class="st10" cx="231.4361267" cy="44.9210358" r="4.5354333"/>
		<circle class="st10" cx="192.1425171" cy="44.9210358" r="4.5354333"/>
	</g>
</g>
<g>
	<path class="st9" d="M277.5750122,87.3914719h-11.338562c-12.5242615,0-22.6771698-10.1529083-22.6771698-22.6771622V25.0292683
		c0-12.5242519,10.1529083-22.6771641,22.6771698-22.6771641h11.338562c12.5242615,0,22.6771851,10.1529131,22.6771851,22.6771641
		v39.6850433C300.2521973,77.2385635,290.0992737,87.3914719,277.5750122,87.3914719z"/>
	<g>
		<circle class="st10" cx="291.5580444" cy="44.9210358" r="4.5354333"/>
		<circle class="st10" cx="252.2644501" cy="44.9210358" r="4.5354333"/>
	</g>
</g>
<g>
	<g>
		<circle class="st3" cx="51.0194893" cy="44.9210358" r="4.5354333"/>
		<circle class="st3" cx="11.7258873" cy="44.9210358" r="4.5354333"/>
	</g>
	<path class="st2" d="M37.0364914,2.3521035h-11.338623c-12.524231,0-22.677124,10.1528931-22.677124,22.677124v39.6850586
		c0,12.0477905,9.3964844,21.8964233,21.2598267,22.6286621V68.966301c0-2.3483276-1.9036865-4.2519531-4.2519531-4.2519531
		V25.0292892c2.3482666,0,4.2519531-1.9036865,4.2519531-4.2519531v-9.9212656h14.1732178v9.9212656
		c0,2.3482666,1.9036865,4.2519531,4.2519531,4.2519531v39.6850586c-2.3482666,0-4.2519531,1.9036255-4.2519531,4.2519531
		v18.3766479c11.8633423-0.7322388,21.2598267-10.5808716,21.2598267-22.6286621V25.0292282
		C59.7136154,12.5049963,49.5607224,2.3521035,37.0364914,2.3521035z"/>
</g>
</svg>
