<?xml version="1.0" encoding="utf-8"?>
<!-- Generator: Adobe Illustrator 26.0.1, SVG Export Plug-In . SVG Version: 6.00 Build 0)  -->
<svg version="1.1" id="Layer_1" xmlns="http://www.w3.org/2000/svg" xmlns:xlink="http://www.w3.org/1999/xlink" x="0px" y="0px"
	 viewBox="0 0 595.2755737 841.8898315" style="enable-background:new 0 0 595.2755737 841.8898315;" xml:space="preserve">
<style type="text/css">
	.st0{fill:none;stroke:#000000;stroke-miterlimit:10;}
	.st1{fill:none;stroke:#00AEEF;stroke-miterlimit:10;}
	.st2{fill:none;stroke:#00AEEF;stroke-miterlimit:10;stroke-dasharray:11.8028069,11.8028069;}
	.st3{fill:none;stroke:#00AEEF;stroke-miterlimit:10;stroke-dasharray:14.8976374,14.8976374;}
	.st4{fill:none;stroke:#00AEEF;stroke-miterlimit:10;stroke-dasharray:12.6336269,12.6336269;}
	.st5{fill:none;stroke:#00AEEF;stroke-miterlimit:10;stroke-dasharray:11.2650919,11.2650919;}
	.st6{fill:none;stroke:#00AEEF;stroke-miterlimit:10;stroke-dasharray:12.4589424,12.4589424;}
	.st7{fill:none;stroke:#00AEEF;stroke-miterlimit:10;stroke-dasharray:11.7938442,11.7938442;}
	.st8{fill:none;stroke:#00AEEF;stroke-miterlimit:10;stroke-dasharray:12.8398952,12.8398952;}
	.st9{fill:none;stroke:#00AEEF;stroke-miterlimit:10;stroke-dasharray:10.4341955,10.4341955;}
	.st10{fill:none;stroke:#00A651;stroke-miterlimit:10;}
	.st11{fill:none;stroke:#BE1E2D;stroke-miterlimit:10;}
	.st12{fill:none;stroke:#ED1C24;stroke-miterlimit:10;}
	.st13{fill:none;stroke:#00AEEF;stroke-width:0.25;stroke-miterlimit:10;}
</style>
<g>
	<g>
		<circle class="st12" cx="92.6828766" cy="204.0935059" r="4.9606299"/>
		<circle class="st12" cx="92.6828766" cy="175.7470551" r="4.9606299"/>
		<circle class="st12" cx="92.6828766" cy="147.400589" r="4.9606299"/>
	</g>
	<g>
		<circle class="st12" cx="64.337822" cy="204.0935059" r="4.9606299"/>
		<circle class="st12" cx="64.337822" cy="175.7470551" r="4.9606299"/>
		<circle class="st12" cx="64.337822" cy="147.400589" r="4.9606299"/>
	</g>
	<g>
		<circle class="st12" cx="35.9913635" cy="204.0935059" r="4.9606299"/>
		<circle class="st12" cx="35.9913635" cy="175.7470551" r="4.9606299"/>
		<circle class="st12" cx="35.9913635" cy="147.400589" r="4.9606299"/>
	</g>
	<g>
		<circle class="st12" cx="92.6828766" cy="90.7076797" r="4.9606299"/>
		<circle class="st12" cx="92.6828766" cy="62.3612213" r="4.9606299"/>
		<circle class="st12" cx="92.6828766" cy="34.0147667" r="4.9606299"/>
	</g>
	<g>
		<circle class="st12" cx="64.337822" cy="90.7076797" r="4.9606299"/>
		<circle class="st12" cx="64.337822" cy="62.3612213" r="4.9606299"/>
		<circle class="st12" cx="64.337822" cy="34.0147667" r="4.9606299"/>
	</g>
	<g>
		<circle class="st12" cx="35.9913635" cy="90.7076797" r="4.9606299"/>
		<circle class="st12" cx="35.9913635" cy="62.3612213" r="4.9606299"/>
		<circle class="st12" cx="35.9913635" cy="34.0147667" r="4.9606299"/>
	</g>
	<path class="st0" d="M121.0307617,117.0497131V19.8415298c0-7.8276577-6.3455734-14.1732273-14.173233-14.1732273H21.8181229
		c-7.8276587,0-14.1732292,6.3455701-14.1732292,14.1732273v97.2081833l2.0043945,2.0043945l-2.0043945,2.0043945v97.2082367
		c0,7.8276672,6.3455706,14.173233,14.1732292,14.173233h85.0394058c7.8276596,0,14.173233-6.3455658,14.173233-14.173233
		v-97.2082367l-2.0043945-2.0043945L121.0307617,117.0497131z"/>
</g>
</svg>
