<?xml version="1.0" encoding="utf-8"?>
<!-- Generator: Adobe Illustrator 25.4.1, SVG Export Plug-In . SVG Version: 6.00 Build 0)  -->
<svg version="1.1" xmlns="http://www.w3.org/2000/svg" xmlns:xlink="http://www.w3.org/1999/xlink" x="0px" y="0px"
	 viewBox="0 0 1275.5905762 850.3936768" style="enable-background:new 0 0 1275.5905762 850.3936768;" xml:space="preserve">
<style type="text/css">
	.st0{opacity:0.56;}
	.st1{fill:#00AEEF;}
	.st2{fill:#F15A29;}
	.st3{fill:#FFF200;}
	.st4{fill:#00A651;}
	.st5{fill:none;stroke:#C49A6C;stroke-width:0.2834646;stroke-miterlimit:10;stroke-dasharray:2.8346457,2.8346457;}
	.st6{fill:#C49A6C;}
	.st7{fill:none;stroke:#C49A6C;stroke-miterlimit:10;stroke-dasharray:2.8346457,2.8346457;}
	.st8{fill:none;stroke:#00AEEF;stroke-width:0.7086614;stroke-miterlimit:10;}
	.st9{fill:none;stroke:#F7941D;stroke-width:0.7086614;stroke-miterlimit:10;}
	.st10{fill:none;stroke:#F7941D;stroke-width:0.7086614;stroke-miterlimit:10;stroke-dasharray:2.8346457,2.8346457;}
	.st11{fill:none;stroke:#00A14B;stroke-width:0.7086614;stroke-miterlimit:10;}
	.st12{fill:none;stroke:#EC008C;stroke-width:0.7086614;stroke-miterlimit:10;}
	.st13{fill:none;stroke:#000000;stroke-miterlimit:10;}
	.st14{fill:none;stroke:#F7941D;stroke-width:0.7086614;stroke-miterlimit:10;stroke-dasharray:2.7910357,2.7910357;}
	.st15{fill:none;stroke:#F7941D;stroke-width:0.7086614;stroke-miterlimit:10;stroke-dasharray:2.7968504,2.7968504;}
	.st16{fill:none;stroke:#2E3192;stroke-width:0.7086614;stroke-miterlimit:10;}
	.st17{fill:none;stroke:#00A14B;stroke-width:0.2834646;}
	.st18{fill:none;stroke:#00A14B;stroke-width:0.2834646;stroke-miterlimit:10;}
	.st19{fill:none;stroke:#000000;stroke-width:0.7086614;stroke-miterlimit:10;}
</style>
<g id="PCBa">
</g>
<g id="よこなが">
	<path class="st19" d="M379.8425293,249.448822H17.0078735C7.6146846,249.448822,0,241.834137,0,232.4409485V17.0078735
		C0,7.6146846,7.6146846,0,17.0078735,0h362.8346558c9.3931885,0,17.0078735,7.6146846,17.0078735,17.0078735v215.433075
		C396.8504028,241.834137,389.2357178,249.448822,379.8425293,249.448822z"/>
	<rect x="375.9772644" y="80.078743" class="st12" width="6.5196853" height="89.2913361"/>
	<rect x="14.1732283" y="80.078743" class="st12" width="6.5196853" height="89.2913361"/>
	<circle class="st12" cx="307.592804" cy="46.0629921" r="4.9606299"/>
	<circle class="st12" cx="307.592804" cy="157.0393677" r="4.9606299"/>
	<circle class="st12" cx="89.2575912" cy="46.0629921" r="4.9606299"/>
	<circle class="st12" cx="89.2575912" cy="157.0393677" r="4.9606299"/>
	<g>
		<circle class="st12" cx="362.8346558" cy="32.5984268" r="4.9606299"/>
		<circle class="st12" cx="34.0157471" cy="32.5984268" r="4.9606299"/>
		<circle class="st12" cx="362.8346558" cy="216.8503876" r="4.9606299"/>
		<circle class="st12" cx="34.0157471" cy="216.8503876" r="4.9606299"/>
	</g>
	<rect x="62.3622055" y="14.1732283" class="st12" width="59.5275574" height="6.5196853"/>
	<rect x="274.9606323" y="14.1732283" class="st12" width="59.5275574" height="6.5196853"/>
	<rect x="62.3622055" y="228.7559052" class="st12" width="59.5275574" height="6.5196853"/>
	<rect x="274.9606323" y="228.7559052" class="st12" width="59.5275574" height="6.5196853"/>
	<g>
		<g>
			<path class="st18" d="M239.6725311,96.6245956v0.017868c1.1245728,0.1843719,1.6868591,0.737915,1.6868591,1.660202
				c0,1.2792587-0.8926849,1.9191055-2.6780396,1.9191055h-1.2492371v-6.5161514h1.1603088
				c1.6066589,0,2.4104156,0.4907837,2.4104156,1.4727783C241.0028381,95.9280853,240.5591125,96.4101486,239.6725311,96.6245956z
				 M237.6108246,96.5618286h1.0705261c0.6904297,0,1.220459-0.118988,1.5892181-0.3569717
				c0.3687439-0.2379837,0.5535583-0.5801315,0.5535583-1.0264587c0-0.1307602-0.012207-0.2484436-0.0357361-0.3526154
				c-0.0235443-0.1041641-0.081955-0.2170563-0.1743622-0.3390961c-0.092392-0.1220474-0.2153168-0.2249069-0.3704834-0.3081589
				c-0.1543121-0.083252-0.3731232-0.1529846-0.6555634-0.2096481c-0.2833252-0.0566635-0.6145935-0.0849915-0.9955597-0.0849915
				h-0.9815979V96.5618286z M237.6108246,96.7405319v3.302536h1.0705261c0.8516998,0,1.4811096-0.1412201,1.8882294-0.4236603
				c0.4079742-0.2828751,0.611969-0.7217865,0.611969-1.3167419c0-1.041275-0.8334045-1.5621338-2.5001984-1.5621338H237.6108246z"
				/>
			<path class="st18" d="M242.3592987,97.945694c0.0061035,0.6843033,0.1830597,1.2199783,0.530899,1.6065903
				c0.3478241,0.3870468,0.8255463,0.5801392,1.4331665,0.5801392c0.523056,0,0.9999084-0.1307602,1.427948-0.3927155
				l0.088913,0.1608353c-0.4637756,0.2737198-0.9693909,0.4105835-1.516861,0.4105835
				c-0.6607971,0-1.1829681-0.2157516-1.5665436-0.6472626c-0.3844452-0.4315033-0.5762329-1.019043-0.5762329-1.7630615
				c0-0.7557907,0.1813202-1.3463821,0.5448456-1.7717819c0.3626556-0.4254074,0.8656616-0.6381073,1.5081482-0.6381073
				c0.5953979,0,1.0565643,0.2065964,1.3834686,0.6202316c0.3277893,0.4136353,0.491684,0.995079,0.491684,1.7452011v0.0893478
				H242.3592987z M242.3592987,97.7669907h3.5619965c-0.012207-0.6781998-0.1621399-1.1977539-0.4515686-1.5577774
				c-0.2885437-0.3600235-0.7000275-0.5400314-1.236145-0.5400314c-0.5771027,0-1.0278015,0.1830597-1.3520966,0.5491867
				C242.5571899,96.5840607,242.3828278,97.1005554,242.3592987,97.7669907z"/>
			<path class="st18" d="M250.6793518,96.3478241v-0.7679977h0.1778412v1.5176773
				c0,0.4702988-0.1604004,0.8407822-0.4820862,1.1114502c-0.3208008,0.2706757-0.7558136,0.4062271-1.3032684,0.4062271
				c-0.4576721,0-0.8421173-0.0985031-1.1515961-0.2946472c-0.1839447,0.1547318-0.2763519,0.3273392-0.2763519,0.517807
				c0,0.0950165,0.0191803,0.1769638,0.0584106,0.2453918c0.0383606,0.068428,0.1115875,0.1381683,0.2179413,0.2096481
				c0.1072235,0.0714874,0.2772217,0.1250992,0.5091095,0.1608353c0.2318878,0.0357437,0.5204315,0.0536118,0.8656464,0.0536118
				c0.6546936,0,1.1385193,0.1054764,1.4506073,0.3168716c0.3129578,0.2109604,0.4690094,0.5369873,0.4690094,0.9772034
				c0,0.4524307-0.1961517,0.8107071-0.5893097,1.0757141c-0.3922882,0.2645721-0.924942,0.3970718-1.5979309,0.3970718
				c-0.612854,0-1.1010284-0.1220398-1.4636841-0.3656921c-0.3635254-0.2440796-0.5448456-0.568367-0.5448456-0.9732819
				c0-0.2798233,0.0906677-0.5504913,0.2728577-0.8120117c0.1813202-0.2619553,0.4088593-0.4641953,0.6825867-0.6071548
				c-0.3391113-0.1307602-0.5091095-0.3569717-0.5091095-0.6782074c0-0.2262115,0.10112-0.4345551,0.3033752-0.6250229
				c-0.3208008-0.2676239-0.4820862-0.6398468-0.4820862-1.1158142c0-0.4759598,0.1577911-0.8630066,0.4733734-1.1602631
				c0.315567-0.297699,0.7235565-0.4463272,1.2230682-0.4463272c0.815094,0,1.3747711,0.2854919,1.6781311,0.8569107H250.6793518z
				 M251.0359039,100.8019028c0-0.1486282-0.0191803-0.2811279-0.0575409-0.3970718
				c-0.0392303-0.1159363-0.1150665-0.2323151-0.2275238-0.3482513c-0.113327-0.1159363-0.292038-0.2065964-0.5361328-0.2724152
				c-0.2440948-0.0653763-0.5500793-0.0980682-0.9197083-0.0980682c-0.4402313,0-0.7915497-0.0296402-1.0530853-0.0893555
				c-0.2911682,0.095459-0.5387421,0.2724152-0.7409821,0.5313187c-0.2022552,0.2589035-0.3033752,0.527832-0.3033752,0.8076553
				c0,0.3513107,0.1647644,0.6324387,0.495163,0.8438339c0.3303833,0.2109528,0.7749786,0.3168716,1.3346558,0.3168716
				c0.6189423,0,1.1088715-0.1159439,1.4689178-0.348259C250.8563232,101.5162888,251.0359039,101.2007217,251.0359039,100.8019028z
				 M247.8897247,96.0666885c-0.2833099,0.2645721-0.4245453,0.6084671-0.4245453,1.0308151
				c0,0.4227905,0.1412354,0.7514267,0.4245453,0.9863586c0.2824554,0.2353668,0.6764832,0.3526154,1.1821136,0.3526154
				c0.494278,0,0.8856964-0.118988,1.1742554-0.3569717c0.2885437-0.2379837,0.4332581-0.5653152,0.4332581-0.9820023
				c0-0.4341202-0.1551666-0.7810669-0.4646454-1.0399704s-0.7200775-0.3883514-1.2317963-0.3883514
				C248.5365753,95.6691818,248.1721802,95.8016815,247.8897247,96.0666885z"/>
			<path class="st18" d="M252.8840332,94.5089111v-0.9819946h0.1787109v0.9819946H252.8840332z M252.8840332,100.2217712v-4.6419449
				h0.1787109v4.6419449H252.8840332z"/>
			<path class="st18" d="M255.1331635,96.7226639h0.0183105c0.1542969-0.3691788,0.3809509-0.6664352,0.6782227-0.8926468
				c0.297287-0.2262115,0.6302948-0.3391037,0.9999237-0.3391037c0.5648804,0,0.9746094,0.1547318,1.227417,0.4641953
				s0.3792114,0.8093948,0.3792114,1.4993668v2.7672958h-0.1787109v-2.7672958c0-0.6424637-0.1098328-1.1009903-0.3303833-1.3747101
				c-0.219696-0.2737198-0.5858154-0.4105835-1.0975342-0.4105835c-0.4707642,0-0.8708954,0.192215-1.2004242,0.5757751
				c-0.3303986,0.3839951-0.4960327,0.8468781-0.4960327,1.3882217v2.5885925h-0.1787109v-4.6419449h0.1787109V96.7226639z"/>
			<path class="st18" d="M260.2843933,94.5089111v-0.9819946h0.1787109v0.9819946H260.2843933z M260.2843933,100.2217712v-4.6419449
				h0.1787109v4.6419449H260.2843933z"/>
			<path class="st18" d="M262.5335083,96.7226639h0.0183105c0.1542969-0.3691788,0.3809814-0.6664352,0.6782227-0.8926468
				c0.2972717-0.2262115,0.6303101-0.3391037,0.9999084-0.3391037c0.5649109,0,0.9746399,0.1547318,1.2274475,0.4641953
				s0.3792114,0.8093948,0.3792114,1.4993668v2.7672958h-0.1787109v-2.7672958c0-0.6424637-0.1098328-1.1009903-0.3303833-1.3747101
				c-0.219696-0.2737198-0.5858154-0.4105835-1.0975647-0.4105835c-0.4707336,0-0.8708801,0.192215-1.2004089,0.5757751
				c-0.3303833,0.3839951-0.4960327,0.8468781-0.4960327,1.3882217v2.5885925h-0.1787109v-4.6419449h0.1787109V96.7226639z"/>
			<path class="st18" d="M270.6304016,96.3478241v-0.7679977h0.1778564v1.5176773
				c0,0.4702988-0.1604004,0.8407822-0.4820862,1.1114502c-0.3208008,0.2706757-0.7558289,0.4062271-1.3032837,0.4062271
				c-0.4576721,0-0.8421326-0.0985031-1.1515808-0.2946472c-0.18396,0.1547318-0.2763672,0.3273392-0.2763672,0.517807
				c0,0.0950165,0.0191956,0.1769638,0.0584106,0.2453918c0.0383606,0.068428,0.1116028,0.1381683,0.2179565,0.2096481
				c0.1072083,0.0714874,0.2772217,0.1250992,0.5090942,0.1608353c0.2319031,0.0357437,0.5204468,0.0536118,0.8656616,0.0536118
				c0.6546936,0,1.1385193,0.1054764,1.450592,0.3168716c0.3129578,0.2109604,0.4690247,0.5369873,0.4690247,0.9772034
				c0,0.4524307-0.196167,0.8107071-0.589325,1.0757141c-0.3922729,0.2645721-0.9249268,0.3970718-1.5979309,0.3970718
				c-0.612854,0-1.1010132-0.1220398-1.4636841-0.3656921c-0.3635254-0.2440796-0.5448303-0.568367-0.5448303-0.9732819
				c0-0.2798233,0.0906372-0.5504913,0.2728577-0.8120117c0.1813049-0.2619553,0.408844-0.4641953,0.6825867-0.6071548
				c-0.3391113-0.1307602-0.5091248-0.3569717-0.5091248-0.6782074c0-0.2262115,0.1011353-0.4345551,0.3033752-0.6250229
				c-0.3208008-0.2676239-0.4820862-0.6398468-0.4820862-1.1158142c0-0.4759598,0.1578064-0.8630066,0.4733887-1.1602631
				c0.3155518-0.297699,0.7235413-0.4463272,1.223053-0.4463272c0.815094,0,1.3747864,0.2854919,1.6781311,0.8569107H270.6304016z
				 M270.986969,100.8019028c0-0.1486282-0.0191956-0.2811279-0.0575562-0.3970718
				c-0.0392151-0.1159363-0.1150513-0.2323151-0.2275085-0.3482513c-0.1133423-0.1159363-0.2920532-0.2065964-0.5361328-0.2724152
				c-0.2441101-0.0653763-0.5500793-0.0980682-0.9197083-0.0980682c-0.4402466,0-0.7915649-0.0296402-1.0531006-0.0893555
				c-0.2911682,0.095459-0.5387268,0.2724152-0.7409668,0.5313187c-0.2022705,0.2589035-0.3033752,0.527832-0.3033752,0.8076553
				c0,0.3513107,0.1647644,0.6324387,0.4951477,0.8438339c0.3303833,0.2109528,0.7749939,0.3168716,1.3346558,0.3168716
				c0.6189575,0,1.1088867-0.1159439,1.4689026-0.348259C270.807373,101.5162888,270.986969,101.2007217,270.986969,100.8019028z
				 M267.8407898,96.0666885c-0.2833252,0.2645721-0.4245605,0.6084671-0.4245605,1.0308151
				c0,0.4227905,0.1412354,0.7514267,0.4245605,0.9863586c0.2824402,0.2353668,0.6764832,0.3526154,1.1820984,0.3526154
				c0.4942932,0,0.8857117-0.118988,1.1742554-0.3569717s0.4332581-0.5653152,0.4332581-0.9820023
				c0-0.4341202-0.1551514-0.7810669-0.4646301-1.0399704s-0.7200928-0.3883514-1.2318115-0.3883514
				C268.4876404,95.6691818,268.12323,95.8016815,267.8407898,96.0666885z"/>
		</g>
		<g>
			<path class="st18" d="M237.6108246,115.9350739v3.302536h3.3920135v0.1787033h-3.5707245v-6.5161514h3.5707245v0.1782684
				h-3.3920135v2.6779404h3.2133026v0.1787033H237.6108246z"/>
			<path class="st18" d="M242.6269226,115.9172058h0.0183105c0.1542969-0.3691788,0.3809509-0.6664352,0.6782227-0.8926468
				s0.6302795-0.3391037,0.9999084-0.3391037c0.5648956,0,0.9746246,0.1547318,1.2274323,0.4641953
				c0.2528229,0.3094635,0.3792267,0.8093948,0.3792267,1.4993668v2.7672958h-0.1787109v-2.7672958
				c0-0.6424637-0.109848-1.1009903-0.3303986-1.3747101c-0.2196808-0.2737198-0.5858307-0.4105835-1.0975494-0.4105835
				c-0.4707489,0-0.8708801,0.192215-1.2004089,0.5757751c-0.3303986,0.3839951-0.4960327,0.8468781-0.4960327,1.3882217v2.5885925
				h-0.1787109v-4.6419449h0.1787109V115.9172058z"/>
			<path class="st18" d="M247.0633087,117.0953445c0-0.7435837,0.1682434-1.3315659,0.5047455-1.7630692
				c0.3356171-0.4310684,0.7924194-0.6468201,1.3704071-0.6468201c0.8325195,0,1.3921967,0.3687439,1.6781311,1.1066589h0.0174255
				v-3.0706558h0.1787109v6.6948547h-0.1787109v-1.0177383h-0.0174255c-0.2859344,0.737915-0.8456116,1.1070938-1.6781311,1.1070938
				c-0.5832062,0-1.0417633-0.2127075-1.3747711-0.6385422
				C247.2298126,118.4417267,247.0633087,117.8511276,247.0633087,117.0953445z M248.9384613,119.3269653
				c0.5413513,0,0.9589233-0.1752167,1.2535858-0.5265274c0.2946472-0.3513031,0.4419708-0.8451385,0.4419708-1.4819336v-0.4463272
				c0-0.636795-0.1473236-1.1306229-0.4419708-1.4814987c-0.2946625-0.3513031-0.7122345-0.5269547-1.2535858-0.5269547
				c-0.523941,0-0.9380188,0.2009354-1.241394,0.6027985c-0.3033752,0.4014282-0.4550476,0.944519-0.4550476,1.6288223
				c0,0.7021713,0.1499329,1.2496185,0.4506989,1.6427689C247.9934692,119.1308212,248.408432,119.3269653,248.9384613,119.3269653z
				"/>
			<path class="st18" d="M255.0172272,118.8584061c-0.3748627-0.4315033-0.5622864-1.019043-0.5622864-1.7630615
				c0-0.7435837,0.1874237-1.3315659,0.5622864-1.7630692c0.3748474-0.4310684,0.8865814-0.6468201,1.5351715-0.6468201
				s1.1611633,0.2157516,1.5360413,0.6468201c0.3748474,0.4315033,0.5622864,1.0194855,0.5622864,1.7630692
				c0,0.7440186-0.187439,1.3315582-0.5622864,1.7630615c-0.3748779,0.4315109-0.8874512,0.6472626-1.5360413,0.6472626
				S255.3920746,119.289917,255.0172272,118.8584061z M255.14711,118.7289581
				c0.3417358,0.3988113,0.8107452,0.5980072,1.4052887,0.5980072c0.5953979,0,1.0643921-0.1991959,1.4061279-0.5980072
				c0.3426208-0.3988113,0.5134888-0.9432068,0.5134888-1.6336136c0-0.6899719-0.1708679-1.2348022-0.5134888-1.6336136
				c-0.3417358-0.3983841-0.81073-0.5980072-1.4061279-0.5980072c-0.5945435,0-1.0635529,0.1996231-1.4052887,0.5980072
				c-0.3425903,0.3988113-0.5134583,0.9436417-0.5134583,1.6336136
				C254.6336517,117.7857513,254.8045197,118.3301468,255.14711,118.7289581z"/>
			<path class="st18" d="M262.819458,112.9446182l-0.0618896,0.169548c-0.20224-0.0832443-0.4201965-0.1250916-0.6520691-0.1250916
				c-0.3809814,0-0.6546936,0.091095-0.8211975,0.2724152c-0.1665039,0.1817551-0.2502136,0.4777069-0.2502136,0.8882904v0.8032913
				h1.7853699v0.1787109h-1.7853699v4.2845306h-0.1778259v-4.2845306h-1.3390198v-0.1787109h1.3390198v-0.8032913
				c0-0.4641953,0.0993652-0.803299,0.2990112-1.0177383c0.198761-0.2140121,0.5160828-0.3212357,0.9502258-0.3212357
				C262.3678894,112.8108063,262.6058655,112.8552628,262.819458,112.9446182z"/>
			<path class="st18" d="M269.5851746,115.0424271l-0.0802002,0.1604004
				c-0.4759827-0.2257767-0.9545898-0.3391037-1.4366455-0.3391037c-0.422821,0-0.7593079,0.0893478-1.0086365,0.2680588
				c-0.2501831,0.1782684-0.3757324,0.4162445-0.3757324,0.7139435c0,0.2676163,0.0985107,0.4864197,0.2946472,0.6559677
				c0.1970215,0.1695557,0.5657654,0.3081589,1.1071472,0.4153824c0.5709839,0.1128845,0.9868164,0.275032,1.2457275,0.4864197
				c0.2589111,0.2113953,0.3879395,0.4951401,0.3879395,0.8525543c0,0.3866043-0.1490784,0.6917114-0.4463501,0.9148712
				c-0.2972717,0.2231674-0.6991272,0.3347473-1.2047424,0.3347473c-0.5483398,0-1.0687866-0.1486282-1.5621948-0.4463272
				l0.0888977-0.15168c0.4585571,0.2798233,0.9493408,0.4193039,1.4732971,0.4193039
				c0.4515686,0,0.81073-0.0950241,1.0757446-0.2854919c0.2641296-0.1904755,0.396637-0.4524307,0.396637-0.7854233
				c0-0.3094635-0.1159363-0.5548553-0.3478394-0.7366104c-0.2318726-0.1813202-0.6128235-0.3225403-1.1428528-0.4240952
				c-0.5474854-0.1072235-0.9414978-0.257164-1.1829834-0.4506836c-0.2406006-0.1935272-0.3609009-0.4598389-0.3609009-0.7989349
				c0-0.3508759,0.1412048-0.6324387,0.4236755-0.843399c0.2824402-0.2113953,0.6616516-0.3168716,1.1385193-0.3168716
				C268.5861511,114.6854553,269.0917664,114.8044434,269.5851746,115.0424271z"/>
			<path class="st18" d="M270.8535767,117.1402359c0.0061035,0.6843033,0.183075,1.2199783,0.5309143,1.6065903
				c0.3478088,0.3870468,0.825531,0.5801392,1.4331665,0.5801392c0.5230408,0,0.9999084-0.1307602,1.427948-0.3927155
				l0.0888977,0.1608353c-0.4637756,0.2737198-0.9693909,0.4105835-1.5168457,0.4105835
				c-0.6607971,0-1.1829834-0.2157516-1.5665588-0.6472626c-0.3844299-0.4315033-0.5762329-1.019043-0.5762329-1.7630615
				c0-0.7557907,0.1813354-1.3463821,0.5448608-1.7717819c0.3626404-0.4254074,0.8656616-0.6381073,1.5081482-0.6381073
				c0.5953979,0,1.0565491,0.2065964,1.3834534,0.6202316c0.3277893,0.4136353,0.4916992,0.995079,0.4916992,1.7452011v0.0893478
				H270.8535767z M270.8535767,116.9615326h3.5620117c-0.012207-0.6781998-0.1621399-1.1977539-0.4515686-1.5577774
				c-0.2885437-0.3600235-0.7000427-0.5400314-1.236145-0.5400314c-0.5771179,0-1.0278015,0.1830597-1.3521118,0.5491867
				C271.0514832,115.7786026,270.8771057,116.2950974,270.8535767,116.9615326z"/>
			<path class="st18" d="M275.9594727,115.9172058h0.0183105c0.1542969-0.3691788,0.3809509-0.6664352,0.6782227-0.8926468
				s0.6302795-0.3391037,0.9999084-0.3391037c0.5648804,0,0.9746094,0.1547318,1.227417,0.4641953
				c0.2528381,0.3094635,0.3792419,0.8093948,0.3792419,1.4993668v2.7672958h-0.1787109v-2.7672958
				c0-0.6424637-0.1098633-1.1009903-0.3304138-1.3747101c-0.2196655-0.2737198-0.5858154-0.4105835-1.0975342-0.4105835
				c-0.4707642,0-0.8708801,0.192215-1.2004089,0.5757751c-0.3304138,0.3839951-0.4960327,0.8468781-0.4960327,1.3882217v2.5885925
				h-0.1787109v-4.6419449h0.1787109V115.9172058z"/>
			<path class="st18" d="M283.5646973,115.0424271l-0.0802002,0.1604004
				c-0.4759827-0.2257767-0.9545898-0.3391037-1.436676-0.3391037c-0.4227905,0-0.7593079,0.0893478-1.008606,0.2680588
				c-0.2502136,0.1782684-0.3757324,0.4162445-0.3757324,0.7139435c0,0.2676163,0.0985107,0.4864197,0.2946472,0.6559677
				c0.1970215,0.1695557,0.5657654,0.3081589,1.1071472,0.4153824c0.5709839,0.1128845,0.9868164,0.275032,1.2457275,0.4864197
				c0.2589111,0.2113953,0.3879395,0.4951401,0.3879395,0.8525543c0,0.3866043-0.1490784,0.6917114-0.4463501,0.9148712
				c-0.2972717,0.2231674-0.6991577,0.3347473-1.2047729,0.3347473c-0.5483398,0-1.0687561-0.1486282-1.5621948-0.4463272
				l0.0889282-0.15168c0.4585571,0.2798233,0.9493408,0.4193039,1.4732666,0.4193039
				c0.4515686,0,0.81073-0.0950241,1.0757446-0.2854919c0.2641602-0.1904755,0.3966675-0.4524307,0.3966675-0.7854233
				c0-0.3094635-0.1159363-0.5548553-0.3478394-0.7366104c-0.2318726-0.1813202-0.612854-0.3225403-1.1428833-0.4240952
				c-0.5474548-0.1072235-0.9414978-0.257164-1.1829529-0.4506836c-0.2406311-0.1935272-0.3609314-0.4598389-0.3609314-0.7989349
				c0-0.3508759,0.1412354-0.6324387,0.4236755-0.843399c0.2824707-0.2113953,0.6616821-0.3168716,1.1385193-0.3168716
				C282.5656433,114.6854553,283.0712585,114.8044434,283.5646973,115.0424271z"/>
			<path class="st18" d="M285.4128113,113.7034531v-0.9819946h0.1787109v0.9819946H285.4128113z M285.4128113,119.4163132
				v-4.6419449h0.1787109v4.6419449H285.4128113z"/>
			<path class="st18" d="M287.6619568,115.9172058h0.0183105c0.1542969-0.3691788,0.3809509-0.6664352,0.6782227-0.8926468
				s0.6302795-0.3391037,0.9999084-0.3391037c0.5648804,0,0.9746094,0.1547318,1.227417,0.4641953
				s0.3792114,0.8093948,0.3792114,1.4993668v2.7672958h-0.1787109v-2.7672958c0-0.6424637-0.1098328-1.1009903-0.3303833-1.3747101
				c-0.219696-0.2737198-0.5858154-0.4105835-1.0975342-0.4105835c-0.4707642,0-0.8708801,0.192215-1.2004089,0.5757751
				c-0.3304138,0.3839951-0.4960327,0.8468781-0.4960327,1.3882217v2.5885925h-0.1787109v-4.6419449h0.1787109V115.9172058z"/>
			<path class="st18" d="M295.7588501,115.542366v-0.7679977h0.1778259v1.5176773
				c0,0.4702988-0.1604004,0.8407822-0.4820862,1.1114502c-0.3208008,0.2706757-0.7557983,0.4062271-1.3032837,0.4062271
				c-0.4576721,0-0.8421021-0.0985031-1.1515808-0.2946472c-0.1839294,0.1547318-0.2763367,0.3273392-0.2763367,0.517807
				c0,0.0950165,0.019165,0.1769638,0.0584106,0.2453918c0.0383301,0.068428,0.1115723,0.1381683,0.217926,0.2096481
				c0.1072388,0.0714874,0.2772217,0.1250992,0.5090942,0.1608353c0.2319031,0.0357437,0.5204468,0.0536118,0.8656616,0.0536118
				c0.6546936,0,1.1385193,0.1054764,1.4506226,0.3168716c0.3129578,0.2109604,0.4689941,0.5369873,0.4689941,0.9772034
				c0,0.4524307-0.1961365,0.8107071-0.5892944,1.0757141c-0.3923035,0.2645721-0.9249573,0.3970718-1.5979614,0.3970718
				c-0.6128235,0-1.1010132-0.1220398-1.4636536-0.3656921c-0.3635254-0.2440796-0.5448608-0.568367-0.5448608-0.9732819
				c0-0.2798233,0.0906677-0.5504913,0.2728577-0.8120117c0.1813354-0.2619553,0.408844-0.4641953,0.6825867-0.6071548
				c-0.3391113-0.1307602-0.5090942-0.3569717-0.5090942-0.6782074c0-0.2262115,0.1011047-0.4345551,0.3033752-0.6250229
				c-0.3208313-0.2676239-0.4820862-0.6398468-0.4820862-1.1158142c0-0.4759598,0.1577759-0.8630066,0.4733582-1.1602631
				c0.3155823-0.297699,0.7235413-0.4463272,1.2230835-0.4463272c0.815094,0,1.3747559,0.2854919,1.6781311,0.8569107H295.7588501z
				 M296.115387,119.9964447c0-0.1486282-0.019165-0.2811279-0.0575256-0.3970718
				c-0.0392456-0.1159363-0.1150818-0.2323151-0.2275391-0.3482513c-0.1133423-0.1159363-0.2920532-0.2065964-0.5361328-0.2724152
				c-0.2440796-0.0653763-0.5500793-0.0980682-0.9197083-0.0980682c-0.4402466,0-0.7915649-0.0296402-1.0530701-0.0893555
				c-0.2911682,0.095459-0.5387573,0.2724152-0.7409973,0.5313187s-0.3033752,0.527832-0.3033752,0.8076553
				c0,0.3513107,0.1647644,0.6324387,0.4951477,0.8438339c0.3304138,0.2109528,0.7749939,0.3168716,1.3346558,0.3168716
				c0.6189575,0,1.1088867-0.1159439,1.4689331-0.348259C295.935791,120.7108307,296.115387,120.3952637,296.115387,119.9964447z
				 M292.9692078,115.2612305c-0.2833252,0.2645721-0.42453,0.6084671-0.42453,1.0308151
				c0,0.4227905,0.1412048,0.7514267,0.42453,0.9863586c0.2824402,0.2353668,0.6764832,0.3526154,1.1820984,0.3526154
				c0.4942932,0,0.8857117-0.118988,1.1742554-0.3569717c0.2885742-0.2379837,0.4332886-0.5653152,0.4332886-0.9820023
				c0-0.4341202-0.1551819-0.7810669-0.4646606-1.0399704s-0.7200623-0.3883514-1.231781-0.3883514
				C293.6160583,114.8637238,293.2516479,114.9962234,292.9692078,115.2612305z"/>
		</g>
		<g>
			<path class="st18" d="M179.0609436,93.955368h-0.0174408l-1.9108887,1.8389053l-0.1246643-0.1250916l2.0529938-1.963562
				h0.1787109v6.5161514h-0.1787109V93.955368z"/>
			<path class="st18" d="M182.2838287,97.7225342v-0.1787033h2.4095459v0.1787033H182.2838287z"/>
			<path class="st18" d="M188.7644806,100.2304916c-0.1961517,0.0536118-0.405365,0.0806351-0.6250458,0.0806351
				c-0.2205658,0-0.4289093-0.0270233-0.625061-0.0806351c-0.1961365-0.0531769-0.3957672-0.1542969-0.5980225-0.30336
				c-0.2022552-0.1486359-0.3748627-0.3434601-0.5178223-0.5844955c-0.1429749-0.2410355-0.2606506-0.5653152-0.3521881-0.9732819
				c-0.0924072-0.4075317-0.1386108-0.8760834-0.1386108-1.4056625c0-0.5295715,0.0462036-0.9981232,0.1386108-1.4060898
				c0.0915375-0.4075317,0.2092133-0.7318192,0.3521881-0.972847c0.1429596-0.2410355,0.315567-0.4358673,0.5178223-0.5849304
				c0.2022552-0.1486282,0.401886-0.2497482,0.5980225-0.30336c0.1961517-0.0536118,0.4044952-0.0802002,0.625061-0.0802002
				c0.2196808,0,0.428894,0.0265884,0.6250458,0.0802002c0.1961365,0.0536118,0.3957825,0.1547318,0.5980225,0.30336
				c0.2022552,0.1490631,0.3748627,0.343895,0.5178223,0.5849304c0.1429749,0.2410278,0.2597809,0.5653152,0.3521881,0.972847
				c0.0924072,0.4079666,0.1386108,0.8765182,0.1386108,1.4060898c0,0.5295792-0.0462036,0.9981308-0.1386108,1.4056625
				c-0.0924072,0.4079666-0.2092133,0.7322464-0.3521881,0.9732819c-0.1429596,0.2410355-0.315567,0.4358597-0.5178223,0.5844955
				C189.1602631,100.0761948,188.9606171,100.1773148,188.7644806,100.2304916z M186.086441,96.9636917
				c0,2.1126328,0.6843262,3.1687317,2.0529938,3.1687317c1.3686523,0,2.0529785-1.0560989,2.0529785-3.1687317
				c0-2.1126251-0.6843262-3.1691589-2.0529785-3.1691589C186.7707672,93.7945328,186.086441,94.8510666,186.086441,96.9636917z"/>
			<path class="st18" d="M191.585495,97.7225342v-0.1787033h2.4095306v0.1787033H191.585495z"/>
			<path class="st18" d="M197.6642609,93.955368h-0.0174408l-1.9108887,1.8389053l-0.1246643-0.1250916l2.0529938-1.963562
				h0.1787109v6.5161514h-0.1787109V93.955368z"/>
		</g>
		<g>
			<path class="st18" d="M169.3730927,76.8446884c-0.5056152,0-0.8996582,0.1102753-1.1829834,0.3303833
				c-0.2824402,0.220108-0.4236755,0.5265198-0.4236755,0.9196701c0,0.7318115,0.5448608,1.2674942,1.6336823,1.6065903
				c0.6485901,0.20224,1.1184692,0.4585342,1.4105072,0.7675552c0.2911682,0.3094635,0.4376221,0.7082825,0.4376221,1.1964493
				c0,0.5474396-0.1621552,0.9667435-0.4864502,1.2583313c-0.3251648,0.2915955-0.7871857,0.4376068-1.3887024,0.4376068
				c-0.7375031,0-1.3625641-0.2083435-1.8742828-0.6250229l0.1072235-0.1425323
				c0.4873199,0.3927155,1.0766296,0.5888519,1.7670593,0.5888519c0.5535583,0,0.9746246-0.1294479,1.2631836-0.3883514
				c0.2885437-0.2589035,0.4332581-0.6350555,0.4332581-1.1288834c0-0.4463272-0.1342468-0.8080902-0.401886-1.0848694
				c-0.2676239-0.2767715-0.7078705-0.5099564-1.3207092-0.7004318c-1.1725159-0.3630676-1.759201-0.9580231-1.759201-1.7852936
				c0-0.4345551,0.1560364-0.7810669,0.4689941-1.0399704c0.312088-0.2589035,0.7514648-0.3883514,1.3163605-0.3883514
				c0.6485901,0,1.2440033,0.1486282,1.7853546,0.4463196l-0.088913,0.1516876
				C170.5691376,76.9845963,170.0042419,76.8446884,169.3730927,76.8446884z"/>
			<path class="st18" d="M172.4259949,80.9958496c0.0060883,0.6843033,0.1830597,1.2199783,0.530899,1.6065903
				c0.3478241,0.3870468,0.8255463,0.5801315,1.4331665,0.5801315c0.523056,0,0.9999084-0.1307602,1.4279327-0.3927078
				l0.0889282,0.1608276c-0.4637756,0.2737274-0.9693909,0.4105835-1.516861,0.4105835
				c-0.6607971,0-1.1829834-0.2157516-1.5665436-0.6472549c-0.3844452-0.4315033-0.5762329-1.0190506-0.5762329-1.7630692
				c0-0.7557831,0.1813202-1.3463745,0.5448456-1.7717819c0.3626556-0.4253998,0.8656464-0.6380997,1.5081329-0.6380997
				c0.5954132,0,1.0565796,0.2065964,1.3834839,0.6202316c0.3277893,0.4136353,0.4916687,0.9950714,0.4916687,1.7451935v0.0893555
				H172.4259949z M172.4259949,80.8171463h3.5619965c-0.012207-0.6782074-0.1621399-1.1977539-0.4515686-1.5577774
				c-0.288559-0.3600235-0.7000275-0.5400314-1.2361603-0.5400314c-0.5771027,0-1.0278015,0.1830597-1.3520966,0.5491867
				C172.6238708,79.6342087,172.4495239,80.1507111,172.4259949,80.8171463z"/>
			<path class="st18" d="M177.5318756,79.7728195h0.0183105c0.1542969-0.3691788,0.3809509-0.6664352,0.6782227-0.8926544
				c0.2972717-0.2262115,0.6302795-0.3390961,0.9999084-0.3390961c0.5648956,0,0.9746246,0.1547318,1.2274323,0.4641953
				c0.2528076,0.3094559,0.3792114,0.8093948,0.3792114,1.4993668v2.7672958H180.65625V80.504631
				c0-0.6424637-0.1098328-1.1009903-0.3303833-1.3747101c-0.219696-0.2737274-0.5858307-0.4105835-1.0975494-0.4105835
				c-0.4707489,0-0.8708801,0.192215-1.2004089,0.5757751c-0.3303986,0.3839951-0.4960327,0.8468781-0.4960327,1.3882217v2.5885925
				h-0.1787109V78.629982h0.1787109V79.7728195z"/>
			<path class="st18" d="M185.1371002,78.8980408l-0.0802155,0.1603928
				c-0.4759674-0.2257767-0.9545746-0.3390961-1.4366455-0.3390961c-0.4228058,0-0.7593079,0.0893478-1.0086365,0.2680511
				c-0.2501831,0.1782684-0.3757172,0.4162521-0.3757172,0.7139435c0,0.2676239,0.0985107,0.4864273,0.2946472,0.6559753
				c0.1970215,0.1695557,0.5657806,0.3081589,1.107132,0.4153824c0.5709991,0.1128845,0.9868317,0.2750244,1.2457428,0.4864197
				s0.3879395,0.4951401,0.3879395,0.8525467c0,0.3866119-0.1490784,0.6917191-0.4463501,0.9148788
				c-0.2972565,0.2231598-0.6991425,0.3347397-1.2047577,0.3347397c-0.5483398,0-1.0687866-0.1486282-1.5621948-0.4463196
				l0.088913-0.15168c0.4585571,0.2798233,0.9493561,0.4192963,1.4732819,0.4192963
				c0.4515686,0,0.81073-0.0950165,1.0757446-0.2854919c0.2641449-0.1904678,0.3966522-0.4524231,0.3966522-0.7854233
				c0-0.3094635-0.1159515-0.5548553-0.3478394-0.7366104c-0.2318878-0.1813126-0.6128387-0.3225327-1.142868-0.4240952
				c-0.5474701-0.1072159-0.9414978-0.2571564-1.1829834-0.450676c-0.2406006-0.1935272-0.3609009-0.4598389-0.3609009-0.7989426
				c0-0.3508682,0.1412201-0.6324387,0.4236755-0.8433914c0.2824402-0.2113953,0.6616669-0.3168716,1.1385193-0.3168716
				C184.1380615,78.541069,184.6436768,78.6600571,185.1371002,78.8980408z"/>
			<path class="st18" d="M186.7890778,82.7140198c-0.3748627-0.4315033-0.5622864-1.0190506-0.5622864-1.7630692
				c0-0.743576,0.1874237-1.3315582,0.5622864-1.7630615c0.3748474-0.4310684,0.8865814-0.6468201,1.5351562-0.6468201
				c0.6485901,0,1.1611938,0.2157516,1.5360413,0.6468201c0.3748627,0.4315033,0.5622864,1.0194855,0.5622864,1.7630615
				c0,0.7440186-0.1874237,1.3315659-0.5622864,1.7630692c-0.3748474,0.4315033-0.8874512,0.6472549-1.5360413,0.6472549
				C187.6756592,83.3612747,187.1639252,83.1455231,186.7890778,82.7140198z M186.9189606,82.5845718
				c0.3417358,0.3988113,0.8107452,0.5979996,1.4052734,0.5979996c0.5954132,0,1.0644226-0.1991882,1.4061584-0.5979996
				c0.3425903-0.398819,0.5134583-0.9432068,0.5134583-1.6336212c0-0.6899643-0.1708679-1.2347946-0.5134583-1.6336136
				c-0.3417358-0.3983765-0.8107452-0.5979996-1.4061584-0.5979996c-0.5945282,0-1.0635376,0.1996231-1.4052734,0.5979996
				c-0.3425903,0.398819-0.5134583,0.9436493-0.5134583,1.6336136
				C186.4055023,81.6413651,186.5763702,82.1857529,186.9189606,82.5845718z"/>
			<path class="st18" d="M191.7345581,79.9602356h0.0183105c0.190033-0.422348,0.5012512-0.7645035,0.932785-1.0264587
				c0.4315186-0.2619476,0.9179535-0.3927078,1.4593201-0.3927078v0.1782684c-0.6669006,0-1.2352905,0.2009277-1.7051697,0.6027985
				c-0.4698639,0.4014282-0.705246,0.8852386-0.705246,1.4505539v2.4992371h-0.1787109V78.629982h0.1787109V79.9602356z"/>
			<path class="st18" d="M200.7145386,83.0574799l0.0618896,0.1699905c-0.2493134,0.088913-0.5169525,0.1338043-0.802887,0.1338043
				c-0.4585419,0-0.7741241-0.0950165-0.9467316-0.2859268c-0.1726074-0.190033-0.2589111-0.5413361-0.2589111-1.0530396v-3.0349197
				h-1.1158447v-0.1787033h1.1158447v-1.6959457h0.1787109v1.6959457h1.9196167v0.1787033h-1.9196167v3.0349197
				c0,0.4759598,0.0732269,0.788475,0.218811,0.9371033c0.1455841,0.1490631,0.4149628,0.2231598,0.8081207,0.2231598
				C200.2289734,83.1825714,200.4765472,83.1411667,200.7145386,83.0574799z"/>
			<path class="st18" d="M204.1789093,83.0400467h0.0174255l1.8036804-4.4100647h0.1961365l-1.9108887,4.6332245
				c-0.3094788,0.7732239-0.6390076,1.3106461-0.9903259,1.6109543s-0.7828369,0.4506836-1.2945557,0.4506836v-0.1782684
				c0.4698792,0,0.8630371-0.1368637,1.1786194-0.4105835c0.3146973-0.2737274,0.6189423-0.7618942,0.9101105-1.4640656
				l-1.9998169-4.6419449h0.1970215L204.1789093,83.0400467z"/>
			<path class="st18" d="M209.159256,83.3612747c-0.8334045,0-1.3930664-0.3691711-1.6781311-1.1070862h-0.0183105v2.9817352
				h-0.1787109V78.629982h0.1787109v1.0177383h0.0183105c0.2850647-0.737915,0.8447266-1.1066513,1.6781311-1.1066513
				c0.5771027,0,1.033905,0.2157516,1.3704071,0.6468201c0.3356323,0.4315033,0.5038757,1.0194855,0.5038757,1.7630615
				c0,0.7440186-0.1682434,1.3315659-0.5038757,1.7630692C210.193161,83.1455231,209.7363586,83.3612747,209.159256,83.3612747z
				 M210.8548279,80.9509506c0-0.6843033-0.1516876-1.2273865-0.4550629-1.6288147
				c-0.30336-0.4018707-0.717453-0.6027985-1.240509-0.6027985c-0.5413513,0-0.9598083,0.1756516-1.2544556,0.5269547
				c-0.2946625,0.3508682-0.4419861,0.8447037-0.4419861,1.4814987v0.4463272c0,0.636795,0.1473236,1.1306305,0.4419861,1.4819336
				c0.2946472,0.3513031,0.7131042,0.5265198,1.2544556,0.5265198c0.5291595,0,0.9449921-0.1961365,1.244873-0.5888519
				C210.7048798,82.2005768,210.8548279,81.6531296,210.8548279,80.9509506z"/>
			<path class="st18" d="M212.1676941,80.9958496c0.0061035,0.6843033,0.183075,1.2199783,0.530899,1.6065903
				c0.3478394,0.3870468,0.8255615,0.5801315,1.4331818,0.5801315c0.5230408,0,0.9998932-0.1307602,1.4279327-0.3927078
				l0.088913,0.1608276c-0.4637756,0.2737274-0.9693909,0.4105835-1.5168457,0.4105835
				c-0.6607971,0-1.1829834-0.2157516-1.5665588-0.6472549c-0.3844452-0.4315033-0.5762329-1.0190506-0.5762329-1.7630692
				c0-0.7557831,0.1813354-1.3463745,0.5448456-1.7717819c0.3626556-0.4253998,0.8656616-0.6380997,1.5081482-0.6380997
				c0.5954132,0,1.0565643,0.2065964,1.3834839,0.6202316c0.327774,0.4136353,0.4916687,0.9950714,0.4916687,1.7451935v0.0893555
				H212.1676941z M212.1676941,80.8171463h3.5620117c-0.012207-0.6782074-0.1621552-1.1977539-0.4515686-1.5577774
				c-0.288559-0.3600235-0.7000275-0.5400314-1.2361603-0.5400314c-0.5771027,0-1.0278015,0.1830597-1.3520966,0.5491867
				C212.3655853,79.6342087,212.1912384,80.1507111,212.1676941,80.8171463z"/>
		</g>
		<g>
			<path class="st18" d="M107.8417892,84.0752182h1.8742828v0.1787033h-2.0529938v-7.8555603h2.0529938v0.1787033h-1.8742828
				V84.0752182z"/>
			<path class="st18" d="M116.0720596,79.9244995c0,1.0770111-0.292038,1.9042816-0.8743744,2.481369
				c-0.5840759,0.5775146-1.4227142,0.8660583-2.5176392,0.8660583h-1.3390198v-6.5161591h1.3390198
				c1.1123657,0,1.9562225,0.2693634,2.5307159,0.8076553C115.7852478,78.10215,116.0720596,78.8888855,116.0720596,79.9244995z
				 M111.5197372,76.9340363v6.1591873h1.1603088c1.0530853,0,1.8524857-0.2689285,2.3964615-0.8076553
				c0.5448532-0.5387268,0.8168411-1.3254623,0.8168411-2.3610687c0-1.9936447-1.0713959-2.9904633-3.2133026-2.9904633H111.5197372
				z"/>
			<path class="st18" d="M117.65168,83.2719269v-6.5161591h0.1787109v6.5161591H117.65168z"/>
			<path class="st18" d="M119.991478,80.4152756v2.8566513h-0.1787033v-6.5161591h1.3390198
				c0.9223175,0,1.5839844,0.1351242,1.9858627,0.4057922c0.4018784,0.2711029,0.6023865,0.7156906,0.6023865,1.33461
				c0,0.6546707-0.203125,1.1380386-0.6111069,1.4505539s-1.0373917,0.4685516-1.8882294,0.4685516H119.991478z
				 M121.1517944,76.9340363h-1.1603165v3.3029709h1.2492294c0.8037643,0,1.3913269-0.1399078,1.7635727-0.4197311
				c0.3713684-0.2793884,0.5579224-0.720047,0.5579224-1.321106c0-0.3390961-0.0601501-0.6158752-0.1787109-0.8298798
				c-0.1194305-0.214447-0.3600388-0.3900986-0.7235565-0.5269623
				C122.2972794,77.0024719,121.794281,76.9340363,121.1517944,76.9340363z"/>
			<path class="st18" d="M130.1936646,78.8980408l-0.0802002,0.1603928
				c-0.4759827-0.2257767-0.9545746-0.3390961-1.4366608-0.3390961c-0.4228058,0-0.7593002,0.0893478-1.0086212,0.2680511
				c-0.2501907,0.1782684-0.3757248,0.4162521-0.3757248,0.7139435c0,0.2676239,0.0985031,0.4864273,0.2946548,0.6559753
				c0.1970139,0.1695557,0.5657654,0.3081589,1.107132,0.4153824c0.5709991,0.1128845,0.9868317,0.2750244,1.2457428,0.4864197
				s0.3879242,0.4951401,0.3879242,0.8525467c0,0.3866119-0.1490631,0.6917191-0.4463348,0.9148788
				s-0.6991425,0.3347397-1.2047729,0.3347397c-0.5483246,0-1.0687714-0.1486282-1.5621872-0.4463196l0.0889206-0.15168
				c0.4585419,0.2798233,0.9493408,0.4192963,1.4732666,0.4192963c0.4515686,0,0.8107452-0.0950165,1.0757599-0.2854919
				c0.2641296-0.1904678,0.396637-0.4524231,0.396637-0.7854233c0-0.3094635-0.1159363-0.5548553-0.3478241-0.7366104
				c-0.2318878-0.1813126-0.612854-0.3225327-1.142868-0.4240952c-0.5474701-0.1072159-0.9415054-0.2571564-1.1829834-0.450676
				c-0.2406082-0.1935272-0.3609085-0.4598389-0.3609085-0.7989426c0-0.3508682,0.1412277-0.6324387,0.4236755-0.8433914
				c0.2824478-0.2113953,0.6616592-0.3168716,1.1385117-0.3168716
				C129.1946259,78.541069,129.7002563,78.6600571,130.1936646,78.8980408z"/>
			<path class="st18" d="M134.3711243,78.7999725h-0.0174255l-1.3747711,4.4719543h-0.2676239l-1.4732666-4.6419449h0.1874237
				l1.4105072,4.4723892h0.0183105l1.3747559-4.4723892h0.2676239l1.3747711,4.4723892h0.0174255l1.4105072-4.4723892h0.187439
				l-1.4724121,4.6419449h-0.2684937L134.3711243,78.7999725z"/>
			<path class="st18" d="M139.1108856,77.5590668v-0.9820023h0.1787109v0.9820023H139.1108856z M139.1108856,83.2719269V78.629982
				h0.1787109v4.6419449H139.1108856z"/>
			<path class="st18" d="M144.0214996,83.0574799l0.0618896,0.1699905c-0.2493286,0.088913-0.5169525,0.1338043-0.802887,0.1338043
				c-0.4585419,0-0.7741241-0.0950165-0.9467316-0.2859268c-0.1726074-0.190033-0.2589111-0.5413361-0.2589111-1.0530396v-3.0349197
				h-1.1158447v-0.1787033h1.1158447v-1.6959457h0.1787109v1.6959457h1.9196167v0.1787033h-1.9196167v3.0349197
				c0,0.4759598,0.0732269,0.788475,0.218811,0.9371033c0.1455841,0.1490631,0.4149475,0.2231598,0.8081207,0.2231598
				C143.5359192,83.1825714,143.7835083,83.1411667,144.0214996,83.0574799z"/>
			<path class="st18" d="M148.6182709,82.8879318l0.0810699,0.1608353c-0.393158,0.2083359-0.8098602,0.3125076-1.2500916,0.3125076
				c-0.6669006,0-1.2047729-0.2218552-1.6153717-0.665123c-0.4105988-0.4432755-0.616333-1.0251541-0.616333-1.7452011
				c0-0.743576,0.1996307-1.3315582,0.5980225-1.7630615c0.3983917-0.4310684,0.9432526-0.6468201,1.6336823-0.6468201
				c0.4402313,0,0.8569336,0.1041718,1.2500916,0.3120728l-0.0810699,0.1608353
				c-0.3748474-0.1965714-0.7645264-0.2946396-1.1690216-0.2946396c-0.6424866,0-1.1454926,0.1965714-1.5090179,0.5892868
				c-0.3626556,0.3927078-0.5439758,0.940155-0.5439758,1.6423264c0,0.6725388,0.1874237,1.2125778,0.5622864,1.6201096
				c0.3748474,0.4079666,0.8717499,0.6115112,1.4907074,0.6115112
				C147.8537445,83.1825714,148.2434235,83.0845032,148.6182709,82.8879318z"/>
			<path class="st18" d="M150.2789764,79.7728195h0.0183105c0.1542969-0.3691788,0.3809509-0.6664352,0.6782227-0.8926544
				c0.2972717-0.2262115,0.6311493-0.3390961,0.9999084-0.3390961c0.5596619,0,0.9667816,0.1547318,1.2230682,0.4641953
				c0.2554321,0.3094559,0.3835754,0.8093948,0.3835754,1.4993668v2.7672958h-0.1787109V80.504631
				c0-0.6424637-0.1098328-1.1009903-0.3295135-1.3747101c-0.2205658-0.2737274-0.5867004-0.4105835-1.0984192-0.4105835
				c-0.4698792,0-0.8700104,0.192215-1.2004089,0.5757751c-0.3303986,0.3839951-0.4960327,0.8468781-0.4960327,1.3882217v2.5885925
				h-0.1778412v-6.6948624h0.1778412V79.7728195z"/>
			<path class="st18" d="M156.5896301,84.0752182v-7.4981537h-1.8742828v-0.1787033h2.0529938v7.8555603h-2.0529938v-0.1787033
				H156.5896301z"/>
		</g>
		<g>
			<path class="st18" d="M228.671814,76.7557678v0.1782684h-2.2316895v6.3378906h-0.1787109v-6.3378906h-2.2317047v-0.1782684
				H228.671814z"/>
			<path class="st18" d="M230.4292908,77.5590668v-0.9820023h0.1787109v0.9820023H230.4292908z M230.4292908,83.2719269V78.629982
				h0.1787109v4.6419449H230.4292908z"/>
			<path class="st18" d="M235.3573303,80.3263626v2.9455643h-0.1787109v-2.9455643
				c0-0.5596466-0.0915375-0.9671783-0.2763367-1.2230301c-0.1848145-0.2558517-0.4794769-0.3839951-0.8839722-0.3839951
				c-0.3452148,0-0.6546936,0.1830597-0.928421,0.5491867c-0.2737274,0.3656845-0.4105988,0.8377304-0.4105988,1.4148102v2.5885925
				h-0.1787109V78.629982h0.1787109v1.0447617h0.0183105c0.1307678-0.3451996,0.312088-0.6206665,0.5439758-0.8259583
				c0.2327576-0.2052917,0.4916687-0.3077164,0.7767334-0.3077164c0.6965332,0,1.119339,0.35392,1.2675323,1.0621948h0.0183105
				c0.1072235-0.3273315,0.2824554-0.586235,0.5265503-0.7767105c0.2440948-0.1904678,0.5326385-0.2854843,0.8656464-0.2854843
				c0.4585571,0,0.7959137,0.1455765,1.0129852,0.4371719c0.2179413,0.2915878,0.3260345,0.7409668,0.3260345,1.3481216v2.9455643
				h-0.1787109v-2.9455643c0-0.5596466-0.0915222-0.9671783-0.2763367-1.2230301s-0.4794769-0.3839951-0.8839722-0.3839951
				c-0.3922882,0-0.7139587,0.147316-0.9641571,0.4419632C235.4828644,79.4559402,235.3573303,79.8442993,235.3573303,80.3263626z"
				/>
			<path class="st18" d="M239.8826294,77.5590668v-0.9820023h0.1787109v0.9820023H239.8826294z M239.8826294,83.2719269V78.629982
				h0.1787109v4.6419449H239.8826294z"/>
			<path class="st18" d="M242.1326447,79.7728195h0.0182953c0.1543121-0.3691788,0.3809662-0.6664352,0.6782379-0.8926544
				c0.2972717-0.2262115,0.6302795-0.3390961,0.9999084-0.3390961c0.5648956,0,0.9746246,0.1547318,1.2274323,0.4641953
				c0.2528076,0.3094559,0.3792114,0.8093948,0.3792114,1.4993668v2.7672958h-0.1787109V80.504631
				c0-0.6424637-0.109848-1.1009903-0.3303986-1.3747101c-0.2196808-0.2737274-0.5858154-0.4105835-1.0975342-0.4105835
				c-0.4707489,0-0.8708954,0.192215-1.2004242,0.5757751c-0.3303833,0.3839951-0.4960175,0.8468781-0.4960175,1.3882217v2.5885925
				h-0.1787109V78.629982h0.1787109V79.7728195z"/>
			<path class="st18" d="M250.2295227,79.3979721V78.629982h0.1778412v1.5176773
				c0,0.4702988-0.1604004,0.8407822-0.4820862,1.1114502c-0.3208008,0.270668-0.7558136,0.4062271-1.3032684,0.4062271
				c-0.4576721,0-0.8421173-0.0985107-1.1515961-0.2946472c-0.1839447,0.1547318-0.2763519,0.3273315-0.2763519,0.517807
				c0,0.0950165,0.0191803,0.1769562,0.0584106,0.2453918c0.0383606,0.068428,0.1115875,0.1381683,0.2179413,0.2096481
				c0.1072235,0.0714798,0.2772217,0.1250916,0.5091095,0.1608353c0.2318878,0.0357361,0.5204315,0.0536118,0.8656464,0.0536118
				c0.6546936,0,1.1385193,0.1054764,1.4506073,0.3168716c0.312973,0.2109604,0.4690094,0.5369797,0.4690094,0.9772034
				c0,0.4524307-0.1961517,0.8107071-0.5893097,1.0757141c-0.3922882,0.2645645-0.9249268,0.3970718-1.5979309,0.3970718
				c-0.6128387,0-1.1010284-0.1220474-1.4636841-0.3656921c-0.3635254-0.2440872-0.5448456-0.568367-0.5448456-0.9732819
				c0-0.2798233,0.0906677-0.550499,0.2728577-0.8120117c0.1813354-0.2619553,0.4088593-0.4641953,0.6825867-0.6071625
				c-0.3391113-0.1307526-0.5091095-0.3569717-0.5091095-0.6781998c0-0.2262115,0.1011353-0.4345551,0.3033752-0.6250305
				c-0.3208008-0.2676163-0.4820862-0.6398468-0.4820862-1.1158066s0.1577911-0.8630066,0.4733734-1.1602707
				c0.315567-0.2976913,0.7235565-0.4463196,1.2230682-0.4463196c0.815094,0,1.3747711,0.2854843,1.6781464,0.8569031H250.2295227z
				 M250.5860748,83.8520584c0-0.1486282-0.0191803-0.2811279-0.0575409-0.3970718
				c-0.0392151-0.1159363-0.1150665-0.2323151-0.2275238-0.3482513c-0.113327-0.1159439-0.292038-0.206604-0.5361328-0.2724152
				c-0.2440948-0.0653839-0.5500793-0.0980682-0.9197083-0.0980682c-0.4402313,0-0.7915497-0.0296402-1.0530701-0.0893555
				c-0.2911682,0.095459-0.5387573,0.2724152-0.7409973,0.5313187c-0.2022552,0.2589035-0.3033752,0.527832-0.3033752,0.8076553
				c0,0.3513031,0.1647644,0.6324387,0.495163,0.8438339c0.3303986,0.2109528,0.7749939,0.3168716,1.3346558,0.3168716
				c0.6189423,0,1.1088715-0.1159439,1.4689178-0.348259C250.4064941,84.5664368,250.5860748,84.2508774,250.5860748,83.8520584z
				 M247.4398956,79.1168442c-0.2833099,0.2645645-0.4245453,0.6084595-0.4245453,1.0308151
				c0,0.4227829,0.1412354,0.7514267,0.4245453,0.9863586c0.2824554,0.2353668,0.6764832,0.3526154,1.1821136,0.3526154
				c0.494278,0,0.8856964-0.1189957,1.1742554-0.3569717c0.2885437-0.2379837,0.4332581-0.5653152,0.4332581-0.9820023
				c0-0.4341202-0.1551666-0.7810669-0.4646454-1.0399704c-0.3094635-0.2589035-0.7200623-0.3883514-1.2317963-0.3883514
				C248.0867462,78.7193375,247.7223511,78.8518372,247.4398956,79.1168442z"/>
			<path class="st18" d="M254.7016449,82.7140198c-0.3748474-0.4315033-0.5622864-1.0190506-0.5622864-1.7630692
				c0-0.743576,0.187439-1.3315582,0.5622864-1.7630615c0.3748627-0.4310684,0.8865814-0.6468201,1.5351715-0.6468201
				s1.1611633,0.2157516,1.5360413,0.6468201c0.3748474,0.4315033,0.5622864,1.0194855,0.5622864,1.7630615
				c0,0.7440186-0.187439,1.3315659-0.5622864,1.7630692c-0.3748779,0.4315033-0.8874512,0.6472549-1.5360413,0.6472549
				S255.0765076,83.1455231,254.7016449,82.7140198z M254.831543,82.5845718
				c0.3417206,0.3988113,0.81073,0.5979996,1.4052734,0.5979996c0.5953979,0,1.0644226-0.1991882,1.4061279-0.5979996
				c0.3426208-0.398819,0.5134888-0.9432068,0.5134888-1.6336212c0-0.6899643-0.1708679-1.2347946-0.5134888-1.6336136
				c-0.3417053-0.3983765-0.81073-0.5979996-1.4061279-0.5979996c-0.5945435,0-1.0635529,0.1996231-1.4052734,0.5979996
				c-0.3426056,0.398819-0.5134735,0.9436493-0.5134735,1.6336136
				C254.3180695,81.6413651,254.4889374,82.1857529,254.831543,82.5845718z"/>
			<path class="st18" d="M262.5030212,76.8002319l-0.0619202,0.169548c-0.20224-0.083252-0.420166-0.1250916-0.6520691-0.1250916
				c-0.3809509,0-0.6546936,0.091095-0.8211975,0.2724152c-0.1665039,0.1817551-0.2501831,0.4777069-0.2501831,0.8882904v0.8032913
				h1.7853699v0.1787033h-1.7853699v4.2845383h-0.1778259v-4.2845383h-1.3390198v-0.1787033h1.3390198V78.005394
				c0-0.4641953,0.0993652-0.803299,0.2990112-1.017746c0.198761-0.2140045,0.5160828-0.321228,0.9501953-0.321228
				C262.0514526,76.66642,262.2894287,76.7108765,262.5030212,76.8002319z"/>
			<path class="st18" d="M266.5470886,79.9602356h0.0183105c0.190033-0.422348,0.5012512-0.7645035,0.9327698-1.0264587
				c0.4315491-0.2619476,0.9179688-0.3927078,1.4593506-0.3927078v0.1782684c-0.6669006,0-1.2352905,0.2009277-1.7051697,0.6027985
				c-0.4698792,0.4014282-0.7052612,0.8852386-0.7052612,1.4505539v2.4992371h-0.1787109V78.629982h0.1787109V79.9602356z"/>
			<path class="st18" d="M269.9129639,80.9958496c0.0061035,0.6843033,0.1830444,1.2199783,0.5308838,1.6065903
				c0.3478394,0.3870468,0.8255615,0.5801315,1.4331665,0.5801315c0.5230713,0,0.9999084-0.1307602,1.427948-0.3927078
				l0.0889282,0.1608276c-0.4637756,0.2737274-0.9693909,0.4105835-1.5168762,0.4105835
				c-0.6607666,0-1.1829529-0.2157516-1.5665283-0.6472549c-0.3844604-0.4315033-0.5762329-1.0190506-0.5762329-1.7630692
				c0-0.7557831,0.1813049-1.3463745,0.5448303-1.7717819c0.3626709-0.4253998,0.8656616-0.6380997,1.5081482-0.6380997
				c0.5954285,0,1.0565796,0.2065964,1.3834839,0.6202316c0.3277893,0.4136353,0.4916687,0.9950714,0.4916687,1.7451935v0.0893555
				H269.9129639z M269.9129639,80.8171463h3.5619812c-0.012207-0.6782074-0.1621399-1.1977539-0.4515686-1.5577774
				c-0.2885437-0.3600235-0.7000122-0.5400314-1.236145-0.5400314c-0.5770874,0-1.0278015,0.1830597-1.3520813,0.5491867
				C270.1108398,79.6342087,269.9364929,80.1507111,269.9129639,80.8171463z"/>
			<path class="st18" d="M275.2864685,83.2719269v-6.6948624h0.1787109v6.6948624H275.2864685z"/>
			<path class="st18" d="M277.2235107,80.9958496c0.0061035,0.6843033,0.183075,1.2199783,0.5309143,1.6065903
				c0.3478394,0.3870468,0.8255615,0.5801315,1.4331665,0.5801315c0.5230408,0,0.9999084-0.1307602,1.427948-0.3927078
				l0.0888977,0.1608276c-0.4637756,0.2737274-0.9693909,0.4105835-1.5168457,0.4105835
				c-0.6607971,0-1.1829834-0.2157516-1.5665588-0.6472549c-0.3844299-0.4315033-0.5762329-1.0190506-0.5762329-1.7630692
				c0-0.7557831,0.1813354-1.3463745,0.5448608-1.7717819c0.3626404-0.4253998,0.8656616-0.6380997,1.5081482-0.6380997
				c0.5953979,0,1.0565491,0.2065964,1.3834839,0.6202316c0.3277588,0.4136353,0.4916687,0.9950714,0.4916687,1.7451935v0.0893555
				H277.2235107z M277.2235107,80.8171463h3.5620117c-0.012207-0.6782074-0.1621399-1.1977539-0.4515686-1.5577774
				c-0.2885437-0.3600235-0.7000122-0.5400314-1.236145-0.5400314c-0.5771179,0-1.0278015,0.1830597-1.3521118,0.5491867
				C277.4214172,79.6342087,277.2470398,80.1507111,277.2235107,80.8171463z"/>
			<path class="st18" d="M285.1948853,82.2454681h-0.0174561c-0.1551514,0.3451996-0.3870544,0.6171799-0.6965332,0.8168106
				c-0.3094788,0.1991882-0.6694946,0.298996-1.0801086,0.298996c-0.4463196,0-0.8037415-0.1220398-1.0713806-0.3661194
				c-0.2676392-0.2440872-0.401886-0.568367-0.401886-0.972847c0-0.5234756,0.2371216-0.9296951,0.7104797-1.2186737
				c0.4725037-0.2885437,1.1437683-0.4328156,2.0129089-0.4328156h0.5352478v-0.0444565
				c0-0.6071548-0.1028748-1.0268936-0.3077393-1.2587738c-0.205719-0.2323151-0.5788269-0.3482513-1.1202087-0.3482513
				c-0.5596619,0-1.0801086,0.1399078-1.5621948,0.4197311l-0.0897827-0.15168
				c0.5117188-0.2976913,1.0626831-0.4463196,1.6519775-0.4463196c0.5884399,0,1.0042725,0.1307602,1.244873,0.3927078
				c0.2414856,0.2619553,0.3617859,0.7261505,0.3617859,1.3925858v1.6959457c0,0.4166794,0.0444641,0.8329315,0.1333923,1.2496185
				h-0.1778564C285.2428284,82.903183,285.2009888,82.5610352,285.1948853,82.2454681z M282.1062317,82.0223083
				c0,0.3569717,0.1159363,0.6398468,0.3486938,0.8477478c0.2319031,0.2083435,0.5474854,0.3125153,0.9458618,0.3125153
				c0.5178223,0,0.9450073-0.1678085,1.2806091-0.5042877c0.3365173-0.3360519,0.5047607-0.7631989,0.5047607-1.2810059v-0.8477554
				h-0.5352478c-0.8098755,0-1.435791,0.1277084-1.8795166,0.3835602S282.1062317,81.5520096,282.1062317,82.0223083z"/>
			<path class="st18" d="M289.6669922,78.8980408l-0.0802002,0.1603928
				c-0.4759827-0.2257767-0.9545898-0.3390961-1.4366455-0.3390961c-0.422821,0-0.7593079,0.0893478-1.0086365,0.2680511
				c-0.2501831,0.1782684-0.3757324,0.4162521-0.3757324,0.7139435c0,0.2676239,0.0985107,0.4864273,0.2946472,0.6559753
				c0.1970215,0.1695557,0.5657959,0.3081589,1.1071472,0.4153824c0.5709839,0.1128845,0.9868164,0.2750244,1.2457275,0.4864197
				s0.3879395,0.4951401,0.3879395,0.8525467c0,0.3866119-0.1490784,0.6917191-0.4463501,0.9148788
				c-0.2972412,0.2231598-0.6991272,0.3347397-1.2047424,0.3347397c-0.5483398,0-1.0687866-0.1486282-1.5621948-0.4463196
				l0.0888977-0.15168c0.4585571,0.2798233,0.9493713,0.4192963,1.4732971,0.4192963
				c0.4515686,0,0.81073-0.0950165,1.0757446-0.2854919c0.2641296-0.1904678,0.396637-0.4524231,0.396637-0.7854233
				c0-0.3094635-0.1159363-0.5548553-0.3478394-0.7366104c-0.2318726-0.1813126-0.6128235-0.3225327-1.1428528-0.4240952
				c-0.5474854-0.1072159-0.9414978-0.2571564-1.1829834-0.450676c-0.2406006-0.1935272-0.3609009-0.4598389-0.3609009-0.7989426
				c0-0.3508682,0.1412048-0.6324387,0.4236755-0.8433914c0.2824402-0.2113953,0.6616516-0.3168716,1.1385193-0.3168716
				C288.6679688,78.541069,289.173584,78.6600571,289.6669922,78.8980408z"/>
			<path class="st18" d="M290.9353943,80.9958496c0.0061035,0.6843033,0.183075,1.2199783,0.5309143,1.6065903
				c0.3478394,0.3870468,0.8255615,0.5801315,1.4331665,0.5801315c0.5230408,0,0.9999084-0.1307602,1.427948-0.3927078
				l0.0888977,0.1608276c-0.4637756,0.2737274-0.9693909,0.4105835-1.5168457,0.4105835
				c-0.6607971,0-1.1829834-0.2157516-1.5665588-0.6472549c-0.3844299-0.4315033-0.5762329-1.0190506-0.5762329-1.7630692
				c0-0.7557831,0.1813354-1.3463745,0.5448608-1.7717819c0.3626404-0.4253998,0.8656616-0.6380997,1.5081482-0.6380997
				c0.5953979,0,1.0565491,0.2065964,1.3834534,0.6202316c0.3277893,0.4136353,0.4916992,0.9950714,0.4916992,1.7451935v0.0893555
				H290.9353943z M290.9353943,80.8171463h3.5620117c-0.012207-0.6782074-0.1621399-1.1977539-0.4515686-1.5577774
				c-0.2885437-0.3600235-0.7000122-0.5400314-1.236145-0.5400314c-0.5771179,0-1.0278015,0.1830597-1.3521118,0.5491867
				C291.1333008,79.6342087,290.9589233,80.1507111,290.9353943,80.8171463z"/>
		</g>
		<g>
			<path class="st18" d="M179.4628143,119.4250336c-0.1961365,0.0536118-0.405365,0.0806351-0.6250458,0.0806351
				c-0.2205505,0-0.4289093-0.0270233-0.6250458-0.0806351c-0.1961517-0.0531769-0.3957825-0.1542969-0.5980377-0.30336
				c-0.20224-0.1486359-0.3748474-0.3434601-0.5178223-0.5844955c-0.1429596-0.2410355-0.2606506-0.5653152-0.3521881-0.9732819
				c-0.0924072-0.4075317-0.1386108-0.8760834-0.1386108-1.4056625c0-0.5295715,0.0462036-0.9981232,0.1386108-1.4060898
				c0.0915375-0.4075317,0.2092285-0.7318192,0.3521881-0.972847c0.1429749-0.2410355,0.3155823-0.4358673,0.5178223-0.5849304
				c0.2022552-0.1486282,0.401886-0.2497482,0.5980377-0.30336c0.1961365-0.0536118,0.4044952-0.0802002,0.6250458-0.0802002
				c0.2196808,0,0.4289093,0.0265884,0.6250458,0.0802002c0.1961517,0.0536118,0.3957825,0.1547318,0.5980377,0.30336
				c0.20224,0.1490631,0.3748474,0.343895,0.5178223,0.5849304c0.1429596,0.2410278,0.2597809,0.5653152,0.3521881,0.972847
				c0.0924072,0.4079666,0.1386108,0.8765182,0.1386108,1.4060898c0,0.5295792-0.0462036,0.9981308-0.1386108,1.4056625
				c-0.0924072,0.4079666-0.2092285,0.7322464-0.3521881,0.9732819c-0.1429749,0.2410355-0.3155823,0.4358597-0.5178223,0.5844955
				C179.8585968,119.2707367,179.6589661,119.3718567,179.4628143,119.4250336z M176.7847748,116.1582336
				c0,2.1126328,0.6843414,3.1687317,2.0529938,3.1687317c1.3686676,0,2.0529938-1.0560989,2.0529938-3.1687317
				c0-2.1126251-0.6843262-3.1691589-2.0529938-3.1691589C177.4691162,112.9890747,176.7847748,114.0456085,176.7847748,116.1582336
				z"/>
			<path class="st18" d="M182.2838287,116.9170761v-0.1787033h2.4095459v0.1787033H182.2838287z"/>
			<path class="st18" d="M188.3625946,113.14991h-0.0174255l-1.9109039,1.8389053l-0.1246643-0.1250916l2.0529938-1.963562
				h0.1787109v6.5161514h-0.1787109V113.14991z"/>
			<path class="st18" d="M191.585495,116.9170761v-0.1787033h2.4095306v0.1787033H191.585495z"/>
			<path class="st18" d="M198.0661316,119.4250336c-0.1961365,0.0536118-0.405365,0.0806351-0.6250458,0.0806351
				c-0.2205505,0-0.4289093-0.0270233-0.6250458-0.0806351c-0.1961517-0.0531769-0.3957825-0.1542969-0.5980225-0.30336
				c-0.2022552-0.1486359-0.3748627-0.3434601-0.5178375-0.5844955c-0.1429596-0.2410355-0.2606506-0.5653152-0.3521881-0.9732819
				c-0.0924072-0.4075317-0.1386108-0.8760834-0.1386108-1.4056625c0-0.5295715,0.0462036-0.9981232,0.1386108-1.4060898
				c0.0915375-0.4075317,0.2092285-0.7318192,0.3521881-0.972847c0.1429749-0.2410355,0.3155823-0.4358673,0.5178375-0.5849304
				c0.20224-0.1486282,0.4018707-0.2497482,0.5980225-0.30336c0.1961365-0.0536118,0.4044952-0.0802002,0.6250458-0.0802002
				c0.2196808,0,0.4289093,0.0265884,0.6250458,0.0802002c0.1961517,0.0536118,0.3957825,0.1547318,0.5980377,0.30336
				c0.20224,0.1490631,0.3748474,0.343895,0.5178223,0.5849304c0.1429596,0.2410278,0.2597809,0.5653152,0.3521881,0.972847
				c0.0924072,0.4079666,0.1386108,0.8765182,0.1386108,1.4060898c0,0.5295792-0.0462036,0.9981308-0.1386108,1.4056625
				c-0.0924072,0.4079666-0.2092285,0.7322464-0.3521881,0.9732819c-0.1429749,0.2410355-0.3155823,0.4358597-0.5178223,0.5844955
				C198.4619141,119.2707367,198.2622833,119.3718567,198.0661316,119.4250336z M195.388092,116.1582336
				c0,2.1126328,0.6843414,3.1687317,2.0529938,3.1687317c1.3686676,0,2.0529938-1.0560989,2.0529938-3.1687317
				c0-2.1126251-0.6843262-3.1691589-2.0529938-3.1691589C196.0724335,112.9890747,195.388092,114.0456085,195.388092,116.1582336z"
				/>
		</g>
		<g>
			<path class="st18" d="M111.8143921,112.9001617v0.1782684h-2.2317047v6.337883h-0.1787109v-6.337883h-2.2316971v-0.1782684
				H111.8143921z"/>
			<path class="st18" d="M113.5718536,119.4163132v-6.5161514h0.1787109v6.5161514H113.5718536z"/>
			<path class="st18" d="M114.9030304,120.3983154v-0.1787033h4.9986572v0.1787033H114.9030304z"/>
			<path class="st18" d="M125.4277649,116.0688858c0,1.0770187-0.292038,1.9042816-0.8743744,2.481369
				c-0.5840759,0.5775146-1.4227066,0.8660583-2.5176392,0.8660583h-1.3390198v-6.5161514h1.3390198
				c1.1123657,0,1.9562302,0.2693634,2.5307159,0.8076553C125.1409531,114.2465439,125.4277649,115.0332718,125.4277649,116.0688858
				z M120.8754425,113.0784302v6.1591797h1.1603088c1.0530853,0,1.8524857-0.2689285,2.3964691-0.8076553
				c0.5448456-0.5387268,0.8168335-1.3254623,0.8168335-2.3610687c0-1.9936371-1.0713882-2.9904556-3.2133026-2.9904556H120.8754425
				z"/>
			<path class="st18" d="M128.8642426,116.166954v0.017868c0.1847992,0.0714874,0.3408508,0.2009354,0.4689941,0.3883591
				c0.1281586,0.1874161,0.292923,0.5103912,0.495163,0.968483l0.8395081,1.874649h-0.1961517l-0.8037567-1.8031616
				c-0.1307678-0.2915955-0.2353821-0.5086594-0.312088-0.651619c-0.0775909-0.1429596-0.1569214-0.2724152-0.2371216-0.3883514
				c-0.0802002-0.1159439-0.1795807-0.1917801-0.2990112-0.2275238c-0.1185608-0.0357437-0.2397308-0.0610199-0.3617859-0.0758362
				c-0.1220398-0.0148239-0.307724-0.0222321-0.5579224-0.0222321h-1.0705185v3.1687241h-0.1787109v-6.5161514h1.2492294
				c0.2563019,0,0.4899292,0.0087128,0.7008972,0.0265884c0.2118378,0.017868,0.4393616,0.0566559,0.6834564,0.1159363
				c0.2432251,0.0597153,0.4489594,0.1399155,0.6154633,0.2410355c0.1665039,0.1015549,0.3068542,0.2440796,0.4193115,0.4284515
				c0.113327,0.1848068,0.1699982,0.4049149,0.1699982,0.6607666c0,0.517807-0.1307678,0.922287-0.3931732,1.2138824
				C129.8345032,115.8784103,129.4239044,116.0719376,128.8642426,116.166954z M126.8295517,116.0688858h1.0705185
				c0.8517151,0,1.4654236-0.1351166,1.8437653-0.4062271c0.3774719-0.270668,0.5666504-0.7008667,0.5666504-1.2897186
				c0-0.4284515-0.1891785-0.7514267-0.5666504-0.968483c-0.3783417-0.2174988-0.9920502-0.3260269-1.8437653-0.3260269h-1.0705185
				V116.0688858z"/>
			<path class="st18" d="M133.8445892,119.2733536h0.0183105l2.4278412-6.3731918h0.1961517l-2.4993286,6.5161514h-0.2676392
				l-2.4993286-6.5161514h0.1961517L133.8445892,119.2733536z"/>
			<path class="st18" d="M137.6123352,119.0144501l0.0984955-0.15168c0.4585571,0.3094635,0.9763794,0.4641953,1.5534821,0.4641953
				c0.6546936,0,1.1524658-0.1665039,1.4950562-0.499939c0.3417358-0.3330002,0.5134735-0.821167,0.5134735-1.4636307
				c0-0.5596466-0.1638947-0.9894028-0.490799-1.2901535c-0.3277893-0.3003082-0.8037567-0.4506836-1.4288177-0.4506836
				c-0.5239258,0-0.9815979,0.1486282-1.3747559,0.4463272h-0.1874237l0.2318726-3.1687241h3.1601257v0.1782684h-2.9988403
				l-0.2057343,2.7672958h0.0183105c0.4044952-0.2676239,0.8569336-0.4018707,1.3564453-0.4018707
				c0.6669006,0,1.1829834,0.1669388,1.549118,0.499939c0.3661346,0.3334351,0.5492096,0.806778,0.5492096,1.4196014
				c0,0.6904068-0.1874237,1.219986-0.5631561,1.5887222c-0.3748627,0.3691788-0.916214,0.5535507-1.6240845,0.5535507
				C138.6514587,119.5056686,138.1005096,119.3417816,137.6123352,119.0144501z"/>
			<path class="st18" d="M145.5130768,119.4250336c-0.1961517,0.0536118-0.405365,0.0806351-0.625061,0.0806351
				c-0.2205505,0-0.428894-0.0270233-0.6250458-0.0806351c-0.1961517-0.0531769-0.3957825-0.1542969-0.5980225-0.30336
				c-0.2022552-0.1486359-0.3748627-0.3434601-0.5178223-0.5844955c-0.1429749-0.2410355-0.2606659-0.5653152-0.3521881-0.9732819
				c-0.0924072-0.4075317-0.1386108-0.8760834-0.1386108-1.4056625c0-0.5295715,0.0462036-0.9981232,0.1386108-1.4060898
				c0.0915222-0.4075317,0.2092133-0.7318192,0.3521881-0.972847c0.1429596-0.2410355,0.315567-0.4358673,0.5178223-0.5849304
				c0.20224-0.1486282,0.4018707-0.2497482,0.5980225-0.30336s0.4044952-0.0802002,0.6250458-0.0802002
				c0.219696,0,0.4289093,0.0265884,0.625061,0.0802002c0.1961365,0.0536118,0.3957672,0.1547318,0.5980225,0.30336
				c0.20224,0.1490631,0.3748474,0.343895,0.5178223,0.5849304c0.1429749,0.2410278,0.2597809,0.5653152,0.3521881,0.972847
				c0.0924072,0.4079666,0.1386108,0.8765182,0.1386108,1.4060898c0,0.5295792-0.0462036,0.9981308-0.1386108,1.4056625
				c-0.0924072,0.4079666-0.2092133,0.7322464-0.3521881,0.9732819s-0.3155823,0.4358597-0.5178223,0.5844955
				C145.908844,119.2707367,145.7092133,119.3718567,145.5130768,119.4250336z M142.8350372,116.1582336
				c0,2.1126328,0.6843262,3.1687317,2.0529785,3.1687317c1.3686676,0,2.0529938-1.0560989,2.0529938-3.1687317
				c0-2.1126251-0.6843262-3.1691589-2.0529938-3.1691589C143.5193634,112.9890747,142.8350372,114.0456085,142.8350372,116.1582336
				z"/>
			<path class="st18" d="M148.5563812,113.4981613l-0.0985107-0.15168c0.3094788-0.1965714,0.5980225-0.3347397,0.8656616-0.4153748
				c0.2676239-0.0802002,0.5744781-0.1203003,0.919693-0.1203003c0.5771027,0,1.033905,0.1281433,1.3704071,0.3835602
				c0.3356323,0.2562866,0.5038757,0.6041107,0.5038757,1.0447617c0,0.3983841-0.1351166,0.7348709-0.4062347,1.0085907
				c-0.2702484,0.2737198-0.6529541,0.467247-1.1463623,0.5801315v0.0178757
				c1.1245728,0.1965714,1.6868439,0.7618866,1.6868439,1.6959381c0,0.6428986-0.1891632,1.1306305-0.5666351,1.4640656
				c-0.3783417,0.3334351-0.932785,0.499939-1.6650543,0.499939c-0.6485901,0-1.2440033-0.1935272-1.7853699-0.5801392
				l0.1072388-0.1429596c0.5117188,0.3630753,1.0713806,0.5443954,1.6781311,0.5443954
				c1.3686523,0,2.0529938-0.5949554,2.0529938-1.7853012c0-1.0709152-0.8334045-1.6065903-2.4993439-1.6065903h-0.3574219
				v-0.1787033h0.3574219c0.7375183,0,1.3163605-0.133812,1.7365417-0.4014282
				c0.4193268-0.2680588,0.6294098-0.6398468,0.6294098-1.1158142c0-0.3931427-0.1508026-0.6995544-0.4515686-0.9196701
				c-0.299881-0.220108-0.7148438-0.3303833-1.244873-0.3303833
				C149.6661224,112.9890747,149.1038361,113.1590652,148.5563812,113.4981613z"/>
			<path class="st18" d="M153.6535492,113.667717l-0.1072235-0.1429672c0.2737274-0.2140045,0.5945435-0.3866119,0.9641571-0.517807
				c0.3687592-0.1307526,0.7165833-0.1961365,1.0443726-0.1961365c0.5771027,0,1.0278015,0.1577835,1.3520966,0.4729156
				c0.324295,0.3155594,0.4864349,0.7531662,0.4864349,1.3123779c0,0.5714188-0.2545471,1.1947021-0.7627869,1.8698578
				c-0.5091095,0.6755829-1.4183502,1.5935135-2.7277222,2.7537842v0.017868h3.5707092v0.1787033h-3.8383484v-0.1787033
				c1.3808746-1.2138748,2.3223724-2.1570892,2.8253784-2.8296204c0.5029907-0.6721039,0.7540588-1.276207,0.7540588-1.8118896
				c0-0.5117035-0.1455841-0.9074631-0.4367523-1.1872864c-0.292038-0.2798233-0.7000122-0.4197388-1.2230682-0.4197388
				c-0.3033752,0-0.6329041,0.062767-0.9868317,0.1874237C154.2140961,113.30159,153.9089813,113.465477,153.6535492,113.667717z"/>
			<path class="st18" d="M162.5707703,113.0784302h-3.3022308v2.7672958h3.1243896v0.1787033h-3.1243896v3.3918839h-0.1787109
				v-6.5161514h3.4809418V113.0784302z"/>
			<path class="st18" d="M167.2573395,117.1846924h-3.1775665l-0.8569336,2.2316208h-0.1874237l2.4993286-6.5161514h0.2676239
				l2.4993286,6.5161514h-0.1874237L167.2573395,117.1846924z M165.6777039,113.0518417h-0.0182953l-1.5081482,3.9541473h3.0345917
				L165.6777039,113.0518417z"/>
		</g>
		<g>
			<path class="st18" d="M107.1722794,97.945694c0.0061035,0.6843033,0.1830673,1.2199783,0.530899,1.6065903
				c0.3478317,0.3870468,0.8255539,0.5801392,1.4331741,0.5801392c0.5230484,0,0.9999008-0.1307602,1.4279404-0.3927155
				l0.088913,0.1608353c-0.4637756,0.2737198-0.9693909,0.4105835-1.5168533,0.4105835
				c-0.6607971,0-1.1829758-0.2157516-1.5665512-0.6472626c-0.3844452-0.4315033-0.5762329-1.019043-0.5762329-1.7630615
				c0-0.7557907,0.1813278-1.3463821,0.5448456-1.7717819c0.3626556-0.4254074,0.8656616-0.6381073,1.5081482-0.6381073
				c0.5954056,0,1.0565643,0.2065964,1.3834763,0.6202316c0.3277817,0.4136353,0.4916687,0.995079,0.4916687,1.7452011v0.0893478
				H107.1722794z M107.1722794,97.7669907h3.5620041c-0.012207-0.6781998-0.1621475-1.1977539-0.4515686-1.5577774
				c-0.288559-0.3600235-0.7000275-0.5400314-1.2361526-0.5400314c-0.5771103,0-1.0278091,0.1830597-1.3521042,0.5491867
				C107.3701706,96.5840607,107.195816,97.1005554,107.1722794,97.7669907z"/>
			<path class="st18" d="M112.1883774,100.2217712v-1.0713501h0.1787109v1.0713501H112.1883774z"/>
			<path class="st18" d="M117.2062149,96.3478241v-0.7679977h0.1778412v1.5176773
				c0,0.4702988-0.160408,0.8407822-0.4820862,1.1114502c-0.3208084,0.2706757-0.7558136,0.4062271-1.3032761,0.4062271
				c-0.4576721,0-0.8421173-0.0985031-1.1515961-0.2946472c-0.1839371,0.1547318-0.2763443,0.3273392-0.2763443,0.517807
				c0,0.0950165,0.0191803,0.1769638,0.0584106,0.2453918c0.038353,0.068428,0.1115799,0.1381683,0.2179337,0.2096481
				c0.1072311,0.0714874,0.2772217,0.1250992,0.5091095,0.1608353c0.2318878,0.0357437,0.5204391,0.0536118,0.865654,0.0536118
				c0.6546936,0,1.1385193,0.1054764,1.4506073,0.3168716c0.3129578,0.2109604,0.4690018,0.5369873,0.4690018,0.9772034
				c0,0.4524307-0.1961441,0.8107071-0.5893021,1.0757141c-0.3922958,0.2645721-0.924942,0.3970718-1.5979385,0.3970718
				c-0.6128464,0-1.1010284-0.1220398-1.4636765-0.3656921c-0.3635254-0.2440796-0.5448532-0.568367-0.5448532-0.9732819
				c0-0.2798233,0.0906677-0.5504913,0.2728653-0.8120117c0.1813202-0.2619553,0.4088516-0.4641953,0.6825867-0.6071548
				c-0.339119-0.1307602-0.5091095-0.3569717-0.5091095-0.6782074c0-0.2262115,0.10112-0.4345551,0.3033752-0.6250229
				c-0.3208084-0.2676239-0.4820862-0.6398468-0.4820862-1.1158142c0-0.4759598,0.1577911-0.8630066,0.4733658-1.1602631
				c0.3155746-0.297699,0.7235565-0.4463272,1.2230759-0.4463272c0.815094,0,1.3747635,0.2854919,1.6781311,0.8569107H117.2062149z
				 M117.562767,100.8019028c0-0.1486282-0.0191803-0.2811279-0.0575409-0.3970718
				c-0.0392303-0.1159363-0.1150742-0.2323151-0.2275238-0.3482513c-0.1133347-0.1159363-0.2920456-0.2065964-0.5361328-0.2724152
				c-0.2440948-0.0653763-0.5500793-0.0980682-0.9197083-0.0980682c-0.440239,0-0.7915573-0.0296402-1.0530853-0.0893555
				c-0.2911682,0.095459-0.5387421,0.2724152-0.7409897,0.5313187s-0.3033752,0.527832-0.3033752,0.8076553
				c0,0.3513107,0.1647644,0.6324387,0.495163,0.8438339c0.3303909,0.2109528,0.7749939,0.3168716,1.3346558,0.3168716
				c0.6189499,0,1.1088791-0.1159439,1.4689178-0.348259C117.3831787,101.5162888,117.562767,101.2007217,117.562767,100.8019028z
				 M114.4165878,96.0666885c-0.2833176,0.2645721-0.4245453,0.6084671-0.4245453,1.0308151
				c0,0.4227905,0.1412277,0.7514267,0.4245453,0.9863586c0.2824478,0.2353668,0.6764832,0.3526154,1.182106,0.3526154
				c0.4942856,0,0.885704-0.118988,1.1742554-0.3569717s0.4332657-0.5653152,0.4332657-0.9820023
				c0-0.4341202-0.1551743-0.7810669-0.4646454-1.0399704c-0.3094788-0.2589035-0.7200775-0.3883514-1.2317963-0.3883514
				C115.0634308,95.6691818,114.6990356,95.8016815,114.4165878,96.0666885z"/>
			<path class="st18" d="M118.8302994,100.2217712v-1.0713501h0.1787109v1.0713501H118.8302994z"/>
			<path class="st18" d="M127.3822479,93.7056198h0.1778412v4.1058273c0,0.8094025-0.1917877,1.4283218-0.5753632,1.856781
				c-0.3835754,0.4284515-0.9362717,0.6428986-1.6563416,0.6428986s-1.2718964-0.214447-1.6554718-0.6428986
				c-0.3835678-0.4284592-0.5762253-1.0473785-0.5762253-1.856781v-4.1058273h0.1787033v4.1058273
				c0,0.7557907,0.1743546,1.3315659,0.5221863,1.7273254c0.3487015,0.3957672,0.8586807,0.5936508,1.5308075,0.5936508
				c0.6729965,0,1.1829758-0.1978836,1.5316772-0.5936508c0.3478317-0.3957596,0.5221863-0.9715347,0.5221863-1.7273254V93.7056198z
				"/>
			<path class="st18" d="M133.5150604,93.7056198v0.1782684h-2.2316895v6.337883H131.10466v-6.337883h-2.2317047v-0.1782684
				H133.5150604z"/>
			<path class="st18" d="M133.1933899,101.2037735v-0.1787033h4.9986572v0.1787033H133.1933899z"/>
			<path class="st18" d="M140.370575,93.7945328c-0.5056305,0-0.8996582,0.1102753-1.1829834,0.3303833
				c-0.2824402,0.2201157-0.4236755,0.5265274-0.4236755,0.9196701c0,0.7318192,0.5448608,1.2674942,1.6336823,1.6065979
				c0.6485901,0.20224,1.1184692,0.4585266,1.4105072,0.7675552c0.2911682,0.3094635,0.4376221,0.7082748,0.4376221,1.1964417
				c0,0.5474472-0.1621552,0.9667435-0.4864502,1.2583389c-0.3251648,0.2915878-0.7872009,0.4376068-1.3887024,0.4376068
				c-0.7375183,0-1.3625641-0.2083435-1.8742828-0.6250305l0.1072235-0.1425247
				c0.4873199,0.3927078,1.0766296,0.5888519,1.7670593,0.5888519c0.5535583,0,0.9746246-0.1294556,1.2631683-0.3883591
				c0.288559-0.2589035,0.4332733-0.6350479,0.4332733-1.1288834c0-0.4463272-0.1342621-0.8080902-0.401886-1.0848618
				s-0.7078705-0.509964-1.3207092-0.7004318c-1.1725159-0.3630753-1.7592163-0.9580307-1.7592163-1.7853012
				c0-0.4345551,0.1560516-0.7810669,0.4690094-1.0399628c0.312088-0.2589035,0.7514496-0.3883591,1.3163605-0.3883591
				c0.6485901,0,1.243988,0.1486282,1.7853546,0.4463272l-0.088913,0.15168
				C141.5666199,93.9344482,141.0017242,93.7945328,140.370575,93.7945328z"/>
			<path class="st18" d="M143.8427887,96.9545441h-0.0174408v3.2672272h-0.1787109v-6.5161514h0.1787109v2.999176h0.0174408
				l3.5436859-2.999176h0.2772217l-3.7049713,3.1242676l3.7938995,3.3918839h-0.2676392L143.8427887,96.9545441z"/>
			<path class="st18" d="M151.2518616,96.7313766v0.0178757c1.1847076,0.2680511,1.7766418,0.8599548,1.7766418,1.7765732
				c0,0.5474472-0.2005157,0.9820023-0.6023865,1.3032303c-0.401886,0.3212357-0.9449921,0.4820709-1.6293182,0.4820709
				s-1.2274323-0.1608353-1.6293182-0.4820709c-0.401886-0.321228-0.6023865-0.7557831-0.6023865-1.3032303
				c0-0.9166183,0.5919342-1.508522,1.7766418-1.7765732v-0.0178757c-0.4759827-0.1307526-0.8482208-0.3390961-1.1158447-0.624588
				c-0.2676239-0.2859268-0.401886-0.6250305-0.401886-1.0177383c0-0.4463272,0.1795807-0.803299,0.5396271-1.0713577
				c0.3600311-0.2676163,0.8377533-0.4014282,1.4331665-0.4014282s1.0722656,0.133812,1.4331665,0.4014282
				c0.3591614,0.2680588,0.5396271,0.6250305,0.5396271,1.0713577c0,0.3927078-0.1342621,0.7318115-0.401886,1.0177383
				C152.1000824,96.3922806,151.727829,96.6006241,151.2518616,96.7313766z M150.7967987,96.8298874
				c-1.3686676,0.2083435-2.0529938,0.7736511-2.0529938,1.6959381c0,0.4938354,0.1839447,0.8852386,0.5535736,1.1737823
				c0.3687439,0.2885437,0.8682709,0.4328156,1.4994202,0.4328156s1.1306763-0.1442719,1.4994202-0.4328156
				c0.3696289-0.2885437,0.5535736-0.6799469,0.5535736-1.1737823
				C152.8497925,97.6035385,152.165451,97.0382309,150.7967987,96.8298874z M150.7967987,96.6511841
				c0.5535583-0.083252,0.9911957-0.2645721,1.3119965-0.5443954c0.3216705-0.2798233,0.4820862-0.618927,0.4820862-1.0177383
				c0-0.3927155-0.1638947-0.7065353-0.490799-0.9419022c-0.3269196-0.2349319-0.7619171-0.3526154-1.3032837-0.3526154
				s-0.9763641,0.1176834-1.3032837,0.3526154c-0.327774,0.2353668-0.490799,0.5491867-0.490799,0.9419022
				c0,0.3988113,0.1604004,0.737915,0.4820862,1.0177383C149.805603,96.3866119,150.2432251,96.5679321,150.7967987,96.6511841z"/>
			<path class="st18" d="M154.2332611,99.8199081l0.0985107-0.15168c0.4585571,0.3094635,0.9763794,0.4641953,1.5534821,0.4641953
				c0.6546936,0,1.1524658-0.1665039,1.4950562-0.499939c0.3417358-0.3330002,0.5134735-0.821167,0.5134735-1.4636307
				c0-0.5596466-0.1638947-0.9894028-0.490799-1.2901535c-0.3277893-0.3003082-0.803772-0.4506836-1.4288177-0.4506836
				c-0.5239258,0-0.9815979,0.1486282-1.3747559,0.4463272h-0.187439l0.2318878-3.1687241h3.1601257v0.1782684h-2.9988403
				l-0.2057343,2.7672958h0.0182953c0.4045105-0.2676239,0.8569489-0.4018707,1.3564606-0.4018707
				c0.6669006,0,1.1829834,0.1669388,1.549118,0.499939c0.3661346,0.3334351,0.5492096,0.806778,0.5492096,1.4196014
				c0,0.6904068-0.187439,1.219986-0.5631561,1.5887222c-0.3748627,0.3691788-0.916214,0.5535507-1.6240845,0.5535507
				C155.2723999,100.3111267,154.7214508,100.1472397,154.2332611,99.8199081z"/>
			<path class="st18" d="M159.5893555,99.8199081l0.0985107-0.15168c0.4585419,0.3094635,0.9763641,0.4641953,1.5534668,0.4641953
				c0.6546936,0,1.1524658-0.1665039,1.4950714-0.499939c0.3417206-0.3330002,0.5134583-0.821167,0.5134583-1.4636307
				c0-0.5596466-0.1638947-0.9894028-0.490799-1.2901535c-0.3277893-0.3003082-0.8037567-0.4506836-1.4288177-0.4506836
				c-0.5239258,0-0.9815979,0.1486282-1.3747559,0.4463272h-0.1874237l0.2318878-3.1687241h3.1601105v0.1782684h-2.9988403
				l-0.2057343,2.7672958h0.0183105c0.4044952-0.2676239,0.8569336-0.4018707,1.3564453-0.4018707
				c0.6669006,0,1.1829834,0.1669388,1.549118,0.499939c0.3661346,0.3334351,0.5492096,0.806778,0.5492096,1.4196014
				c0,0.6904068-0.1874237,1.219986-0.5631561,1.5887222c-0.3748627,0.3691788-0.916214,0.5535507-1.6240845,0.5535507
				C160.628479,100.3111267,160.0775299,100.1472397,159.5893555,99.8199081z"/>
			<path class="st18" d="M164.919281,94.473175l-0.1072235-0.1429672c0.2737274-0.2140045,0.5945282-0.3866119,0.9641571-0.517807
				c0.3687592-0.1307526,0.7165833-0.1961365,1.0443726-0.1961365c0.5771027,0,1.0278015,0.1577835,1.3520966,0.4729156
				c0.324295,0.3155594,0.4864349,0.7531662,0.4864349,1.3123779c0,0.5714188-0.2545471,1.1947021-0.7627869,1.8698578
				c-0.5091095,0.6755829-1.4183502,1.5935135-2.7277222,2.7537842v0.017868h3.5707092v0.1787033h-3.8383484v-0.1787033
				c1.3808594-1.2138748,2.3223724-2.1570892,2.8253632-2.8296204c0.503006-0.6721039,0.7540741-1.276207,0.7540741-1.8118896
				c0-0.5117035-0.1455841-0.9074631-0.4367523-1.1872864c-0.292038-0.2798233-0.7000122-0.4197388-1.2230682-0.4197388
				c-0.3033752,0-0.6329041,0.062767-0.9868317,0.1874237C165.4798126,94.107048,165.1746979,94.2709351,164.919281,94.473175z"/>
		</g>
		<g>
			<rect x="206.6267395" y="93.3782883" class="st18" width="23.6789932" height="27.823595"/>
			<g>
				<rect x="210.4568634" y="98.3944321" class="st18" width="6.0709019" height="18.3229103"/>
				<rect x="220.4047089" y="98.3944321" class="st18" width="6.0709019" height="18.3229103"/>
				<rect x="211.2381592" y="111.590477" class="st18" width="4.5083256" height="4.5081611"/>
				<rect x="221.1860046" y="111.590477" class="st18" width="4.5083256" height="4.5081611"/>
			</g>
		</g>
	</g>
</g>
</svg>
