<?xml version="1.0" encoding="utf-8"?>
<!-- Generator: Adobe Illustrator 26.0.1, SVG Export Plug-In . SVG Version: 6.00 Build 0)  -->
<svg version="1.1" id="Layer_1" xmlns="http://www.w3.org/2000/svg" xmlns:xlink="http://www.w3.org/1999/xlink" x="0px" y="0px"
	 viewBox="0 0 595.2755737 841.8898315" style="enable-background:new 0 0 595.2755737 841.8898315;" xml:space="preserve">
<style type="text/css">
	.st0{fill:none;stroke:#000000;stroke-miterlimit:10;}
	.st1{fill:none;stroke:#00AEEF;stroke-miterlimit:10;}
	.st2{fill:none;stroke:#00AEEF;stroke-miterlimit:10;stroke-dasharray:11.8028069,11.8028069;}
	.st3{fill:none;stroke:#00AEEF;stroke-miterlimit:10;stroke-dasharray:14.8976374,14.8976374;}
	.st4{fill:none;stroke:#00AEEF;stroke-miterlimit:10;stroke-dasharray:12.6336269,12.6336269;}
	.st5{fill:none;stroke:#00AEEF;stroke-miterlimit:10;stroke-dasharray:11.2650919,11.2650919;}
	.st6{fill:none;stroke:#00AEEF;stroke-miterlimit:10;stroke-dasharray:12.4589424,12.4589424;}
	.st7{fill:none;stroke:#00AEEF;stroke-miterlimit:10;stroke-dasharray:11.7938442,11.7938442;}
	.st8{fill:none;stroke:#00AEEF;stroke-miterlimit:10;stroke-dasharray:12.8398952,12.8398952;}
	.st9{fill:none;stroke:#00AEEF;stroke-miterlimit:10;stroke-dasharray:10.4341955,10.4341955;}
	.st10{fill:none;stroke:#00A651;stroke-miterlimit:10;}
	.st11{fill:none;stroke:#BE1E2D;stroke-miterlimit:10;}
	.st12{fill:none;stroke:#ED1C24;stroke-miterlimit:10;}
	.st13{fill:none;stroke:#00AEEF;stroke-width:0.25;stroke-miterlimit:10;}
</style>
<g>
	<path class="st13" d="M86.4891739,131.7837524v-0.6474609l0.8271484-0.8037109
		c1.9912109-1.8945312,2.890625-2.9023438,2.9023438-4.078125c0-0.7910156-0.3837891-1.5224609-1.546875-1.5224609
		c-0.7080078,0-1.2958984,0.359375-1.6552734,0.6591797l-0.3359375-0.7431641
		c0.5400391-0.4560547,1.3076172-0.7919922,2.2070312-0.7919922c1.6787109,0,2.3867188,1.1513672,2.3867188,2.2666016
		c0,1.4394531-1.0439453,2.6025391-2.6865234,4.1855469l-0.6240234,0.5761719v0.0234375h3.5019531v0.8759766H86.4891739z"/>
	<path class="st13" d="M97.826088,127.8023071c0,2.6503906-0.9833984,4.1132812-2.7099609,4.1132812
		c-1.5234375,0-2.5546875-1.4267578-2.5791016-4.0058594c0-2.6142578,1.1279297-4.0537109,2.7109375-4.0537109
		C96.8905411,123.8560181,97.826088,125.3189087,97.826088,127.8023071z M93.5926895,127.9214478
		c0,2.0273438,0.6240234,3.1787109,1.5830078,3.1787109c1.0791016,0,1.5947266-1.2597656,1.5947266-3.25
		c0-1.9189453-0.4912109-3.1787109-1.5830078-3.1787109C94.2645645,124.6714478,93.5926895,125.7993774,93.5926895,127.9214478z"/>
	<path class="st13" d="M101.763588,123.7241821c0,0.8632812-0.7070312,1.5712891-1.5585938,1.5712891
		c-0.8632812,0-1.5712891-0.7080078-1.5712891-1.5712891c0-0.8515625,0.7080078-1.5595703,1.5712891-1.5595703
		C101.0799942,122.1646118,101.763588,122.8970337,101.763588,123.7241821z M99.1493301,123.7241821
		c0,0.5878906,0.4677734,1.0556641,1.0556641,1.0556641c0.5751953,0,1.0429688-0.4677734,1.0429688-1.0556641
		c0-0.5761719-0.4677734-1.0429688-1.0429688-1.0429688C99.5926895,122.6812134,99.1493301,123.1724243,99.1493301,123.7241821z"/>
</g>
<g>
	<path class="st13" d="M86.4891739,78.9610672v-0.6474609l0.8271484-0.8037109
		c1.9912109-1.8950195,2.890625-2.9023438,2.9023438-4.0776367c0-0.7915039-0.3837891-1.5234375-1.546875-1.5234375
		c-0.7080078,0-1.2958984,0.3598633-1.6552734,0.659668l-0.3359375-0.7436523
		c0.5400391-0.4555664,1.3076172-0.7915039,2.2070312-0.7915039c1.6787109,0,2.3867188,1.1513672,2.3867188,2.2666016
		c0,1.4394531-1.0439453,2.6030273-2.6865234,4.1860352l-0.6240234,0.5756836v0.0239258h3.5019531v0.8754883H86.4891739z"/>
	<path class="st13" d="M97.2987442,72.0528641h-2.9746094l-0.2998047,2.0029297
		c0.1796875-0.0239258,0.3476562-0.0478516,0.6357422-0.0478516c0.5996094,0,1.1992188,0.1318359,1.6787109,0.4194336
		c0.6123047,0.3481445,1.1152344,1.0195312,1.1152344,2.0029297c0,1.5234375-1.2109375,2.6625977-2.9023438,2.6625977
		c-0.8515625,0-1.5703125-0.2397461-1.9423828-0.4794922L92.872963,77.8097
		c0.3242188,0.1918945,0.9589844,0.4316406,1.6669922,0.4316406c0.9951172,0,1.8466797-0.6474609,1.8466797-1.690918
		c-0.0117188-1.0073242-0.6835938-1.7270508-2.2421875-1.7270508c-0.4443359,0-0.7919922,0.0478516-1.0800781,0.0839844
		l0.5039062-3.7421875h3.7304688V72.0528641z"/>
	<path class="st13" d="M101.763588,70.9014969c0,0.8632812-0.7070312,1.5712891-1.5585938,1.5712891
		c-0.8632812,0-1.5712891-0.7080078-1.5712891-1.5712891c0-0.8515625,0.7080078-1.559082,1.5712891-1.559082
		C101.0799942,69.3424149,101.763588,70.0738602,101.763588,70.9014969z M99.1493301,70.9014969
		c0,0.5878906,0.4677734,1.0556641,1.0556641,1.0556641c0.5751953,0,1.0429688-0.4677734,1.0429688-1.0556641
		c0-0.5756836-0.4677734-1.043457-1.0429688-1.043457C99.5926895,69.8580399,99.1493301,70.3497391,99.1493301,70.9014969z"/>
</g>
<circle class="st12" cx="127.7961044" cy="262.9124146" r="4.9606299"/>
<path class="st0" d="M184.4890137,324.6875V201.5025635l-2.0043945-2.0043945l2.0043945-2.0044556V57.4005737
	c0-15.6553345-12.6911621-28.3464355-28.3464355-28.3464355H99.449707c-15.6552734,0-28.3464355,12.6911011-28.3464355,28.3464355
	V197.12854l2.0043945,2.0043335l-2.0043945,2.0043335v123.1851196l2.0043945,2.0043335l-2.0043945,2.0043335v140.0931396
	c0,15.6553345,12.6911621,28.3464966,28.3464355,28.3464966h56.6928711c15.6552734,0,28.3464355-12.6911621,28.3464355-28.3464966
	V328.6962891l-2.0043945-2.0043945L184.4890137,324.6875z"/>
<rect x="115.693634" y="48.3660431" transform="matrix(0.9063075 -0.4226188 0.4226188 0.9063075 -18.0939693 57.0683289)" class="st12" width="7.9369912" height="41.9527512"/>
<rect x="114.6587296" y="97.4756546" transform="matrix(0.9396929 -0.3420196 0.3420196 0.9396929 -33.3588371 47.7163391)" class="st12" width="7.9369941" height="41.9527512"/>
<rect x="115.6936493" y="435.506012" transform="matrix(0.9063072 0.4226195 -0.4226195 0.9063072 204.1298218 -7.8024454)" class="st12" width="7.9369636" height="41.9527435"/>
<rect x="114.6587296" y="386.3963928" transform="matrix(0.9396926 0.3420202 -0.3420202 0.9396926 146.4838409 -16.0053158)" class="st12" width="7.9369941" height="41.952755"/>
</svg>
