<?xml version="1.0" encoding="utf-8"?>
<!-- Generator: Adobe Illustrator 25.4.1, SVG Export Plug-In . SVG Version: 6.00 Build 0)  -->
<svg version="1.1" id="レイヤー_1" xmlns="http://www.w3.org/2000/svg" xmlns:xlink="http://www.w3.org/1999/xlink" x="0px"
	 y="0px" viewBox="0 0 595.2755737 841.8897705" style="enable-background:new 0 0 595.2755737 841.8897705;" xml:space="preserve">
<style type="text/css">
	.st0{fill:none;stroke:#000000;stroke-width:0.2834646;stroke-miterlimit:10;}
	.st1{fill:none;stroke:#000000;stroke-width:0.2834646;stroke-miterlimit:10;stroke-dasharray:5.7201543,5.7201543;}
	.st2{fill:none;stroke:#1D4347;stroke-width:0.7086614;stroke-miterlimit:10;}
	.st3{fill:none;stroke:#5AA8CE;stroke-width:0.7086614;stroke-miterlimit:10;}
	.st4{fill:#130B0B;}
	.st5{fill:#E8E6E3;}
	.st6{fill:#8CD3D7;}
	.st7{fill:none;stroke:#000000;stroke-width:0.5;stroke-miterlimit:10;}
	.st8{fill:#F0047F;}
	.st9{fill:#C2000B;}
	.st10{fill:none;stroke:#130B0B;stroke-width:0.2834646;stroke-miterlimit:10;}
	.st11{fill:#808080;}
	.st12{fill:none;stroke:#01A0C6;stroke-width:0.7086614;stroke-miterlimit:10;}
	.st13{fill:none;stroke:#000000;stroke-width:0.7086614;stroke-miterlimit:10;}
	.st14{fill:none;stroke:#FF0001;stroke-width:0.7086614;stroke-miterlimit:10;}
	.st15{fill:none;stroke:#FF0601;stroke-width:0.7086614;stroke-miterlimit:10;}
	.st16{fill:none;stroke:#070606;stroke-width:0.7086614;stroke-miterlimit:10;}
	.st17{fill:none;stroke:#018837;stroke-width:0.7086614;stroke-miterlimit:10;}
	.st18{fill:none;stroke:#018837;stroke-width:0.25;}
	.st19{fill:none;stroke:#01A0C6;stroke-width:0.2834646;stroke-miterlimit:10;}
</style>
<g>
	<path class="st19" d="M36.9489212,116.0605316c-0.9472656,0-1.6982422,0.300293-2.2548828,0.9003906
		c-0.5566406,0.5996094-0.8349609,1.4067383-0.8349609,2.4199219c0,1.0068359,0.2832031,1.8115234,0.8496094,2.4150391
		s1.3134766,0.9047852,2.2402344,0.9047852c0.7265625,0,1.3964844-0.199707,2.0097656-0.6000977l0.1904297,0.3901367
		c-0.6337891,0.4267578-1.3769531,0.6401367-2.2304688,0.6401367c-1.0800781,0-1.9453125-0.340332-2.5947266-1.0200195
		c-0.6503906-0.6801758-0.9755859-1.5898438-0.9755859-2.7299805c0-1.1533203,0.3222656-2.0668945,0.9648438-2.7402344
		c0.6435547-0.6733398,1.5117188-1.0097656,2.6054688-1.0097656c0.8535156,0,1.5966797,0.2133789,2.2304688,0.6401367
		l-0.1904297,0.3896484C38.3590775,116.2607269,37.688179,116.0605316,36.9489212,116.0605316z"/>
	<path class="st19" d="M40.3092728,123.0307465l0.9199219-7.2998047h0.6591797l2.0107422,6.7299805h0.0195312l2.0097656-6.7299805
		h0.6601562l0.9199219,7.2998047h-0.5l-0.7998047-6.6298828h-0.0195312l-1.9804688,6.6298828h-0.6103516l-1.9794922-6.6298828
		h-0.0205078l-0.7998047,6.6298828H40.3092728z"/>
	<path class="st19" d="M50.9889603,116.0605316c-0.6337891,0-1.2597656,0.1904297-1.8798828,0.5703125l-0.1601562-0.3999023
		c0.6601562-0.4003906,1.3564453-0.6000977,2.0898438-0.6000977c0.6738281,0,1.2021484,0.1464844,1.5849609,0.4399414
		c0.3837891,0.293457,0.5751953,0.6899414,0.5751953,1.1899414c0,0.9199219-0.5595703,1.5136719-1.6796875,1.7797852v0.0200195
		c1.2197266,0.2001953,1.8300781,0.8237305,1.8300781,1.8701172c0,0.7133789-0.21875,1.2583008-0.6552734,1.6352539
		c-0.4365234,0.3764648-1.0683594,0.5649414-1.8955078,0.5649414c-0.7392578,0-1.4326172-0.2099609-2.0791016-0.6298828
		l0.1591797-0.4101562c0.6005859,0.4067383,1.2373047,0.6098633,1.9101562,0.6098633
		c0.6806641,0,1.1933594-0.1513672,1.5400391-0.4550781c0.3466797-0.3032227,0.5205078-0.7480469,0.5205078-1.3349609
		c0-0.5463867-0.2089844-0.9516602-0.625-1.2148438c-0.4169922-0.2631836-1.0683594-0.3950195-1.9550781-0.3950195h-0.4306641
		v-0.4399414h0.4306641c0.7792969,0,1.3808594-0.1352539,1.8046875-0.4052734
		c0.4228516-0.2700195,0.6347656-0.6450195,0.6347656-1.125c0-0.3999023-0.1484375-0.7114258-0.4443359-0.9345703
		C51.9674759,116.172348,51.5426712,116.0605316,50.9889603,116.0605316z"/>
	<path class="st19" d="M57.1383743,115.6308441c1.7070312,0,2.5605469,1.25,2.5605469,3.75s-0.8535156,3.75-2.5605469,3.75
		c-1.7128906,0-2.5693359-1.25-2.5693359-3.75S55.4254837,115.6308441,57.1383743,115.6308441z M57.1383743,122.7006683
		c0.6865234,0,1.2021484-0.2700195,1.5449219-0.8100586c0.34375-0.5400391,0.515625-1.3764648,0.515625-2.5097656
		s-0.171875-1.9702148-0.515625-2.5102539c-0.3427734-0.5400391-0.8583984-0.8100586-1.5449219-0.8100586
		c-1.3798828,0-2.0693359,1.1069336-2.0693359,3.3203125S55.7584915,122.7006683,57.1383743,122.7006683z"/>
	<path class="st19" d="M65.1686478,116.1606293h-3.25l-0.1904297,2.7402344h0.0195312
		c0.4208984-0.2666016,0.8935547-0.3999023,1.4208984-0.3999023c0.7324219,0,1.2998047,0.1899414,1.6992188,0.5698242
		c0.4003906,0.3798828,0.6005859,0.9165039,0.6005859,1.6098633c0,0.793457-0.21875,1.3999023-0.6552734,1.8203125
		c-0.4365234,0.4199219-1.0712891,0.6298828-1.9052734,0.6298828c-0.6728516,0-1.296875-0.1733398-1.8701172-0.5200195
		l0.1601562-0.4101562c0.5537109,0.3334961,1.1230469,0.5,1.7099609,0.5c0.6738281,0,1.1855469-0.1699219,1.5351562-0.5097656
		c0.3505859-0.340332,0.5253906-0.8432617,0.5253906-1.5102539c0-0.5732422-0.1591797-1.0097656-0.4755859-1.3100586
		c-0.3164062-0.2998047-0.7783203-0.449707-1.3847656-0.449707c-0.546875,0-1.0234375,0.159668-1.4296875,0.4799805h-0.4599609
		l0.2392578-3.6699219h3.7109375V116.1606293z"/>
	<path class="st19" d="M69.3375931,115.6308441c1.7070312,0,2.5605469,1.25,2.5605469,3.75s-0.8535156,3.75-2.5605469,3.75
		c-1.7128906,0-2.5693359-1.25-2.5693359-3.75S67.6247025,115.6308441,69.3375931,115.6308441z M69.3375931,122.7006683
		c0.6865234,0,1.2021484-0.2700195,1.5449219-0.8100586c0.34375-0.5400391,0.515625-1.3764648,0.515625-2.5097656
		s-0.171875-1.9702148-0.515625-2.5102539c-0.3427734-0.5400391-0.8583984-0.8100586-1.5449219-0.8100586
		c-1.3798828,0-2.0693359,1.1069336-2.0693359,3.3203125S67.9577103,122.7006683,69.3375931,122.7006683z"/>
</g>
<path class="st13" d="M95.8607254,147.0620117V94.1303711l-2.0043945-2.0043945l2.0043945-2.0043945V51.6106567
	l-2.0043945-2.0043945l2.0043945-2.0043945v-3.0778198l-2.0043945-2.0043945l2.0043945-2.0043945v-26.342041
	C95.8607254,6.3779297,89.4827957,0,81.6876297,0H24.9946365c-7.7952881,0-14.1732187,6.3779297-14.1732187,14.1732178v26.342041
	l2.0043945,2.0043945l-2.0043945,2.0043945v3.0778198l2.0043945,2.0043945l-2.0043945,2.0043945V90.121582l2.0043945,2.0043945
	l-2.0043945,2.0043945v52.9316406l2.0043945,2.0043945l-2.0043945,2.0043945v366.2520142
	c0,15.5905762,12.7558603,28.3464355,28.3464355,28.3464355h28.3464355c15.5905762,0,28.3464355-12.7558594,28.3464355-28.3464355
	V151.0708008l-2.0043945-2.0043945L95.8607254,147.0620117z"/>
<g>
	<circle class="st14" cx="53.3410912" cy="461.7497253" r="4.9606299"/>
	<circle class="st14" cx="53.3410912" cy="433.4031372" r="4.9606299"/>
	<circle class="st14" cx="53.3410912" cy="490.0961609" r="4.9606299"/>
	<circle class="st14" cx="53.3410912" cy="518.442627" r="4.9606299"/>
</g>
<g>
	<g>
		<path class="st19" d="M20.2879715,436.4550781c1.3916016-0.1865234,2.234375-1.0185547,2.5273438-2.4960938h-0.015625
			c-0.3681641,0.5332031-0.8984375,0.7998047-1.5917969,0.7998047c-0.5869141,0-1.0576172-0.1748047-1.4121094-0.5244141
			c-0.3544922-0.3486328-0.5322266-0.8144531-0.5322266-1.3955078c0-0.6191406,0.1826172-1.1132812,0.5478516-1.484375
			c0.3652344-0.3701172,0.8544922-0.5556641,1.4677734-0.5556641c0.6240234,0,1.1152344,0.1894531,1.4726562,0.5683594
			c0.3574219,0.3779297,0.5361328,0.9013672,0.5361328,1.5673828c0,1.1201172-0.2568359,2.0166016-0.7685547,2.6884766
			s-1.2314453,1.0634766-2.1601562,1.1757812L20.2879715,436.4550781z M22.4598465,431.5947266
			c-0.2851562-0.3007812-0.6787109-0.4521484-1.1806641-0.4521484c-0.5009766,0-0.8955078,0.1513672-1.1835938,0.4521484
			c-0.2880859,0.3017578-0.4316406,0.7158203-0.4316406,1.2441406c0,0.4853516,0.1474609,0.8720703,0.4433594,1.1601562
			s0.6865234,0.4316406,1.171875,0.4316406c0.4433594,0,0.8212891-0.1542969,1.1367188-0.4638672
			c0.3144531-0.3095703,0.4716797-0.6855469,0.4716797-1.1279297
			C22.8875809,432.3105469,22.7450027,431.8964844,22.4598465,431.5947266z"/>
		<path class="st19" d="M26.1756668,430.7988281c1.3652344,0,2.0478516,1,2.0478516,3s-0.6826172,3-2.0478516,3
			c-1.3710938,0-2.0566406-1-2.0566406-3S24.8045731,430.7988281,26.1756668,430.7988281z M26.1756668,436.4550781
			c0.5488281,0,0.9609375-0.2167969,1.2353516-0.6484375c0.2753906-0.4316406,0.4121094-1.1015625,0.4121094-2.0078125
			s-0.1367188-1.5761719-0.4121094-2.0078125c-0.2744141-0.4326172-0.6865234-0.6484375-1.2353516-0.6484375
			c-1.1044922,0-1.65625,0.8857422-1.65625,2.65625S25.0711746,436.4550781,26.1756668,436.4550781z"/>
	</g>
	<g>
		<path class="st19" d="M18.9598465,465.0652466v-5.34375h-0.0166016l-1.6396484,1.5517578l-0.1835938-0.3115234
			l1.8398438-1.7363281h0.3994141v5.8398438H18.9598465z"/>
		<path class="st19" d="M23.7352371,459.1453247c1.3652344,0,2.0478516,1,2.0478516,3s-0.6826172,3-2.0478516,3
			c-1.3701172,0-2.0556641-1-2.0556641-3S22.3651199,459.1453247,23.7352371,459.1453247z M23.7352371,464.8015747
			c0.5498047,0,0.9619141-0.2167969,1.2363281-0.6484375s0.4121094-1.1015625,0.4121094-2.0078125
			s-0.1376953-1.5761719-0.4121094-2.0078125c-0.2744141-0.4326172-0.6865234-0.6484375-1.2363281-0.6484375
			c-1.1035156,0-1.6552734,0.8857422-1.6552734,2.65625S22.6317215,464.8015747,23.7352371,464.8015747z"/>
		<path class="st19" d="M28.6151199,459.1453247c1.3652344,0,2.0478516,1,2.0478516,3s-0.6826172,3-2.0478516,3
			c-1.3701172,0-2.0556641-1-2.0556641-3S27.2450027,459.1453247,28.6151199,459.1453247z M28.6151199,464.8015747
			c0.5498047,0,0.9619141-0.2167969,1.2363281-0.6484375s0.4121094-1.1015625,0.4121094-2.0078125
			s-0.1376953-1.5761719-0.4121094-2.0078125c-0.2744141-0.4326172-0.6865234-0.6484375-1.2363281-0.6484375
			c-1.1035156,0-1.6552734,0.8857422-1.6552734,2.65625S27.5116043,464.8015747,28.6151199,464.8015747z"/>
	</g>
	<g>
		<path class="st19" d="M18.9598465,521.7581787v-5.34375h-0.0166016l-1.6396484,1.5517578l-0.1835938-0.3115234
			l1.8398438-1.7363281h0.3994141v5.8398438H18.9598465z"/>
		<path class="st19" d="M23.6473465,516.1898193c-0.2558594,0-0.5332031,0.0527344-0.8320312,0.15625
			c-0.2988281,0.1044922-0.5673828,0.2441406-0.8076172,0.4199219l-0.1445312-0.3115234
			c0.2460938-0.1865234,0.5332031-0.3359375,0.8642578-0.4482422s0.6503906-0.1679688,0.9599609-0.1679688
			c0.5439453,0,0.9677563,0.1425781,1.2724609,0.4277344c0.3037109,0.2851562,0.4560547,0.6845703,0.4560547,1.1962891
			c0,0.5175781-0.2099609,1.0625-0.6279297,1.6357422c-0.4189453,0.5732422-1.1806641,1.3398438-2.2841797,2.2998047v0.0166016
			h2.9599609v0.34375h-3.5205078v-0.34375c1.1845703-1.0136719,1.9912109-1.8027344,2.4199219-2.3681641
			c0.4296875-0.5654297,0.6445312-1.0830078,0.6445312-1.5517578c0-0.4160156-0.1171875-0.7373047-0.3525562-0.9638672
			C24.420784,516.3031006,24.0848465,516.1898193,23.6473465,516.1898193z"/>
		<path class="st19" d="M28.6151199,515.8382568c1.3652344,0,2.0478516,1,2.0478516,3s-0.6826172,3-2.0478516,3
			c-1.3701172,0-2.0556641-1-2.0556641-3S27.2450027,515.8382568,28.6151199,515.8382568z M28.6151199,521.4945068
			c0.5498047,0,0.9619141-0.2167969,1.2363281-0.6484375s0.4121094-1.1015625,0.4121094-2.0078125
			s-0.1376953-1.5761719-0.4121094-2.0078125c-0.2744141-0.4326172-0.6865234-0.6484375-1.2363281-0.6484375
			c-1.1035156,0-1.6552734,0.8857422-1.6552734,2.65625S27.5116043,521.4945068,28.6151199,521.4945068z"/>
	</g>
	<g>
		<path class="st19" d="M18.9598465,493.4117126v-5.34375h-0.0166016l-1.6396484,1.5517578l-0.1835938-0.3115234
			l1.8398438-1.7363281h0.3994141v5.8398438H18.9598465z"/>
		<path class="st19" d="M23.8397293,493.4117126v-5.34375h-0.0166016l-1.6396484,1.5517578l-0.1835938-0.3115234
			l1.8398438-1.7363281h0.3994141v5.8398438H23.8397293z"/>
		<path class="st19" d="M28.6151199,487.4917908c1.3652344,0,2.0478516,1,2.0478516,3s-0.6826172,3-2.0478516,3
			c-1.3701172,0-2.0556641-1-2.0556641-3S27.2450027,487.4917908,28.6151199,487.4917908z M28.6151199,493.1480408
			c0.5498047,0,0.9619141-0.2167969,1.2363281-0.6484375s0.4121094-1.1015625,0.4121094-2.0078125
			s-0.1376953-1.5761719-0.4121094-2.0078125c-0.2744141-0.4326172-0.6865234-0.6484375-1.2363281-0.6484375
			c-1.1035156,0-1.6552734,0.8857422-1.6552734,2.65625S27.5116043,493.1480408,28.6151199,493.1480408z"/>
	</g>
	<circle class="st19" cx="24.1190262" cy="447.9720764" r="0.8320312"/>
	<circle class="st19" cx="24.1190262" cy="476.3185425" r="0.8320312"/>
	<circle class="st19" cx="24.1190262" cy="504.6650391" r="0.8320312"/>
</g>
</svg>
