<?xml version="1.0" encoding="utf-8"?>
<!-- Generator: Adobe Illustrator 24.1.0, SVG Export Plug-In . SVG Version: 6.00 Build 0)  -->
<svg version="1.1" id="Layer_1" xmlns="http://www.w3.org/2000/svg" xmlns:xlink="http://www.w3.org/1999/xlink" x="0px" y="0px"
	 viewBox="0 0 595.3 841.9" style="enable-background:new 0 0 595.3 841.9;" xml:space="preserve">
<style type="text/css">
	.st0{fill:#FFFFFF;stroke:#000000;stroke-miterlimit:10;}
	.st1{fill:#FFFFFF;stroke:#ED1B23;stroke-miterlimit:10;}
	.st2{fill:none;stroke:#000000;stroke-miterlimit:10;}
	.st3{fill:none;stroke:#ED1B23;stroke-miterlimit:10;}
</style>
<g>
	<path class="st2" d="M117.1,17.2v807.9c0,7.8-6.3,14.2-14.2,14.2h-85c-7.8,0-14.2-6.3-14.2-14.2V17.2c0-7.8,6.3-14.2,14.2-14.2h85
		C110.8,3.1,117.1,9.4,117.1,17.2z"/>
	<g>
		<g>
			<g>
				<circle class="st3" cx="40.5" cy="794.6" r="5"/>
				<circle class="st3" cx="80.2" cy="794.6" r="5"/>
			</g>
			<g>
				<circle class="st3" cx="40.7" cy="752" r="5"/>
				<circle class="st3" cx="80.4" cy="752" r="5"/>
			</g>
			<g>
				<circle class="st3" cx="40.7" cy="709.5" r="5"/>
				<circle class="st3" cx="80.4" cy="709.5" r="5"/>
			</g>
			<g>
				<circle class="st3" cx="40.7" cy="667" r="5"/>
				<circle class="st3" cx="80.4" cy="667" r="5"/>
			</g>
		</g>
		<g>
			<g>
				<circle class="st3" cx="40.5" cy="175.3" r="5"/>
				<circle class="st3" cx="80.2" cy="175.3" r="5"/>
			</g>
			<g>
				<circle class="st3" cx="40.7" cy="132.8" r="5"/>
				<circle class="st3" cx="80.4" cy="132.8" r="5"/>
			</g>
			<g>
				<circle class="st3" cx="40.7" cy="90.3" r="5"/>
				<circle class="st3" cx="80.4" cy="90.3" r="5"/>
			</g>
			<g>
				<circle class="st3" cx="40.7" cy="47.8" r="5"/>
				<circle class="st3" cx="80.4" cy="47.8" r="5"/>
			</g>
		</g>
	</g>
</g>
</svg>
