<?xml version="1.0" encoding="utf-8"?>
<!-- Generator: Adobe Illustrator 25.4.1, SVG Export Plug-In . SVG Version: 6.00 Build 0)  -->
<svg version="1.1" id="Layer_1" xmlns="http://www.w3.org/2000/svg" xmlns:xlink="http://www.w3.org/1999/xlink" x="0px" y="0px"
	 viewBox="0 0 595.2755737 841.8898315" style="enable-background:new 0 0 595.2755737 841.8898315;" xml:space="preserve">
<style type="text/css">
	.st0{fill:#FFF200;stroke:#000000;stroke-width:0.2834646;stroke-miterlimit:10;}
	.st1{fill:none;stroke:#000000;stroke-width:0.2834646;stroke-miterlimit:10;}
	.st2{fill:none;stroke:#000000;stroke-width:0.7086614;stroke-miterlimit:10;}
	.st3{fill:none;stroke:#EC008C;stroke-width:0.7086614;stroke-miterlimit:10;}
	.st4{fill:none;stroke:#EC008C;stroke-width:0.2834646;stroke-miterlimit:10;}
	.st5{fill:none;stroke:#ED1C24;stroke-width:0.2834646;stroke-miterlimit:10;}
	.st6{fill:none;stroke:#00AEEF;stroke-width:0.2834646;stroke-miterlimit:10;}
	.st7{fill:none;stroke:#2E3192;stroke-width:0.7086614;stroke-miterlimit:10;}
	.st8{fill:none;stroke:#00A651;stroke-width:0.7086614;stroke-miterlimit:10;}
</style>
<g>
	<path class="st3" d="M194.6474152,63.7795372v-0.0000191c0-4.3052063,3.4900665-7.7952652,7.7952728-7.7952652h18.4252167
		c4.3052063,0,7.7952576,3.4900589,7.7952576,7.7952652v0.0000191c0,4.3052025-3.4900513,7.795269-7.7952576,7.795269H202.442688
		C198.1374817,71.5748062,194.6474152,68.0847397,194.6474152,63.7795372z"/>
	<circle class="st3" cx="374.8840942" cy="82.2134857" r="4.5354333"/>
	<circle class="st3" cx="374.8840942" cy="45.3455696" r="4.5354333"/>
	<circle class="st3" cx="346.5376282" cy="82.2134857" r="4.5354333"/>
	<circle class="st3" cx="346.5376282" cy="45.3455696" r="4.5354333"/>
	<circle class="st3" cx="318.1911621" cy="82.2134857" r="4.5354333"/>
	<circle class="st3" cx="318.1911621" cy="45.3455696" r="4.5354333"/>
	<circle class="st3" cx="289.8447266" cy="82.2134857" r="4.5354333"/>
	<circle class="st3" cx="289.8447266" cy="45.3455696" r="4.5354333"/>
	<path class="st2" d="M400.3957214,35.4330444H165.1204376c-9.3931885,0-17.0078735-7.6146851-17.0078735-17.0078735v-1.4172974
		C148.1125641,7.6146846,140.497879,0,131.1046906,0H23.3880215C13.994832,0,6.3801475,7.6146846,6.3801475,17.0078735v93.543335
		c0,9.393158,7.6146569,17.0078125,17.0078125,17.0078125h107.7167892c9.393158,0,17.0078125-7.6146545,17.0078125-17.0078125
		v-1.4173584c0-9.3931885,7.6146851-17.0078735,17.0078735-17.0078735h235.2753448
		c9.393158,0,17.0078125-7.6146545,17.0078125-17.0078125V52.440918
		C417.403595,43.0477295,409.7889099,35.4330444,400.3957214,35.4330444z"/>
</g>
<circle class="st3" cx="34.7266045" cy="28.3464565" r="4.5354333"/>
<circle class="st3" cx="34.7266045" cy="99.2112656" r="4.5354333"/>
<circle class="st3" cx="119.765976" cy="99.2112656" r="4.5354333"/>
<circle class="st3" cx="119.765976" cy="28.3464565" r="4.5354333"/>
<circle class="st3" cx="77.2462921" cy="63.7795105" r="4.5354333"/>
</svg>
