<?xml version="1.0" encoding="utf-8"?>
<!-- Generator: Adobe Illustrator 25.4.1, SVG Export Plug-In . SVG Version: 6.00 Build 0)  -->
<svg version="1.1" xmlns="http://www.w3.org/2000/svg" xmlns:xlink="http://www.w3.org/1999/xlink" x="0px" y="0px"
	 viewBox="0 0 1275.5905762 850.3936768" style="enable-background:new 0 0 1275.5905762 850.3936768;" xml:space="preserve">
<style type="text/css">
	.st0{opacity:0.56;}
	.st1{fill:#00AEEF;}
	.st2{fill:#F15A29;}
	.st3{fill:#FFF200;}
	.st4{fill:#00A651;}
	.st5{fill:none;stroke:#C49A6C;stroke-width:0.2834646;stroke-miterlimit:10;stroke-dasharray:2.8346457,2.8346457;}
	.st6{fill:#C49A6C;}
	.st7{fill:none;stroke:#C49A6C;stroke-miterlimit:10;stroke-dasharray:2.8346457,2.8346457;}
	.st8{fill:none;stroke:#00AEEF;stroke-width:0.7086614;stroke-miterlimit:10;}
	.st9{fill:none;stroke:#F7941D;stroke-width:0.7086614;stroke-miterlimit:10;}
	.st10{fill:none;stroke:#F7941D;stroke-width:0.7086614;stroke-miterlimit:10;stroke-dasharray:2.8346457,2.8346457;}
	.st11{fill:none;stroke:#00A14B;stroke-width:0.7086614;stroke-miterlimit:10;}
	.st12{fill:none;stroke:#EC008C;stroke-width:0.7086614;stroke-miterlimit:10;}
	.st13{fill:none;stroke:#000000;stroke-miterlimit:10;}
	.st14{fill:none;stroke:#F7941D;stroke-width:0.7086614;stroke-miterlimit:10;stroke-dasharray:2.7910357,2.7910357;}
	.st15{fill:none;stroke:#F7941D;stroke-width:0.7086614;stroke-miterlimit:10;stroke-dasharray:2.7968504,2.7968504;}
	.st16{fill:none;stroke:#2E3192;stroke-width:0.7086614;stroke-miterlimit:10;}
	.st17{fill:none;stroke:#00A14B;stroke-width:0.2834646;}
	.st18{fill:none;stroke:#00A14B;stroke-width:0.2834646;stroke-miterlimit:10;}
	.st19{fill:none;stroke:#000000;stroke-width:0.7086614;stroke-miterlimit:10;}
</style>
<g id="PCBa">
</g>
<g id="よこなが">
	<g>
		<g>
			<circle class="st12" cx="190.4944" cy="35.1198082" r="8.645669"/>
			<circle class="st12" cx="252.8565979" cy="35.1198082" r="8.645669"/>
			<circle class="st12" cx="315.218811" cy="35.1198082" r="11.1968508"/>
			<circle class="st12" cx="377.5810242" cy="35.1198082" r="11.1968508"/>
			<g>
				<path class="st18" d="M237.4664612,54.2317734c-0.6796875,0-1.2099609,0.1484375-1.5898438,0.4443359
					s-0.5703125,0.7080078-0.5703125,1.2358398c0,0.9838867,0.7324219,1.7041016,2.1962891,2.1601562
					c0.8720703,0.2719727,1.5039062,0.6157227,1.8964844,1.0317383c0.3916016,0.4160156,0.5878906,0.9521484,0.5878906,1.6079102
					c0,0.7363281-0.21875,1.300293-0.6542969,1.6923828c-0.4365234,0.3916016-1.0576172,0.5878906-1.8662109,0.5878906
					c-0.9921875,0-1.8320312-0.2802734-2.5195312-0.840332l0.1435547-0.1918945
					c0.65625,0.5283203,1.4482422,0.7919922,2.3759766,0.7919922c0.7441406,0,1.3105469-0.1738281,1.6982422-0.5219727
					s0.5820312-0.8540039,0.5820312-1.5180664c0-0.5996094-0.1796875-1.0859375-0.5400391-1.4580078
					s-0.9521484-0.6855469-1.7763672-0.9418945c-1.5761719-0.487793-2.3632812-1.2880859-2.3632812-2.3999023
					c0-0.5839844,0.2099609-1.0498047,0.6298828-1.3979492s1.0097656-0.5219727,1.7695312-0.5219727
					c0.8720703,0,1.671875,0.199707,2.4003906,0.6000977l-0.1201172,0.2036133
					C239.0748596,54.4197617,238.3141174,54.2317734,237.4664612,54.2317734z"/>
				<path class="st18" d="M241.5709534,59.8118515c0.0078125,0.9199219,0.2460938,1.6401367,0.7138672,2.1601562
					s1.1103516,0.7797852,1.9257812,0.7797852c0.7041016,0,1.34375-0.1757812,1.9199219-0.527832l0.1201172,0.2158203
					c-0.6240234,0.3681641-1.3037109,0.5522461-2.0400391,0.5522461c-0.8876953,0-1.5898438-0.2900391-2.1054688-0.8701172
					c-0.5166016-0.5800781-0.7744141-1.3701172-0.7744141-2.3701172c0-1.015625,0.2441406-1.8100586,0.7324219-2.3818359
					c0.4873047-0.5717773,1.1640625-0.8579102,2.0273438-0.8579102c0.7998047,0,1.4199219,0.277832,1.8603516,0.8339844
					c0.4394531,0.5561523,0.6601562,1.3378906,0.6601562,2.3457031v0.1201172H241.5709534z M241.5709534,59.5721054h4.7880859
					c-0.0166016-0.9121094-0.21875-1.6098633-0.6064453-2.0942383c-0.3876953-0.4838867-0.9414062-0.7260742-1.6621094-0.7260742
					c-0.7753906,0-1.3818359,0.2460938-1.8173828,0.7382812C241.8365784,57.9817734,241.6022034,58.6761093,241.5709534,59.5721054z
					"/>
				<path class="st18" d="M248.4342346,58.1678085h0.0244141c0.2080078-0.4956055,0.5117188-0.8959961,0.9121094-1.199707
					c0.3994141-0.3041992,0.8476562-0.4560547,1.34375-0.4560547c0.7597656,0,1.3095703,0.2080078,1.6503906,0.6240234
					c0.3398438,0.4160156,0.5097656,1.0878906,0.5097656,2.015625v3.7202148h-0.2402344v-3.7202148
					c0-0.8637695-0.1484375-1.4794922-0.4443359-1.8476562s-0.7871094-0.5522461-1.4755859-0.5522461
					c-0.6318359,0-1.1699219,0.2583008-1.6142578,0.7739258c-0.4433594,0.5161133-0.6660156,1.1381836-0.6660156,1.8662109
					v3.4799805h-0.2392578v-6.2402344h0.2392578V58.1678085z"/>
				<path class="st18" d="M258.658844,56.9920273l-0.1083984,0.2158203
					c-0.6396484-0.3037109-1.2841797-0.4560547-1.9316406-0.4560547c-0.5683594,0-1.0205078,0.1201172-1.3564453,0.3603516
					c-0.3359375,0.2397461-0.5039062,0.5600586-0.5039062,0.9599609c0,0.3598633,0.1318359,0.6538086,0.3964844,0.8818359
					c0.2636719,0.2280273,0.7597656,0.4140625,1.4873047,0.5581055c0.7685547,0.1518555,1.3261719,0.3701172,1.6738281,0.6538086
					c0.3486328,0.2841797,0.5224609,0.6660156,0.5224609,1.1459961c0,0.5200195-0.2001953,0.9301758-0.5996094,1.2299805
					c-0.4003906,0.300293-0.9404297,0.4501953-1.6201172,0.4501953c-0.7363281,0-1.4365234-0.2001953-2.1005859-0.6000977
					l0.1201172-0.2041016c0.6162109,0.3759766,1.2763672,0.5639648,1.9804688,0.5639648
					c0.6074219,0,1.0898438-0.1279297,1.4453125-0.3837891c0.3564453-0.2558594,0.5341797-0.6079102,0.5341797-1.0561523
					c0-0.4160156-0.15625-0.7456055-0.4677734-0.9897461s-0.8242188-0.434082-1.5361328-0.5703125
					c-0.7363281-0.144043-1.265625-0.3457031-1.5898438-0.605957c-0.3242188-0.2597656-0.4863281-0.6181641-0.4863281-1.0737305
					c0-0.472168,0.1904297-0.8500977,0.5703125-1.1342773c0.3798828-0.2836914,0.8896484-0.4257812,1.5302734-0.4257812
					C257.3141174,56.5120468,257.9947815,56.6722031,258.658844,56.9920273z"/>
				<path class="st18" d="M260.8785706,62.1219101c-0.5039062-0.5800781-0.7568359-1.3701172-0.7568359-2.3701172
					s0.2529297-1.7895508,0.7568359-2.3701172c0.5039062-0.5795898,1.1914062-0.8696289,2.0634766-0.8696289
					s1.5605469,0.2900391,2.0644531,0.8696289c0.5039062,0.5805664,0.7558594,1.3701172,0.7558594,2.3701172
					s-0.2519531,1.7900391-0.7558594,2.3701172s-1.1923828,0.8701172-2.0644531,0.8701172
					S261.3824768,62.7019882,260.8785706,62.1219101z M261.0523987,61.948082
					c0.4599609,0.5361328,1.0898438,0.8037109,1.8896484,0.8037109s1.4296875-0.2675781,1.890625-0.8037109
					c0.4599609-0.5361328,0.6894531-1.2680664,0.6894531-2.1962891c0-0.9277344-0.2294922-1.659668-0.6894531-2.1958008
					c-0.4609375-0.5361328-1.0908203-0.8041992-1.890625-0.8041992s-1.4296875,0.2680664-1.8896484,0.8041992
					s-0.6904297,1.2680664-0.6904297,2.1958008C260.361969,60.6800156,260.5924377,61.4119492,261.0523987,61.948082z"/>
				<path class="st18" d="M267.5260315,58.4197617h0.0244141c0.2558594-0.5678711,0.6738281-1.027832,1.2539062-1.3798828
					s1.234375-0.527832,1.9619141-0.527832v0.2397461c-0.8955078,0-1.6601562,0.2700195-2.2919922,0.8100586
					s-0.9482422,1.1899414-0.9482422,1.9501953v3.3598633h-0.2392578v-6.2402344h0.2392578V58.4197617z"/>
			</g>
			<g>
				<path class="st18" d="M177.2224274,62.0198593l0.1318359,0.1918945
					c-0.7519531,0.5205078-1.6318359,0.7802734-2.6396484,0.7802734c-1.2802734,0-2.2998047-0.4082031-3.0605469-1.2241211
					c-0.7597656-0.815918-1.1396484-1.9082031-1.1396484-3.2758789c0-1.3842773,0.3759766-2.4799805,1.1279297-3.2880859
					s1.7763672-1.2119141,3.0722656-1.2119141c1.0078125,0,1.8876953,0.2597656,2.6396484,0.7797852l-0.1318359,0.1918945
					c-0.7041016-0.487793-1.5400391-0.7319336-2.5078125-0.7319336c-1.2246094,0-2.1904297,0.3823242-2.8984375,1.1459961
					c-0.7080078,0.7641602-1.0615234,1.8022461-1.0615234,3.1142578c0,1.2958984,0.359375,2.3300781,1.0800781,3.1020508
					c0.7197266,0.7719727,1.6796875,1.1577148,2.8798828,1.1577148
					C175.6667633,62.7517929,176.5027008,62.5081406,177.2224274,62.0198593z"/>
				<path class="st18" d="M183.1501617,61.4920273h-0.0234375c-0.2080078,0.4638672-0.5205078,0.8300781-0.9365234,1.0976562
					c-0.4160156,0.2685547-0.8994141,0.4023438-1.4521484,0.4023438c-0.5996094,0-1.0800781-0.1640625-1.4394531-0.4921875
					c-0.3603516-0.3276367-0.5400391-0.7636719-0.5400391-1.3081055c0-0.7036133,0.3183594-1.2495117,0.9541016-1.6376953
					s1.5380859-0.5820312,2.7060547-0.5820312h0.7197266v-0.0600586c0-0.815918-0.1376953-1.3798828-0.4140625-1.6918945
					s-0.7783203-0.4682617-1.5058594-0.4682617c-0.7519531,0-1.4521484,0.1879883-2.0996094,0.5639648l-0.1201172-0.2036133
					c0.6875-0.4003906,1.4277344-0.6000977,2.2197266-0.6000977s1.3496094,0.1757812,1.6738281,0.527832
					s0.4863281,0.9760742,0.4863281,1.8720703v2.2797852c0,0.5600586,0.0595703,1.1201172,0.1796875,1.6801758h-0.2402344
					C183.2146149,62.3758163,183.1579742,61.9158554,183.1501617,61.4920273z M178.9987946,61.1917343
					c0,0.4799805,0.1552734,0.8603516,0.4677734,1.1401367c0.3115234,0.2802734,0.7353516,0.4199219,1.2714844,0.4199219
					c0.6962891,0,1.2705078-0.2255859,1.7226562-0.6777344c0.4511719-0.4521484,0.6777344-1.0263672,0.6777344-1.722168v-1.1401367
					h-0.7197266c-1.0878906,0-1.9306641,0.1723633-2.5263672,0.5161133
					C179.2966461,60.0721054,178.9987946,60.5598984,178.9987946,61.1917343z"/>
				<path class="st18" d="M189.2224274,58.9119492v3.9599609h-0.2402344v-3.9599609
					c0-0.7519531-0.1240234-1.2998047-0.3720703-1.644043c-0.2480469-0.34375-0.6435547-0.5161133-1.1875-0.5161133
					c-0.4648438,0-0.8808594,0.2460938-1.2480469,0.7382812c-0.3681641,0.4916992-0.5527344,1.1259766-0.5527344,1.9018555
					v3.4799805h-0.2392578v-6.2402344h0.2392578v1.4042969h0.0244141c0.1757812-0.4638672,0.4199219-0.8339844,0.7314453-1.1098633
					c0.3125-0.2763672,0.6601562-0.4140625,1.0449219-0.4140625c0.9355469,0,1.5039062,0.4760742,1.703125,1.4277344h0.0244141
					c0.1435547-0.4399414,0.3798828-0.7875977,0.7080078-1.0439453c0.328125-0.2558594,0.7158203-0.3837891,1.1640625-0.3837891
					c0.6162109,0,1.0693359,0.1958008,1.3623047,0.5878906c0.2919922,0.3920898,0.4375,0.9960938,0.4375,1.8120117v3.9599609
					h-0.2402344v-3.9599609c0-0.7519531-0.1240234-1.2998047-0.3720703-1.644043
					c-0.2480469-0.34375-0.6435547-0.5161133-1.1875-0.5161133c-0.5283203,0-0.9599609,0.1982422-1.2958984,0.5942383
					S189.2224274,58.2639999,189.2224274,58.9119492z"/>
				<path class="st18" d="M194.5261383,59.8118515c0.0078125,0.9199219,0.2460938,1.6401367,0.7138672,2.1601562
					c0.46875,0.5200195,1.1103516,0.7797852,1.9267578,0.7797852c0.703125,0,1.34375-0.1757812,1.9199219-0.527832
					l0.1201172,0.2158203c-0.6240234,0.3681641-1.3046875,0.5522461-2.0400391,0.5522461
					c-0.8886719,0-1.5908203-0.2900391-2.1064453-0.8701172s-0.7744141-1.3701172-0.7744141-2.3701172
					c0-1.015625,0.2441406-1.8100586,0.7324219-2.3818359s1.1640625-0.8579102,2.0283203-0.8579102
					c0.7998047,0,1.4199219,0.277832,1.859375,0.8339844c0.4404297,0.5561523,0.6601562,1.3378906,0.6601562,2.3457031v0.1201172
					H194.5261383z M194.5261383,59.5721054h4.7880859c-0.015625-0.9121094-0.2177734-1.6098633-0.6054688-2.0942383
					c-0.3886719-0.4838867-0.9423828-0.7260742-1.6621094-0.7260742c-0.7763672,0-1.3818359,0.2460938-1.8183594,0.7382812
					C194.7927399,57.9817734,194.5583649,58.6761093,194.5261383,59.5721054z"/>
				<path class="st18" d="M201.3903961,58.4197617h0.0234375c0.2558594-0.5678711,0.6738281-1.027832,1.2548828-1.3798828
					c0.5791016-0.3520508,1.2333984-0.527832,1.9619141-0.527832v0.2397461c-0.8964844,0-1.6601562,0.2700195-2.2919922,0.8100586
					c-0.6328125,0.5400391-0.9482422,1.1899414-0.9482422,1.9501953v3.3598633h-0.2402344v-6.2402344h0.2402344V58.4197617z"/>
				<path class="st18" d="M210.0661774,61.4920273h-0.0244141c-0.2080078,0.4638672-0.5195312,0.8300781-0.9355469,1.0976562
					c-0.4160156,0.2685547-0.9003906,0.4023438-1.4521484,0.4023438c-0.6005859,0-1.0800781-0.1640625-1.4404297-0.4921875
					c-0.359375-0.3276367-0.5400391-0.7636719-0.5400391-1.3081055c0-0.7036133,0.3183594-1.2495117,0.9541016-1.6376953
					c0.6367188-0.3881836,1.5380859-0.5820312,2.7060547-0.5820312h0.7197266v-0.0600586
					c0-0.815918-0.1376953-1.3798828-0.4130859-1.6918945c-0.2763672-0.3120117-0.7783203-0.4682617-1.5068359-0.4682617
					c-0.7519531,0-1.4511719,0.1879883-2.0996094,0.5639648l-0.1201172-0.2036133
					c0.6884766-0.4003906,1.4277344-0.6000977,2.2197266-0.6000977s1.3505859,0.1757812,1.6748047,0.527832
					c0.3232422,0.3520508,0.4853516,0.9760742,0.4853516,1.8720703v2.2797852c0,0.5600586,0.0605469,1.1201172,0.1806641,1.6801758
					h-0.2402344C210.1296539,62.3758163,210.0739899,61.9158554,210.0661774,61.4920273z M205.9138336,61.1917343
					c0,0.4799805,0.15625,0.8603516,0.4677734,1.1401367c0.3125,0.2802734,0.7363281,0.4199219,1.2724609,0.4199219
					c0.6962891,0,1.2695312-0.2255859,1.7216797-0.6777344s0.6777344-1.0263672,0.6777344-1.722168v-1.1401367h-0.7197266
					c-1.0878906,0-1.9296875,0.1723633-2.5253906,0.5161133C206.2116852,60.0721054,205.9138336,60.5598984,205.9138336,61.1917343z
					"/>
			</g>
			<g>
				<path class="st18" d="M302.138916,54.1121445v8.5195312h4.7998047v0.2402344h-5.0400391v-8.7597656H302.138916z"/>
				<path class="st18" d="M309.3029785,55.1917343v-1.3198242h0.2402344v1.3198242H309.3029785z M309.3029785,62.8719101v-6.2402344
					h0.2402344v6.2402344H309.3029785z"/>
				<path class="st18" d="M316.6477051,57.6639023v-1.0322266h0.2392578v2.0400391
					c0,0.6323242-0.2158203,1.1303711-0.6474609,1.4941406c-0.4326172,0.3642578-1.0166016,0.5458984-1.7519531,0.5458984
					c-0.6162109,0-1.1328125-0.1318359-1.5478516-0.3959961c-0.2480469,0.2084961-0.3720703,0.4404297-0.3720703,0.6962891
					c0,0.1279297,0.0253906,0.237793,0.0771484,0.3300781c0.0527344,0.0917969,0.1503906,0.1855469,0.2949219,0.2817383
					c0.1435547,0.0961914,0.3710938,0.1679688,0.6835938,0.2158203c0.3115234,0.0483398,0.7001953,0.0722656,1.1640625,0.0722656
					c0.8798828,0,1.5302734,0.1420898,1.9501953,0.4257812c0.4199219,0.2841797,0.6298828,0.722168,0.6298828,1.3139648
					c0,0.6079102-0.2646484,1.090332-0.7919922,1.4462891c-0.5283203,0.355957-1.2441406,0.5336914-2.1484375,0.5336914
					c-0.8242188,0-1.4794922-0.1640625-1.9677734-0.4916992c-0.4882812-0.328125-0.7324219-0.7641602-0.7324219-1.3081055
					c0-0.3759766,0.1220703-0.7402344,0.3662109-1.0917969c0.2441406-0.3520508,0.5498047-0.6240234,0.9179688-0.8164062
					c-0.4560547-0.1757812-0.6835938-0.4799805-0.6835938-0.9116211c0-0.3041992,0.1357422-0.5839844,0.4082031-0.840332
					c-0.4326172-0.3598633-0.6484375-0.8598633-0.6484375-1.5c0-0.6396484,0.2119141-1.159668,0.6357422-1.5595703
					c0.4238281-0.4003906,0.9726562-0.6000977,1.6445312-0.6000977c1.0957031,0,1.8476562,0.3837891,2.2558594,1.1518555
					H316.6477051z M317.1271973,63.6516953c0-0.199707-0.0263672-0.3779297-0.078125-0.5336914
					c-0.0517578-0.15625-0.1542969-0.3120117-0.3056641-0.4682617c-0.1523438-0.1557617-0.3925781-0.277832-0.7197266-0.3657227
					c-0.328125-0.0878906-0.7402344-0.1323242-1.2363281-0.1323242c-0.5917969,0-1.0644531-0.0395508-1.4160156-0.1196289
					c-0.3925781,0.1279297-0.7246094,0.3657227-0.9960938,0.7138672c-0.2724609,0.3481445-0.4082031,0.7099609-0.4082031,1.0859375
					c0,0.472168,0.2226562,0.8500977,0.6660156,1.1342773c0.4443359,0.2836914,1.0419922,0.4257812,1.7939453,0.4257812
					c0.8320312,0,1.4902344-0.15625,1.9746094-0.4682617C316.8850098,64.6121445,317.1271973,64.1878281,317.1271973,63.6516953z
					 M312.8977051,57.2859726c-0.3808594,0.355957-0.5703125,0.8178711-0.5703125,1.3857422
					c0,0.5683594,0.1894531,1.0102539,0.5703125,1.3261719c0.3798828,0.315918,0.9091797,0.4741211,1.5898438,0.4741211
					c0.6640625,0,1.1894531-0.1601562,1.578125-0.4799805c0.3876953-0.3198242,0.5820312-0.7602539,0.5820312-1.3203125
					c0-0.5834961-0.2089844-1.0498047-0.6240234-1.3979492c-0.4169922-0.3476562-0.96875-0.5219727-1.65625-0.5219727
					C313.7668457,56.7517929,313.2775879,56.9300156,312.8977051,57.2859726z"/>
				<path class="st18" d="M319.310791,58.1678085h0.0244141c0.2080078-0.4956055,0.5117188-0.8959961,0.9121094-1.199707
					c0.3994141-0.3041992,0.8476562-0.4560547,1.34375-0.4560547c0.7519531,0,1.2998047,0.2080078,1.6435547,0.6240234
					c0.3447266,0.4160156,0.5166016,1.0878906,0.5166016,2.015625v3.7202148h-0.2402344v-3.7202148
					c0-0.8637695-0.1484375-1.4794922-0.4443359-1.8476562s-0.7880859-0.5522461-1.4755859-0.5522461
					c-0.6318359,0-1.1699219,0.2583008-1.6142578,0.7739258c-0.4433594,0.5161133-0.6660156,1.1381836-0.6660156,1.8662109
					v3.4799805h-0.2392578v-9h0.2392578V58.1678085z"/>
				<path class="st18" d="M329.2111816,62.5838242l0.0839844,0.2280273
					c-0.3359375,0.1201172-0.6962891,0.1801758-1.0800781,0.1801758c-0.6162109,0-1.0400391-0.1279297-1.2724609-0.3842773
					c-0.2314453-0.2558594-0.3476562-0.7275391-0.3476562-1.4160156v-4.0795898h-1.5v-0.2402344h1.5v-2.2797852h0.2402344v2.2797852
					h2.5800781v0.2402344h-2.5800781v4.0795898c0,0.6401367,0.0976562,1.0600586,0.2939453,1.2602539
					c0.1953125,0.2001953,0.5576172,0.2998047,1.0859375,0.2998047
					C328.5588379,62.7517929,328.8908691,62.6961288,329.2111816,62.5838242z"/>
			</g>
			<g>
				<path class="st18" d="M366.5109863,58.3719101c0,1.4482422-0.3916016,2.5600586-1.1757812,3.3359375
					c-0.7841797,0.7763672-1.9121094,1.1640625-3.3837891,1.1640625h-1.8007812v-8.7597656h1.8007812
					c1.4951172,0,2.6298828,0.3618164,3.4013672,1.0859375C366.1252441,55.9222031,366.5109863,56.9798203,366.5109863,58.3719101z
					 M360.3908691,54.3518906v8.2797852h1.5605469c1.4160156,0,2.4892578-0.3618164,3.2216797-1.0859375
					c0.7324219-0.7236328,1.0976562-1.7817383,1.0976562-3.1738281c0-2.6801758-1.4394531-4.0200195-4.3193359-4.0200195
					H360.3908691z"/>
				<path class="st18" d="M374.442627,62.0198593l0.1328125,0.1918945c-0.7519531,0.5205078-1.6328125,0.7802734-2.640625,0.7802734
					c-1.2792969,0-2.2998047-0.4082031-3.0595703-1.2241211c-0.7607422-0.815918-1.140625-1.9082031-1.140625-3.2758789
					c0-1.3842773,0.3759766-2.4799805,1.1289062-3.2880859c0.7509766-0.8081055,1.7753906-1.2119141,3.0712891-1.2119141
					c1.0078125,0,1.8886719,0.2597656,2.640625,0.7797852l-0.1328125,0.1918945
					c-0.703125-0.487793-1.5400391-0.7319336-2.5078125-0.7319336c-1.2236328,0-2.1894531,0.3823242-2.8974609,1.1459961
					c-0.7080078,0.7641602-1.0625,1.8022461-1.0625,3.1142578c0,1.2958984,0.3603516,2.3300781,1.0800781,3.1020508
					s1.6796875,1.1577148,2.8798828,1.1577148C372.8869629,62.7517929,373.7229004,62.5081406,374.442627,62.0198593z"/>
				<path class="st18" d="M379.326416,54.448082h-0.0234375l-2.5683594,2.4716797l-0.1679688-0.1679688l2.7597656-2.6396484
					h0.2402344v8.7597656h-0.2402344V54.448082z"/>
				<path class="st18" d="M383.6105957,55.1438828l-0.1435547-0.1918945
					c0.3681641-0.2880859,0.7998047-0.5200195,1.2958984-0.6962891c0.4960938-0.1757812,0.9638672-0.2636719,1.4042969-0.2636719
					c0.7753906,0,1.3818359,0.2119141,1.8173828,0.6357422c0.4365234,0.4243164,0.6542969,1.012207,0.6542969,1.7641602
					c0,0.7680664-0.3417969,1.605957-1.0263672,2.5141602c-0.6835938,0.9077148-1.9052734,2.1416016-3.6660156,3.7016602v0.0239258
					h4.8007812v0.2402344h-5.1601562v-0.2402344c1.8554688-1.6318359,3.1220703-2.8994141,3.7978516-3.8037109
					c0.6757812-0.9038086,1.0136719-1.7158203,1.0136719-2.4360352c0-0.6879883-0.1962891-1.2197266-0.5878906-1.5961914
					c-0.3916016-0.3759766-0.9404297-0.5639648-1.6435547-0.5639648c-0.4082031,0-0.8505859,0.0839844-1.3261719,0.2519531
					C384.364502,54.6516953,383.9543457,54.8719101,383.6105957,55.1438828z"/>
				<path class="st18" d="M393.8469238,62.6800156h0.0234375l3.2646484-8.5678711h0.2636719l-3.3603516,8.7597656h-0.359375
					l-3.3603516-8.7597656h0.2636719L393.8469238,62.6800156z"/>
			</g>
		</g>
		<polygon class="st19" points="525.1916504,2.3074915 525.1916504,7.9768033 465.5427246,7.9768033 463.5383301,9.9811974 
			461.5339355,7.9768033 419.6013184,7.9768033 419.6013184,2.3074915 362.9084473,2.3074915 362.9084473,7.9768033 
			207.0027008,7.9768033 207.0027008,2.3074915 150.3098297,2.3074915 150.3098297,7.9768033 108.3772125,7.9768033 
			106.372818,9.9811974 104.3684235,7.9768033 44.7194977,7.9768033 44.7194977,2.3074915 2.199966,2.3074915 2.199966,7.9768033 
			2.199966,78.8428955 2.199966,84.512207 44.7194977,84.512207 44.7194977,78.8428955 104.3684235,78.8428955 
			106.372818,76.838501 108.3772125,78.8428955 150.3098297,78.8428955 150.3098297,84.512207 207.0027008,84.512207 
			207.0027008,78.8428955 362.9084473,78.8428955 362.9084473,84.512207 419.6013184,84.512207 419.6013184,78.8428955 
			461.5339355,78.8428955 463.5383301,76.838501 465.5427246,78.8428955 525.1916504,78.8428955 525.1916504,84.512207 
			567.7116699,84.512207 567.7116699,78.8428955 567.7116699,7.9768033 567.7116699,2.3074915 		"/>
	</g>
</g>
</svg>
