<?xml version="1.0" encoding="utf-8"?>
<!-- Generator: Adobe Illustrator 24.1.0, SVG Export Plug-In . SVG Version: 6.00 Build 0)  -->
<svg version="1.1" id="Layer_1" xmlns="http://www.w3.org/2000/svg" xmlns:xlink="http://www.w3.org/1999/xlink" x="0px" y="0px"
	 viewBox="0 0 595.3 841.9" style="enable-background:new 0 0 595.3 841.9;" xml:space="preserve">
<style type="text/css">
	.st0{fill:#FFFFFF;stroke:#000000;stroke-miterlimit:10;}
	.st1{fill:#FFFFFF;stroke:#ED1B23;stroke-miterlimit:10;}
	.st2{fill:none;stroke:#000000;stroke-miterlimit:10;}
	.st3{fill:none;stroke:#ED1B23;stroke-miterlimit:10;}
</style>
<g>
	<path class="st2" d="M92.2,671.2l-2-2l2-2l0,0v-650c0-7.8-6.3-14.2-14.2-14.2H21.3c-7.8,0-14.2,6.3-14.2,14.2v650l2,2l-2,2v153.9
		c0,7.8,6.3,14.2,14.2,14.2H78c7.8,0,14.2-6.3,14.2-14.2L92.2,671.2L92.2,671.2z"/>
	<g>
		<circle class="st3" cx="49.7" cy="45.5" r="5"/>
		<circle class="st3" cx="49.7" cy="85.1" r="5"/>
		<circle class="st3" cx="49.7" cy="124.8" r="5"/>
		<circle class="st3" cx="49.7" cy="164.5" r="5"/>
		<circle class="st3" cx="49.7" cy="204.2" r="5"/>
		<circle class="st3" cx="49.7" cy="243.9" r="5"/>
		<circle class="st3" cx="49.7" cy="283.6" r="5"/>
		<circle class="st3" cx="49.7" cy="323.3" r="5"/>
	</g>
</g>
<g>
	<circle class="st1" cx="51.9" cy="764.2" r="5"/>
	<circle class="st1" cx="51.9" cy="803.9" r="5"/>
</g>
<circle class="st1" cx="51.9" cy="724.5" r="5"/>
<g>
	<path class="st2" d="M182.2,671.2l-2-2l2-2l0,0v-650c0-7.8-6.3-14.2-14.2-14.2h-56.7c-7.8,0-14.2,6.3-14.2,14.2v650l2,2l-2,2v153.9
		c0,7.8,6.3,14.2,14.2,14.2H168c7.8,0,14.2-6.3,14.2-14.2L182.2,671.2L182.2,671.2z"/>
	<g>
		<circle class="st3" cx="139.7" cy="45.5" r="5"/>
		<circle class="st3" cx="139.7" cy="85.1" r="5"/>
		<circle class="st3" cx="139.7" cy="124.8" r="5"/>
		<circle class="st3" cx="139.7" cy="164.5" r="5"/>
		<circle class="st3" cx="139.7" cy="204.2" r="5"/>
		<circle class="st3" cx="139.7" cy="243.9" r="5"/>
		<circle class="st3" cx="139.7" cy="283.6" r="5"/>
		<circle class="st3" cx="139.7" cy="323.3" r="5"/>
	</g>
</g>
<g>
	<circle class="st1" cx="141.9" cy="764.2" r="5"/>
	<circle class="st1" cx="141.9" cy="803.9" r="5"/>
</g>
<circle class="st1" cx="141.9" cy="724.5" r="5"/>
</svg>
