<?xml version="1.0" encoding="utf-8"?>
<!-- Generator: Adobe Illustrator 26.0.1, SVG Export Plug-In . SVG Version: 6.00 Build 0)  -->
<svg version="1.1" id="Layer_1" xmlns="http://www.w3.org/2000/svg" xmlns:xlink="http://www.w3.org/1999/xlink" x="0px" y="0px"
	 viewBox="0 0 595.2755737 841.8898315" style="enable-background:new 0 0 595.2755737 841.8898315;" xml:space="preserve">
<style type="text/css">
	.st0{fill:none;stroke:#000000;stroke-miterlimit:10;}
	.st1{fill:none;stroke:#00AEEF;stroke-miterlimit:10;}
	.st2{fill:none;stroke:#00AEEF;stroke-miterlimit:10;stroke-dasharray:11.8028069,11.8028069;}
	.st3{fill:none;stroke:#00AEEF;stroke-miterlimit:10;stroke-dasharray:14.8976374,14.8976374;}
	.st4{fill:none;stroke:#00AEEF;stroke-miterlimit:10;stroke-dasharray:12.6336269,12.6336269;}
	.st5{fill:none;stroke:#00AEEF;stroke-miterlimit:10;stroke-dasharray:11.2650919,11.2650919;}
	.st6{fill:none;stroke:#00AEEF;stroke-miterlimit:10;stroke-dasharray:12.4589424,12.4589424;}
	.st7{fill:none;stroke:#00AEEF;stroke-miterlimit:10;stroke-dasharray:11.7938442,11.7938442;}
	.st8{fill:none;stroke:#00AEEF;stroke-miterlimit:10;stroke-dasharray:12.8398952,12.8398952;}
	.st9{fill:none;stroke:#00AEEF;stroke-miterlimit:10;stroke-dasharray:10.4341955,10.4341955;}
	.st10{fill:none;stroke:#00A651;stroke-miterlimit:10;}
	.st11{fill:none;stroke:#BE1E2D;stroke-miterlimit:10;}
	.st12{fill:none;stroke:#ED1C24;stroke-miterlimit:10;}
	.st13{fill:none;stroke:#00AEEF;stroke-width:0.25;stroke-miterlimit:10;}
</style>
<g>
	<path class="st13" d="M132.2537231,586.401001V585.75354l0.8271484-0.8037109
		c1.9912109-1.8945312,2.890625-2.9023438,2.9023438-4.078125c0-0.7910156-0.3837891-1.5224609-1.546875-1.5224609
		c-0.7080078,0-1.2958984,0.359375-1.6552734,0.6591797l-0.3359375-0.7431641
		c0.5400391-0.4560547,1.3076172-0.7919922,2.2070312-0.7919922c1.6787109,0,2.3867188,1.1513672,2.3867188,2.2666016
		c0,1.4394531-1.0439453,2.6025391-2.6865234,4.1855469l-0.6240234,0.5761719v0.0234375h3.5019531v0.8759766H132.2537231z"/>
	<path class="st13" d="M143.5906372,582.4195557c0,2.6503906-0.9833984,4.1132812-2.7099609,4.1132812
		c-1.5234375,0-2.5546875-1.4267578-2.5791016-4.0058594c0-2.6142578,1.1279297-4.0537109,2.7109375-4.0537109
		C142.6550903,578.4732666,143.5906372,579.9361572,143.5906372,582.4195557z M139.3572388,582.5386963
		c0,2.0273438,0.6240234,3.1787109,1.5830078,3.1787109c1.0791016,0,1.5947266-1.2597656,1.5947266-3.25
		c0-1.9189453-0.4912109-3.1787109-1.5830078-3.1787109C140.0291138,579.2886963,139.3572388,580.416626,139.3572388,582.5386963z"
		/>
	<path class="st13" d="M144.5662231,586.401001V585.75354l0.8271484-0.8037109
		c1.9912109-1.8945312,2.890625-2.9023438,2.9023438-4.078125c0-0.7910156-0.3837891-1.5224609-1.546875-1.5224609
		c-0.7080078,0-1.2958984,0.359375-1.6552734,0.6591797l-0.3359375-0.7431641
		c0.5400391-0.4560547,1.3076172-0.7919922,2.2070312-0.7919922c1.6787109,0,2.3867188,1.1513672,2.3867188,2.2666016
		c0,1.4394531-1.0439453,2.6025391-2.6865234,4.1855469l-0.6240234,0.5761719v0.0234375h3.5019531v0.8759766H144.5662231z"/>
	<path class="st13" d="M153.0125122,579.588501h-0.0234375l-1.3554688,0.7314453l-0.2041016-0.8027344l1.703125-0.9121094h0.8994141
		v7.7958984h-1.0195312V579.588501z"/>
	<path class="st13" d="M156.9627075,585.7769775c0-0.4433594,0.2998047-0.7548828,0.7197266-0.7548828
		c0.4189453,0,0.7070312,0.3115234,0.7070312,0.7548828c0,0.4326172-0.2753906,0.7558594-0.7197266,0.7558594
		C157.2498169,586.5328369,156.9627075,586.2095947,156.9627075,585.7769775z"/>
	<path class="st13" d="M161.6521606,579.588501h-0.0234375l-1.3554688,0.7314453l-0.2041016-0.8027344l1.703125-0.9121094h0.8994141
		v7.7958984h-1.0195312V579.588501z"/>
	<path class="st13" d="M167.8084106,579.588501h-0.0234375l-1.3554688,0.7314453l-0.2041016-0.8027344l1.703125-0.9121094h0.8994141
		v7.7958984h-1.0195312V579.588501z"/>
	<path class="st13" d="M171.758606,585.7769775c0-0.4433594,0.2998047-0.7548828,0.71875-0.7548828
		c0.4199219,0,0.7080078,0.3115234,0.7080078,0.7548828c0,0.4326172-0.2753906,0.7558594-0.7197266,0.7558594
		C172.0457153,586.5328369,171.758606,586.2095947,171.758606,585.7769775z"/>
	<path class="st13" d="M176.4480591,579.588501h-0.0234375l-1.3554688,0.7314453l-0.2041016-0.8027344l1.703125-0.9121094h0.8994141
		v7.7958984h-1.0195312V579.588501z"/>
	<path class="st13" d="M184.9675903,579.4927979h-2.9746094l-0.2998047,2.0029297
		c0.1796875-0.0244141,0.3476562-0.0478516,0.6357422-0.0478516c0.5996094,0,1.1992188,0.1318359,1.6787109,0.4199219
		c0.6123047,0.3476562,1.1152344,1.0195312,1.1152344,2.0029297c0,1.5224609-1.2109375,2.6621094-2.9023438,2.6621094
		c-0.8515625,0-1.5703125-0.2402344-1.9423828-0.4794922l0.2636719-0.8037109
		c0.3242188,0.1923828,0.9589844,0.4316406,1.6669922,0.4316406c0.9951172,0,1.8466797-0.6474609,1.8466797-1.6914062
		c-0.0117188-1.0068359-0.6835938-1.7265625-2.2421875-1.7265625c-0.4443359,0-0.7919922,0.0478516-1.0800781,0.0839844
		l0.5039062-3.7421875h3.7304688V579.4927979z"/>
</g>
<g>
	<path class="st12" d="M131.8110962,378.644165H66.6142426c-3.1310616,0-5.6692886-2.5382385-5.6692886-5.6693115v-59.5275574
		c0-3.1310425,2.5382271-5.669281,5.6692886-5.669281h65.1968536c3.1310577,0,5.6692963,2.5382385,5.6692963,5.669281v59.5275574
		C137.4803925,376.1059265,134.9421539,378.644165,131.8110962,378.644165z"/>
	<path class="st12" d="M245.1969147,378.644165h-65.1968384c-3.131073,0-5.6692963-2.5382385-5.6692963-5.6693115v-59.5275574
		c0-3.1310425,2.5382233-5.669281,5.6692963-5.669281h65.1968384c3.131073,0,5.6692963,2.5382385,5.6692963,5.669281v59.5275574
		C250.8662109,376.1059265,248.3279877,378.644165,245.1969147,378.644165z"/>
	<g>
		<circle class="st12" cx="127.5577316" cy="95.1795883" r="4.9606299"/>
		<circle class="st12" cx="127.5577316" cy="66.8331299" r="4.9606299"/>
		<circle class="st12" cx="127.5577316" cy="38.4866714" r="4.9606299"/>
	</g>
	<g>
		<circle class="st12" cx="155.9055786" cy="95.1795883" r="4.9606299"/>
		<circle class="st12" cx="155.9055786" cy="66.8331299" r="4.9606299"/>
		<circle class="st12" cx="155.9055786" cy="38.4866714" r="4.9606299"/>
	</g>
	<g>
		<circle class="st12" cx="184.2520447" cy="95.1795883" r="4.9606299"/>
		<circle class="st12" cx="184.2520447" cy="66.8331299" r="4.9606299"/>
		<circle class="st12" cx="184.2520447" cy="38.4866714" r="4.9606299"/>
	</g>
	<g>
		<path class="st13" d="M155.5339966,120.1262665v-9.390625c-0.4794922,0.6352539-1.2597656,1.4511719-2.0146484,2.0146484
			l-0.3964844-0.6474609c1.0556641-0.815918,2.0996094-2.0029297,2.7832031-3.0703125
			c0.6835938,1.0673828,1.7265625,2.2543945,2.7822266,3.0703125l-0.3955078,0.6474609
			c-0.7558594-0.5634766-1.5351562-1.3793945-2.015625-2.0146484v9.390625H155.5339966z"/>
	</g>
	<path class="st0" d="M94.9607697,15.8094826L17.0080719,119.746521c-1.8399954,2.453331-2.8346405,5.4372711-2.8346405,8.5039368
		v462.992157c0,7.8276367,6.3455696,14.1732178,14.1732292,14.1732178h255.1179047
		c7.8276367,0,14.1732178-6.3455811,14.1732178-14.1732178v-462.992157c0-3.0666656-0.9946594-6.0506058-2.8346558-8.5039368
		L216.8504486,15.8094826c-2.6766815-3.5689049-6.8774567-5.6692972-11.3385925-5.6692972h-99.2125015
		C101.8382263,10.1401854,97.6374435,12.2405777,94.9607697,15.8094826z"/>
</g>
</svg>
