<?xml version="1.0" encoding="utf-8"?>
<!-- Generator: Adobe Illustrator 25.4.1, SVG Export Plug-In . SVG Version: 6.00 Build 0)  -->
<svg version="1.1" id="Layer_1" xmlns="http://www.w3.org/2000/svg" xmlns:xlink="http://www.w3.org/1999/xlink" x="0px" y="0px"
	 viewBox="0 0 595.2755737 841.8898315" style="enable-background:new 0 0 595.2755737 841.8898315;" xml:space="preserve">
<style type="text/css">
	.st0{fill:#FFF200;stroke:#000000;stroke-width:0.2834646;stroke-miterlimit:10;}
	.st1{fill:none;stroke:#000000;stroke-width:0.2834646;stroke-miterlimit:10;}
	.st2{fill:none;stroke:#000000;stroke-width:0.7086614;stroke-miterlimit:10;}
	.st3{fill:none;stroke:#EC008C;stroke-width:0.7086614;stroke-miterlimit:10;}
	.st4{fill:none;stroke:#EC008C;stroke-width:0.2834646;stroke-miterlimit:10;}
	.st5{fill:none;stroke:#ED1C24;stroke-width:0.2834646;stroke-miterlimit:10;}
	.st6{fill:none;stroke:#00AEEF;stroke-width:0.2834646;stroke-miterlimit:10;}
	.st7{fill:none;stroke:#2E3192;stroke-width:0.7086614;stroke-miterlimit:10;}
	.st8{fill:none;stroke:#00A651;stroke-width:0.7086614;stroke-miterlimit:10;}
</style>
<g>
	<g>
		<circle class="st3" cx="79.3932495" cy="479.0551147" r="4.9606299"/>
		<circle class="st3" cx="79.3932495" cy="422.3622131" r="4.9606299"/>
	</g>
	<path class="st2" d="M79.3932648,620.7874146h-0.0000381c-9.3931808,0-17.0078545-7.6146851-17.0078545-17.0078735V297.6377869
		c0-9.3931885,7.6146736-17.0078735,17.0078545-17.0078735h0.0000381c9.3931808,0,17.0078583,7.6146851,17.0078583,17.0078735
		V603.779541C96.401123,613.1727295,88.7864456,620.7874146,79.3932648,620.7874146z"/>
</g>
<g>
	<g>
		<circle class="st3" cx="79.3932495" cy="167.2440948" r="4.9606299"/>
		<circle class="st3" cx="79.3932495" cy="110.551178" r="4.9606299"/>
	</g>
	<path class="st2" d="M79.3932648,184.2519684h-0.0000381c-9.3931808,0-17.0078545-7.6146698-17.0078545-17.0078583v-56.6929474
		c0-9.3931808,7.6146736-17.0078583,17.0078545-17.0078583h0.0000381c9.3931808,0,17.0078583,7.6146774,17.0078583,17.0078583
		v56.6929474C96.401123,176.6372986,88.7864456,184.2519684,79.3932648,184.2519684z"/>
</g>
<g>
	<g>
		<circle class="st3" cx="79.3932495" cy="260.7874146" r="4.9606299"/>
		<circle class="st3" cx="79.3932495" cy="204.0944824" r="4.9606299"/>
	</g>
	<path class="st2" d="M79.3932648,277.7952881h-0.0000381c-9.3931808,0-17.0078545-7.6146851-17.0078545-17.0078735v-56.6929474
		c0-9.3931732,7.6146736-17.0078583,17.0078545-17.0078583h0.0000381c9.3931808,0,17.0078583,7.6146851,17.0078583,17.0078583
		v56.6929474C96.401123,270.180603,88.7864456,277.7952881,79.3932648,277.7952881z"/>
</g>
<g>
	<g>
		<circle class="st3" cx="79.3932495" cy="73.7007904" r="4.9606299"/>
		<circle class="st3" cx="79.3932495" cy="17.0078735" r="4.9606299"/>
	</g>
	<path class="st2" d="M79.3932648,90.7086639h-0.0000381c-9.3931808,0-17.0078545-7.6146774-17.0078545-17.0078583V17.0078564
		C62.3853722,7.614677,70.0000458,0,79.3932266,0h0.0000381C88.7864456,0,96.401123,7.614677,96.401123,17.0078564v56.6929474
		C96.401123,83.0939865,88.7864456,90.7086639,79.3932648,90.7086639z"/>
</g>
<path class="st7" d="M31.2042942,623.6220703h-5.669342c-14.0897694,0-25.5117855-11.4220581-25.5117855-25.5117798l0-575.4331055
	C0.023167,10.1529131,10.1760798,0,22.7003326,0l11.3385811,0c12.5242538,0,22.677166,10.1529131,22.677166,22.677166v575.4331055
	C56.7160797,612.2000122,45.2940636,623.6220703,31.2042942,623.6220703z"/>
<g>
	<circle class="st8" cx="28.3696232" cy="472.6771545" r="4.9606299"/>
	<circle class="st8" cx="28.3696232" cy="415.9842529" r="4.9606299"/>
</g>
<g>
	<g>
		<path class="st8" d="M27.7823696,527.9527588h-0.0000153c-4.3052082,0-7.7952671-3.4900513-7.7952671-7.7952881v-18.4252014
			c0-4.3052063,3.4900589-7.7952576,7.7952671-7.7952576h0.0000153c4.3052082,0,7.7952671,3.4900513,7.7952671,7.7952576v18.4252014
			C35.5776367,524.4627075,32.0875778,527.9527588,27.7823696,527.9527588z"/>
		<path class="st8" d="M27.7823696,578.9763794h-0.0000153c-4.3052082,0-7.7952671-3.4900513-7.7952671-7.7952881v-18.4251709
			c0-4.3052368,3.4900589-7.7952881,7.7952671-7.7952881h0.0000153c4.3052082,0,7.7952671,3.4900513,7.7952671,7.7952881v18.4251709
			C35.5776367,575.4863281,32.0875778,578.9763794,27.7823696,578.9763794z"/>
	</g>
	<g>
		<path class="st8" d="M27.7823696,343.7007751h-0.0000153c-4.3052082,0-7.7952671-3.4900513-7.7952671-7.7952576v-18.4252014
			c0-4.3052063,3.4900589-7.7952881,7.7952671-7.7952881h0.0000153c4.3052082,0,7.7952671,3.4900818,7.7952671,7.7952881v18.4252014
			C35.5776367,340.2107239,32.0875778,343.7007751,27.7823696,343.7007751z"/>
		<path class="st8" d="M27.7823696,394.7243958h-0.0000153c-4.3052082,0-7.7952671-3.4900513-7.7952671-7.7952576v-18.4252014
			c0-4.3052063,3.4900589-7.7952881,7.7952671-7.7952881h0.0000153c4.3052082,0,7.7952671,3.4900818,7.7952671,7.7952881v18.4252014
			C35.5776367,391.2343445,32.0875778,394.7243958,27.7823696,394.7243958z"/>
	</g>
</g>
<g>
	<circle class="st8" cx="47.9987679" cy="42.5689316" r="4.5354333"/>
	<circle class="st8" cx="8.7051668" cy="42.5689316" r="4.5354333"/>
</g>
<path class="st8" d="M27.7823696,202.7451935h-0.0000153c-4.3052082,0-7.7952671-3.4900513-7.7952671-7.7952576v-18.4252167
	c0-4.3052063,3.4900589-7.7952728,7.7952671-7.7952728h0.0000153c4.3052082,0,7.7952671,3.4900665,7.7952671,7.7952728v18.4252167
	C35.5776367,199.2551422,32.0875778,202.7451935,27.7823696,202.7451935z"/>
</svg>
