<?xml version="1.0" encoding="utf-8"?>
<!-- Generator: Adobe Illustrator 26.4.1, SVG Export Plug-In . SVG Version: 6.00 Build 0)  -->
<svg version="1.1" xmlns="http://www.w3.org/2000/svg" xmlns:xlink="http://www.w3.org/1999/xlink" x="0px" y="0px"
	 viewBox="0 0 1275.5905762 850.3936768" style="enable-background:new 0 0 1275.5905762 850.3936768;" xml:space="preserve">
<style type="text/css">
	.st0{opacity:0.56;}
	.st1{fill:#00AEEF;}
	.st2{fill:#F15A29;}
	.st3{fill:#FFF200;}
	.st4{fill:#00A651;}
	.st5{fill:#C49A6C;}
	.st6{fill:none;stroke:#C49A6C;stroke-width:0.2834646;stroke-miterlimit:10;stroke-dasharray:2.8346457,2.8346457;}
	.st7{fill:none;stroke:#C49A6C;stroke-miterlimit:10;stroke-dasharray:2.8346457,2.8346457;}
	.st8{fill:none;stroke:#00AEEF;stroke-width:0.7086614;stroke-miterlimit:10;}
	.st9{fill:none;stroke:#F7941D;stroke-width:0.7086614;stroke-miterlimit:10;}
	.st10{fill:none;stroke:#F7941D;stroke-width:0.7086614;stroke-miterlimit:10;stroke-dasharray:2.8346457,2.8346457;}
	.st11{fill:none;stroke:#00A14B;stroke-width:0.7086614;stroke-miterlimit:10;}
	.st12{fill:none;stroke:#EC008C;stroke-width:0.7086614;stroke-miterlimit:10;}
	.st13{fill:none;stroke:#000000;stroke-miterlimit:10;}
	.st14{fill:none;stroke:#F7941D;stroke-width:0.7086614;stroke-miterlimit:10;stroke-dasharray:2.7910357,2.7910357;}
	.st15{fill:none;stroke:#F7941D;stroke-width:0.7086614;stroke-miterlimit:10;stroke-dasharray:2.7968504,2.7968504;}
	.st16{fill:none;stroke:#2E3192;stroke-width:0.7086614;stroke-miterlimit:10;}
	.st17{fill:none;stroke:#00A14B;stroke-width:0.2834646;}
	.st18{fill:none;stroke:#00A14B;stroke-width:0.2834646;stroke-miterlimit:10;}
	.st19{fill:none;stroke:#000000;stroke-width:0.7086614;stroke-miterlimit:10;}
</style>
<g id="PCBa">
</g>
<g id="よこなが">
	<g>
		<path class="st19" d="M525.7680664,23.1859951v5.6693115h-59.6488953l-2.0043945,2.0043945l-2.0043945-2.0043945h-41.9326172
			V14.6820898c0-6.262146-5.0766602-11.338562-11.3383789-11.338562h-34.0161133
			c-6.262207,0-11.3383789,5.076416-11.3383789,11.338562v14.1732168H207.5791321V14.6820898
			c0-6.262146-5.0761719-11.338562-11.3383789-11.338562h-34.015625c-6.262207,0-11.3388672,5.076416-11.3388672,11.338562
			v14.1732168h-41.9326248l-2.0043945,2.0043945l-2.0043945-2.0043945H45.2959213v-5.6693115H2.776392v5.6693115v70.8661499
			v5.6693115h42.5195312v-5.6693115h59.6489258l2.0043945-2.0043945l2.0043945,2.0043945h41.9326248v5.6693115h56.6928711
			v-5.6693115h155.9057617v5.6693115h56.6928711v-5.6693115h41.9326172l2.0043945-2.0043945l2.0043945,2.0043945h59.6488953
			v5.6693115h42.5200195v-5.6693115V28.8553066v-5.6693115H525.7680664z"/>
	</g>
	<g>
		<path class="st18" d="M320.1123352,69.967247c0.9267578,0,1.6083984,0.2348633,2.0449219,0.7050781
			s0.6542969,1.2016602,0.6542969,2.1948242v4.5h-0.1992188v-4.5c0-0.6264648-0.0878906-1.1381836-0.265625-1.534668
			c-0.1757812-0.3969727-0.4472656-0.6899414-0.8144531-0.8803711c-0.3671875-0.1899414-0.8398438-0.284668-1.4199219-0.284668
			s-1.0546875,0.0947266-1.4257812,0.284668c-0.3691406,0.1904297-0.640625,0.4833984-0.8144531,0.8803711
			c-0.1738281,0.3964844-0.2597656,0.9082031-0.2597656,1.534668v4.5h-0.2001953v-4.5
			c0-0.9931641,0.21875-1.7246094,0.6552734-2.1948242S319.1855774,69.967247,320.1123352,69.967247z"/>
		<path class="st18" d="M315.4814758,70.0673447V75.26754h-0.1992188v-1.1103516h-0.0195312
			c-0.1542969,0.3735352-0.4023438,0.668457-0.7460938,0.8852539c-0.3427734,0.2163086-0.7539062,0.324707-1.234375,0.324707
			c-0.6328125,0-1.1083984-0.1948242-1.4257812-0.5849609c-0.3164062-0.3896484-0.4746094-0.9614258-0.4746094-1.7148438v-3
			h0.2001953v3c0,0.706543,0.1396484,1.2333984,0.4199219,1.5800781s0.7070312,0.5200195,1.2802734,0.5200195
			c0.4003906,0,0.75-0.0820312,1.0498047-0.2451172c0.2998047-0.1635742,0.5341797-0.3950195,0.7001953-0.6948242
			c0.1660156-0.300293,0.25-0.6538086,0.25-1.0600586v-3.1000977H315.4814758z"/>
		<path class="st18" d="M309.1621399,76.7275009c0.09375,0,0.1738281,0.0332031,0.2402344,0.0996094
			c0.0673828,0.0668945,0.1005859,0.1469727,0.1005859,0.2402344s-0.0332031,0.1733398-0.1005859,0.2402344
			c-0.0664062,0.0664062-0.1464844,0.0996094-0.2402344,0.0996094c-0.0927734,0-0.1728516-0.0332031-0.2392578-0.0996094
			c-0.0664062-0.0668945-0.1005859-0.1469727-0.1005859-0.2402344s0.0341797-0.1733398,0.1005859-0.2402344
			C308.9892883,76.760704,309.0693665,76.7275009,309.1621399,76.7275009z M309.2627258,70.0673447V75.26754h-0.2001953v-5.2001953
			H309.2627258z"/>
		<path class="st18" d="M305.3721008,70.0673447l2.2001953,5.2001953h-0.2197266l-2.1201172-5.0302734h-0.0205078
			L303.092804,75.26754h-0.2207031l2.2001953-5.2001953H305.3721008z"/>
		<path class="st18" d="M299.842804,69.967247c0.7734375,0,1.3691406,0.2333984,1.7890625,0.7001953
			c0.4199219,0.4663086,0.6308594,1.1333008,0.6308594,2c0,0.8398438-0.2089844,1.5-0.625,1.9799805
			c-0.4169922,0.4799805-0.9921875,0.7197266-1.7255859,0.7197266c-0.7001953,0-1.2333984-0.2231445-1.6005859-0.6699219
			c-0.3652344-0.4467773-0.5488281-1.0966797-0.5488281-1.949707c0-0.0268555,0-0.043457,0-0.050293s0-0.0234375,0-0.0498047
			h4.3994141v0.199707h-4.2998047l0.0996094-0.0996094c0,0.7998047,0.1660156,1.4033203,0.4951172,1.8100586
			c0.3300781,0.40625,0.8154297,0.6098633,1.4550781,0.6098633c0.6728516,0,1.2001953-0.21875,1.5800781-0.6552734
			s0.5693359-1.0517578,0.5693359-1.8447266c0-0.8134766-0.1914062-1.4335938-0.5742188-1.8598633
			c-0.3828125-0.4267578-0.9316406-0.6401367-1.6445312-0.6401367c-0.3398438,0-0.6601562,0.0463867-0.9609375,0.1401367
			c-0.2998047,0.0932617-0.5664062,0.2329102-0.7998047,0.4199219l-0.1201172-0.1601562
			c0.2470703-0.1933594,0.5322266-0.3417969,0.8554688-0.4448242
			C299.1406555,70.0190048,299.4824524,69.967247,299.842804,69.967247z"/>
		<path class="st18" d="M296.2920227,70.0673447V75.26754h-0.1992188v-1.5h-0.0205078
			c-0.1259766,0.3198242-0.3154297,0.5996094-0.5654297,0.8398438c-0.25,0.2397461-0.5390625,0.4267578-0.8691406,0.5600586
			s-0.6787109,0.199707-1.0449219,0.199707v-0.199707c0.4589844,0,0.8789062-0.1035156,1.2597656-0.3100586
			c0.3798828-0.206543,0.6816406-0.4833984,0.9042969-0.8300781c0.2236328-0.3466797,0.3359375-0.7333984,0.3359375-1.1601562
			v-2.7998047H296.2920227z"/>
		<path class="st18" d="M291.1924133,69.967247c0.3261719,0,0.6464844,0.0385742,0.9599609,0.1152344
			s0.5898438,0.1816406,0.8300781,0.3149414l-0.1005859,0.1796875c-0.2265625-0.1264648-0.4863281-0.2265625-0.7792969-0.2998047
			s-0.5966797-0.1098633-0.9101562-0.1098633c-0.5400391,0-0.9589844,0.1064453-1.2558594,0.3198242
			c-0.2958984,0.2133789-0.4443359,0.5131836-0.4443359,0.8999023c0,0.300293,0.0810547,0.5302734,0.2451172,0.6899414
			c0.1630859,0.1601562,0.375,0.2836914,0.6347656,0.3701172c0.2597656,0.0869141,0.5400391,0.1635742,0.8398438,0.2299805
			c0.2871094,0.0668945,0.5664062,0.1450195,0.8398438,0.2353516c0.2734375,0.0898438,0.4990234,0.2231445,0.6757812,0.3999023
			c0.1757812,0.1762695,0.2646484,0.4213867,0.2646484,0.7348633c0,0.4130859-0.1611328,0.7368164-0.4853516,0.9702148
			c-0.3222656,0.2329102-0.7617188,0.3496094-1.3144531,0.3496094c-0.3134766,0-0.6318359-0.0366211-0.9550781-0.1098633
			s-0.5849609-0.1699219-0.7851562-0.2900391l0.0996094-0.1796875c0.1806641,0.1132812,0.4238281,0.2045898,0.7304688,0.2749023
			c0.3066406,0.0698242,0.609375,0.1049805,0.9101562,0.1049805c0.5058594,0,0.9003906-0.0986328,1.1796875-0.2949219
			c0.2802734-0.1967773,0.4199219-0.4716797,0.4199219-0.8251953c0-0.2597656-0.0761719-0.4633789-0.2304688-0.6098633
			c-0.1523438-0.1469727-0.3525391-0.2602539-0.5996094-0.340332c-0.2460938-0.0795898-0.5136719-0.1533203-0.7998047-0.2197266
			c-0.2197266-0.0537109-0.4414062-0.1118164-0.6650391-0.175293c-0.2226562-0.0629883-0.4248047-0.1484375-0.6054688-0.2548828
			c-0.1796875-0.1064453-0.3242188-0.2451172-0.4345703-0.4150391s-0.1650391-0.3847656-0.1650391-0.6450195
			c0-0.4467773,0.1679688-0.7949219,0.5058594-1.0449219C290.1338196,70.092247,290.5986633,69.967247,291.1924133,69.967247z"/>
		<path class="st18" d="M286.5322571,69.967247c0.5400391,0,0.96875,0.1401367,1.2851562,0.4199219
			c0.3164062,0.2802734,0.4746094,0.6567383,0.4746094,1.1303711c0,0.5864258-0.2509766,1.0332031-0.7539062,1.3398438
			c-0.5039062,0.3066406-1.2324219,0.4599609-2.1855469,0.4599609h-0.9599609c0,0.6733398,0.1298828,1.1499023,0.3896484,1.4301758
			c0.2597656,0.2797852,0.7070312,0.4199219,1.3398438,0.4199219c0.3808594,0,0.7285156-0.0449219,1.0449219-0.1352539
			c0.3164062-0.0898438,0.6123047-0.2314453,0.8847656-0.4248047l0.1113281,0.1601562
			c-0.2939453,0.206543-0.6113281,0.3579102-0.9511719,0.4545898s-0.703125,0.1450195-1.0898438,0.1450195
			c-0.4589844,0-0.8310547-0.0698242-1.1152344-0.2099609c-0.2832031-0.1396484-0.4892578-0.3598633-0.6191406-0.659668
			c-0.1308594-0.300293-0.1953125-0.6938477-0.1953125-1.1801758v-3.25h0.2001953v1.0400391h0.0097656
			c0.1865234-0.3466797,0.4736328-0.6235352,0.8603516-0.8300781S286.0722961,69.967247,286.5322571,69.967247z
			 M286.5322571,70.1674423c-0.4003906,0-0.7617188,0.0800781-1.0849609,0.2397461
			c-0.3232422,0.1601562-0.5800781,0.3769531-0.7705078,0.6503906c-0.1894531,0.2729492-0.2841797,0.5761719-0.2841797,0.909668
			v1.1499023h0.9599609c0.9003906,0,1.5820312-0.1367188,2.0449219-0.409668
			c0.4628906-0.2734375,0.6953125-0.6699219,0.6953125-1.1899414c0-0.4135742-0.1386719-0.7416992-0.4160156-0.9853516
			C287.4013977,70.2890244,287.0185852,70.1674423,286.5322571,70.1674423z"/>
		<path class="st18" d="M282.3135071,70.0673447v7.2998047h-0.2011719v-7.2998047H282.3135071z"/>
		<path class="st18" d="M273.7822571,69.967247c0.7402344,0,1.3867188,0.1552734,1.9414062,0.465332
			c0.5527344,0.3095703,0.9824219,0.7460938,1.2890625,1.3095703s0.4609375,1.2216797,0.4609375,1.9750977
			s-0.1542969,1.4116211-0.4609375,1.9750977s-0.7363281,1-1.2890625,1.3100586
			c-0.5546875,0.3100586-1.2011719,0.4648438-1.9414062,0.4648438c-0.8652344,0-1.6357422-0.2167969-2.3085938-0.6499023
			l0.109375-0.1699219c0.6464844,0.4130859,1.3798828,0.6201172,2.1992188,0.6201172
			c0.7070312,0,1.3222656-0.1469727,1.8457031-0.4404297c0.5234375-0.2929688,0.9277344-0.7045898,1.2148438-1.2348633
			c0.2871094-0.5297852,0.4296875-1.1547852,0.4296875-1.875c0-0.7133789-0.1425781-1.3364258-0.4296875-1.8701172
			c-0.2871094-0.5332031-0.6914062-0.9462891-1.2148438-1.2397461s-1.1386719-0.4399414-1.8457031-0.4399414
			c-0.8193359,0-1.5527344,0.206543-2.1992188,0.6201172l-0.109375-0.1704102
			C272.1465149,70.1840439,272.9170227,69.967247,273.7822571,69.967247z"/>
		<path class="st18" d="M268.1123352,69.967247c0.4873047,0,0.9101562,0.1098633,1.2705078,0.3300781
			s0.6376953,0.5332031,0.8349609,0.9399414s0.2949219,0.8833008,0.2949219,1.4301758
			c0,0.5532227-0.0976562,1.03125-0.2949219,1.4350586c-0.1972656,0.4033203-0.4746094,0.7148438-0.8349609,0.9350586
			c-0.3603516,0.2197266-0.7832031,0.3295898-1.2705078,0.3295898c-0.4921875,0-0.9179688-0.1098633-1.2744141-0.3295898
			c-0.3564453-0.2202148-0.6337891-0.5317383-0.8300781-0.9350586c-0.1962891-0.4038086-0.2949219-0.8818359-0.2949219-1.4350586
			c0-0.546875,0.0986328-1.0234375,0.2949219-1.4301758s0.4736328-0.7197266,0.8300781-0.9399414
			S267.6201477,69.967247,268.1123352,69.967247z M268.1123352,70.1674423c-0.6796875,0-1.2167969,0.2250977-1.609375,0.6748047
			c-0.3935547,0.4501953-0.5898438,1.0585938-0.5898438,1.8251953c0,0.7729492,0.1962891,1.3833008,0.5898438,1.8300781
			c0.3925781,0.4462891,0.9296875,0.6699219,1.609375,0.6699219s1.2167969-0.2236328,1.6103516-0.6699219
			c0.3935547-0.4467773,0.5898438-1.0571289,0.5898438-1.8300781c0-0.7666016-0.1962891-1.375-0.5898438-1.8251953
			C269.3291321,70.39254,268.7920227,70.1674423,268.1123352,70.1674423z"/>
		<path class="st18" d="M264.6533508,70.0673447l-0.9199219,7.2998047h-0.3007812l-2.4697266-6.3295898h-0.0205078
			l-2.46875,6.3295898h-0.3007812l-0.9199219-7.2998047h0.2099609l0.8798828,7.0400391h0.0097656l2.4404297-6.2402344h0.3193359
			l2.4414062,6.2402344h0.0097656l0.8789062-7.0400391H264.6533508z"/>
		<path class="st18" d="M253.7929993,69.967247c0.2666016,0,0.5322266,0.0117188,0.7949219,0.0351562
			s0.5654297,0.0585938,0.9052734,0.1049805v7.2197266c-0.3066406,0.0400391-0.5605469,0.0703125-0.7597656,0.090332
			c-0.2011719,0.0200195-0.3740234,0.0332031-0.5205078,0.0400391c-0.1464844,0.0063477-0.2861328,0.0097656-0.4199219,0.0097656
			c-0.9335938,0-1.6337891-0.1547852-2.1005859-0.4648438s-0.6992188-0.7719727-0.6992188-1.3852539
			c0-0.4399414,0.1191406-0.793457,0.359375-1.0595703c0.2402344-0.2670898,0.5996094-0.4570312,1.0800781-0.5703125V73.967247
			c-0.6269531-0.1064453-1.0898438-0.3149414-1.3896484-0.625s-0.4501953-0.7348633-0.4501953-1.2749023
			c0-0.7133789,0.2617188-1.2416992,0.7851562-1.5849609S252.7060852,69.967247,253.7929993,69.967247z M255.4629211,70.307579
			c-0.3330078-0.046875-0.6298828-0.0820312-0.8896484-0.1054688s-0.5205078-0.034668-0.7802734-0.034668
			c-1.0341797,0-1.7919922,0.1547852-2.2753906,0.4648438s-0.7246094,0.7885742-0.7246094,1.4350586
			c0,0.6201172,0.2246094,1.0751953,0.6748047,1.3652344c0.4501953,0.2895508,1.1582031,0.4345703,2.125,0.4345703h1.7998047
			v0.2001953h-1.7998047c-0.8134766,0-1.4160156,0.1264648-1.8105469,0.3798828
			c-0.3925781,0.253418-0.5898438,0.6435547-0.5898438,1.1699219c0,0.5537109,0.2148438,0.9667969,0.6455078,1.2402344
			c0.4296875,0.2734375,1.0810547,0.4101562,1.9550781,0.4101562c0.1337891,0,0.2714844-0.003418,0.4150391-0.0102539
			c0.1425781-0.0068359,0.3144531-0.0200195,0.5146484-0.0400391s0.4501953-0.0498047,0.75-0.0898438l-0.1796875,0.1401367
			v-7.1000977L255.4629211,70.307579z"/>
		<path class="st18" d="M248.9424133,70.0673447v7.2998047h-0.1992188v-7.2998047H248.9424133z"/>
		<path class="st18" d="M387.0517883,56.26754c-0.8398438,0.6728516-1.5419922,1.2631836-2.1054688,1.7700195
			c-0.5634766,0.5063477-1.0136719,0.9580078-1.3496094,1.3549805c-0.3369141,0.3964844-0.5771484,0.7612305-0.7207031,1.0947266
			c-0.1425781,0.3334961-0.2148438,0.6601562-0.2148438,0.9799805c0,1.2001953,0.6835938,1.800293,2.0507812,1.800293
			c0.8320312,0,1.609375-0.253418,2.3291016-0.7602539l0.1201172,0.1601562
			c-0.7333984,0.5332031-1.5498047,0.7998047-2.4492188,0.7998047c-0.7402344,0-1.3007812-0.1699219-1.6806641-0.5097656
			c-0.3798828-0.340332-0.5693359-0.8369141-0.5693359-1.4902344c0-0.3334961,0.0693359-0.668457,0.2089844-1.0048828
			c0.140625-0.3369141,0.3720703-0.7036133,0.6953125-1.1000977s0.7578125-0.8447266,1.3046875-1.3447266
			s1.2236328-1.0771484,2.0302734-1.7299805V56.26754h-4.3398438v-0.2001953h4.6904297V56.26754z"/>
		<path class="st18" d="M378.4619446,55.967247c0.8867188,0,1.5585938,0.3183594,2.0146484,0.9550781
			s0.6845703,1.5683594,0.6845703,2.7949219c0,1.2333984-0.2285156,2.1665039-0.6845703,2.800293
			c-0.4560547,0.6333008-1.1279297,0.949707-2.0146484,0.949707s-1.5585938-0.3164062-2.015625-0.949707
			c-0.4570312-0.6337891-0.6845703-1.5668945-0.6845703-2.800293c0-1.2265625,0.2275391-2.1582031,0.6845703-2.7949219
			S377.5752258,55.967247,378.4619446,55.967247z M378.4619446,56.1674423c-0.8271484,0-1.4501953,0.2983398-1.8710938,0.8950195
			c-0.4199219,0.5966797-0.6289062,1.4814453-0.6289062,2.6547852s0.2089844,2.0585938,0.6289062,2.6552734
			c0.4208984,0.5961914,1.0439453,0.8950195,1.8710938,0.8950195c0.8261719,0,1.4492188-0.2988281,1.8691406-0.8950195
			c0.4199219-0.5966797,0.6308594-1.4819336,0.6308594-2.6552734s-0.2109375-2.0581055-0.6308594-2.6547852
			S379.2881165,56.1674423,378.4619446,56.1674423z"/>
		<path class="st18" d="M374.6513977,56.26754c-0.8398438,0.6728516-1.5410156,1.2631836-2.1054688,1.7700195
			c-0.5625,0.5063477-1.0126953,0.9580078-1.3496094,1.3549805c-0.3359375,0.3964844-0.5761719,0.7612305-0.7197266,1.0947266
			s-0.2158203,0.6601562-0.2158203,0.9799805c0,1.2001953,0.6835938,1.800293,2.0507812,1.800293
			c0.8330078,0,1.609375-0.253418,2.3300781-0.7602539l0.1191406,0.1601562
			c-0.7324219,0.5332031-1.5488281,0.7998047-2.4492188,0.7998047c-0.7402344,0-1.3007812-0.1699219-1.6796875-0.5097656
			c-0.3808594-0.340332-0.5703125-0.8369141-0.5703125-1.4902344c0-0.3334961,0.0703125-0.668457,0.2099609-1.0048828
			c0.1396484-0.3369141,0.3720703-0.7036133,0.6943359-1.1000977c0.3242188-0.3964844,0.7587891-0.8447266,1.3056641-1.3447266
			c0.5458984-0.5,1.2236328-1.0771484,2.0302734-1.7299805V56.26754h-4.3398438v-0.2001953h4.6894531V56.26754z"/>
		<path class="st18" d="M365.2607727,56.0673447v7.0297852h0.0205078l3.0595703-1.7895508l0.1201172,0.159668l-3.2001953,1.8999023
			h-0.1992188v-7.2998047H365.2607727z"/>
		<path class="st18" d="M361.4111633,56.0273056c0.09375,0,0.1738281,0.0336914,0.2402344,0.1000977
			s0.0996094,0.1464844,0.0996094,0.2397461s-0.0332031,0.1733398-0.0996094,0.2402344
			c-0.0664062,0.0664062-0.1464844,0.1000977-0.2402344,0.1000977c-0.0927734,0-0.1728516-0.0336914-0.2402344-0.1000977
			c-0.0664062-0.0668945-0.0996094-0.1469727-0.0996094-0.2402344s0.0332031-0.1733398,0.0996094-0.2397461
			C361.2383118,56.060997,361.3183899,56.0273056,361.4111633,56.0273056z"/>
		<path class="st18" d="M358.0010071,56.0673447c-0.2597656,0.6933594-0.5273438,1.3613281-0.8046875,2.0048828
			c-0.2763672,0.6435547-0.5615234,1.2602539-0.8554688,1.8500977c-0.2929688,0.5898438-0.5957031,1.1533203-0.9101562,1.6899414
			c-0.3125,0.5366211-0.6357422,1.0483398-0.96875,1.5351562v0.0200195h4.8496094v0.199707h-5.0996094v-0.199707
			c0.265625-0.3867188,0.5263672-0.7919922,0.7792969-1.215332c0.2539062-0.4233398,0.5019531-0.8613281,0.7451172-1.3149414
			c0.2431641-0.453125,0.4814453-0.9267578,0.7148438-1.4199219s0.4599609-1.0014648,0.6806641-1.5249023
			c0.2197266-0.5234375,0.4355469-1.0649414,0.6494141-1.625H358.0010071z"/>
		<path class="st18" d="M349.561554,56.0673447v7.2998047h-0.1992188v-7.2998047H349.561554z M349.4619446,59.8671494v0.2001953
			h-4.9003906v-0.2001953H349.4619446z M344.6611633,56.0673447v7.2998047h-0.1992188v-7.2998047H344.6611633z"/>
		<path class="st18" d="M342.2617493,63.3271103c-0.2392578,0.0336914-0.4648438,0.0600586-0.6748047,0.0800781
			s-0.4140625,0.0351562-0.609375,0.0449219c-0.1972656,0.0102539-0.3925781,0.0151367-0.5859375,0.0151367
			c-1.0263672,0-1.7714844-0.1582031-2.234375-0.4750977c-0.4638672-0.3164062-0.6953125-0.824707-0.6953125-1.5249023
			c0-0.699707,0.2314453-1.2084961,0.6953125-1.5249023c0.4628906-0.3168945,1.2080078-0.4750977,2.234375-0.4750977
			c0.2675781,0,0.5390625,0.0102539,0.8154297,0.0302734s0.6015625,0.0532227,0.9746094,0.0996094l-0.0302734,0.2001953
			c-0.3662109-0.046875-0.6845703-0.0800781-0.9550781-0.1000977c-0.2695312-0.0200195-0.5371094-0.0297852-0.8046875-0.0297852
			c-0.9726562,0-1.671875,0.1416016-2.0947266,0.4248047s-0.6357422,0.7416992-0.6357422,1.375s0.2128906,1.0917969,0.6357422,1.375
			s1.1220703,0.425293,2.0947266,0.425293c0.2675781,0,0.5429688-0.0102539,0.8300781-0.0302734
			s0.6230469-0.0566406,1.0097656-0.1098633l-0.1699219,0.1000977v-7.1601562h0.2001953V63.3271103z M337.4912415,56.0673447
			l4.7011719,3.6298828h-0.3300781l-4.7011719-3.6298828H337.4912415z"/>
		<path class="st18" d="M336.061554,56.0673447l-0.9199219,7.2998047h-0.2998047l-2.4697266-6.3295898h-0.0205078
			l-2.4697266,6.3295898h-0.3007812l-0.9199219-7.2998047h0.2109375l0.8789062,7.0400391h0.0107422l2.4404297-6.2402344h0.3193359
			l2.4404297,6.2402344h0.0097656l0.8798828-7.0400391H336.061554z"/>
		<path class="st18" d="M322.4424133,55.967247c0.8789062,0,1.6230469,0.2333984,2.2294922,0.7001953l-0.1201172,0.159668
			c-0.2861328-0.2197266-0.6064453-0.3847656-0.9599609-0.4946289c-0.3525391-0.1103516-0.7363281-0.1650391-1.1494141-0.1650391
			c-0.5410156,0-0.9853516,0.0966797-1.3359375,0.2900391c-0.3496094,0.1933594-0.609375,0.4897461-0.7792969,0.8896484
			c-0.1699219,0.4003906-0.2558594,0.9067383-0.2558594,1.5200195v4.5h-0.1992188v-4.5
			c0-0.9731445,0.2109375-1.699707,0.6347656-2.1796875S321.5752258,55.967247,322.4424133,55.967247z"/>
		<path class="st18" d="M317.7822571,56.0673447v7.2998047h-0.3105469l-4.8691406-7.0898438h-0.0205078v7.0898438h-0.2001953
			v-7.2998047h0.3105469l4.8691406,7.0898438h0.0205078v-7.0898438H317.7822571z"/>
		<path class="st18" d="M308.242218,55.967247c0.3935547,0,0.796875,0.0419922,1.2099609,0.125
			c0.4140625,0.0834961,0.7666016,0.1918945,1.0605469,0.3251953l-0.0800781,0.1796875
			c-0.1875-0.0864258-0.4023438-0.1616211-0.6455078-0.2246094c-0.2431641-0.0634766-0.4980469-0.1137695-0.7646484-0.1503906
			s-0.5273438-0.0546875-0.7802734-0.0546875c-0.7333984,0-1.2998047,0.1513672-1.7001953,0.4550781
			c-0.4003906,0.3032227-0.5996094,0.7280273-0.5996094,1.2749023c0,0.3129883,0.0615234,0.5732422,0.1855469,0.7797852
			c0.1230469,0.206543,0.2910156,0.375,0.5039062,0.5053711c0.2138672,0.1298828,0.453125,0.2382812,0.7207031,0.324707
			c0.2666016,0.0864258,0.5429688,0.1699219,0.8300781,0.25c0.2792969,0.0732422,0.5566406,0.1552734,0.8300781,0.2451172
			s0.5195312,0.203125,0.7402344,0.3398438c0.21875,0.1367188,0.3964844,0.3115234,0.5292969,0.5249023
			s0.2001953,0.4833984,0.2001953,0.8100586c0,0.5668945-0.2138672,1.0068359-0.6396484,1.3203125
			c-0.4277344,0.3129883-1.0136719,0.4697266-1.7607422,0.4697266c-0.3935547,0-0.7880859-0.0415039-1.1845703-0.125
			s-0.7246094-0.1914062-0.9853516-0.324707l0.1005859-0.1801758c0.2402344,0.1333008,0.5488281,0.2382812,0.9296875,0.3149414
			c0.3798828,0.0766602,0.7597656,0.1152344,1.1396484,0.1152344c0.7001953,0,1.2412109-0.1386719,1.625-0.4150391
			c0.3837891-0.2768555,0.5751953-0.668457,0.5751953-1.175293c0-0.2866211-0.0585938-0.5249023-0.1748047-0.7148438
			s-0.2763672-0.3466797-0.4794922-0.4702148c-0.2041016-0.1230469-0.4335938-0.2265625-0.6914062-0.3095703
			c-0.2558594-0.0834961-0.5244141-0.1621094-0.8046875-0.2353516c-0.2861328-0.0800781-0.5712891-0.1665039-0.8544922-0.2597656
			c-0.2832031-0.09375-0.5400391-0.2119141-0.7705078-0.3549805c-0.2294922-0.1435547-0.4140625-0.3300781-0.5546875-0.5600586
			s-0.2099609-0.5219727-0.2099609-0.875c0-0.6069336,0.2197266-1.0800781,0.6601562-1.4199219
			C306.842804,56.1371689,307.4560852,55.967247,308.242218,55.967247z"/>
		<path class="st18" d="M304.561554,54.3671494l-1.0898438,3h-0.2197266l1.0898438-3H304.561554z"/>
		<path class="st18" d="M298.3222961,56.26754c-0.8398438,0.6728516-1.5419922,1.2631836-2.1044922,1.7700195
			c-0.5644531,0.5063477-1.0136719,0.9580078-1.3505859,1.3549805c-0.3369141,0.3964844-0.5771484,0.7612305-0.7197266,1.0947266
			c-0.1435547,0.3334961-0.2148438,0.6601562-0.2148438,0.9799805c0,1.2001953,0.6835938,1.800293,2.0498047,1.800293
			c0.8330078,0,1.6103516-0.253418,2.3291016-0.7602539l0.1210938,0.1601562
			c-0.734375,0.5332031-1.5507812,0.7998047-2.4501953,0.7998047c-0.7402344,0-1.2998047-0.1699219-1.6806641-0.5097656
			c-0.3789062-0.340332-0.5693359-0.8369141-0.5693359-1.4902344c0-0.3334961,0.0693359-0.668457,0.2099609-1.0048828
			c0.1396484-0.3369141,0.3710938-0.7036133,0.6953125-1.1000977c0.3222656-0.3964844,0.7578125-0.8447266,1.3046875-1.3447266
			s1.2226562-1.0771484,2.0292969-1.7299805V56.26754h-4.3398438v-0.2001953h4.6904297V56.26754z"/>
		<path class="st18" d="M289.7314758,55.967247c0.8867188,0,1.5585938,0.3183594,2.015625,0.9550781
			s0.6855469,1.5683594,0.6855469,2.7949219c0,1.2333984-0.2285156,2.1665039-0.6855469,2.800293
			c-0.4570312,0.6333008-1.1289062,0.949707-2.015625,0.949707c-0.8857422,0-1.5576172-0.3164062-2.0146484-0.949707
			c-0.4560547-0.6337891-0.6845703-1.5668945-0.6845703-2.800293c0-1.2265625,0.2285156-2.1582031,0.6845703-2.7949219
			C288.1738586,56.2856064,288.8457336,55.967247,289.7314758,55.967247z M289.7314758,56.1674423
			c-0.8261719,0-1.4492188,0.2983398-1.8691406,0.8950195s-0.6308594,1.4814453-0.6308594,2.6547852
			s0.2109375,2.0585938,0.6308594,2.6552734c0.4199219,0.5961914,1.0429688,0.8950195,1.8691406,0.8950195
			c0.8271484,0,1.4511719-0.2988281,1.8710938-0.8950195c0.4199219-0.5966797,0.6289062-1.4819336,0.6289062-2.6552734
			s-0.2089844-2.0581055-0.6289062-2.6547852S290.5586243,56.1674423,289.7314758,56.1674423z"/>
		<path class="st18" d="M285.9228821,56.26754c-0.8398438,0.6728516-1.5419922,1.2631836-2.1054688,1.7700195
			c-0.5634766,0.5063477-1.0136719,0.9580078-1.3496094,1.3549805c-0.3369141,0.3964844-0.5771484,0.7612305-0.7207031,1.0947266
			c-0.1425781,0.3334961-0.2148438,0.6601562-0.2148438,0.9799805c0,1.2001953,0.6835938,1.800293,2.0507812,1.800293
			c0.8320312,0,1.609375-0.253418,2.3291016-0.7602539l0.1201172,0.1601562
			c-0.7333984,0.5332031-1.5498047,0.7998047-2.4492188,0.7998047c-0.7402344,0-1.3007812-0.1699219-1.6806641-0.5097656
			c-0.3798828-0.340332-0.5693359-0.8369141-0.5693359-1.4902344c0-0.3334961,0.0693359-0.668457,0.2089844-1.0048828
			c0.140625-0.3369141,0.3720703-0.7036133,0.6953125-1.1000977s0.7578125-0.8447266,1.3046875-1.3447266
			s1.2236328-1.0771484,2.0302734-1.7299805V56.26754h-4.3398438v-0.2001953h4.6904297V56.26754z"/>
		<path class="st18" d="M279.7217102,56.26754c-0.8398438,0.6728516-1.5410156,1.2631836-2.1044922,1.7700195
			c-0.5634766,0.5063477-1.0126953,0.9580078-1.3505859,1.3549805c-0.3359375,0.3964844-0.5761719,0.7612305-0.71875,1.0947266
			c-0.1445312,0.3334961-0.2158203,0.6601562-0.2158203,0.9799805c0,1.2001953,0.6835938,1.800293,2.0498047,1.800293
			c0.8339844,0,1.6103516-0.253418,2.3300781-0.7602539l0.1201172,0.1601562
			c-0.7333984,0.5332031-1.5498047,0.7998047-2.4501953,0.7998047c-0.7402344,0-1.2998047-0.1699219-1.6796875-0.5097656
			c-0.3798828-0.340332-0.5703125-0.8369141-0.5703125-1.4902344c0-0.3334961,0.0703125-0.668457,0.2109375-1.0048828
			c0.1386719-0.3369141,0.3710938-0.7036133,0.6943359-1.1000977s0.7587891-0.8447266,1.3056641-1.3447266
			c0.5458984-0.5,1.2226562-1.0771484,2.0292969-1.7299805V56.26754h-4.3398438v-0.2001953h4.6894531V56.26754z"/>
		<path class="st18" d="M272.6826477,56.0273056c0.09375,0,0.1738281,0.0336914,0.2402344,0.1000977
			s0.0996094,0.1464844,0.0996094,0.2397461s-0.0332031,0.1733398-0.0996094,0.2402344
			c-0.0664062,0.0664062-0.1464844,0.1000977-0.2402344,0.1000977s-0.1738281-0.0336914-0.2402344-0.1000977
			c-0.0664062-0.0668945-0.0996094-0.1469727-0.0996094-0.2402344s0.0332031-0.1733398,0.0996094-0.2397461
			S272.5888977,56.0273056,272.6826477,56.0273056z"/>
		<path class="st18" d="M269.2724915,56.0673447c-0.2597656,0.6933594-0.5283203,1.3613281-0.8046875,2.0048828
			c-0.2773438,0.6435547-0.5625,1.2602539-0.8554688,1.8500977s-0.5966797,1.1533203-0.9101562,1.6899414
			c-0.3125,0.5366211-0.6367188,1.0483398-0.9697266,1.5351562v0.0200195h4.8505859v0.199707h-5.1005859v-0.199707
			c0.2666016-0.3867188,0.5263672-0.7919922,0.7802734-1.215332c0.2529297-0.4233398,0.5019531-0.8613281,0.7441406-1.3149414
			c0.2441406-0.453125,0.4824219-0.9267578,0.7148438-1.4199219c0.234375-0.4931641,0.4609375-1.0014648,0.6806641-1.5249023
			s0.4365234-1.0649414,0.6494141-1.625H269.2724915z"/>
		<path class="st18" d="M258.8926086,55.967247c0.3935547,0,0.796875,0.0419922,1.2099609,0.125
			c0.4140625,0.0834961,0.7666016,0.1918945,1.0605469,0.3251953l-0.0800781,0.1796875
			c-0.1875-0.0864258-0.4023438-0.1616211-0.6455078-0.2246094c-0.2431641-0.0634766-0.4980469-0.1137695-0.7646484-0.1503906
			s-0.5273438-0.0546875-0.7802734-0.0546875c-0.7333984,0-1.2998047,0.1513672-1.7001953,0.4550781
			c-0.4003906,0.3032227-0.5996094,0.7280273-0.5996094,1.2749023c0,0.3129883,0.0615234,0.5732422,0.1855469,0.7797852
			c0.1230469,0.206543,0.2910156,0.375,0.5039062,0.5053711c0.2138672,0.1298828,0.453125,0.2382812,0.7207031,0.324707
			c0.2666016,0.0864258,0.5429688,0.1699219,0.8300781,0.25c0.2792969,0.0732422,0.5566406,0.1552734,0.8300781,0.2451172
			s0.5195312,0.203125,0.7402344,0.3398438c0.21875,0.1367188,0.3964844,0.3115234,0.5292969,0.5249023
			s0.2001953,0.4833984,0.2001953,0.8100586c0,0.5668945-0.2138672,1.0068359-0.6396484,1.3203125
			c-0.4277344,0.3129883-1.0136719,0.4697266-1.7607422,0.4697266c-0.3935547,0-0.7880859-0.0415039-1.1845703-0.125
			s-0.7246094-0.1914062-0.9853516-0.324707l0.1005859-0.1801758c0.2402344,0.1333008,0.5488281,0.2382812,0.9296875,0.3149414
			c0.3798828,0.0766602,0.7597656,0.1152344,1.1396484,0.1152344c0.7001953,0,1.2412109-0.1386719,1.625-0.4150391
			c0.3837891-0.2768555,0.5751953-0.668457,0.5751953-1.175293c0-0.2866211-0.0585938-0.5249023-0.1748047-0.7148438
			s-0.2763672-0.3466797-0.4794922-0.4702148c-0.2041016-0.1230469-0.4335938-0.2265625-0.6914062-0.3095703
			c-0.2558594-0.0834961-0.5244141-0.1621094-0.8046875-0.2353516c-0.2861328-0.0800781-0.5712891-0.1665039-0.8544922-0.2597656
			c-0.2832031-0.09375-0.5400391-0.2119141-0.7705078-0.3549805c-0.2294922-0.1435547-0.4140625-0.3300781-0.5546875-0.5600586
			s-0.2099609-0.5219727-0.2099609-0.875c0-0.6069336,0.2197266-1.0800781,0.6601562-1.4199219
			C257.4931946,56.1371689,258.1064758,55.967247,258.8926086,55.967247z"/>
		<path class="st18" d="M248.3721008,55.967247c0.734375,0,1.3789062,0.1582031,1.9355469,0.4750977
			c0.5566406,0.3164062,0.9902344,0.7563477,1.2998047,1.3198242s0.4658203,1.215332,0.4658203,1.9550781
			c0,0.746582-0.15625,1.3999023-0.4658203,1.9599609s-0.7431641,0.9985352-1.2998047,1.3149414
			c-0.5566406,0.3168945-1.2011719,0.4750977-1.9355469,0.4750977c-0.7324219,0-1.3779297-0.1582031-1.9345703-0.4750977
			c-0.5566406-0.3164062-0.9892578-0.7548828-1.2998047-1.3149414s-0.4648438-1.2133789-0.4648438-1.9599609
			c0-0.7397461,0.1542969-1.3916016,0.4648438-1.9550781s0.7431641-1.003418,1.2998047-1.3198242
			C246.9941711,56.1254501,247.639679,55.967247,248.3721008,55.967247z M248.3721008,56.1674423
			c-0.6992188,0-1.3105469,0.1479492-1.8339844,0.4448242s-0.9316406,0.7114258-1.2255859,1.2451172
			c-0.2939453,0.5332031-0.4404297,1.1533203-0.4404297,1.8598633s0.1464844,1.3266602,0.4404297,1.8598633
			c0.2939453,0.5336914,0.7021484,0.9487305,1.2255859,1.2451172c0.5234375,0.296875,1.1347656,0.4453125,1.8339844,0.4453125
			c0.6933594,0,1.3037109-0.1484375,1.8300781-0.4453125c0.5273438-0.2963867,0.9375-0.7114258,1.2304688-1.2451172
			c0.2929688-0.5332031,0.4394531-1.1533203,0.4394531-1.8598633s-0.1464844-1.3266602-0.4394531-1.8598633
			c-0.2929688-0.5336914-0.703125-0.9482422-1.2304688-1.2451172
			C249.6758118,56.3153915,249.0654602,56.1674423,248.3721008,56.1674423z"/>
		<path class="st18" d="M244.3135071,54.3671494l-1.0908203,3h-0.2197266l1.0898438-3H244.3135071z"/>
		<path class="st18" d="M238.0732727,56.26754c-0.8398438,0.6728516-1.5419922,1.2631836-2.1054688,1.7700195
			c-0.5634766,0.5063477-1.0136719,0.9580078-1.3496094,1.3549805c-0.3369141,0.3964844-0.5771484,0.7612305-0.7207031,1.0947266
			c-0.1425781,0.3334961-0.2148438,0.6601562-0.2148438,0.9799805c0,1.2001953,0.6835938,1.800293,2.0507812,1.800293
			c0.8320312,0,1.609375-0.253418,2.3291016-0.7602539l0.1201172,0.1601562
			c-0.7333984,0.5332031-1.5498047,0.7998047-2.4492188,0.7998047c-0.7402344,0-1.3007812-0.1699219-1.6806641-0.5097656
			c-0.3798828-0.340332-0.5693359-0.8369141-0.5693359-1.4902344c0-0.3334961,0.0693359-0.668457,0.2089844-1.0048828
			c0.140625-0.3369141,0.3720703-0.7036133,0.6953125-1.1000977s0.7578125-0.8447266,1.3046875-1.3447266
			s1.2236328-1.0771484,2.0302734-1.7299805V56.26754h-4.3398438v-0.2001953h4.6904297V56.26754z"/>
		<path class="st18" d="M229.483429,55.967247c0.8867188,0,1.5585938,0.3183594,2.0146484,0.9550781
			s0.6845703,1.5683594,0.6845703,2.7949219c0,1.2333984-0.2285156,2.1665039-0.6845703,2.800293
			c-0.4560547,0.6333008-1.1279297,0.949707-2.0146484,0.949707s-1.5585938-0.3164062-2.015625-0.949707
			c-0.4570312-0.6337891-0.6845703-1.5668945-0.6845703-2.800293c0-1.2265625,0.2275391-2.1582031,0.6845703-2.7949219
			S228.5967102,55.967247,229.483429,55.967247z M229.483429,56.1674423c-0.8271484,0-1.4501953,0.2983398-1.8710938,0.8950195
			c-0.4199219,0.5966797-0.6289062,1.4814453-0.6289062,2.6547852s0.2089844,2.0585938,0.6289062,2.6552734
			c0.4208984,0.5961914,1.0439453,0.8950195,1.8710938,0.8950195c0.8261719,0,1.4492188-0.2988281,1.8691406-0.8950195
			c0.4199219-0.5966797,0.6308594-1.4819336,0.6308594-2.6552734s-0.2109375-2.0581055-0.6308594-2.6547852
			S230.3096008,56.1674423,229.483429,56.1674423z"/>
		<path class="st18" d="M225.6728821,56.26754c-0.8398438,0.6728516-1.5410156,1.2631836-2.1054688,1.7700195
			c-0.5625,0.5063477-1.0126953,0.9580078-1.3496094,1.3549805c-0.3359375,0.3964844-0.5761719,0.7612305-0.7197266,1.0947266
			s-0.2158203,0.6601562-0.2158203,0.9799805c0,1.2001953,0.6835938,1.800293,2.0507812,1.800293
			c0.8330078,0,1.609375-0.253418,2.3300781-0.7602539l0.1191406,0.1601562
			c-0.7324219,0.5332031-1.5488281,0.7998047-2.4492188,0.7998047c-0.7402344,0-1.3007812-0.1699219-1.6796875-0.5097656
			c-0.3808594-0.340332-0.5703125-0.8369141-0.5703125-1.4902344c0-0.3334961,0.0703125-0.668457,0.2099609-1.0048828
			c0.1396484-0.3369141,0.3720703-0.7036133,0.6943359-1.1000977c0.3242188-0.3964844,0.7587891-0.8447266,1.3056641-1.3447266
			c0.5458984-0.5,1.2236328-1.0771484,2.0302734-1.7299805V56.26754h-4.3398438v-0.2001953h4.6894531V56.26754z"/>
		<path class="st18" d="M219.4736633,56.26754c-0.8398438,0.6728516-1.5419922,1.2631836-2.1054688,1.7700195
			c-0.5634766,0.5063477-1.0136719,0.9580078-1.3496094,1.3549805c-0.3369141,0.3964844-0.5771484,0.7612305-0.7207031,1.0947266
			c-0.1425781,0.3334961-0.2148438,0.6601562-0.2148438,0.9799805c0,1.2001953,0.6835938,1.800293,2.0507812,1.800293
			c0.8320312,0,1.609375-0.253418,2.3291016-0.7602539l0.1201172,0.1601562
			c-0.7333984,0.5332031-1.5498047,0.7998047-2.4492188,0.7998047c-0.7402344,0-1.3007812-0.1699219-1.6806641-0.5097656
			c-0.3798828-0.340332-0.5693359-0.8369141-0.5693359-1.4902344c0-0.3334961,0.0693359-0.668457,0.2089844-1.0048828
			c0.140625-0.3369141,0.3720703-0.7036133,0.6953125-1.1000977s0.7578125-0.8447266,1.3046875-1.3447266
			s1.2236328-1.0771484,2.0302734-1.7299805V56.26754h-4.3398438v-0.2001953h4.6904297V56.26754z"/>
		<path class="st18" d="M212.4326477,56.0273056c0.09375,0,0.1738281,0.0336914,0.2402344,0.1000977
			s0.0996094,0.1464844,0.0996094,0.2397461s-0.0332031,0.1733398-0.0996094,0.2402344
			c-0.0664062,0.0664062-0.1464844,0.1000977-0.2402344,0.1000977c-0.0927734,0-0.1728516-0.0336914-0.2402344-0.1000977
			c-0.0664062-0.0668945-0.0996094-0.1469727-0.0996094-0.2402344s0.0332031-0.1733398,0.0996094-0.2397461
			C212.2597961,56.060997,212.3398743,56.0273056,212.4326477,56.0273056z"/>
		<path class="st18" d="M207.7822571,55.967247c0.5605469,0,1.0449219,0.0820312,1.4550781,0.2451172
			s0.7285156,0.3950195,0.9550781,0.6948242c0.2265625,0.300293,0.3398438,0.6533203,0.3398438,1.0600586
			c0,0.5131836-0.1826172,0.9365234-0.5488281,1.2700195c-0.3671875,0.3334961-0.9140625,0.5766602-1.640625,0.7299805v0.0200195
			c0.5800781,0.1464844,1.0371094,0.3818359,1.3701172,0.7050781s0.5,0.6982422,0.5,1.125
			c0,0.3398438-0.1005859,0.6333008-0.2998047,0.8798828c-0.2001953,0.246582-0.4833984,0.4365234-0.8496094,0.5703125
			c-0.3671875,0.1333008-0.7939453,0.199707-1.28125,0.199707c-0.4921875,0-0.9208984-0.0664062-1.2841797-0.199707
			c-0.3632812-0.1337891-0.6474609-0.3237305-0.8505859-0.5703125s-0.3046875-0.5400391-0.3046875-0.8798828
			c0-0.4335938,0.1679688-0.8100586,0.5048828-1.1298828c0.3369141-0.3203125,0.7919922-0.5537109,1.3652344-0.7001953V59.967247
			c-1.453125-0.3134766-2.1806641-0.9799805-2.1806641-2c0-0.4067383,0.1123047-0.7597656,0.3359375-1.0600586
			c0.2226562-0.2998047,0.5410156-0.5317383,0.9550781-0.6948242
			C206.7363586,56.0492783,207.2226868,55.967247,207.7822571,55.967247z M207.7822571,56.1674423
			c-0.7861328,0-1.4082031,0.1616211-1.8642578,0.4848633s-0.6845703,0.7617188-0.6845703,1.3149414
			c0,0.5200195,0.2109375,0.9399414,0.6347656,1.2602539c0.4228516,0.3198242,1.0615234,0.5332031,1.9140625,0.6396484
			c1.7011719-0.2265625,2.5507812-0.8598633,2.5507812-1.8999023c0-0.5532227-0.2285156-0.9916992-0.6855469-1.3149414
			C209.1914368,56.3290634,208.5693665,56.1674423,207.7822571,56.1674423z M207.7822571,60.0673447
			c-0.6728516,0.0864258-1.2148438,0.2880859-1.625,0.6049805c-0.4091797,0.3164062-0.6142578,0.6982422-0.6142578,1.1450195
			s0.2001953,0.7998047,0.5996094,1.0600586c0.4003906,0.2597656,0.9462891,0.3901367,1.6396484,0.3901367
			c0.6875,0,1.2304688-0.1303711,1.6308594-0.3901367c0.4003906-0.2602539,0.5996094-0.6132812,0.5996094-1.0600586
			s-0.2011719-0.8266602-0.6054688-1.1401367C209.0049133,60.3637314,208.4629211,60.1606064,207.7822571,60.0673447z"/>
		<path class="st18" d="M198.4531555,56.0673447v7.1000977h2.8994141v0.199707h-6v-0.199707h2.9003906v-7.1000977H198.4531555z"/>
		<path class="st18" d="M193.9638977,55.967247c0.8789062,0,1.6230469,0.2333984,2.2294922,0.7001953l-0.1201172,0.159668
			c-0.2861328-0.2197266-0.6064453-0.3847656-0.9599609-0.4946289c-0.3525391-0.1103516-0.7363281-0.1650391-1.1494141-0.1650391
			c-0.5410156,0-0.9853516,0.0966797-1.3359375,0.2900391c-0.3496094,0.1933594-0.609375,0.4897461-0.7792969,0.8896484
			c-0.1699219,0.4003906-0.2558594,0.9067383-0.2558594,1.5200195v4.5h-0.1992188v-4.5
			c0-0.9731445,0.2109375-1.699707,0.6347656-2.1796875S193.0967102,55.967247,193.9638977,55.967247z"/>
		<path class="st18" d="M189.3037415,56.0673447v7.2998047h-0.2001953v-3.2597656h-0.0205078l-4.7402344,3.2597656h-0.3398438
			l4.9404297-3.3999023l-5.0400391-3.8999023h0.3203125l4.859375,3.7597656h0.0205078v-3.7597656H189.3037415z"/>
	</g>
</g>
</svg>
